<svg id="Camada_1" data-name="Camada 1" xmlns="http://www.w3.org/2000/svg" viewBox="0 0 700.91 697.83"><defs><style>.cls-1{fill:#dadada;}.cls-2{fill:#afbea5;}.cls-3{fill:#fff;}.cls-4{fill:none;}</style></defs><path class="cls-1" d="M688.18,192.29c-4.07-2.85-14.64,0-27.64-4.88S632.48,165.87,624,155.3c-8.15-10.1-33.37-9.81-44.12-9.4l-1.41,0c-9.76.4-19.11-5.7-27.65-8.95a15.45,15.45,0,0,0-6.73-1.2c-3.42.18-5.5,1.59-9.53,0-6.1-2.44-5.28-8.54-8.54-13.41s-10.16-2-19.92-5.29-26.83-11-32.93-11.79-11.38,3.25-13.41.82-2-2.85-6.1-8.54c-6.5,0-18.29-6.91-22.36-11.79s3.25-17.08-1.22-24-9.35-1.62-14.63-6.09-5.7-39.44-12.2-39.44-20.33,33.34-26,38.22-38.62-3.66-48.78-2.85-5.69,5.69-8.13,8.94-5.69.82-15.45,1.22S287.74,70.74,278,70.74s-18.3-6.1-22.77-17.48.41-19.92,2.44-27.24-3.66-11.38-6.5-12.6S252,0,246.28,0s-8.54,5.28-11,9.76-8.13,7.72-17.07,7.72-13.82,6.91-21.14,7.73S166.19,15,162.94,18.7s6.5,8.13,8.94,11,3.25,9.35,3.66,14.63,7.73,4.47,7.32,9.76-7.32,6.5-15,15-20.74,13-33.75,9.76S120.25,56.51,116.59,56.1s-7.31,4.07-17.07,10.16-15.86-1.21-22.77-.81S70.66,71.55,71.88,76s12.19,2.85,11.78,7.32-11.78,0-15,7.72,7.32,16.67,8.54,22-4.07,49.59-5.69,58.13-6.1,3.66-9.76,2.85-2.84-.82-21.14,7.31-17.48,13-22.36,21.55-2.44,12.2-3.25,17.07S3.17,222.78.33,233.76s13.82,26.83,17.07,35,6.1,7.72,13,8.94,2.84,8.95,8.94,9.35,16.26-9.75,21.55-7.72-1.63,18.7,4.88,21.54,6.1-.81,16.67-1.21,14.22,1.21,21.54,0,15.45-9.36,21.55-15.86,9.75-5.28,15.45-5.69,10.16-5.69,13.82-2.85-2.85,18.3,7.32,34.15,21.54,13,29.67,13.42S200.34,326,210.1,333s18.7,4.88,27.64,6.91S247.9,374,251.16,383.77c2.76,8.29,10.52,5.43,18.26,4.89a23.4,23.4,0,0,1,4.1,0c8.94.81,5.28,8.53,14.22,22.36s4.88,19.51,1.22,28.05-1.62,20.73.82,33.74a42.36,42.36,0,0,0,4.47,12.78c3.41,6.26,8.13,10.44,13,11.2,7.72,1.22,8.54-6.09,14.23-4.47,2.57.73,4.81,5.3,6.79,10.77,2.41,6.6,4.44,14.5,6.22,18.5,3.25,7.32,14.63,6.51,17.88,11.79s-1.22,14.64-.4,19.11,3.25,14.23,4.47,21.55c1,6.24-13.92,14.57-21.35,19.92,5.38.65,10.75,2.16,14,5.28,8.54,8.13,17.08,7.72,13.82,14.64s-10.57,1.22-13.41,6.5,19.51,9.35,34.55,8.13c13.78-1.12,26.53-6,38.87,3.82,10.49-14.21,20.13-28.63,22.52-32.68,5.28-8.95-.81-21.55,1.22-31.31s26.83-30.49,40.25-38.21,49.59-9.76,65.45-19.11,43.5-50,50.81-65.45,17.89-90.66,22-98,15.85-9.76,21.54-16.67,7.73-23.17,13.83-30.49,10.16-8.95,17.88-16.67,14.23-11,20.74-33.34c5-17-1.68-40.27-6.9-51.58C690.64,195.33,689.14,193,688.18,192.29Z"/><path class="cls-2" d="M423,632.32c-12.69,17.22-20.91,19.5-24.64,17.32-4.88-2.85,3.66,2.85,0,0s-11,9.76-15,20.73-9.76,29.68-13,27.24,6.1-18.29-3.25-24-44.31-27.24-49.19-32.12-12.2-1.22-15.45-4.07,5.28-7.72,8.94-13,15.86-23.18,20.74-28.06a24.25,24.25,0,0,1,3-2.43c5.38.65,10.75,2.16,14,5.28,8.54,8.13,17.08,7.72,13.82,14.64s-10.57,1.22-13.41,6.5,19.51,9.35,34.55,8.13C397.87,627.38,410.62,622.52,423,632.32Z"/><path class="cls-3" d="M630,236.73a.63.63,0,0,1-.45-.18.6.6,0,0,1,0-.82h0l0,0h0l.08-.08a.63.63,0,0,1,.88,0,.62.62,0,0,1,0,.88h0l-.42-.46.42.46,0,0h0A.7.7,0,0,1,630,236.73Z"/><path class="cls-3" d="M628,238.55a.64.64,0,0,1-.47-.21.62.62,0,0,1,.05-.88l.42-.39a.63.63,0,0,1,.89.05.62.62,0,0,1,0,.88l-.43.39A.64.64,0,0,1,628,238.55Z"/><path class="cls-3" d="M628.46,238.14a.62.62,0,0,1-.44-1l.07,0-.06-.06a.66.66,0,0,1,.91,0,.58.58,0,0,1,0,.85h0l-.42-.46.42.46,0,0h0A.7.7,0,0,1,628.46,238.14Z"/><path class="cls-3" d="M630.06,236.68a.62.62,0,0,1-.46-.19.64.64,0,0,1,0-.89l.49-.46.29-.28.08-.08h0a.63.63,0,0,1,.89,0,.62.62,0,0,1,0,.88h0L631,236l-.5.47A.62.62,0,0,1,630.06,236.68Z"/><path class="cls-3" d="M628.52,238.1a.63.63,0,0,1-.42-1.09h0c.38-.34.88-.79,1.42-1.3l0,0h0a.62.62,0,0,1,.88,0,.63.63,0,0,1,0,.88h0v0l-1.45,1.33h0A.61.61,0,0,1,628.52,238.1Z"/><path class="cls-3" d="M628.39,238.43l-.85-.91.05,0,0-.05a.66.66,0,0,1,.91,0,.59.59,0,0,1,0,.85Zm-.36-.51.41.48Z"/><path class="cls-3" d="M412.19,447.91h-.13a.61.61,0,0,1-.48-.74c.05-.27.11-.53.16-.78.09-.43.17-.83.25-1.19h0a.63.63,0,0,1,.74-.48.61.61,0,0,1,.48.74h0c-.07.36-.16.76-.25,1.18,0,.25-.1.51-.16.78A.62.62,0,0,1,412.19,447.91Z"/><path class="cls-3" d="M627.83,238.72a.64.64,0,0,1-.47-.21.63.63,0,0,1,0-.88l.13-.11a.62.62,0,1,1,.83.93l-.12.11A.61.61,0,0,1,627.83,238.72Z"/><path class="cls-3" d="M600.7,230.77a.62.62,0,0,1-.09-1.24c.67-.1,1.34-.18,2-.24a.63.63,0,0,1,.68.57.62.62,0,0,1-.57.67q-1,.09-2,.24Z"/><path class="cls-3" d="M621.58,234.07a.59.59,0,0,1-.29-.07,31.16,31.16,0,0,0-3.48-1.55.62.62,0,1,1,.43-1.17,30.31,30.31,0,0,1,3.63,1.61.62.62,0,0,1,.26.84A.6.6,0,0,1,621.58,234.07ZM612.39,231h-.11a34,34,0,0,0-3.8-.48.62.62,0,0,1-.58-.66.6.6,0,0,1,.67-.58,33.75,33.75,0,0,1,3.93.49.62.62,0,0,1,.51.72A.64.64,0,0,1,612.39,231Z"/><path class="cls-3" d="M628,238.61a.65.65,0,0,1-.43-.17c-.45-.44-.95-.87-1.46-1.29a.63.63,0,0,1,.8-1c.41.34.81.69,1.19,1a9,9,0,0,0,1.21-.79.62.62,0,0,1,.88.1.63.63,0,0,1-.11.88,11.63,11.63,0,0,1-1.79,1.13A.59.59,0,0,1,628,238.61Z"/><path class="cls-3" d="M632.16,233.74H632a.64.64,0,0,1-.47-.75,6.52,6.52,0,0,0,.17-1.55,8.72,8.72,0,0,0-.1-1.31.63.63,0,1,1,1.24-.17,9.57,9.57,0,0,1,.11,1.48,7.78,7.78,0,0,1-.2,1.83A.61.61,0,0,1,632.16,233.74Z"/><path class="cls-3" d="M630.9,226.22a.62.62,0,0,1-.58-.38c-.25-.6-.53-1.19-.82-1.79a.62.62,0,0,1,0-.59c.31-.52.74-1.12,1.16-1.7a.63.63,0,0,1,.88-.13.61.61,0,0,1,.13.87c-.31.43-.65.9-.92,1.32.25.5.48,1,.7,1.53a.62.62,0,0,1-.33.82A.52.52,0,0,1,630.9,226.22Z"/><path class="cls-3" d="M633.8,219.12a.64.64,0,0,1-.35-.1.63.63,0,0,1-.17-.87,24.92,24.92,0,0,0,1.47-2.5.61.61,0,0,1,.83-.28.63.63,0,0,1,.29.84,25.7,25.7,0,0,1-1.55,2.63A.63.63,0,0,1,633.8,219.12Z"/><path class="cls-3" d="M636.31,212.25a.61.61,0,0,1-.61-.54,3,3,0,0,0-.66-1.49.62.62,0,0,1-.1-.64.61.61,0,0,1,.54-.38,7.18,7.18,0,0,0,1.8-.35.63.63,0,1,1,.39,1.19,7.7,7.7,0,0,1-1.1.28,4.2,4.2,0,0,1,.36,1.22.61.61,0,0,1-.53.7Z"/><path class="cls-3" d="M641.68,206.87a.62.62,0,0,1-.5-1,18.84,18.84,0,0,0,1.82-2.93.62.62,0,1,1,1.11.57,20.18,20.18,0,0,1-1.94,3.13A.62.62,0,0,1,641.68,206.87Zm4-7.93a.64.64,0,0,1-.23-.05.62.62,0,0,1-.35-.81l.62-1.6c.23-.58.45-1.16.68-1.73a.62.62,0,0,1,1.16.46c-.23.57-.45,1.14-.67,1.72l-.63,1.61A.61.61,0,0,1,645.71,198.94Zm3.46-8.24a.59.59,0,0,1-.29-.07.62.62,0,0,1-.27-.84,20.05,20.05,0,0,1,2-3.12.63.63,0,0,1,.88-.11.62.62,0,0,1,.1.88,19.4,19.4,0,0,0-1.83,2.93A.62.62,0,0,1,649.17,190.7Z"/><path class="cls-3" d="M655.4,184.91a.64.64,0,0,1-.58-.38.74.74,0,0,1-.05-.29.89.89,0,0,1-.08-.17.61.61,0,0,1,.39-.79,8.21,8.21,0,0,1,2.12-.41.6.6,0,0,1,.64.48.62.62,0,0,1-.36.72l-1.84.79A.69.69,0,0,1,655.4,184.91Z"/><path class="cls-3" d="M651.58,186.55a.62.62,0,0,1-.25-1.2l.95-.41h0a.63.63,0,0,1,.48,1.16l-.56.24-.4.17h0A.52.52,0,0,1,651.58,186.55Z"/><path class="cls-3" d="M655.4,184.91a.63.63,0,0,1-.25-1.2l1.84-.79a.62.62,0,0,1,.82.32.64.64,0,0,1-.32.83l-1.84.79A.74.74,0,0,1,655.4,184.91Z"/><path class="cls-3" d="M699.16,215.48a.76.76,0,0,1-.26-.06l-1.16,0a.63.63,0,0,1-.63-.63.64.64,0,0,1,.63-.62h0c2.14,0,2.32,0,2.33.66s-.64.65-.88.66Z"/><path class="cls-3" d="M693.09,215.49h0c-1.25,0-2.62-.05-4.05-.1a.63.63,0,0,1,0-1.25h0c1.42.05,2.79.08,4,.1a.63.63,0,0,1,.62.63A.63.63,0,0,1,693.09,215.49ZM683,215.06h0c-1.48-.11-2.84-.24-4.05-.38a.62.62,0,1,1,.15-1.24c1.19.14,2.53.27,4,.38a.61.61,0,0,1,.58.67A.62.62,0,0,1,683,215.06Z"/><path class="cls-3" d="M672.1,214.29a.63.63,0,0,1-.6-.44c-.17-.54-.39-1.14-.67-1.84a.63.63,0,0,1,.33-.8.62.62,0,0,1,.81.29c0,.09.27.41,1.29.79a.61.61,0,0,1,.37.8.63.63,0,0,1-.8.37l-.16-.06,0,.07a.64.64,0,0,1-.41.79A.63.63,0,0,1,672.1,214.29Z"/><path class="cls-3" d="M671.69,220.05a.57.57,0,0,1-.41-.16.62.62,0,0,1-.06-.88,3.18,3.18,0,0,0,.8-1.84.6.6,0,0,1,.69-.55.62.62,0,0,1,.55.69,4.41,4.41,0,0,1-1.1,2.52A.62.62,0,0,1,671.69,220.05Z"/><path class="cls-3" d="M666.78,222.69a.63.63,0,0,1-.33-.09.65.65,0,0,1-.29-.43,4.28,4.28,0,0,0-.59-1.64.63.63,0,1,1,1.06-.68,5.23,5.23,0,0,1,.6,1.4c.43-.15.82-.3,1.19-.45a.61.61,0,0,1,.81.33.62.62,0,0,1-.33.82c-.57.24-1.2.47-1.93.71A.63.63,0,0,1,666.78,222.69Z"/><path class="cls-3" d="M658.34,222.69a.57.57,0,0,1-.18,0,8.48,8.48,0,0,1-2-.85.63.63,0,0,1,.66-1.07,6.13,6.13,0,0,0,1.23.58,7.71,7.71,0,0,1,1.1-1.27.63.63,0,0,1,.88,0,.64.64,0,0,1,0,.89,6.09,6.09,0,0,0-1.14,1.41A.61.61,0,0,1,658.34,222.69Z"/><path class="cls-3" d="M655.43,217.15a.75.75,0,0,1-.26-.05.64.64,0,0,1-.32-.83,18.66,18.66,0,0,1,1.95-3.2.61.61,0,0,1,.87-.13.62.62,0,0,1,.14.87,16.62,16.62,0,0,0-1.81,3A.64.64,0,0,1,655.43,217.15Z"/><path class="cls-3" d="M660.58,209.73a.69.69,0,0,1-.36-.11.63.63,0,0,1-.16-.87c.24-.34.43-.64.59-.92a9.81,9.81,0,0,0-1.09-.1.64.64,0,0,1-.6-.65.62.62,0,0,1,.65-.6,11.94,11.94,0,0,1,2.1.28.65.65,0,0,1,.41.32.67.67,0,0,1,0,.52,9.42,9.42,0,0,1-1.06,1.86A.6.6,0,0,1,660.58,209.73Z"/><path class="cls-3" d="M642.89,215.65a7.24,7.24,0,0,1-1.46-.15.63.63,0,0,1,.25-1.23,6.33,6.33,0,0,0,2.67,0l.47-.57a.63.63,0,0,1,.88-.06.62.62,0,0,1,.06.88c-.2.23-.39.46-.56.68a.61.61,0,0,1-.33.22A7.5,7.5,0,0,1,642.89,215.65Zm7.06-4.93a.62.62,0,0,1-.53-.29.63.63,0,0,1,.19-.86,21.86,21.86,0,0,1,3.75-1.93.62.62,0,0,1,.81.35.63.63,0,0,1-.35.82,20.33,20.33,0,0,0-3.53,1.81A.61.61,0,0,1,650,210.72Z"/><path class="cls-3" d="M636.31,212.25a.64.64,0,0,1-.62-.54,4.1,4.1,0,0,0-.1-.48,11.5,11.5,0,0,1-.64-1.14.62.62,0,0,1,.23-.79.63.63,0,0,1,.82.12,4,4,0,0,1,.72,1.27l.33.47a.61.61,0,0,1-.13.87.68.68,0,0,1-.26.12.62.62,0,0,1-.26.09Z"/><path class="cls-3" d="M641.31,235.75h-.06a14.67,14.67,0,0,1-4.22-1,.63.63,0,0,1,.49-1.16,12.87,12.87,0,0,0,3.85.94.63.63,0,0,1-.06,1.25Zm6.23-.41a.62.62,0,0,1-.61-.5.63.63,0,0,1,.49-.74,31.92,31.92,0,0,0,3.94-1.08.62.62,0,0,1,.41,1.18,33,33,0,0,1-4.11,1.13Zm-15-4.49a.64.64,0,0,1-.52-.27,15.14,15.14,0,0,1-1.87-3.92.61.61,0,0,1,.4-.78.62.62,0,0,1,.79.4,13.88,13.88,0,0,0,1.71,3.59.63.63,0,0,1-.16.87A.66.66,0,0,1,632.51,230.85Zm-.42-9.29a.63.63,0,0,1-.51-1c.79-1.06,1.61-2.21,2.33-3.4a.63.63,0,1,1,1.07.65c-.74,1.23-1.59,2.4-2.39,3.49A.6.6,0,0,1,632.09,221.56Z"/><path class="cls-3" d="M660.26,232.35a.63.63,0,0,1-.6-.46,2.09,2.09,0,0,0-.64-1c-.46.26-.93.52-1.4.76a.62.62,0,1,1-.58-1.1c.59-.31,1.16-.63,1.73-1a.64.64,0,0,1,.69,0,3.61,3.61,0,0,1,1.4,1.91.63.63,0,0,1-.43.77A.51.51,0,0,1,660.26,232.35Z"/><path class="cls-3" d="M657.7,241.3a.63.63,0,0,1-.53-.28c-.34-.52-.69-1.11-1-1.76a.64.64,0,0,1,0-.64c.3-.48.72-1,1.17-1.61a.66.66,0,0,1,.9-.14.6.6,0,0,1,.13.85l0,.06c-.33.43-.65.84-.9,1.2.28.5.55,1,.82,1.35a.63.63,0,0,1-.18.87A.63.63,0,0,1,657.7,241.3Z"/><path class="cls-3" d="M662.89,245.21a4,4,0,0,1-.84-.09.62.62,0,1,1,.24-1.22,4.48,4.48,0,0,0,3.32-.94.63.63,0,0,1,.87.18.62.62,0,0,1-.18.86A6.21,6.21,0,0,1,662.89,245.21Zm7.61-5.07a.63.63,0,0,1-.43-1.08c1.1-1.05,2-1.91,3-2.73a.63.63,0,1,1,.78,1c-1,.78-1.88,1.63-3,2.65A.6.6,0,0,1,670.5,240.14Zm8.84-3.2a.62.62,0,0,1-.62-.56.64.64,0,0,1,.56-.69,21.33,21.33,0,0,0,3.84-.74.63.63,0,0,1,.77.43.62.62,0,0,1-.43.77,22.75,22.75,0,0,1-4.06.79Zm9.54-3a.63.63,0,0,1-.27-1.19l.43-.21a33.87,33.87,0,0,1,3.31-1.47.63.63,0,1,1,.42,1.18,32.27,32.27,0,0,0-3.19,1.42l-.42.2A.55.55,0,0,1,688.88,233.92Z"/><path class="cls-3" d="M699.87,234.09a.62.62,0,0,1-.44-.18A9.49,9.49,0,0,0,698,232.7a.63.63,0,0,1-.17-.87.64.64,0,0,1,.87-.17,11.46,11.46,0,0,1,1.62,1.37.63.63,0,0,1-.45,1.06Z"/><path class="cls-3" d="M412.68,445.6h-.14a.64.64,0,0,1-.48-.75l.08-.35a.62.62,0,1,1,1.22.27l-.07.35A.64.64,0,0,1,412.68,445.6Z"/><path class="cls-3" d="M630.93,235.84a.63.63,0,0,1-.41-.15.62.62,0,0,1-.07-.87l.33.25-.29-.29a.64.64,0,0,1,.89,0,.62.62,0,0,1,0,.87A.63.63,0,0,1,630.93,235.84Z"/><path class="cls-3" d="M633.29,233.35a.61.61,0,0,1-.42-.16l-.08-.08a.76.76,0,0,1-.09-.18.66.66,0,0,1,0-.37.65.65,0,0,1,.24-.34.55.55,0,0,1,.35-.12h0a.59.59,0,0,1,.39.16l.07.06h0a.71.71,0,0,1,.14.32v.13a.63.63,0,0,1-.17.38h0A.62.62,0,0,1,633.29,233.35Z"/><path class="cls-3" d="M631,235.83a.6.6,0,0,1-.45-.19.62.62,0,0,1,0-.88h0c.64-.62,1.19-1.19,1.64-1.67a.62.62,0,1,1,.92.84c-.45.5-1,1.08-1.69,1.72A.61.61,0,0,1,631,235.83Z"/><path class="cls-3" d="M632.67,234.07a.63.63,0,0,1-.47-1c.23-.25.43-.48.59-.69h0a.62.62,0,0,1,.88-.1.6.6,0,0,1,.24.49.56.56,0,0,1-.14.38h0c-.18.23-.4.48-.64.75A.65.65,0,0,1,632.67,234.07Z"/><path class="cls-3" d="M632.61,234.13a.61.61,0,0,1-.42-.16.59.59,0,0,1-.2-.46.61.61,0,0,1,.16-.42.64.64,0,0,1,1.13.4.59.59,0,0,1-.15.38l-.06.06A.63.63,0,0,1,632.61,234.13Z"/><path class="cls-3" d="M575.73,151.5a.65.65,0,0,1-.61-.5,7,7,0,0,0-.62-1.73.62.62,0,1,1,1.11-.56,8.66,8.66,0,0,1,.74,2,.63.63,0,0,1-.49.74Z"/><path class="cls-3" d="M556.86,186.52a.63.63,0,0,1-.62-.51,38.56,38.56,0,0,1-.56-4.41.63.63,0,1,1,1.25-.08,36,36,0,0,0,.54,4.26.63.63,0,0,1-.5.73Zm-.16-10.86-.13,0a.63.63,0,0,1-.48-.74,17.53,17.53,0,0,1,1.5-4.27.62.62,0,0,1,1.11.57,16,16,0,0,0-1.38,4A.64.64,0,0,1,556.7,175.66Zm3.92-10a.67.67,0,0,1-.4-.14.64.64,0,0,1-.09-.88,14.15,14.15,0,0,1,3.51-2.91.62.62,0,1,1,.67,1.05,13.15,13.15,0,0,0-3.21,2.65A.62.62,0,0,1,560.62,165.66Zm9.07-6a.61.61,0,0,1-.54-.31.63.63,0,0,1,.23-.86,22.92,22.92,0,0,0,3.53-2.36.63.63,0,0,1,.88.07.61.61,0,0,1-.07.88,23.43,23.43,0,0,1-3.72,2.5A.6.6,0,0,1,569.69,159.65Z"/><path class="cls-3" d="M557.81,196.3a.58.58,0,0,1-.37-.13.62.62,0,0,1-.13-.87,14.32,14.32,0,0,1,1.1-1.3c-.18-.51-.35-1-.52-1.55a.62.62,0,0,1,.41-.78.61.61,0,0,1,.78.4c.21.65.42,1.27.63,1.88a.64.64,0,0,1-.14.65,12.69,12.69,0,0,0-1.25,1.45A.66.66,0,0,1,557.81,196.3Z"/><path class="cls-3" d="M557.4,213.68a.62.62,0,0,1-.62-.58,26,26,0,0,0-.55-3.47.62.62,0,0,1,.48-.74.64.64,0,0,1,.74.48A26,26,0,0,1,558,213a.62.62,0,0,1-.57.67Zm-1.62-8.85a.63.63,0,0,1-.62-.55,16.87,16.87,0,0,1-.13-2.06,13.21,13.21,0,0,1,.11-1.69.63.63,0,1,1,1.24.17,10.58,10.58,0,0,0-.1,1.52,16.44,16.44,0,0,0,.12,1.91.61.61,0,0,1-.54.69Z"/><path class="cls-3" d="M555.65,220.73h-.12c-.65-.13-1.3-.23-1.93-.31a.62.62,0,1,1,.15-1.24c.52.06,1.06.14,1.6.24a9.59,9.59,0,0,0,.69-1.3.63.63,0,0,1,1.15.49,11.2,11.2,0,0,1-1,1.85A.63.63,0,0,1,555.65,220.73Z"/><path class="cls-3" d="M522.94,232.21a.63.63,0,0,1-.23-1.21,38.53,38.53,0,0,0,4-1.85.62.62,0,0,1,.85.26.63.63,0,0,1-.26.84,39.91,39.91,0,0,1-4.12,1.91A.59.59,0,0,1,522.94,232.21Zm9.85-5.27a.63.63,0,0,1-.33-1.16c1.37-.84,2.61-1.59,3.86-2.31a.62.62,0,0,1,.62,1.08c-1.24.71-2.46,1.46-3.82,2.3A.63.63,0,0,1,532.79,226.94Zm9.88-5.21a.63.63,0,0,1-.59-.41.62.62,0,0,1,.38-.8,24.82,24.82,0,0,1,4.42-1.19.62.62,0,1,1,.21,1.23,23.25,23.25,0,0,0-4.2,1.14A.83.83,0,0,1,542.67,221.73Z"/><path class="cls-3" d="M513.54,236a.73.73,0,0,1-.29-.07.64.64,0,0,1-.26-.85l.93-1.77a.61.61,0,0,1,.5-.33c.65,0,1.3-.12,2-.22a.62.62,0,0,1,.71.53.63.63,0,0,1-.53.71c-.56.08-1.12.15-1.69.2l-.76,1.46A.65.65,0,0,1,513.54,236Z"/><path class="cls-3" d="M506.21,253a.69.69,0,0,1-.2,0,.63.63,0,0,1-.4-.79,23.53,23.53,0,0,0,.85-3.54.62.62,0,0,1,.72-.52.61.61,0,0,1,.51.71,23.29,23.29,0,0,1-.89,3.74A.63.63,0,0,1,506.21,253Zm3-8.78a.59.59,0,0,1-.29-.07.62.62,0,0,1-.27-.84l1.75-3.32a.62.62,0,0,1,.84-.27.63.63,0,0,1,.26.85l-1.74,3.32A.62.62,0,0,1,509.19,244.26Z"/><path class="cls-3" d="M501.41,260.67h0a.62.62,0,0,1-.62-.62A12.75,12.75,0,0,1,501,258a.62.62,0,0,1,.47-.51,4.12,4.12,0,0,0,1.53-.78.62.62,0,0,1,.88.09.63.63,0,0,1-.1.88,5.21,5.21,0,0,1-1.6.9,12.26,12.26,0,0,0-.09,1.51A.63.63,0,0,1,501.41,260.67Z"/><path class="cls-3" d="M502.41,266a.63.63,0,0,1-.58-.39,15.08,15.08,0,0,1-.67-2.19.63.63,0,0,1,.47-.75.64.64,0,0,1,.75.48,12.15,12.15,0,0,0,.61,2,.62.62,0,0,1-.35.81A.59.59,0,0,1,502.41,266Z"/><path class="cls-3" d="M505.33,272.17h-.12a.62.62,0,0,1-.49-.73,10.52,10.52,0,0,0,.19-1.55,8.68,8.68,0,0,1-1.32-1.26.62.62,0,0,1,1-.81,7.17,7.17,0,0,0,1.36,1.24.62.62,0,0,1,.27.51,11.3,11.3,0,0,1-.22,2.11A.63.63,0,0,1,505.33,272.17Z"/><path class="cls-3" d="M502.83,283.86a.62.62,0,0,1-.58-.41,4.44,4.44,0,0,1-.26-1.6,12.84,12.84,0,0,1,.64-3.54.63.63,0,0,1,.78-.42.62.62,0,0,1,.42.77,11.84,11.84,0,0,0-.59,3.19,3.37,3.37,0,0,0,.18,1.16.63.63,0,0,1-.37.81A.78.78,0,0,1,502.83,283.86Z"/><path class="cls-3" d="M511.94,286.34a.63.63,0,0,1-.6-.45,16.31,16.31,0,0,1-.39-1.6,6.47,6.47,0,0,0-1.39,0,.62.62,0,0,1-.12-1.24,6.11,6.11,0,0,1,2.22.1.63.63,0,0,1,.44.49,17.58,17.58,0,0,0,.44,1.89.64.64,0,0,1-.43.78Z"/><path class="cls-3" d="M518.66,292.07a7.64,7.64,0,0,1-3.11-.6.63.63,0,0,1,.51-1.15,7.47,7.47,0,0,0,4,.4.63.63,0,0,1,.7.54.63.63,0,0,1-.54.7A13,13,0,0,1,518.66,292.07Zm8-1.89a.65.65,0,0,1-.59-.41.64.64,0,0,1,.38-.8l1.61-.59,2.59-.93a.62.62,0,0,1,.41,1.18l-2.57.93-1.62.59A.76.76,0,0,1,526.61,290.18Z"/><path class="cls-3" d="M539.28,287.08h-.07a9.79,9.79,0,0,0-1.88,0,.64.64,0,0,1-.67-.57.62.62,0,0,1,.57-.68,13.09,13.09,0,0,1,1.65,0c.21-.45.44-.93.69-1.43a.63.63,0,0,1,.84-.28.62.62,0,0,1,.28.84c-.32.64-.61,1.23-.84,1.77A.62.62,0,0,1,539.28,287.08Z"/><path class="cls-3" d="M542.79,279.81a.64.64,0,0,1-.24-.05.63.63,0,0,1-.34-.82,20.14,20.14,0,0,0,1.23-3.73.61.61,0,0,1,.74-.48.62.62,0,0,1,.48.73,20.92,20.92,0,0,1-1.3,4A.62.62,0,0,1,542.79,279.81Z"/><path class="cls-3" d="M543.17,270.12a.63.63,0,0,1-.5-.25,5.56,5.56,0,0,0-1.29-1.27.63.63,0,0,1-.18-.8q.54-1,1-1.77a.63.63,0,0,1,1.07.66c-.24.38-.48.79-.73,1.24a7,7,0,0,1,1.12,1.2.63.63,0,0,1-.51,1Z"/><path class="cls-3" d="M550.11,265.16a.63.63,0,0,1-.37-.12l-.68-.51a4.65,4.65,0,0,0-2.24-1.22.64.64,0,0,1-.6-.65.63.63,0,0,1,.65-.6,5.49,5.49,0,0,1,3,1.48l.66.49a.62.62,0,0,1,.14.87A.64.64,0,0,1,550.11,265.16Z"/><path class="cls-3" d="M558.18,268.1a.63.63,0,0,1-.5-.24,4.86,4.86,0,0,1-.73-1.42,8.38,8.38,0,0,1-1.42.3.63.63,0,0,1-.16-1.24,8.8,8.8,0,0,0,1.81-.44.61.61,0,0,1,.51,0,.64.64,0,0,1,.31.41,3.91,3.91,0,0,0,.67,1.58.63.63,0,0,1-.11.88A.6.6,0,0,1,558.18,268.1Z"/><path class="cls-3" d="M563.51,268.72a.63.63,0,0,1-.6-.43.64.64,0,0,1,.4-.79,31,31,0,0,0,3.47-1.43.63.63,0,0,1,.53,1.14,33.82,33.82,0,0,1-3.61,1.48A.63.63,0,0,1,563.51,268.72Zm11.19-2.51a9.7,9.7,0,0,1-2.48-.36.62.62,0,0,1,.32-1.2,6.51,6.51,0,0,0,3.44.14.63.63,0,0,1,.35,1.2A5.68,5.68,0,0,1,574.7,266.21Zm5-4.39a.54.54,0,0,1-.22,0,.62.62,0,0,1-.37-.8c.33-.89.63-1.86.94-2.89l.22-.72a.61.61,0,0,1,.78-.41.62.62,0,0,1,.41.78l-.21.71c-.32,1.05-.62,2.05-1,3A.61.61,0,0,1,579.73,261.82Z"/><path class="cls-3" d="M587.28,255.29a.58.58,0,0,1-.26-.06,3,3,0,0,0-1.62-.2.63.63,0,0,1-.7-.54.62.62,0,0,1,.54-.7,4.54,4.54,0,0,1,1.22,0,3.72,3.72,0,0,1,.17-1.26.63.63,0,0,1,1.2.37,2.11,2.11,0,0,0,0,1.53.63.63,0,0,1-.14.69A.62.62,0,0,1,587.28,255.29Z"/><path class="cls-3" d="M591.48,248.36a.63.63,0,0,1-.39-1.12c1-.79,2.2-1.64,3.64-2.6a.63.63,0,1,1,.69,1.05c-1.41.93-2.57,1.76-3.55,2.53A.62.62,0,0,1,591.48,248.36Z"/><path class="cls-3" d="M600.67,242.23a.63.63,0,0,1-.35-1.15q.55-.36.93-.63c-.32-.24-.64-.5-1-.79a.62.62,0,1,1,.83-.93,14.88,14.88,0,0,0,1.51,1.18.61.61,0,0,1,.27.47.62.62,0,0,1-.2.51,14.66,14.66,0,0,1-1.69,1.24A.63.63,0,0,1,600.67,242.23Z"/><path class="cls-3" d="M598,236.77a.63.63,0,0,1-.52-.28,7.88,7.88,0,0,1-1.23-2.68.61.61,0,0,1,.47-.74.64.64,0,0,1,.75.48,6.72,6.72,0,0,0,1,2.24.63.63,0,0,1-.17.87A.66.66,0,0,1,598,236.77Z"/><path class="cls-3" d="M598.74,231.15a.62.62,0,0,1-.21-1.21,7.82,7.82,0,0,1,1.69-.37c.16-.54.3-1,.43-1.51a.63.63,0,0,1,1.21.33c-.17.6-.35,1.24-.56,1.93a.62.62,0,0,1-.55.45,7.55,7.55,0,0,0-1.8.35Z"/><path class="cls-3" d="M602.39,222.64a.63.63,0,0,1-.63-.61c0-1.67-.61-1.79-2-2.09l.25-1.23c1.47.31,3,.63,3,3.3a.62.62,0,0,1-.61.63ZM595,216.37a.64.64,0,0,1-.56-.34,17.4,17.4,0,0,1-1.41-4.11.62.62,0,0,1,1.22-.27,16.09,16.09,0,0,0,1.3,3.81.62.62,0,0,1-.27.84A.58.58,0,0,1,595,216.37Zm-2.21-10.2a.62.62,0,0,1-.62-.58c-.1-1.3-.16-2.73-.19-4.23a.63.63,0,0,1,.61-.64h0a.62.62,0,0,1,.62.61c0,1.48.09,2.89.18,4.17a.62.62,0,0,1-.58.67Zm-.58-10.49a.62.62,0,0,1-.61-.55c-.13-1-.27-2.09-.41-3.28l-.12-.91a.63.63,0,0,1,1.25-.15l.11.91c.14,1.19.27,2.29.4,3.27a.61.61,0,0,1-.53.7Zm-1.35-10.46a.61.61,0,0,1-.61-.53c-.23-1.51-.45-2.87-.68-4.14a.63.63,0,1,1,1.23-.23c.23,1.29.46,2.66.68,4.18a.62.62,0,0,1-.52.71Zm-2-10.33a.63.63,0,0,1-.6-.46,41,41,0,0,0-1.28-4,.62.62,0,1,1,1.16-.45,40.72,40.72,0,0,1,1.32,4.07.61.61,0,0,1-.43.76Z"/><path class="cls-3" d="M584.27,165.39a.63.63,0,0,1-.45-.19,6.23,6.23,0,0,0-1.43-1.1.62.62,0,0,1-.18-.95,12.7,12.7,0,0,0,1.12-1.55.62.62,0,1,1,1.06.66,13.09,13.09,0,0,1-.78,1.13,8,8,0,0,1,1.1.94.63.63,0,0,1,0,.88A.62.62,0,0,1,584.27,165.39Z"/><path class="cls-3" d="M586.45,156.85a.51.51,0,0,1-.2,0,.63.63,0,0,1-.39-.79c.43-1.25.83-2.59,1.17-4a.61.61,0,0,1,.75-.46.63.63,0,0,1,.46.76c-.35,1.41-.75,2.78-1.19,4.07A.63.63,0,0,1,586.45,156.85Z"/><path class="cls-3" d="M588.73,146.64h-.07a.63.63,0,0,1-.56-.68c.07-.69.11-1.35.13-2a.63.63,0,0,1,.64-.61.63.63,0,0,1,.61.64c0,.63-.06,1.32-.13,2A.63.63,0,0,1,588.73,146.64Z"/><path class="cls-3" d="M6.24,226.94l-.19,0-1.91-.59a.65.65,0,0,1-.41-.79.63.63,0,0,1,.79-.41l1.91.6a.62.62,0,0,1-.19,1.22Z"/><path class="cls-3" d="M120.94,277.25a.58.58,0,0,1-.26-.06c-1.05-.48-2.23-1.05-3.51-1.7a.62.62,0,0,1-.28-.84.63.63,0,0,1,.84-.28c1.27.65,2.44,1.21,3.47,1.68a.63.63,0,0,1-.26,1.2Zm-8.64-4.41a.56.56,0,0,1-.3-.08c-1.1-.59-2.24-1.22-3.4-1.88a.62.62,0,0,1,.61-1.09c1.16.65,2.29,1.28,3.39,1.88a.62.62,0,0,1-.3,1.17Zm-8.46-4.75a.61.61,0,0,1-.31-.09l-3.36-1.94a.64.64,0,0,1-.22-.86.62.62,0,0,1,.86-.22l3.35,1.94a.63.63,0,0,1-.32,1.17Zm-8.37-4.9a.71.71,0,0,1-.31-.08l-3.34-2a.62.62,0,1,1,.64-1.07l3.33,2a.62.62,0,0,1-.32,1.16Zm-8.33-5a.62.62,0,0,1-.32-.09l-3.33-2a.63.63,0,0,1-.21-.86.62.62,0,0,1,.85-.21l3.33,2a.62.62,0,0,1,.22.86A.63.63,0,0,1,87.14,258.23Zm-8.32-5a.62.62,0,0,1-.32-.09l-3.34-2a.61.61,0,0,1-.22-.85.62.62,0,0,1,.85-.23l3.35,2a.63.63,0,0,1,.21.86A.6.6,0,0,1,78.82,253.26Zm-8.37-4.91a.55.55,0,0,1-.31-.08c-1.27-.72-2.4-1.35-3.38-1.88a.62.62,0,0,1-.26-.84.63.63,0,0,1,.85-.26c1,.53,2.13,1.17,3.41,1.89a.63.63,0,0,1-.31,1.17Zm-8.77-4.09-.19,0-3.69-1.15a.62.62,0,0,1-.41-.78.61.61,0,0,1,.78-.41l3.7,1.15a.62.62,0,0,1,.41.78A.63.63,0,0,1,61.68,244.26Zm-9.24-2.88-.19,0-3.69-1.16a.62.62,0,1,1,.37-1.19l3.7,1.15a.63.63,0,0,1-.19,1.23Zm-9.24-2.89-.19,0-3.69-1.15a.64.64,0,0,1-.41-.79.62.62,0,0,1,.78-.41l3.7,1.16a.62.62,0,0,1,.41.78A.63.63,0,0,1,43.2,238.49ZM34,235.6l-.19,0-3.69-1.15a.63.63,0,0,1-.41-.78.61.61,0,0,1,.78-.41l3.7,1.15a.62.62,0,0,1,.41.78A.63.63,0,0,1,34,235.6Zm-9.24-2.88-.19,0-3.69-1.16a.62.62,0,0,1-.41-.78.61.61,0,0,1,.78-.41l3.7,1.15a.63.63,0,0,1-.19,1.23Zm-9.24-2.89-.19,0-3.69-1.15a.63.63,0,0,1-.41-.79.62.62,0,0,1,.78-.41l3.7,1.16a.62.62,0,0,1,.41.78A.63.63,0,0,1,15.48,229.83Z"/><path class="cls-3" d="M127.06,279.3a4.75,4.75,0,0,1-.92-.1.62.62,0,0,1-.49-.73.63.63,0,0,1,.73-.5c.86.17,1.07,0,1.08,0a.56.56,0,0,1,.32-.38.61.61,0,0,1,.51,0,1.32,1.32,0,0,0,1.32-.15.63.63,0,1,1,.68,1.05,2.59,2.59,0,0,1-2,.41A1.77,1.77,0,0,1,127.06,279.3Z"/><path class="cls-3" d="M132.5,275.08a.54.54,0,0,1-.27-.07.62.62,0,0,1-.29-.83c.35-.73.71-1.57,1.13-2.65a.62.62,0,1,1,1.16.45c-.43,1.11-.8,2-1.17,2.74A.63.63,0,0,1,132.5,275.08Z"/><path class="cls-3" d="M135.25,268.27a.53.53,0,0,1-.25,0,.62.62,0,0,1-.33-.82,8.16,8.16,0,0,1,1-1.91.66.66,0,0,1,.47-.23l2,0a.63.63,0,1,1,0,1.25l-1.69,0a9.64,9.64,0,0,0-.69,1.38A.62.62,0,0,1,135.25,268.27Z"/><path class="cls-3" d="M143.88,266.13a.63.63,0,0,1-.06-1.25c1.27-.11,2.53-.25,3.75-.41a.63.63,0,0,1,.17,1.24c-1.24.16-2.52.31-3.81.42Zm9.39-1.4a.62.62,0,0,1-.61-.49.61.61,0,0,1,.48-.74c1.23-.27,2.46-.58,3.64-.91a.63.63,0,1,1,.35,1.2c-1.22.34-2.47.65-3.73.93Zm9.08-2.75a.63.63,0,0,1-.23-1.21c1.16-.46,2.31-1,3.43-1.51a.63.63,0,0,1,.84.29.62.62,0,0,1-.29.83c-1.15.56-2.33,1.08-3.52,1.55A.64.64,0,0,1,162.35,262Zm8.47-4.28a.6.6,0,0,1-.53-.3.63.63,0,0,1,.2-.86c1-.63,2.09-1.33,3.14-2.07a.63.63,0,0,1,.87.16.63.63,0,0,1-.15.87c-1.07.75-2.15,1.46-3.2,2.11A.68.68,0,0,1,170.82,257.7Zm7.71-5.54a.65.65,0,0,1-.49-.23.62.62,0,0,1,.09-.88c.93-.76,1.9-1.59,2.88-2.45a.62.62,0,1,1,.82.94c-1,.87-2,1.71-2.91,2.48A.62.62,0,0,1,178.53,252.16Zm7.08-6.34a.6.6,0,0,1-.45-.19.63.63,0,0,1,0-.88c.9-.86,1.8-1.74,2.71-2.65a.62.62,0,0,1,.88.88c-.92.92-1.82,1.81-2.72,2.67A.6.6,0,0,1,185.61,245.82Z"/><path class="cls-3" d="M192.34,239.07a.6.6,0,0,1-.43-.18.62.62,0,0,1,0-.88l1.39-1.45a.6.6,0,0,1,.44-.19.66.66,0,0,1,.45.18c.47.47.94.92,1.43,1.36a.63.63,0,0,1,0,.88.62.62,0,0,1-.88,0c-.34-.31-.68-.62-1-1l-1,1A.65.65,0,0,1,192.34,239.07Z"/><path class="cls-3" d="M256.79,255.45a.63.63,0,0,1,0-1.25c1.33,0,2.64,0,3.95,0a.63.63,0,0,1,.63.62.63.63,0,0,1-.62.63q-2,0-4,0Zm-5.93-.06h0l-4-.12a.64.64,0,0,1-.6-.65.6.6,0,0,1,.65-.6l3.95.12a.64.64,0,0,1,.61.64A.63.63,0,0,1,250.86,255.39Zm15.81-.1a.63.63,0,0,1,0-1.25c1.33,0,2.65-.08,3.94-.12a.61.61,0,0,1,.65.6.63.63,0,0,1-.6.65c-1.3,0-2.62.09-4,.12ZM241,254.93h-.05c-1.32-.1-2.64-.21-3.95-.35a.61.61,0,0,1-.56-.68.63.63,0,0,1,.68-.56c1.31.13,2.62.25,3.92.34a.63.63,0,0,1,0,1.25Zm-9.82-1.07h-.09c-1.34-.2-2.66-.41-3.93-.64a.63.63,0,0,1,.23-1.24c1.25.23,2.55.45,3.88.64a.62.62,0,0,1,.52.71A.61.61,0,0,1,231.17,253.86Zm-9.7-1.86-.15,0c-1.31-.32-2.61-.67-3.84-1a.63.63,0,1,1,.35-1.2c1.22.36,2.49.71,3.79,1a.64.64,0,0,1,.46.76A.63.63,0,0,1,221.47,252ZM212,249.07a.57.57,0,0,1-.22,0c-1.26-.48-2.5-1-3.68-1.54a.63.63,0,0,1,.52-1.14c1.16.53,2.37,1,3.6,1.51a.62.62,0,0,1,.36.81A.61.61,0,0,1,212,249.07Zm-8.9-4.25a.62.62,0,0,1-.32-.09c-1.16-.68-2.29-1.41-3.36-2.16a.64.64,0,0,1-.16-.87.63.63,0,0,1,.87-.15c1.05.73,2.16,1.44,3.29,2.1a.63.63,0,0,1-.32,1.17Z"/><path class="cls-3" d="M276.57,255a.63.63,0,0,1,0-1.25l1.48,0c.06-.32.17-.79.37-1.51a.63.63,0,1,1,1.21.33,12.37,12.37,0,0,0-.42,1.82.63.63,0,0,1-.6.59l-2,.07Z"/><path class="cls-3" d="M280.44,248.17a.57.57,0,0,1-.18,0,.63.63,0,0,1-.41-.79l1-3.16a.62.62,0,0,1,.79-.4.61.61,0,0,1,.4.78l-1,3.16A.62.62,0,0,1,280.44,248.17Zm2.56-7.9a.69.69,0,0,1-.2,0,.64.64,0,0,1-.4-.79l1-3.15a.62.62,0,0,1,.78-.41.64.64,0,0,1,.41.79l-1,3.16A.63.63,0,0,1,283,240.27Z"/><path class="cls-3" d="M285.52,232.36a.55.55,0,0,1-.18,0,.63.63,0,0,1-.42-.78c.2-.69.32-1.12.38-1.38a3.56,3.56,0,0,1-1.35-1.27.62.62,0,0,1,1.05-.67,2.25,2.25,0,0,0,1.21,1,.62.62,0,0,1,.42.61,9.73,9.73,0,0,1-.51,2.1A.62.62,0,0,1,285.52,232.36Z"/><path class="cls-3" d="M283.78,223.07h-.07a.63.63,0,0,1-.55-.69,38.92,38.92,0,0,1,.74-4.19.6.6,0,0,1,.74-.47.63.63,0,0,1,.48.74,39.09,39.09,0,0,0-.72,4.06A.62.62,0,0,1,283.78,223.07Zm2.39-10.18a.58.58,0,0,1-.19,0,.62.62,0,0,1-.41-.78c.39-1.26.84-2.6,1.33-4a.61.61,0,0,1,.79-.38.62.62,0,0,1,.39.79c-.49,1.39-.93,2.72-1.32,4A.62.62,0,0,1,286.17,212.89Zm3.49-9.87a.62.62,0,0,1-.58-.85c.49-1.28,1-2.58,1.54-3.9a.63.63,0,0,1,.82-.35.62.62,0,0,1,.34.81c-.53,1.32-1,2.62-1.54,3.89A.61.61,0,0,1,289.66,203Zm4-9.7a.56.56,0,0,1-.25,0,.63.63,0,0,1-.33-.82c.55-1.27,1.1-2.55,1.67-3.85a.63.63,0,0,1,.82-.32.64.64,0,0,1,.33.83c-.57,1.28-1.12,2.56-1.67,3.83A.62.62,0,0,1,293.62,193.32Zm4.22-9.58a.74.74,0,0,1-.25-.05.63.63,0,0,1-.32-.83c.58-1.27,1.16-2.55,1.75-3.81a.62.62,0,1,1,1.13.52l-1.74,3.8A.61.61,0,0,1,297.84,183.74Zm4.4-9.51a.53.53,0,0,1-.27-.06.62.62,0,0,1-.29-.83c.59-1.27,1.19-2.53,1.79-3.79a.63.63,0,0,1,1.13.54c-.6,1.25-1.19,2.51-1.79,3.79A.63.63,0,0,1,302.24,174.23Zm4.51-9.45a.67.67,0,0,1-.28-.06.63.63,0,0,1-.29-.84l1.83-3.77a.62.62,0,1,1,1.12.54c-.6,1.24-1.21,2.5-1.82,3.78A.63.63,0,0,1,306.75,164.78Zm4.56-9.42a.68.68,0,0,1-.27-.07.62.62,0,0,1-.29-.83l1.83-3.77a.63.63,0,0,1,.84-.29.62.62,0,0,1,.29.83L311.88,155A.63.63,0,0,1,311.31,155.36Zm4.56-9.43a.48.48,0,0,1-.26-.07.61.61,0,0,1-.3-.83c.65-1.36,1.25-2.62,1.79-3.78a.62.62,0,1,1,1.13.52c-.54,1.17-1.14,2.44-1.79,3.8A.64.64,0,0,1,315.87,145.93Z"/><path class="cls-3" d="M320.14,136.5a.57.57,0,0,1-.22,0,.64.64,0,0,1-.36-.81c.18-.47.31-.82.39-1.09l-1.25-.07a.62.62,0,0,1-.59-.65.63.63,0,0,1,.66-.59l2,.1a.56.56,0,0,1,.45.22.61.61,0,0,1,.15.48,10.66,10.66,0,0,1-.63,2A.63.63,0,0,1,320.14,136.5Z"/><path class="cls-3" d="M312.49,134.06h-.05c-1.46-.13-2.86-.27-4.17-.43a.62.62,0,0,1,.15-1.24c1.29.15,2.68.3,4.13.42a.63.63,0,0,1,.56.68A.62.62,0,0,1,312.49,134.06Zm-10.32-1.4h-.12c-1.46-.3-2.84-.64-4.1-1a.63.63,0,0,1,.35-1.2c1.23.36,2.57.69,4,1a.63.63,0,0,1-.13,1.24Zm-9.83-3.31a.6.6,0,0,1-.29-.08,20.75,20.75,0,0,1-3.55-2.38.62.62,0,0,1,.8-1,20.28,20.28,0,0,0,3.34,2.24.63.63,0,0,1-.3,1.18Zm-7.58-7a.63.63,0,0,1-.52-.28,35.48,35.48,0,0,1-2.14-3.66.62.62,0,1,1,1.11-.57,34.76,34.76,0,0,0,2.07,3.53.63.63,0,0,1-.17.87A.66.66,0,0,1,284.76,122.39Zm-4.69-9.29a.62.62,0,0,1-.58-.38c-.51-1.23-1-2.52-1.56-3.88a.62.62,0,1,1,1.16-.46c.54,1.35,1.05,2.64,1.56,3.86a.63.63,0,0,1-.34.82A.67.67,0,0,1,280.07,113.1Zm-3.86-9.68a.62.62,0,0,1-.58-.4c-.49-1.23-1-2.52-1.57-3.85a.63.63,0,0,1,1.16-.48c.55,1.34,1.07,2.63,1.57,3.87a.62.62,0,0,1-.35.81A.59.59,0,0,1,276.21,103.42Z"/><path class="cls-3" d="M272.13,93.7a.62.62,0,0,1-.57-.37c-.22-.49-.44-1-.67-1.49l-1.62-.12a.63.63,0,0,1-.58-.67.65.65,0,0,1,.67-.58c.65,0,1.32.1,2,.16a.64.64,0,0,1,.52.36l.82,1.83a.63.63,0,0,1-.32.83A.74.74,0,0,1,272.13,93.7Z"/><path class="cls-3" d="M240.45,108.79a.62.62,0,0,1-.55-.92q.9-1.7,1.77-3.21a.62.62,0,0,1,.85-.24.64.64,0,0,1,.24.86c-.58,1-1.16,2.06-1.76,3.18A.64.64,0,0,1,240.45,108.79Zm4.66-7.85a.69.69,0,0,1-.36-.11.63.63,0,0,1-.15-.87A30.28,30.28,0,0,1,246.91,97a.64.64,0,0,1,.89,0,.63.63,0,0,1,0,.88,30.09,30.09,0,0,0-2.21,2.8A.63.63,0,0,1,245.11,100.94Zm6.45-6.37a.65.65,0,0,1-.54-.3.63.63,0,0,1,.21-.86,18.44,18.44,0,0,1,3.41-1.62.63.63,0,0,1,.8.38.62.62,0,0,1-.38.8,16.61,16.61,0,0,0-3.18,1.51A.62.62,0,0,1,251.56,94.57Zm8.62-2.75a.63.63,0,0,1-.07-1.25c1.15-.13,2.4-.22,3.71-.25h0a.62.62,0,0,1,.62.62.61.61,0,0,1-.61.63c-1.27,0-2.47.11-3.58.24Z"/><path class="cls-3" d="M236.9,115.43a.64.64,0,0,1-.36-.11c-.57-.4-1.12-.8-1.64-1.2a.62.62,0,1,1,.76-1l1,.75.61-1.13a.62.62,0,1,1,1.1.58l-.94,1.77a.64.64,0,0,1-.41.31Z"/><path class="cls-3" d="M215,124a2.73,2.73,0,0,1-2-1.12A.64.64,0,0,1,213,122a.63.63,0,0,1,.89.07c.4.46.75.69,1.06.69.47,0,1-.56,1.34-1a.62.62,0,0,1,.88-.12.61.61,0,0,1,.12.87A3.09,3.09,0,0,1,215,124Zm-4.67-6.33a.64.64,0,0,1-.56-.33,38.78,38.78,0,0,0-2.07-3.55.63.63,0,0,1,1-.7,41.85,41.85,0,0,1,2.14,3.67.63.63,0,0,1-.26.84A.59.59,0,0,1,210.3,117.71Zm9.28-.54a.54.54,0,0,1-.22,0,.62.62,0,0,1-.36-.81q.45-1.16.93-2.55a.8.8,0,0,1,.08-.16c.31-.42.6-.81.89-1.17a.63.63,0,0,1,1,.78c-.26.32-.53.67-.8,1-.32.91-.62,1.74-.92,2.5A.61.61,0,0,1,219.58,117.17Zm10.64-6.62a.71.71,0,0,1-.31-.08,4.73,4.73,0,0,0-3.53-.8.64.64,0,0,1-.75-.48.63.63,0,0,1,.48-.74,5.93,5.93,0,0,1,4.43.93.63.63,0,0,1-.32,1.17Zm-25.48-1.5a.63.63,0,0,1-.61-.47c-.31-1.28-.62-2.66-.92-4.1a.62.62,0,1,1,1.22-.26c.31,1.43.6,2.79.92,4.06a.64.64,0,0,1-.46.76Zm-2.18-10.22a.63.63,0,0,1-.61-.5c-.27-1.34-.55-2.71-.85-4.09a.62.62,0,1,1,1.22-.26c.3,1.38.58,2.76.86,4.1a.61.61,0,0,1-.49.73Zm-2.28-10.2a.63.63,0,0,1-.61-.47c-.36-1.4-.73-2.75-1.11-4a.62.62,0,0,1,.42-.77.63.63,0,0,1,.78.42c.38,1.27.76,2.63,1.12,4a.62.62,0,0,1-.45.76Zm-3.15-10a.64.64,0,0,1-.59-.39c-.52-1.33-1.08-2.6-1.66-3.78a.62.62,0,0,1,.28-.83A.63.63,0,0,1,196,74c.59,1.2,1.17,2.51,1.71,3.87a.63.63,0,0,1-.35.81A.66.66,0,0,1,197.13,78.67Zm-4.91-9.18a.61.61,0,0,1-.5-.26,25.19,25.19,0,0,0-2.66-3.07.63.63,0,0,1,.87-.9,26.2,26.2,0,0,1,2.8,3.23.64.64,0,0,1-.14.88A.63.63,0,0,1,192.22,69.49Zm-7.79-6.77a.71.71,0,0,1-.28-.06,17.53,17.53,0,0,0-3.78-1.35.63.63,0,0,1,.29-1.22,18.69,18.69,0,0,1,4,1.45.62.62,0,0,1,.29.83A.61.61,0,0,1,184.43,62.72Z"/><path class="cls-3" d="M172.26,61a.63.63,0,0,1-.08-1.25q1-.14,2-.18a.62.62,0,1,1,.06,1.24c-.63,0-1.29.1-1.94.18Z"/><path class="cls-3" d="M220.75,256.13h0a.63.63,0,0,1-.62-.63c0-.69,0-1.36,0-2a.61.61,0,0,1,.62-.61h0a.62.62,0,0,1,.62.63c0,.64,0,1.31,0,2A.62.62,0,0,1,220.75,256.13Z"/><path class="cls-3" d="M221.25,285.16a.62.62,0,0,1-.62-.6l-.11-3.87a.63.63,0,0,1,.6-.65.64.64,0,0,1,.65.61l.11,3.87a.63.63,0,0,1-.61.64Zm-.26-9.67a.61.61,0,0,1-.62-.61c0-1.27-.06-2.57-.09-3.88a.63.63,0,0,1,.61-.64.65.65,0,0,1,.64.62c0,1.3.06,2.6.09,3.87a.64.64,0,0,1-.61.64Zm-.19-9.68a.62.62,0,0,1-.62-.62c0-1.31,0-2.61,0-3.88a.63.63,0,0,1,.62-.63h0a.64.64,0,0,1,.63.62c0,1.27,0,2.57,0,3.87a.63.63,0,0,1-.62.64Z"/><path class="cls-3" d="M223.42,293.56h-.14a9,9,0,0,1-2.05-.66.65.65,0,0,1-.34-.54l-.07-2a.63.63,0,0,1,.6-.65.64.64,0,0,1,.65.61l.05,1.6a11.5,11.5,0,0,0,1.43.41.62.62,0,0,1,.48.74A.64.64,0,0,1,223.42,293.56Z"/><path class="cls-3" d="M251.39,301.42a.62.62,0,0,1-.62-.57c-.08-.9-.8-1.72-2.13-2.46a.62.62,0,0,1-.24-.85.63.63,0,0,1,.85-.25c1.71.95,2.64,2.11,2.76,3.44a.61.61,0,0,1-.56.68Zm-8.12-4.9h-.14c-1.15-.26-2.43-.51-3.91-.75a.62.62,0,1,1,.21-1.23c1.5.24,2.8.49,4,.76a.62.62,0,0,1,.47.75A.61.61,0,0,1,243.27,296.52Zm-9.91-1.58h-.08l-4-.48a.62.62,0,0,1-.54-.7.61.61,0,0,1,.69-.54l4,.48a.62.62,0,0,1-.08,1.24Z"/><path class="cls-3" d="M247.7,309.44a.62.62,0,0,1-.57-.37c-.26-.57-.55-1.16-.86-1.76a.62.62,0,0,1,.17-.79c.56-.42,1.07-.83,1.52-1.23a.62.62,0,0,1,.88.06.63.63,0,0,1-.05.88c-.36.32-.76.64-1.18,1,.24.46.46.91.66,1.36a.64.64,0,0,1-.31.83A.8.8,0,0,1,247.7,309.44Z"/><path class="cls-3" d="M236.83,348h-.1a.62.62,0,0,1-.52-.71,20.12,20.12,0,0,1,1.14-4.19.62.62,0,0,1,1.16.45,19.68,19.68,0,0,0-1.07,3.93A.62.62,0,0,1,236.83,348Zm4-9.66a.58.58,0,0,1-.33-.1.63.63,0,0,1-.2-.86c.74-1.17,1.51-2.29,2.36-3.53a.63.63,0,0,1,.87-.16.62.62,0,0,1,.16.87c-.84,1.23-1.6,2.34-2.33,3.49A.62.62,0,0,1,240.84,338.37Zm5.81-8.81a.61.61,0,0,1-.32-.08.62.62,0,0,1-.22-.86,28.59,28.59,0,0,0,1.83-3.69.63.63,0,0,1,.82-.34.61.61,0,0,1,.34.81,29.17,29.17,0,0,1-1.91,3.85A.63.63,0,0,1,246.65,329.56Zm3.27-9.91h0a.62.62,0,0,1-.59-.65c0-.28,0-.56,0-.84a18.71,18.71,0,0,0-.29-3.22.62.62,0,0,1,.51-.72.61.61,0,0,1,.72.5,19.21,19.21,0,0,1,.31,3.44c0,.3,0,.6,0,.9A.62.62,0,0,1,249.92,319.65Z"/><path class="cls-3" d="M237.37,356.31a.64.64,0,0,1-.61-.46c-.18-.69-.34-1.36-.45-2a.63.63,0,0,1,.5-.73.64.64,0,0,1,.73.51c.11.61.25,1.25.43,1.9a.62.62,0,0,1-.44.76Z"/><path class="cls-3" d="M374.31,417.06h-.13c-.27-.05-.62-.24-.73-.89a.63.63,0,0,1,.52-.72.62.62,0,0,1,.38.06,5.36,5.36,0,0,0,.31-.54.62.62,0,0,1,1.1.58C375.26,416.5,374.86,417.06,374.31,417.06Zm.4-1Z"/><path class="cls-3" d="M377.59,410.25a.6.6,0,0,1-.22,0,.63.63,0,0,1-.36-.81c.45-1.17.92-2.46,1.41-3.81a.64.64,0,0,1,.81-.38.63.63,0,0,1,.37.8c-.49,1.36-1,2.65-1.42,3.84A.63.63,0,0,1,377.59,410.25Zm3.46-9.59a.45.45,0,0,1-.2,0,.62.62,0,0,1-.39-.79c.45-1.28.89-2.57,1.33-3.85a.63.63,0,0,1,1.19.4c-.45,1.29-.89,2.58-1.34,3.86A.62.62,0,0,1,381.05,400.66Zm3.31-9.64a.51.51,0,0,1-.2,0,.62.62,0,0,1-.39-.79l1.32-3.86a.63.63,0,0,1,.8-.39.62.62,0,0,1,.38.79L385,390.59A.62.62,0,0,1,384.36,391Z"/><path class="cls-3" d="M387.72,381.4a.54.54,0,0,1-.22,0,.63.63,0,0,1-.37-.81c.71-1.9.88-2.16,1.36-2.19a.63.63,0,0,1,.19,0c.62,0,1.24.05,1.84,0a.62.62,0,0,1,.64.6.63.63,0,0,1-.6.65c-.56,0-1.14,0-1.72,0-.1.21-.26.61-.54,1.34A.62.62,0,0,1,387.72,381.4Z"/><path class="cls-3" d="M396.49,378.52a.62.62,0,0,1-.22-1.21,17.5,17.5,0,0,0,3.48-1.76.63.63,0,0,1,.87.18.64.64,0,0,1-.19.87,19.11,19.11,0,0,1-3.72,1.88A.57.57,0,0,1,396.49,378.52Zm8.17-5.81a.63.63,0,0,1-.47-1,31,31,0,0,0,2.43-3.14.63.63,0,0,1,.87-.17.64.64,0,0,1,.17.87,31.06,31.06,0,0,1-2.54,3.27A.6.6,0,0,1,404.66,372.71Zm5.5-8.48a.58.58,0,0,1-.28-.07.62.62,0,0,1-.29-.83c.57-1.16,1.11-2.39,1.63-3.67a.62.62,0,0,1,1.16.46c-.53,1.31-1.09,2.57-1.66,3.76A.63.63,0,0,1,410.16,364.23Zm3.66-9.45-.18,0a.61.61,0,0,1-.41-.78c.38-1.25.76-2.55,1.11-3.88a.63.63,0,0,1,.77-.44.62.62,0,0,1,.44.76c-.36,1.34-.74,2.67-1.13,3.93A.62.62,0,0,1,413.82,354.78Zm2.53-9.83-.13,0a.62.62,0,0,1-.48-.74c.28-1.33.54-2.66.78-4a.62.62,0,0,1,.73-.5.63.63,0,0,1,.5.73c-.24,1.32-.51,2.66-.79,4A.62.62,0,0,1,416.35,345Zm1.78-10H418a.62.62,0,0,1-.53-.71c.21-1.38.4-2.72.57-4a.62.62,0,0,1,1.23.17c-.17,1.29-.36,2.64-.56,4A.63.63,0,0,1,418.13,335Zm1.32-10.07h-.08a.63.63,0,0,1-.54-.7h0c-.19-1.2-.35-2.51-.46-3.9a.61.61,0,0,1,.58-.67.62.62,0,0,1,.67.57c.11,1.39.26,2.69.46,3.88a.48.48,0,0,1,0,.17v.1A.63.63,0,0,1,419.45,324.88Zm-.33-.66.33,0-.21-.06Zm-.32-9.45h0a.62.62,0,0,1-.62-.63c0-1.3.05-2.68.13-4.08a.62.62,0,1,1,1.24.06c-.07,1.39-.11,2.75-.12,4A.62.62,0,0,1,418.8,314.77Zm.61-10.12h-.06a.61.61,0,0,1-.56-.68c.14-1.34.31-2.7.5-4a.62.62,0,0,1,.7-.53.63.63,0,0,1,.54.7c-.19,1.34-.35,2.68-.5,4A.62.62,0,0,1,419.41,304.65Zm1.48-10h-.12a.63.63,0,0,1-.5-.73c.26-1.35.53-2.7.82-4a.64.64,0,0,1,.75-.47.62.62,0,0,1,.47.74c-.29,1.29-.56,2.62-.81,4A.63.63,0,0,1,420.89,294.61Zm2.29-9.88-.17,0a.64.64,0,0,1-.43-.78c.38-1.35.78-2.67,1.2-3.9a.62.62,0,0,1,.79-.4.63.63,0,0,1,.39.79c-.4,1.22-.8,2.52-1.18,3.85A.63.63,0,0,1,423.18,284.73Z"/><path class="cls-3" d="M426.54,275.18a.74.74,0,0,1-.25-.05.64.64,0,0,1-.32-.83c.17-.37.33-.73.5-1.08-.33-.05-.7-.1-1.11-.14a.64.64,0,0,1-.56-.69.63.63,0,0,1,.69-.56,19.61,19.61,0,0,1,2,.31.6.6,0,0,1,.43.34.63.63,0,0,1,0,.55c-.29.57-.57,1.16-.84,1.78A.65.65,0,0,1,426.54,275.18Z"/><path class="cls-3" d="M419.35,272.69h0l-4.06-.13a.63.63,0,0,1,0-1.25h0l4.08.13a.63.63,0,0,1,0,1.25Zm-10.17-.25h0c-1.3,0-2.66-.05-4.06-.06a.63.63,0,1,1,0-1.25h0c1.41,0,2.77,0,4.07.06a.63.63,0,0,1,.62.63A.64.64,0,0,1,409.18,272.44ZM399,272.3h0l-4.07-.05a.62.62,0,0,1-.61-.63A.62.62,0,0,1,395,271h0l4.06.05a.63.63,0,0,1,0,1.25Zm-10.17-.13h0l-4.06-.06a.64.64,0,0,1-.62-.64.61.61,0,0,1,.64-.61l4.06.06a.63.63,0,0,1,.62.63A.63.63,0,0,1,388.85,272.17ZM378.69,272h0l-4.07-.09a.63.63,0,0,1,0-1.25h0l4.06.09a.63.63,0,0,1,0,1.25Zm-10.16-.26h0l-4.06-.14a.62.62,0,0,1-.6-.64.61.61,0,0,1,.65-.61l4.05.14a.63.63,0,0,1,0,1.25Zm-10.15-.38h0l-4.06-.2a.62.62,0,1,1,.06-1.24l4.06.19a.63.63,0,0,1,0,1.25Zm-10.15-.54h0l-4.06-.28a.61.61,0,0,1-.57-.67.64.64,0,0,1,.66-.58l4,.28a.63.63,0,0,1,.59.66A.63.63,0,0,1,348.23,270.81Zm-10.13-.76h-.05c-1.37-.12-2.72-.24-4.06-.38a.62.62,0,1,1,.13-1.24l4,.38a.62.62,0,0,1,.56.68A.63.63,0,0,1,338.1,270.05ZM328,269h-.08c-1.37-.17-2.72-.35-4-.54a.63.63,0,1,1,.18-1.24c1.31.19,2.65.37,4,.54A.62.62,0,0,1,328,269ZM318,267.47h-.12c-1.38-.25-2.73-.52-4-.79a.63.63,0,0,1,.26-1.23c1.28.28,2.6.54,4,.79a.63.63,0,0,1-.11,1.24ZM308,265.21l-.17,0c-1.4-.4-2.71-.83-3.9-1.27a.62.62,0,1,1,.43-1.17c1.16.43,2.45.85,3.82,1.24a.63.63,0,0,1-.18,1.23Zm-9.37-3.82a.62.62,0,0,1-.32-.09,15.93,15.93,0,0,1-3.3-2.59.63.63,0,0,1,0-.88.62.62,0,0,1,.88,0,14.66,14.66,0,0,0,3,2.37.62.62,0,0,1,.21.85A.63.63,0,0,1,298.67,261.39Zm-5.48-7.9a.63.63,0,0,1-.62-.51l-.05-.28c-.2-1.07-.44-2.33-.72-3.7a.63.63,0,0,1,1.23-.25c.28,1.38.52,2.65.72,3.72l.05.28a.63.63,0,0,1-.5.73Zm-2.2-9.91a.61.61,0,0,1-.6-.45c-.41-1.4-.84-2.67-1.28-3.79a.63.63,0,0,1,.35-.81.62.62,0,0,1,.81.35c.46,1.15.9,2.47,1.32,3.91a.63.63,0,0,1-.43.77A.52.52,0,0,1,291,243.58Z"/><path class="cls-3" d="M284.52,235.32a.57.57,0,0,1-.18,0,.63.63,0,0,1-.42-.78l.58-1.91a.67.67,0,0,1,.35-.39.65.65,0,0,1,.53,0,6.39,6.39,0,0,1,1.76,1.32.63.63,0,1,1-.9.87,6,6,0,0,0-.77-.68l-.35,1.15A.62.62,0,0,1,284.52,235.32Z"/><path class="cls-3" d="M281.16,246.36l-.18,0a.63.63,0,0,1-.42-.78l1.35-4.41a.62.62,0,1,1,1.19.36l-1.34,4.41A.63.63,0,0,1,281.16,246.36Z"/><path class="cls-3" d="M278.56,254.88a.55.55,0,0,1-.18,0,.62.62,0,0,1-.41-.78l.58-1.91a.62.62,0,1,1,1.19.36l-.58,1.91A.62.62,0,0,1,278.56,254.88Z"/><path class="cls-3" d="M352.33,533.68a.61.61,0,0,1-.47-.21.62.62,0,0,1,.05-.88,5.78,5.78,0,0,0,1.14-1.4.63.63,0,0,1,.86-.21.62.62,0,0,1,.22.85,7.17,7.17,0,0,1-1.39,1.69A.61.61,0,0,1,352.33,533.68Z"/><path class="cls-3" d="M355,527.52h-.08a.63.63,0,0,1-.54-.7c.14-1,.23-2,.32-3v-.18a.65.65,0,0,1,.68-.57.63.63,0,0,1,.57.68l0,.18c-.09,1.07-.18,2.08-.32,3.08A.63.63,0,0,1,355,527.52Zm.95-8h-.12a.63.63,0,0,1-.49-.74,15.64,15.64,0,0,1,1-3.22.61.61,0,0,1,.82-.32.62.62,0,0,1,.32.82,14.65,14.65,0,0,0-.91,3A.64.64,0,0,1,355.94,519.47Z"/><path class="cls-3" d="M359.78,512.5a.63.63,0,0,1-.4-1.11,11.36,11.36,0,0,1,1.28-.93,3.49,3.49,0,0,1,0-1.84.63.63,0,1,1,1.21.32,2.12,2.12,0,0,0,.1,1.52.64.64,0,0,1-.26.81,10.94,10.94,0,0,0-1.55,1.08A.62.62,0,0,1,359.78,512.5Z"/><path class="cls-3" d="M365,504.55a.6.6,0,0,1-.47-.22.62.62,0,0,1,.06-.88c.93-.8,2-1.67,3.31-2.58a.63.63,0,0,1,.73,1c-1.24.88-2.32,1.73-3.22,2.5A.59.59,0,0,1,365,504.55Zm8.46-5.94a.62.62,0,0,1-.53-.3.63.63,0,0,1,.2-.86c1.18-.72,2.38-1.43,3.58-2.12a.63.63,0,0,1,.62,1.09c-1.19.68-2.38,1.38-3.55,2.09A.55.55,0,0,1,373.48,498.61Zm9-5.13a.61.61,0,0,1-.55-.33.62.62,0,0,1,.25-.85l2.78-1.51.86-.46a.63.63,0,0,1,.85.26.62.62,0,0,1-.26.84l-.85.46-2.79,1.51A.6.6,0,0,1,382.47,493.48Z"/><path class="cls-3" d="M391.52,488.49a.63.63,0,0,1-.53-.3.62.62,0,0,1,.21-.86c.58-.35,1-.65,1.32-.87,0-.59,0-1.18,0-1.75a.6.6,0,0,1,.64-.6.63.63,0,0,1,.61.64,15.63,15.63,0,0,0,0,1.93.64.64,0,0,1-.2.51,12.17,12.17,0,0,1-1.74,1.21A.68.68,0,0,1,391.52,488.49Z"/><path class="cls-3" d="M394.26,479.59a.52.52,0,0,1-.21,0,.62.62,0,0,1-.37-.8,23.83,23.83,0,0,1,1.71-3.65.62.62,0,0,1,.85-.24.64.64,0,0,1,.24.86,22.37,22.37,0,0,0-1.63,3.46A.63.63,0,0,1,394.26,479.59Zm5-8.43a.6.6,0,0,1-.38-.13.62.62,0,0,1-.11-.88c.7-.9,1.47-1.84,2.51-3.07a.62.62,0,1,1,1,.81c-1,1.21-1.79,2.14-2.48,3A.6.6,0,0,1,399.26,471.16Zm6.29-7.57a.62.62,0,0,1-.48-1c.91-1.13,1.69-2.15,2.36-3.1a.63.63,0,0,1,.87-.15.62.62,0,0,1,.15.87c-.69,1-1.48,2-2.41,3.17A.65.65,0,0,1,405.55,463.59Zm5.39-8.21a.58.58,0,0,1-.26-.06.62.62,0,0,1-.31-.83,21.51,21.51,0,0,0,1.29-3.59.61.61,0,0,1,.76-.45.64.64,0,0,1,.45.76,23.54,23.54,0,0,1-1.36,3.81A.65.65,0,0,1,410.94,455.38Z"/><path class="cls-3" d="M412.84,445.82a.63.63,0,0,1-.63-.6c0-.52-.07-1-.14-1.58-.38-.16-.87-.4-1.53-.73a.62.62,0,0,1-.27-.84.62.62,0,0,1,.84-.27c.82.42,1.4.68,1.75.82a.6.6,0,0,1,.39.49,18.27,18.27,0,0,1,.21,2.05.61.61,0,0,1-.59.65Z"/><path class="cls-3" d="M406.05,440.45a.66.66,0,0,1-.3-.07l-3.17-1.71a.62.62,0,1,1,.59-1.1l3.18,1.7a.64.64,0,0,1,.25.85A.62.62,0,0,1,406.05,440.45Zm-8-4.23a.58.58,0,0,1-.28-.07l-3.21-1.62a.63.63,0,0,1-.28-.84.62.62,0,0,1,.84-.28c1.07.53,2.15,1.08,3.22,1.63a.62.62,0,0,1-.29,1.18Zm-8.1-4a.57.57,0,0,1-.25-.06c-1.19-.53-2.3-1-3.3-1.39a.62.62,0,0,1,.46-1.16c1,.4,2.14.87,3.35,1.41a.64.64,0,0,1,.31.83A.62.62,0,0,1,390,432.27Z"/><path class="cls-3" d="M379.52,429.58a.64.64,0,0,1-.39-.14.62.62,0,0,1-.2-.68,4.34,4.34,0,0,0,.13-1.72.62.62,0,1,1,1.24-.14,5.86,5.86,0,0,1,0,1.18,6.5,6.5,0,0,1,1.23,0,.63.63,0,0,1,.55.7.62.62,0,0,1-.7.54,2.58,2.58,0,0,0-1.56.14A.62.62,0,0,1,379.52,429.58Z"/><path class="cls-3" d="M378.48,423.91a.63.63,0,0,1-.56-.35c-.33-.68-.73-1.41-1.22-2.22a.63.63,0,0,1,1.08-.65c.5.85.92,1.61,1.27,2.32a.63.63,0,0,1-.29.84A.67.67,0,0,1,378.48,423.91Z"/><path class="cls-3" d="M375.14,418.37a.63.63,0,0,1-.52-.28c-.34-.51-.65-1-.91-1.41h-1.64a.63.63,0,0,1,0-1.25h2a.63.63,0,0,1,.54.31c.28.48.64,1,1.05,1.66a.62.62,0,0,1-.18.86A.6.6,0,0,1,375.14,418.37Z"/><path class="cls-3" d="M368.69,416.68h-2.25a.63.63,0,1,1,0-1.25h2.25a.63.63,0,1,1,0,1.25Z"/><path class="cls-3" d="M363,416.68h-2a.63.63,0,0,1-.59-.4,6.33,6.33,0,0,1-.24-2.22.66.66,0,0,1,.64-.61.62.62,0,0,1,.61.64,8.42,8.42,0,0,0,.06,1.34H363a.63.63,0,1,1,0,1.25Z"/><path class="cls-3" d="M361.16,410.49h-.05a.63.63,0,0,1-.57-.68c.07-.88.1-1.51.1-2,0-.24,0-.47,0-.67a.63.63,0,0,1,.57-.68.65.65,0,0,1,.68.57c0,.24,0,.5,0,.78,0,.56,0,1.22-.1,2.13A.63.63,0,0,1,361.16,410.49Z"/><path class="cls-3" d="M357.28,409.42h-.1c-.65-.12-1.3-.2-1.93-.26a.62.62,0,0,1-.57-.67.64.64,0,0,1,.67-.57c.55,0,1.11.11,1.66.2.37-.49.72-.92,1-1.3a.63.63,0,0,1,.95.82c-.37.43-.78.94-1.21,1.53A.64.64,0,0,1,357.28,409.42Z"/><path class="cls-3" d="M339.15,411.41a10.17,10.17,0,0,1-2.77-.37.63.63,0,0,1-.44-.77.62.62,0,0,1,.77-.43,10,10,0,0,0,3.55.27.62.62,0,0,1,.68.56.63.63,0,0,1-.56.68Q339.77,411.41,339.15,411.41Zm6.74-1.26a.62.62,0,0,1-.16-1.23c1.09-.28,2.38-.59,3.78-.81a.63.63,0,0,1,.19,1.24c-1.35.21-2.6.51-3.66.78Z"/><path class="cls-3" d="M331.62,408.26a.6.6,0,0,1-.4-.15c-.41-.36-.83-.74-1.24-1.15a6.67,6.67,0,0,1-1.81.18.64.64,0,0,1-.61-.64.63.63,0,0,1,.63-.61h0a5.41,5.41,0,0,0,1.77-.23.65.65,0,0,1,.63.16c.47.49.95.93,1.42,1.34a.63.63,0,0,1,.07.88A.66.66,0,0,1,331.62,408.26Z"/><path class="cls-3" d="M324.94,406.42a.59.59,0,0,1-.23,0,16,16,0,0,1-2.09-1,.62.62,0,0,1-.23-.85.61.61,0,0,1,.85-.23,15.29,15.29,0,0,0,1.92.93.62.62,0,0,1,.36.81A.63.63,0,0,1,324.94,406.42Z"/><path class="cls-3" d="M318.1,404a.67.67,0,0,1-.34-.1.63.63,0,0,1-.19-.87,3.8,3.8,0,0,0,.56-1.62.63.63,0,0,1,1.08-.34,14.7,14.7,0,0,0,1.39,1.32.63.63,0,0,1,.07.88.62.62,0,0,1-.88.08c-.24-.21-.47-.41-.69-.62a4.69,4.69,0,0,1-.48,1A.61.61,0,0,1,318.1,404Z"/><path class="cls-3" d="M308.23,407.92a.71.71,0,0,1-.28-.06.62.62,0,0,1-.27-.84,11.67,11.67,0,0,0,.71-1.77.66.66,0,0,1,.61-.43l1.16,0,.85,0a.63.63,0,0,1,.6.65.64.64,0,0,1-.64.6l-.86,0-.68,0a11.27,11.27,0,0,1-.64,1.5A.62.62,0,0,1,308.23,407.92Z"/><path class="cls-3" d="M291.94,415.75a.63.63,0,0,1-.62-.55.64.64,0,0,1,.55-.7c1.5-.17,2.65-.33,3.71-.51a.64.64,0,0,1,.72.51.62.62,0,0,1-.51.72c-1.09.18-2.25.35-3.78.53Zm9.23-1.91a.63.63,0,0,1-.59-.41.62.62,0,0,1,.37-.8,15.64,15.64,0,0,0,3.22-1.64.62.62,0,0,1,.87.16.63.63,0,0,1-.16.87,16.53,16.53,0,0,1-3.49,1.78A.93.93,0,0,1,301.17,413.84Z"/><path class="cls-3" d="M284.32,416.68a.62.62,0,0,1-.1-1.24c.65-.11,1.32-.21,2-.29a.63.63,0,1,1,.16,1.24c-.66.08-1.32.18-1.95.28Z"/><path class="cls-3" d="M431.25,621.59h-.06A5.66,5.66,0,0,1,429,621a.62.62,0,1,1,.61-1.09,4.46,4.46,0,0,0,1.68.47.62.62,0,0,1-.07,1.24Z"/><path class="cls-3" d="M428,615.31l-.15,0a.62.62,0,0,1-.45-.76,28.47,28.47,0,0,1,1.42-4.09.64.64,0,0,1,.82-.33.62.62,0,0,1,.33.82,26.41,26.41,0,0,0-1.36,3.91A.63.63,0,0,1,428,615.31Z"/><path class="cls-3" d="M432.05,605.54a.69.69,0,0,1-.24,0,.62.62,0,0,1-.33-.82c.23-.56.36-.92.43-1.15l-.53-.09-.87-.16a.62.62,0,0,1,.22-1.23l.86.15,1.1.2a.63.63,0,0,1,.52.5,4.49,4.49,0,0,1-.58,2.27A.64.64,0,0,1,432.05,605.54Z"/><path class="cls-3" d="M425.87,602.45h-.11l-3.16-.56a.62.62,0,0,1,.21-1.23l3.17.56a.62.62,0,0,1,.51.72A.64.64,0,0,1,425.87,602.45Z"/><path class="cls-3" d="M418,601.06h-.11l-2-.35a.61.61,0,0,1-.44-.32c-.31-.57-.65-1.14-1-1.68a.62.62,0,0,1,.18-.86.63.63,0,0,1,.87.19c.31.48.61,1,.89,1.49l1.68.3a.63.63,0,0,1-.11,1.24Z"/><path class="cls-3" d="M411.24,594.45a.61.61,0,0,1-.43-.18,28.3,28.3,0,0,0-2.93-2.47.63.63,0,0,1,.74-1,31,31,0,0,1,3.06,2.59.62.62,0,0,1,0,.88A.6.6,0,0,1,411.24,594.45Zm-8-5.58a.67.67,0,0,1-.28-.06c-1.11-.55-2.3-1.08-3.54-1.56a.63.63,0,0,1,.46-1.17c1.27.5,2.5,1,3.64,1.61a.63.63,0,0,1,.28.84A.62.62,0,0,1,403.23,588.87ZM394,585.48l-.16,0c-1.21-.32-2.48-.62-3.79-.89a.63.63,0,0,1-.48-.74.61.61,0,0,1,.74-.48c1.32.27,2.62.57,3.85.9a.63.63,0,0,1,.44.77A.61.61,0,0,1,394,585.48Zm-9.62-1.87h-.09c-1.24-.16-2.54-.31-3.87-.44a.63.63,0,0,1-.57-.68.63.63,0,0,1,.69-.56c1.34.13,2.66.28,3.92.45a.62.62,0,0,1-.08,1.24Zm-9.78-.88h0c-1.31-.07-2.62-.12-3.91-.15a.63.63,0,0,1-.6-.65.61.61,0,0,1,.62-.6h0c1.3,0,2.61.09,3.93.15a.64.64,0,0,1,.6.66A.63.63,0,0,1,374.64,582.73Zm-13.73-.23a.64.64,0,0,1-.63-.63.63.63,0,0,1,.63-.62h3.92a.63.63,0,1,1,0,1.25h-3.92Z"/><path class="cls-3" d="M353,582.57a.63.63,0,0,1,0-1.25h2a.62.62,0,0,1,.63.61.64.64,0,0,1-.62.64h-2Z"/><path class="cls-3" d="M392,121.6a.6.6,0,0,1-.29-.08.63.63,0,0,1-.26-.85l.95-1.76a.63.63,0,0,1,.85-.25.61.61,0,0,1,.25.84l-.95,1.77A.62.62,0,0,1,392,121.6Z"/><path class="cls-3" d="M394,118a.66.66,0,0,1-.3-.07.63.63,0,0,1-.25-.85l1.8-3.34a.64.64,0,0,1,.85-.26.63.63,0,0,1,.25.85l-1.8,3.34A.62.62,0,0,1,394,118Z"/><path class="cls-3" d="M398.5,109.61a.62.62,0,0,1-.54-.92c.41-.75.68-1.26.88-1.6l.06-.15,0,0a1.72,1.72,0,0,1,.17-.23h0l0,0a.41.41,0,0,1,.21-.15l1.39-1a.63.63,0,0,1,.73,1l-1.52,1.07-.87,1.63A.63.63,0,0,1,398.5,109.61Z"/><path class="cls-3" d="M405.85,103.34a.66.66,0,0,1-.52-.27.63.63,0,0,1,.15-.87l3.18-2.25a.62.62,0,0,1,.72,1l-3.17,2.25A.62.62,0,0,1,405.85,103.34Zm7.93-5.62a.61.61,0,0,1-.51-.27.63.63,0,0,1,.15-.87l.75-.53a16.84,16.84,0,0,1,1.38-2.36.62.62,0,0,1,.87-.17.62.62,0,0,1,.16.87,15.4,15.4,0,0,0-1.34,2.33A.75.75,0,0,1,415,97l-.89.62A.6.6,0,0,1,413.78,97.72Zm5.94-7.6a.67.67,0,0,1-.42-.16.62.62,0,0,1,0-.89c.84-.93,1.76-1.88,2.71-2.83a.63.63,0,0,1,.88.89c-.94.93-1.84,1.86-2.67,2.78A.6.6,0,0,1,419.72,90.12Zm7-6.75a.59.59,0,0,1-.47-.22.62.62,0,0,1,.07-.88c1-.88,2.07-1.7,3.07-2.44a.63.63,0,1,1,.75,1c-1,.73-2,1.53-3,2.4A.68.68,0,0,1,426.71,83.37Z"/><path class="cls-3" d="M434.66,77.86a.63.63,0,0,1-.56-.35.62.62,0,0,1,.29-.83,13,13,0,0,1,1.94-.79.63.63,0,1,1,.36,1.2,11.49,11.49,0,0,0-1.75.71A.67.67,0,0,1,434.66,77.86Z"/><path class="cls-3" d="M391.52,122.55a.62.62,0,0,1-.5-1,5.2,5.2,0,0,0,.92-1.51.64.64,0,0,1,.78-.42.63.63,0,0,1,.42.78,6.49,6.49,0,0,1-1.13,1.92A.62.62,0,0,1,391.52,122.55Z"/><path class="cls-3" d="M388,117.64a.65.65,0,0,1-.55-.32l-2.06-3.66a.63.63,0,0,1,.24-.85.62.62,0,0,1,.85.24l2.06,3.66a.62.62,0,0,1-.23.85A.71.71,0,0,1,388,117.64Zm-5.15-9.14a.6.6,0,0,1-.54-.32l-2.06-3.65a.62.62,0,0,1,1.09-.61l2.06,3.65a.62.62,0,0,1-.24.85A.68.68,0,0,1,382.85,108.5Zm-5.14-9.13a.63.63,0,0,1-.55-.32l-2.05-3.65a.62.62,0,0,1,1.09-.61l2.05,3.65a.62.62,0,0,1-.23.85A.6.6,0,0,1,377.71,99.37Zm-5.14-9.13a.64.64,0,0,1-.55-.31l-2-3.66a.62.62,0,0,1,.23-.85.63.63,0,0,1,.86.24l2.05,3.65a.62.62,0,0,1-.24.85A.54.54,0,0,1,372.57,90.24Zm-5.15-9.13a.62.62,0,0,1-.54-.31c-1-1.84-1.6-2.84-1.87-3.42a.61.61,0,0,1-.23-.81.62.62,0,0,1,.83-.28.69.69,0,0,1,.31.3h0c0,.08.8,1.43,2,3.6a.62.62,0,0,1-.24.85A.58.58,0,0,1,367.42,81.11Zm-7.71-6.38a.67.67,0,0,1-.3-.08c-1.32-.7-2.54-1.42-3.65-2.11a.63.63,0,0,1,.67-1.06c1.08.68,2.28,1.38,3.57,2.07a.63.63,0,0,1-.29,1.18Zm-8.59-5.87a.59.59,0,0,1-.43-.17,16.45,16.45,0,0,1-2.77-3.31.62.62,0,0,1,1.06-.66,15.63,15.63,0,0,0,2.57,3.07.62.62,0,0,1-.43,1.07Zm-4.49-9.1a.62.62,0,0,1-.62-.57l-.05-.48a11.41,11.41,0,0,0-.66-3.42.62.62,0,0,1,.33-.82.63.63,0,0,1,.82.34,12.71,12.71,0,0,1,.76,3.78l0,.48a.63.63,0,0,1-.56.69Z"/><path class="cls-3" d="M341.41,51.51a.72.72,0,0,1-.29-.06c-.54-.28-1.14-.55-1.77-.81a.62.62,0,0,1-.35-.81.64.64,0,0,1,.82-.35c.67.28,1.3.56,1.87.85a.62.62,0,0,1-.28,1.18Z"/><path class="cls-3" d="M453.2,195.76a.66.66,0,0,1-.41-.16.63.63,0,0,1-.06-.88c.41-.47.89-1,1.43-1.48a.62.62,0,1,1,.86.9c-.51.5-1,1-1.35,1.4A.62.62,0,0,1,453.2,195.76Z"/><path class="cls-3" d="M459.19,190.43a.62.62,0,0,1-.38-1.12c1-.77,2.1-1.58,3.26-2.4a.63.63,0,0,1,.87.15.64.64,0,0,1-.15.88c-1.14.8-2.23,1.6-3.22,2.36A.6.6,0,0,1,459.19,190.43Zm8.25-5.73a.62.62,0,0,1-.33-1.15c1.16-.74,2.32-1.45,3.44-2.11a.62.62,0,0,1,.86.22.64.64,0,0,1-.22.86c-1.11.65-2.26,1.35-3.41,2.08A.61.61,0,0,1,467.44,184.7Zm8-5.74a.67.67,0,0,1-.3-.08.64.64,0,0,1-.25-.85c.59-1.06,1.25-2.25,2-3.52a.62.62,0,1,1,1.08.62c-.72,1.26-1.38,2.44-2,3.5A.62.62,0,0,1,475.41,179Zm5-8.71a.62.62,0,0,1-.32-.09.63.63,0,0,1-.21-.86c.69-1.14,1.39-2.3,2.11-3.44a.62.62,0,1,1,1.06.66c-.71,1.14-1.42,2.29-2.1,3.42A.63.63,0,0,1,480.43,170.25Zm5.39-8.49a.66.66,0,0,1-.35-.11.63.63,0,0,1-.17-.87c.84-1.23,1.62-2.35,2.33-3.31a.62.62,0,0,1,1,.74c-.7.95-1.47,2-2.29,3.27A.63.63,0,0,1,485.82,161.76Zm4.67-8.53h-.05a.62.62,0,0,1-.58-.66,38.31,38.31,0,0,1,.51-4,.63.63,0,0,1,.73-.51.62.62,0,0,1,.51.72,36.91,36.91,0,0,0-.5,3.92A.62.62,0,0,1,490.49,153.23Zm1.9-9.84-.18,0a.61.61,0,0,1-.42-.77c.35-1.22.77-2.52,1.23-3.86a.62.62,0,0,1,1.18.41c-.45,1.32-.86,2.6-1.21,3.8A.63.63,0,0,1,492.39,143.39Zm3.33-9.47a.68.68,0,0,1-.23,0,.63.63,0,0,1-.35-.81c.5-1.25,1-2.49,1.53-3.73a.62.62,0,0,1,.82-.33.61.61,0,0,1,.33.81c-.51,1.23-1,2.47-1.52,3.71A.61.61,0,0,1,495.72,133.92Zm3.89-9.27a.69.69,0,0,1-.24-.05.62.62,0,0,1-.33-.82c.53-1.25,1.06-2.48,1.57-3.7a.62.62,0,0,1,.81-.33.63.63,0,0,1,.34.82l-1.57,3.7A.64.64,0,0,1,499.61,124.65Z"/><path class="cls-3" d="M503.4,115.38a.54.54,0,0,1-.22,0,.63.63,0,0,1-.37-.8c.23-.63.45-1.26.66-1.87a.63.63,0,0,1,1.19.4c-.22.62-.44,1.26-.68,1.9A.62.62,0,0,1,503.4,115.38Z"/><path class="cls-3" d="M695.14,254.46h-.06l-2-.18a.63.63,0,0,1-.58-.67.64.64,0,0,1,.68-.58l2,.19a.63.63,0,0,1,.55.69A.62.62,0,0,1,695.14,254.46Z"/><path class="cls-3" d="M665.28,265.19a.63.63,0,0,1-.62-.55.62.62,0,0,1,.54-.7,22.7,22.7,0,0,0,4-.82.63.63,0,0,1,.37,1.2,25.29,25.29,0,0,1-4.22.86Zm-5.46-2.77a.61.61,0,0,1-.32-.08c-1.3-.76-2.53-1.41-3.66-1.93a.62.62,0,0,1-.31-.82.61.61,0,0,1,.83-.31,42.5,42.5,0,0,1,3.78,2,.62.62,0,0,1-.32,1.16Zm14.9-1.26a.6.6,0,0,1-.43-.17.62.62,0,0,1,0-.88,23.5,23.5,0,0,0,1.55-1.83c.37-.46.74-.92,1.14-1.37a.62.62,0,0,1,.93.83c-.38.43-.73.87-1.09,1.32-.5.63-1,1.28-1.63,1.91A.61.61,0,0,1,674.72,261.16Zm-28.5-.92a.62.62,0,0,1-.46-.19.64.64,0,0,1,0-.89,5.92,5.92,0,0,1,4.21-1.58.65.65,0,0,1,.66.62.61.61,0,0,1-.6.63H650a4.67,4.67,0,0,0-3.36,1.25A.61.61,0,0,1,646.22,260.24Zm36.48-5.51a.61.61,0,0,1-.6-.46.63.63,0,0,1,.44-.77,21,21,0,0,1,4.27-.62.6.6,0,0,1,.65.59.63.63,0,0,1-.59.66,19.38,19.38,0,0,0-4,.58Z"/><path class="cls-3" d="M641.34,261.58a.63.63,0,0,1-.51-.26,18.35,18.35,0,0,1-1.14-1.73.63.63,0,0,1,.21-.83.61.61,0,0,1,.84.16c.44.6.84,1.12,1.2,1.53a.63.63,0,0,1-.06.88l-.12.08,0,0A.58.58,0,0,1,641.34,261.58Z"/><path class="cls-3" d="M649.87,269.16a.68.68,0,0,1-.33-.09,33.91,33.91,0,0,1-3.81-2.71.62.62,0,0,1-.09-.88.64.64,0,0,1,.88-.09,32.7,32.7,0,0,0,3.67,2.61.62.62,0,0,1,.21.86A.63.63,0,0,1,649.87,269.16Z"/><path class="cls-3" d="M659.3,274a.61.61,0,0,1-.48-.22,15.9,15.9,0,0,1-1.09-1.42c-.57-.09-1.15-.22-1.76-.38a.63.63,0,0,1,.34-1.21,15.72,15.72,0,0,0,1.87.4.61.61,0,0,1,.44.27,15.46,15.46,0,0,0,1.16,1.53.63.63,0,0,1-.08.88A.62.62,0,0,1,659.3,274Z"/><path class="cls-3" d="M667.76,281.34a.6.6,0,0,1-.36-.12c-1.27-.89-2.49-1.81-3.62-2.73a.62.62,0,0,1-.09-.88.61.61,0,0,1,.87-.09c1.12.91,2.31,1.81,3.56,2.68a.63.63,0,0,1,.15.87A.64.64,0,0,1,667.76,281.34Z"/><path class="cls-3" d="M675.28,285.78a.57.57,0,0,1-.25-.06c-.58-.26-1.2-.56-1.83-.9a.62.62,0,1,1,.59-1.1c.61.33,1.2.62,1.75.86a.63.63,0,0,1,.31.83A.62.62,0,0,1,675.28,285.78Z"/><path class="cls-3" d="M581.28,480.56h-.08a11.17,11.17,0,0,1-2.07-.46.63.63,0,1,1,.39-1.19,9.68,9.68,0,0,0,1.84.41.63.63,0,0,1,.54.7A.63.63,0,0,1,581.28,480.56Z"/><path class="cls-3" d="M573.91,475.42a.62.62,0,0,1-.54-.32,28.85,28.85,0,0,1-1.62-3.51c-.14-.36-.28-.71-.42-1a.63.63,0,0,1,.33-.82.62.62,0,0,1,.82.33c.14.32.28.67.43,1a27.32,27.32,0,0,0,1.54,3.36.62.62,0,0,1-.23.85A.61.61,0,0,1,573.91,475.42Z"/><path class="cls-3" d="M565.81,473.54a.63.63,0,0,1-.34-.1.63.63,0,0,1-.18-.87c.41-.63.78-1.19,1.13-1.68a.63.63,0,0,1,1,.73c-.34.47-.7,1-1.1,1.63A.62.62,0,0,1,565.81,473.54Z"/><path class="cls-3" d="M285.43,232.34h0s-.13,0-.19,0a.62.62,0,0,1-.41-.78l.58-1.91h0c.11-.3.17-.33.34-.4a.66.66,0,0,1,.67.11.63.63,0,0,1,.18.65l-.17.54-.09.31L286,231.9A.63.63,0,0,1,285.43,232.34Z"/><path class="cls-3" d="M413,444.17h-.11a.58.58,0,0,1-.5-.68h0l0-.07v0a.63.63,0,0,1,1.23.27A.7.7,0,0,1,413,444.17Zm.63-.53h0Z"/><path class="cls-3" d="M374.6,417.62c-.18,0-.3-.09-.47-.31h0l-.22-.36-.14-.22-.22-.35a.64.64,0,0,1,0-.64.62.62,0,0,1,.55-.32.54.54,0,0,1,.52.3h0l.58.93a.62.62,0,0,1,.05.56.65.65,0,0,1-.41.38Z"/><path class="cls-3" d="M595.83,268.72a.68.68,0,0,1-.67-.64c0-.45.37-.61.73-.77a.65.65,0,0,1,.83.33.64.64,0,0,1-.09.64A1,1,0,0,1,595.83,268.72Z"/><path class="cls-3" d="M500.26,332.75a.94.94,0,0,1-.3-.07.62.62,0,0,1-.34-.81l0-.07a.75.75,0,0,1,.66-.49.69.69,0,0,1,.64.68A.7.7,0,0,1,500.26,332.75Z"/><path class="cls-3" d="M412.14,448.12H412a.63.63,0,0,1-.5-.62.49.49,0,0,1,0-.12l.05-.21a.62.62,0,1,1,1.22.25l0,.21A.64.64,0,0,1,412.14,448.12Z"/><path class="cls-3" d="M413,444.13l-.13,0a.62.62,0,0,1-.48-.74l0-.11a.62.62,0,0,1,.74-.48.63.63,0,0,1,.48.74l0,.12A.62.62,0,0,1,413,444.13Z"/><path class="cls-3" d="M483.92,367.37a.62.62,0,0,1-.6-.48l-.47-1.94a.69.69,0,0,1,.13-.55.54.54,0,0,1,.51-.22,10.58,10.58,0,0,0,1.88-.11.64.64,0,0,1,.71.54.63.63,0,0,1-.54.7q-.68.09-1.29.12l.28,1.17a.63.63,0,0,1-.46.76Z"/><path class="cls-3" d="M479.6,402.81a.71.71,0,0,1-.31-.08.62.62,0,0,1-.23-.85,4.34,4.34,0,0,0,.57-2.19,7.14,7.14,0,0,0-.21-1.63.62.62,0,0,1,1.21-.29,8,8,0,0,1,.25,1.92,5.53,5.53,0,0,1-.73,2.81A.64.64,0,0,1,479.6,402.81Zm-2.1-10.37a.63.63,0,0,1-.57-.35c-.56-1.18-1.2-2.56-1.8-4.06a.63.63,0,1,1,1.16-.47c.58,1.47,1.22,2.83,1.77,4a.62.62,0,0,1-.29.83A.53.53,0,0,1,477.5,392.44Zm.71-10a.61.61,0,0,1-.34-.1.63.63,0,0,1-.19-.86,10.88,10.88,0,0,1,3.15-3.41.61.61,0,0,1,.86.2.63.63,0,0,1-.2.86,9.58,9.58,0,0,0-2.75,3A.62.62,0,0,1,478.21,382.48Zm8.15-4.37a.62.62,0,0,1-.62-.54c-.12-.86-.44-2.32-.89-4.25a.62.62,0,1,1,1.21-.28c.46,2,.79,3.45.92,4.36a.62.62,0,0,1-.54.71Z"/><path class="cls-3" d="M474.53,407.82a.51.51,0,0,1-.17,0,7.56,7.56,0,0,0-1.83-.25.62.62,0,0,1-.2-1.21c.65-.25,1.26-.5,1.81-.75a.63.63,0,0,1,.66,1.05.61.61,0,0,1,.33.73A.63.63,0,0,1,474.53,407.82Z"/><path class="cls-3" d="M475,422.45l-.22,0a.64.64,0,0,1-.36-.81c.37-1,.76-2,1.11-3.08a.63.63,0,0,1,1.19.4c-.36,1.06-.75,2.11-1.13,3.12A.63.63,0,0,1,475,422.45Zm2.43-7.86h-.11a.62.62,0,0,1-.51-.72,12.39,12.39,0,0,0,.2-2.05,8.2,8.2,0,0,0-.07-1,.62.62,0,0,1,.52-.71.61.61,0,0,1,.71.52,8,8,0,0,1,.09,1.22,12.74,12.74,0,0,1-.22,2.26A.61.61,0,0,1,477.45,414.59Z"/><path class="cls-3" d="M473,429.09a.73.73,0,0,1-.29-.07q-.9-.48-1.77-.9a.63.63,0,0,1-.28-.84.62.62,0,0,1,.83-.28l1,.49a11.7,11.7,0,0,1,.27-1.16.62.62,0,0,1,.77-.43.61.61,0,0,1,.43.77,7.78,7.78,0,0,0-.33,1.81.63.63,0,0,1-.31.52A.62.62,0,0,1,473,429.09Z"/><path class="cls-3" d="M435,429.49a.64.64,0,0,1-.63-.6.63.63,0,0,1,.61-.65,36.52,36.52,0,0,0,3.67-.33.63.63,0,0,1,.17,1.24,36,36,0,0,1-3.8.34Zm9.22-1.57a.62.62,0,0,1-.18-1.22c1.23-.38,2.37-.78,3.53-1.2a.63.63,0,1,1,.42,1.18c-1.17.42-2.33.83-3.59,1.21A.57.57,0,0,1,444.26,427.92ZM466.07,426a.64.64,0,0,1-.2,0,29.74,29.74,0,0,0-3.54-1,.62.62,0,0,1,.27-1.22,30.23,30.23,0,0,1,3.68,1.06.62.62,0,0,1,.38.8A.63.63,0,0,1,466.07,426Zm-12.9-1a.63.63,0,0,1-.61-.48.64.64,0,0,1,.46-.76,21,21,0,0,1,3.82-.57.65.65,0,0,1,.66.59.63.63,0,0,1-.59.66,19.39,19.39,0,0,0-3.59.54Z"/><path class="cls-3" d="M426.23,430.71a.6.6,0,0,1-.38-.13.63.63,0,0,1-.12-.88c.44-.57.82-1.11,1.15-1.59a.61.61,0,0,1,.6-.27c.67.09,1.33.16,2,.22a.63.63,0,0,1,.57.68.64.64,0,0,1-.68.57l-1.63-.18c-.29.41-.62.86-1,1.33A.64.64,0,0,1,426.23,430.71Z"/><path class="cls-3" d="M419.18,438.64a.59.59,0,0,1-.44-.19.61.61,0,0,1,0-.88c1-.94,1.94-2,2.92-3a.63.63,0,0,1,.89,0,.62.62,0,0,1,0,.88c-1,1.09-2,2.13-3,3.08A.62.62,0,0,1,419.18,438.64Z"/><path class="cls-3" d="M412.36,445.81h-.09a.63.63,0,0,1-.53-.71c.09-.64.19-1.3.28-2a.63.63,0,0,1,.33-.47,16.32,16.32,0,0,0,1.63-1,.62.62,0,0,1,.72,1,16,16,0,0,1-1.48.94c-.08.57-.16,1.13-.24,1.67A.64.64,0,0,1,412.36,445.81Z"/><path class="cls-3" d="M412.55,455.05c-1.12,0-1.7-.92-1.7-2.74q0-.35,0-.75a.61.61,0,0,1,.66-.59.63.63,0,0,1,.59.66c0,.24,0,.47,0,.68,0,.68.08,1.49.45,1.49a1.55,1.55,0,0,0,.65-.19.63.63,0,0,1,.83.32.62.62,0,0,1-.32.82A2.77,2.77,0,0,1,412.55,455.05Z"/><path class="cls-3" d="M418.52,450.8a.62.62,0,0,1-.43-1.07c.45-.43.92-.89,1.42-1.39a.65.65,0,0,1,.53-.18l2,.27a.62.62,0,0,1,.53.7.63.63,0,0,1-.7.54l-1.67-.23L419,450.63A.63.63,0,0,1,418.52,450.8Z"/><path class="cls-3" d="M433.58,451.25h-.09l-4.65-.63a.63.63,0,1,1,.16-1.24l4.66.63a.63.63,0,0,1,.54.7A.62.62,0,0,1,433.58,451.25Z"/><path class="cls-3" d="M442.47,454.47h0a.63.63,0,0,1-.61-.65l0-.58c0-.27,0-.56,0-.85l-1.42-.2a.62.62,0,0,1,.17-1.23l2,.26a.63.63,0,0,1,.54.64c0,.5,0,1-.05,1.42l0,.58A.63.63,0,0,1,442.47,454.47Z"/><path class="cls-3" d="M484.05,480.14a.63.63,0,0,1-.41-.15,12.69,12.69,0,0,1-2.77-3.5.62.62,0,1,1,1.09-.6,11.52,11.52,0,0,0,2.5,3.15.62.62,0,0,1,.06.88A.63.63,0,0,1,484.05,480.14Zm-4.69-9.35a.63.63,0,0,1-.62-.51,34.83,34.83,0,0,1-.52-4.31.62.62,0,0,1,.58-.66.64.64,0,0,1,.66.59,34.62,34.62,0,0,0,.51,4.15.62.62,0,0,1-.49.73Zm-.43-10.62h-.06a.63.63,0,0,1-.56-.68c0-.16,0-.32,0-.48a9.1,9.1,0,0,0-2.29-2,.62.62,0,0,1-.21-.86.63.63,0,0,1,.86-.2,10.44,10.44,0,0,1,2.78,2.49.66.66,0,0,1,.13.45c0,.24-.05.48-.07.72A.62.62,0,0,1,478.93,460.17Zm-33.86-1.28a.63.63,0,0,1-.11-1.24,22.15,22.15,0,0,0,3.55-1.13.57.57,0,0,1,.26,0l.41,0a.64.64,0,0,1,.6.65.62.62,0,0,1-.65.6l-.3,0a21.85,21.85,0,0,1-3.64,1.15Zm10.44-1.67a.61.61,0,0,1-.61-.52.63.63,0,0,1,.52-.72c1.2-.19,2.43-.42,3.67-.64l.51-.1a.63.63,0,0,1,.73.51.62.62,0,0,1-.5.72l-.52.1c-1.25.23-2.49.45-3.7.65Zm10.52-1.7a.63.63,0,0,1-.62-.56.63.63,0,0,1,.56-.68,27.45,27.45,0,0,1,4.36-.14.63.63,0,1,1-.07,1.25,26.05,26.05,0,0,0-4.16.13Z"/><path class="cls-3" d="M491,484.36a.66.66,0,0,1-.27-.06.63.63,0,0,1-.29-.84c.14-.29.28-.57.43-.85-.33,0-.67,0-1-.06a.63.63,0,0,1,.12-1.25,13.34,13.34,0,0,0,1.91.05.57.57,0,0,1,.57.3.61.61,0,0,1,0,.64c-.32.54-.63,1.12-.92,1.72A.62.62,0,0,1,491,484.36Z"/><path class="cls-3" d="M491.27,505.47a.63.63,0,0,1-.51-.26,15.74,15.74,0,0,1-2.05-4.1.63.63,0,0,1,.4-.79.62.62,0,0,1,.79.4,14.46,14.46,0,0,0,1.88,3.77.63.63,0,0,1-.15.87A.59.59,0,0,1,491.27,505.47ZM488.38,495h0a.62.62,0,0,1-.61-.63,24.88,24.88,0,0,1,.49-4.5.63.63,0,0,1,.73-.49.64.64,0,0,1,.5.74,23.25,23.25,0,0,0-.47,4.27A.63.63,0,0,1,488.38,495Z"/><path class="cls-3" d="M498.1,510.53a.71.71,0,0,1-.21,0,16.54,16.54,0,0,1-1.92-.82.63.63,0,0,1,.57-1.12,13.54,13.54,0,0,0,1.45.64,12.61,12.61,0,0,1,1.49-.93.62.62,0,0,1,.59,1.1,11.48,11.48,0,0,0-1.59,1A.6.6,0,0,1,498.1,510.53Z"/><path class="cls-3" d="M504.68,507.66a.63.63,0,0,1-.14-1.24,24.22,24.22,0,0,1,3.54-.53.65.65,0,0,1,.67.58.64.64,0,0,1-.58.67,22.78,22.78,0,0,0-3.35.5Z"/><path class="cls-3" d="M515.22,508.13a.62.62,0,0,1-.26-.06,10.49,10.49,0,0,0-1.77-.6.62.62,0,1,1,.29-1.21,11.7,11.7,0,0,1,1.58.49,12.25,12.25,0,0,1,1.33-1,.62.62,0,0,1,.87.15.63.63,0,0,1-.15.87,7.21,7.21,0,0,0-1.39,1.14A.61.61,0,0,1,515.22,508.13Z"/><path class="cls-3" d="M521.46,503.91a.63.63,0,0,1-.31-1.17c1.05-.6,2.15-1.21,3.26-1.81A.62.62,0,0,1,525,502c-1.1.59-2.19,1.2-3.23,1.79A.56.56,0,0,1,521.46,503.91Zm8.2-4.32a.64.64,0,0,1-.57-.36.62.62,0,0,1,.3-.83c1.45-.69,2.62-1.19,3.47-1.49a.64.64,0,0,1,.8.39.62.62,0,0,1-.39.79c-.8.28-2,.78-3.35,1.43A.48.48,0,0,1,529.66,499.59Zm8.69-3.15a.61.61,0,0,1-.59-.43.62.62,0,0,1,.4-.79l2.65-.84.89-.28a.61.61,0,0,1,.78.41.64.64,0,0,1-.41.79l-.89.28-2.64.83A.63.63,0,0,1,538.35,496.44Zm8.81-2.86a.63.63,0,0,1-.59-.42.64.64,0,0,1,.38-.8c1.26-.44,2.39-.87,3.44-1.3a.63.63,0,0,1,.48,1.16c-1.08.44-2.22.87-3.5,1.32A.52.52,0,0,1,547.16,493.58Zm8.49-3.69a.62.62,0,0,1-.3-1.17,29.94,29.94,0,0,0,3.06-2,.62.62,0,0,1,.87.14.61.61,0,0,1-.13.87,30.94,30.94,0,0,1-3.2,2A.64.64,0,0,1,555.65,489.89Zm7.14-5.8a.6.6,0,0,1-.38-.13.61.61,0,0,1-.11-.87,14.35,14.35,0,0,0,1.81-3,.62.62,0,1,1,1.14.5,15.32,15.32,0,0,1-2,3.3A.6.6,0,0,1,562.79,484.09Z"/><path class="cls-3" d="M565.86,475.54h0a.62.62,0,0,1-.6-.65,18,18,0,0,0,0-1.93.67.67,0,0,1,.16-.47,12.26,12.26,0,0,0,1.18-1.49.62.62,0,0,1,.86-.18.63.63,0,0,1,.18.87,14.26,14.26,0,0,1-1.11,1.45c0,.61,0,1.21,0,1.79A.64.64,0,0,1,565.86,475.54Z"/><path class="cls-3" d="M568.81,466a.62.62,0,0,1-.62-.57,5.39,5.39,0,0,0-.46-1.74.61.61,0,0,1,0-.48c.27-.75.53-1.43.78-2.05a.62.62,0,0,1,.81-.35.63.63,0,0,1,.35.81c-.22.54-.44,1.14-.68,1.79a7.15,7.15,0,0,1,.47,1.9.62.62,0,0,1-.57.68Zm6-8.67a4.41,4.41,0,0,1-1.52-.32,1.46,1.46,0,0,0-.81-.18.63.63,0,0,1-.23-1.23l.33,0a3.28,3.28,0,0,1,1.14.26,2.53,2.53,0,0,0,2.36-.14.62.62,0,0,1,.86.22.64.64,0,0,1-.23.86A3.76,3.76,0,0,1,574.79,457.37Zm5.87-5a.69.69,0,0,1-.36-.11.63.63,0,0,1-.15-.87c.71-1,1.48-2.17,2.28-3.48a.62.62,0,1,1,1.06.65c-.81,1.33-1.59,2.53-2.32,3.55A.62.62,0,0,1,580.66,452.34Zm4.69-9.07a.62.62,0,0,1-.59-.42,21.89,21.89,0,0,0-1.49-3.06l-.34-.6a.63.63,0,0,1,.25-.85.61.61,0,0,1,.85.25l.33.6a21.49,21.49,0,0,1,1.58,3.25.63.63,0,0,1-.39.8A.64.64,0,0,1,585.35,443.27Z"/><path class="cls-3" d="M586.65,435.46h-.11a15.12,15.12,0,0,0-1.9-.25.63.63,0,0,1-.6-.65.62.62,0,0,1,.66-.6l.59.05-.31-.47a.63.63,0,1,1,1-.68c.34.53.71,1.06,1.12,1.6a.62.62,0,0,1,0,.71A.6.6,0,0,1,586.65,435.46Z"/><path class="cls-3" d="M583.2,428.18a.62.62,0,0,1-.62-.52,10.18,10.18,0,0,1-.12-1.54,8.35,8.35,0,0,1,.47-2.8.63.63,0,0,1,1.18.43,6.82,6.82,0,0,0-.4,2.37,8.73,8.73,0,0,0,.1,1.34.62.62,0,0,1-.52.72Zm4.4-8.38a.64.64,0,0,1-.56-.34.63.63,0,0,1,.27-.85,14.47,14.47,0,0,1,4.05-1.3.62.62,0,0,1,.72.5.63.63,0,0,1-.51.73,13,13,0,0,0-3.69,1.19A.72.72,0,0,1,587.6,419.8Z"/><path class="cls-3" d="M599.55,418.81h-.12c-.65-.14-1.3-.25-1.93-.33a.63.63,0,0,1-.54-.7.64.64,0,0,1,.7-.54q.58.07,1.17.18a5.28,5.28,0,0,0-.25-1,.63.63,0,0,1,.39-.8.62.62,0,0,1,.79.38,8.39,8.39,0,0,1,.42,2.12.67.67,0,0,1-.21.52A.66.66,0,0,1,599.55,418.81Z"/><path class="cls-3" d="M593.64,412.15a.61.61,0,0,1-.34-.1,9.07,9.07,0,0,1-3.52-3.89.63.63,0,0,1,.3-.83.62.62,0,0,1,.83.29A8,8,0,0,0,594,411a.62.62,0,0,1,.19.86A.6.6,0,0,1,593.64,412.15Z"/><path class="cls-3" d="M589.06,401.21h0a.62.62,0,0,1-.62-.62q0-1,.06-2a.58.58,0,0,1,.21-.43.61.61,0,0,1,.45-.16,10,10,0,0,0,1.9,0,.63.63,0,0,1,.13,1.25,12,12,0,0,1-1.48.06c0,.47,0,.92,0,1.35A.63.63,0,0,1,589.06,401.21Z"/><path class="cls-3" d="M596.8,396.37a.65.65,0,0,1-.43-.17.63.63,0,0,1,0-.89,16.2,16.2,0,0,0,2.4-3.37.62.62,0,0,1,.85-.24.63.63,0,0,1,.24.86,17.25,17.25,0,0,1-2.6,3.62A.6.6,0,0,1,596.8,396.37Z"/><path class="cls-3" d="M602.13,387.05a.66.66,0,0,1-.27-.06.62.62,0,0,1-.3-.83c.21-.45.42-.89.64-1.32-.24-.13-.6-.32-1.18-.6a.63.63,0,0,1-.28-.84.62.62,0,0,1,.84-.28c1.94,1,2.19,1.09,2.06,1.65a.68.68,0,0,1-.12.24c-.29.55-.56,1.11-.83,1.68A.62.62,0,0,1,602.13,387.05Z"/><path class="cls-3" d="M595.36,381.44a.66.66,0,0,1-.27-.06l-4-1.86a.63.63,0,0,1,.53-1.14l4,1.87a.62.62,0,0,1-.27,1.19Z"/><path class="cls-3" d="M582.19,377.37a.67.67,0,0,1-.47-.2.63.63,0,0,1,0-.89c.43-.39.89-.85,1.37-1.37a.63.63,0,0,1,.72-.15l1.81.84a.62.62,0,1,1-.52,1.13l-1.4-.64c-.39.41-.78.79-1.14,1.12A.61.61,0,0,1,582.19,377.37Z"/><path class="cls-3" d="M576.36,379a.55.55,0,0,1-.32-.1,9.91,9.91,0,0,1-3-3.53.64.64,0,0,1,.23-.86.62.62,0,0,1,.85.23,8.93,8.93,0,0,0,2.54,3.1.62.62,0,0,1,.21.86A.65.65,0,0,1,576.36,379Z"/><path class="cls-3" d="M570.44,370a.63.63,0,0,1-.52-.28c-.32-.49-.63-.92-.93-1.31a13.13,13.13,0,0,1-1.77,0,.62.62,0,0,1-.57-.67.64.64,0,0,1,.66-.58,10.88,10.88,0,0,0,1.9,0,.61.61,0,0,1,.54.22A19.94,19.94,0,0,1,571,369a.63.63,0,0,1-.19.86A.59.59,0,0,1,570.44,370Z"/><path class="cls-3" d="M562.4,367.39l-.18,0c-1-.3-2.06-.68-3.17-1.12a.62.62,0,1,1,.46-1.16c1.08.43,2.11.79,3.07,1.09a.63.63,0,0,1,.42.78A.62.62,0,0,1,562.4,367.39Zm-7.66-3.12a.55.55,0,0,1-.28-.07c-1-.49-2-1-3-1.52a.62.62,0,1,1,.59-1.1c.94.5,1.93,1,2.93,1.5a.63.63,0,0,1-.27,1.19Z"/><path class="cls-3" d="M544.12,360.5a.66.66,0,0,1-.51-.25.64.64,0,0,1,.13-.88l1.61-1.19a.64.64,0,0,1,.7,0l1.71,1a.63.63,0,1,1-.63,1.08l-1.37-.81-1.27.95A.63.63,0,0,1,544.12,360.5Z"/><path class="cls-3" d="M540.76,363a.6.6,0,0,1-.27-.06l-.26-.12c-.5-.25-1-.5-1.55-.78a.62.62,0,0,1-.27-.84.63.63,0,0,1,.85-.27c.48.26,1,.49,1.43.72l1.31-1a.63.63,0,0,1,.74,1l-1.61,1.19A.63.63,0,0,1,540.76,363Z"/><path class="cls-3" d="M535,357h-.13a.64.64,0,0,1-.48-.75,5.13,5.13,0,0,1,.66-1.58,4.91,4.91,0,0,0-1.07-.75.63.63,0,0,1,.59-1.11,6.63,6.63,0,0,1,1.74,1.35.62.62,0,0,1,0,.78,4.59,4.59,0,0,0-.75,1.58A.62.62,0,0,1,535,357Z"/><path class="cls-3" d="M507.08,365.81a.62.62,0,0,1-.51-.26.62.62,0,0,1,.14-.87l.61-.45,2.71-2a.61.61,0,0,1,.87.14.62.62,0,0,1-.14.87c-.94.67-1.84,1.33-2.7,2l-.62.45A.62.62,0,0,1,507.08,365.81Zm8.36-5.92a.63.63,0,0,1-.52-.28.61.61,0,0,1,.17-.86c1.22-.81,2.4-1.56,3.49-2.21a.62.62,0,0,1,.86.22.61.61,0,0,1-.22.85c-1.08.65-2.23,1.38-3.44,2.18A.59.59,0,0,1,515.44,359.89Zm8.91-5a.64.64,0,0,1-.58-.38.63.63,0,0,1,.33-.82,24.31,24.31,0,0,1,4-1.35.63.63,0,1,1,.28,1.22,21.46,21.46,0,0,0-3.76,1.28A.74.74,0,0,1,524.35,354.86Z"/><path class="cls-3" d="M500.32,370.33a.57.57,0,0,1-.41-.16.61.61,0,0,1-.18-.66c.22-.68.4-1.3.55-1.88a.63.63,0,0,1,.77-.45.62.62,0,0,1,.44.76c0,.15-.08.31-.12.46l.35-.21a.62.62,0,1,1,.67,1.05,16.59,16.59,0,0,1-1.8,1A.66.66,0,0,1,500.32,370.33Z"/><path class="cls-3" d="M490.33,364.11a.62.62,0,0,1-.6-.43.64.64,0,0,1,.41-.79c.56-.17,1.13-.36,1.68-.54l1.5-.48a.62.62,0,0,1,.38,1.19l-1.49.48-1.7.55A.55.55,0,0,1,490.33,364.11Zm10.81-.64a.63.63,0,0,1-.58-.39c-.2-.5-.61-1.07-2-1.07h-.13l0-1.25h.16a3.06,3.06,0,0,1,3.18,1.85.61.61,0,0,1-.35.81A.59.59,0,0,1,501.14,363.47Z"/><path class="cls-3" d="M412.6,445.94h-.13a.62.62,0,0,1-.48-.74l.08-.35a.62.62,0,0,1,1.22.27l-.08.34A.62.62,0,0,1,412.6,445.94Z"/><path class="cls-3" d="M413.05,444a.89.89,0,0,1-.31-.07h0l-.38-.19a.64.64,0,0,1-.34-.53.65.65,0,0,1,.3-.56.58.58,0,0,1,.61,0h0l.1.05.14.07.14.07a.61.61,0,0,1,.33.46.61.61,0,0,1-.58.72Zm-.08-.29h0Z"/><path class="cls-3" d="M412.75,445.25h-.13a.64.64,0,0,1-.48-.75l.22-1a.64.64,0,0,1,.75-.48.62.62,0,0,1,.47.74h0l-.22,1A.62.62,0,0,1,412.75,445.25Z"/><path class="cls-3" d="M421.94,327.56a.62.62,0,0,1-.52-1c.37-.58.73-1.15,1.06-1.69a.63.63,0,0,1,.87-.19.62.62,0,0,1,.19.86l-1.07,1.69A.62.62,0,0,1,421.94,327.56Z"/><path class="cls-3" d="M425.39,322a.61.61,0,0,1-.34-.1.63.63,0,0,1-.19-.86c1-1.54,1.36-1.94,1.86-1.94.18,0,.79.07.79,1.08,0,.11,0,.24,0,.39a.63.63,0,0,1-.67.57.61.61,0,0,1-.41-.19c-.13.19-.29.44-.49.76A.64.64,0,0,1,425.39,322Zm1.55-1.71Zm-.69-.26Z"/><path class="cls-3" d="M427.25,328.66a.61.61,0,0,1-.34-.1c-.54-.35-1.09-.71-1.68-1.11a.62.62,0,0,1-.26-.66c.17-.7.32-1.35.45-1.94a.63.63,0,0,1,.75-.48.64.64,0,0,1,.47.75c-.11.48-.22,1-.35,1.54l1.3.85a.62.62,0,0,1-.34,1.15Z"/><path class="cls-3" d="M436.43,333.4a.39.39,0,0,1-.15,0,18.2,18.2,0,0,1-4-1.61.63.63,0,1,1,.58-1.11,17.49,17.49,0,0,0,3.69,1.51.62.62,0,0,1-.15,1.23Zm5.32-2.21a.61.61,0,0,1-.42-.16.64.64,0,0,1,0-.89,9.58,9.58,0,0,1,3.53-2.58.62.62,0,1,1,.48,1.15,8.34,8.34,0,0,0-3.09,2.28A.63.63,0,0,1,441.75,331.19Z"/><path class="cls-3" d="M453.31,330.2a.62.62,0,0,1-.61-.48,6.28,6.28,0,0,1-.16-1.58c-.48-.06-.93-.1-1.37-.13a.62.62,0,0,1-.58-.66.61.61,0,0,1,.66-.58c.65,0,1.33.11,2,.2a.62.62,0,0,1,.55.68,5.27,5.27,0,0,0,.09,1.79.63.63,0,0,1-.47.75Z"/><path class="cls-3" d="M462.5,335.72h-.1a25.39,25.39,0,0,1-4.51-1.11.63.63,0,1,1,.42-1.18,24.16,24.16,0,0,0,4.3,1.05.62.62,0,0,1,.51.72A.63.63,0,0,1,462.5,335.72Z"/><path class="cls-3" d="M471.23,336.93a.74.74,0,0,1-.36-.07c-.45-.1-1-.19-1.7-.29a.62.62,0,0,1-.53-.7.63.63,0,0,1,.7-.54c.48.07.9.13,1.26.2V334.3a.63.63,0,0,1,.62-.63h0a.63.63,0,0,1,.63.63v2.08A.63.63,0,0,1,471.23,336.93Z"/><path class="cls-3" d="M471.22,333.15a.62.62,0,0,1-.62-.62v-2a.62.62,0,0,1,.54-.61.63.63,0,0,1,.69.45,6.32,6.32,0,0,0,.71,1.67.62.62,0,0,1-.21.86.61.61,0,0,1-.61,0A.64.64,0,0,1,471.22,333.15Z"/><path class="cls-3" d="M477.93,335.77a9,9,0,0,1-.91,0,.61.61,0,0,1-.58-.67.63.63,0,0,1,.67-.57,15.43,15.43,0,0,0,3.82-.27.62.62,0,0,1,.72.51.62.62,0,0,1-.5.72A18.53,18.53,0,0,1,477.93,335.77Zm8.89-1.87a.63.63,0,0,1-.2-1.22c1.3-.44,2.62-.93,3.74-1.35a.63.63,0,0,1,.44,1.17c-1.13.42-2.46.92-3.78,1.36A.51.51,0,0,1,486.82,333.9Z"/><path class="cls-3" d="M496.21,330.5a.63.63,0,0,1-.18-1.23c.39-.12.74-.22,1.07-.3-.21-.32-.4-.64-.58-1a.62.62,0,0,1,.24-.85.63.63,0,0,1,.85.25,19,19,0,0,0,1,1.62.61.61,0,0,1-.41,1,14.37,14.37,0,0,0-1.84.46Z"/><path class="cls-3" d="M495.57,323.47a.62.62,0,0,1-.62-.59q0-.37,0-.75a12.74,12.74,0,0,1,.33-2.82.6.6,0,0,1,.74-.47.62.62,0,0,1,.48.74,11.57,11.57,0,0,0-.3,2.55c0,.22,0,.44,0,.67a.63.63,0,0,1-.58.67Zm2-8.23a.56.56,0,0,1-.25-.05.62.62,0,0,1-.32-.82l.07-.16c.44-1,.87-2,1.17-3a.62.62,0,0,1,.79-.4.61.61,0,0,1,.4.78,32.74,32.74,0,0,1-1.22,3.08l-.07.16A.62.62,0,0,1,497.58,315.24Zm1.24-8.17a.62.62,0,0,1-.57-.36,7.06,7.06,0,0,0-2-2.39.63.63,0,0,1-.08-.88.62.62,0,0,1,.88-.09,8.24,8.24,0,0,1,2.33,2.83.62.62,0,0,1-.29.83A.66.66,0,0,1,498.82,307.07Z"/><path class="cls-3" d="M492.24,301.83a.85.85,0,0,1-.26-.05c-.56-.26-1.16-.53-1.81-.79a.62.62,0,0,1-.36-.75,7,7,0,0,1,1-1.95.62.62,0,0,1,1,.69,7.65,7.65,0,0,0-.63,1.09c.46.19.89.38,1.31.57a.63.63,0,0,1,.3.83A.62.62,0,0,1,492.24,301.83Z"/><path class="cls-3" d="M494.83,295.11a.65.65,0,0,1-.43-.17.62.62,0,0,1,0-.88l.81-.87c.56-.59,1.12-1.18,1.67-1.78a.63.63,0,0,1,.92.85c-.55.6-1.12,1.2-1.68,1.79l-.81.86A.65.65,0,0,1,494.83,295.11Zm5.92-6.88a.72.72,0,0,1-.34-.09.64.64,0,0,1-.19-.87,5.48,5.48,0,0,0,1.06-2.73c0-.08,0-.16,0-.24a.62.62,0,1,1,1.24-.14c0,.12,0,.25,0,.38a6.54,6.54,0,0,1-1.25,3.4A.62.62,0,0,1,500.75,288.23Zm-3-6.27h-.12a15.4,15.4,0,0,0-1.54-.22.67.67,0,0,1-.36-.17c-.55-.5-1-1-1.47-1.43a.62.62,0,0,1,0-.88.63.63,0,0,1,.88,0c.39.4.81.81,1.28,1.25.51.05,1,.13,1.43.21a.62.62,0,0,1,.5.73A.63.63,0,0,1,497.71,282Zm-6.15-6.06a.62.62,0,0,1-.6-.42,4.88,4.88,0,0,1-.27-1.56,5.43,5.43,0,0,1,.66-2.42.63.63,0,0,1,1.13.55,4.11,4.11,0,0,0-.54,1.87,3.56,3.56,0,0,0,.21,1.16.63.63,0,0,1-.39.79Zm.38-8.58a.62.62,0,0,1-.53-.29,15.79,15.79,0,0,0-2.29-2.61.62.62,0,0,1,0-.88.63.63,0,0,1,.88,0,16.27,16.27,0,0,1,2.48,2.84.63.63,0,0,1-.18.87A.7.7,0,0,1,491.94,267.32Z"/><path class="cls-3" d="M485.32,261.09A.63.63,0,0,1,485,261l-1.61-1.18a.66.66,0,0,1-.26-.47.64.64,0,0,1,.21-.5c.45-.42.92-.87,1.41-1.37a.63.63,0,1,1,.89.88c-.3.31-.61.61-.9.89l1,.75a.62.62,0,0,1,.12.87A.6.6,0,0,1,485.32,261.09Z"/><path class="cls-3" d="M489.55,253.11a.64.64,0,0,1-.35-.1.63.63,0,0,1-.17-.87,26.59,26.59,0,0,0,2.22-4,.62.62,0,0,1,.82-.32.63.63,0,0,1,.32.83,28.19,28.19,0,0,1-2.32,4.15A.62.62,0,0,1,489.55,253.11Z"/><path class="cls-3" d="M493.24,242.28a.63.63,0,0,1-.63-.58,8.28,8.28,0,0,0-.17-1.23,11,11,0,0,1-1.43.26.62.62,0,0,1-.14-1.24,9.91,9.91,0,0,0,1.83-.39.58.58,0,0,1,.48,0,.65.65,0,0,1,.31.38,9.63,9.63,0,0,1,.37,2.09.62.62,0,0,1-.58.67Z"/><path class="cls-3" d="M486.19,240.35H486a21.72,21.72,0,0,1-3.1-1,.63.63,0,1,1,.48-1.16,19.65,19.65,0,0,0,2.92,1,.62.62,0,0,1-.15,1.23Zm-7.25-3.22a.68.68,0,0,1-.33-.09c-.9-.57-1.79-1.18-2.67-1.84a.63.63,0,0,1,.76-1c.84.64,1.71,1.23,2.58,1.78a.62.62,0,0,1,.19.86A.61.61,0,0,1,478.94,237.13Z"/><path class="cls-3" d="M472.69,232.21a.62.62,0,0,1-.44-.18c-.51-.49-1-1-1.41-1.47a.64.64,0,0,1-.13-.62c.22-.62.43-1.25.63-1.88a.64.64,0,0,1,.79-.41.62.62,0,0,1,.4.79L472,230c.34.37.71.76,1.11,1.14a.62.62,0,0,1,0,.88A.59.59,0,0,1,472.69,232.21Z"/><path class="cls-3" d="M473.76,222.53h-.15a.63.63,0,0,1-.45-.76c.36-1.47.68-2.9.94-4.26a.63.63,0,1,1,1.23.23c-.27,1.39-.59,2.84-1,4.33A.62.62,0,0,1,473.76,222.53Zm1.83-10.83h0A.62.62,0,0,1,475,211c.06-.86.09-1.71.09-2.52,0-.61,0-1.21-.05-1.8a.63.63,0,0,1,.59-.66.64.64,0,0,1,.66.59c0,.61.05,1.23.05,1.87,0,.84,0,1.71-.09,2.6A.62.62,0,0,1,475.59,211.7Zm-1.32-10.81a.64.64,0,0,1-.58-.38,10.52,10.52,0,0,0-2.27-3.44.63.63,0,1,1,.88-.89,11.86,11.86,0,0,1,2.54,3.84.62.62,0,0,1-.33.82A.69.69,0,0,1,474.27,200.89ZM466,194.37h-.11a18,18,0,0,0-4.23-.22.63.63,0,0,1-.07-1.25,19.39,19.39,0,0,1,4.53.24.63.63,0,0,1-.12,1.24Z"/><path class="cls-3" d="M455,196.69a.68.68,0,0,1-.31-.08c-.54-.3-1.12-.6-1.75-.92a.62.62,0,0,1-.34-.61.64.64,0,0,1,.44-.55q1-.3,2-.54a.63.63,0,0,1,.77.45.64.64,0,0,1-.45.76l-.4.1.39.22a.62.62,0,0,1-.3,1.17Z"/><path class="cls-3" d="M434.71,258.65a.63.63,0,0,1-.45-1.06c.95-1,1.79-1.9,2.58-2.81a.62.62,0,1,1,.94.82c-.8.92-1.65,1.86-2.62,2.86A.6.6,0,0,1,434.71,258.65Zm6.1-7.41a.63.63,0,0,1-.34-.1.63.63,0,0,1-.18-.87,29.06,29.06,0,0,0,1.88-3.25.62.62,0,1,1,1.12.54,31.57,31.57,0,0,1-2,3.4A.65.65,0,0,1,440.81,251.24Zm3.7-8.78h-.1a.62.62,0,0,1-.52-.71,14.79,14.79,0,0,0,.16-2.08,11.87,11.87,0,0,0-.1-1.58.62.62,0,1,1,1.24-.15,14.22,14.22,0,0,1,.11,1.73,14.66,14.66,0,0,1-.18,2.27A.62.62,0,0,1,444.51,242.46Zm-3-8.31a.62.62,0,0,1-.5-.25,5.24,5.24,0,0,1-1.08-3.24,5.93,5.93,0,0,1,.06-.84.61.61,0,0,1,.7-.54.62.62,0,0,1,.53.7,5.17,5.17,0,0,0,0,.68,4,4,0,0,0,.83,2.49.63.63,0,0,1-.12.88A.68.68,0,0,1,441.52,234.15Zm1.49-8.8a.63.63,0,0,1-.5-1,31.61,31.61,0,0,1,2.53-3,.62.62,0,0,1,.9.86,31.65,31.65,0,0,0-2.42,2.88A.62.62,0,0,1,443,225.35Zm6.69-6.89a.61.61,0,0,1-.48-.22.63.63,0,0,1,.07-.88c.95-.81,2-1.63,3-2.43a.63.63,0,0,1,.88.12.64.64,0,0,1-.12.88c-1,.79-2,1.59-3,2.38A.62.62,0,0,1,449.7,218.46Zm7.6-5.83a.52.52,0,0,1-.27-.07.6.6,0,0,1-.29-.83l.4-.83c.46-.94.88-1.81,1.26-2.62a.62.62,0,1,1,1.13.52c-.38.82-.81,1.7-1.27,2.65l-.4.82A.62.62,0,0,1,457.3,212.63Zm3.42-8.92h0a.62.62,0,0,1-.59-.66c0-.1,0-.19,0-.29a4.39,4.39,0,0,0-1.05-2.85.63.63,0,0,1,1-.78,5.68,5.68,0,0,1,1.32,3.63c0,.12,0,.24,0,.36A.63.63,0,0,1,460.72,203.71Z"/><path class="cls-3" d="M429.52,266a.63.63,0,0,1-.61-.5l-.11-.58c-.15-.77-.26-1.31-.27-1.38a.32.32,0,0,1,0-.14.57.57,0,0,1,.2-.44l1.45-1.37a.62.62,0,0,1,.88,0,.63.63,0,0,1,0,.89l-1.21,1.13c.05.24.12.57.21,1l.12.58a.64.64,0,0,1-.5.73Z"/><path class="cls-3" d="M428.91,272.69a.63.63,0,0,1-.54-.31.63.63,0,0,1,.22-.86l1.34-.8-.3-1.53a.62.62,0,1,1,1.22-.24l.39,2a.64.64,0,0,1-.29.66l-1.72,1A.62.62,0,0,1,428.91,272.69Z"/><path class="cls-3" d="M427.05,273.8a.63.63,0,0,1-.33-1.16l1.72-1a.62.62,0,0,1,.86.22.63.63,0,0,1-.22.86l-1.71,1A.65.65,0,0,1,427.05,273.8Z"/><path class="cls-3" d="M375.71,419.31a.62.62,0,0,1-.53-.29l-1.06-1.7a.65.65,0,0,1-.05-.56.61.61,0,0,1,.41-.37c.29-.09.39-.12.68.28h0l.52.83.16.25.38.61,0,0a.64.64,0,0,1-.23.82A.63.63,0,0,1,375.71,419.31Z"/><path class="cls-3" d="M379.52,425.41a.63.63,0,0,1-.53-.29l-1.06-1.7,0-.05a.64.64,0,0,1,.23-.81.62.62,0,0,1,.86.2l1.06,1.7a.61.61,0,0,1-.2.86A.63.63,0,0,1,379.52,425.41Z"/><path class="cls-3" d="M480.47,379.4a.6.6,0,0,1-.31-.08.62.62,0,0,1-.23-.85l1-1.74a.63.63,0,0,1,.7-.29.63.63,0,0,1,.46.61.51.51,0,0,1-.09.31h0l-.19.32-.1.18-.71,1.23a1.47,1.47,0,0,1-.1.13A.63.63,0,0,1,480.47,379.4Z"/><path class="cls-3" d="M477.31,384.87a.59.59,0,0,1-.31-.09.62.62,0,0,1-.23-.85l1-1.73a.64.64,0,0,1,.86-.23.62.62,0,0,1,.22.85h0l-1,1.74A.61.61,0,0,1,477.31,384.87Z"/><path class="cls-3" d="M475.53,388h0a.62.62,0,0,1-.54-.31c-.11-.18-.15-.25,0-.61l0,0,.69-1.2c.06-.09.12-.2.18-.31l.91-1.57a.63.63,0,0,1,.54-.31h0a.63.63,0,0,1,.54.31c.1.18.15.25,0,.61l0,0-.69,1.19c-.06.11-.12.22-.19.33l-.9,1.56A.63.63,0,0,1,475.53,388Z"/><path class="cls-3" d="M477.6,375.48a.63.63,0,0,1-.62-.54c-.05-.45-.11-.91-.19-1.4l-1.47.06a.61.61,0,0,1-.64-.62.63.63,0,0,1,.62-.63c.65,0,1.3,0,2-.09a.64.64,0,0,1,.67.51c.12.72.22,1.38.29,2a.62.62,0,0,1-.54.7Z"/><path class="cls-3" d="M459.62,377.54h-.13a.63.63,0,0,1-.49-.74,5.59,5.59,0,0,1,1.89-3.43.62.62,0,0,1,.88.09.63.63,0,0,1-.1.88,4.44,4.44,0,0,0-1.44,2.71A.63.63,0,0,1,459.62,377.54ZM470,373.4h0c-1.26-.09-2.44-.16-3.53-.17a.63.63,0,0,1,0-1.25h0c1.12,0,2.33.09,3.6.17a.63.63,0,0,1,.59.66A.64.64,0,0,1,470,373.4Z"/><path class="cls-3" d="M459.9,384.87a.63.63,0,0,1-.62-.52c-.12-.71-.22-1.38-.29-2a.62.62,0,0,1,1.24-.15c0,.44.12.91.19,1.39.5,0,1,0,1.47-.05h0a.63.63,0,1,1,0,1.25c-.64,0-1.3,0-2,.09Z"/><path class="cls-3" d="M470.83,385.14h0c-1.12,0-2.32-.08-3.6-.16a.63.63,0,0,1-.58-.67.6.6,0,0,1,.66-.58c1.26.08,2.45.16,3.53.16a.63.63,0,0,1,0,1.25Zm5.1-1.24a.59.59,0,0,1-.48-.23.61.61,0,0,1,.09-.87,4.47,4.47,0,0,0,1.44-2.71.63.63,0,0,1,.74-.49.61.61,0,0,1,.49.73,5.63,5.63,0,0,1-1.88,3.43A.61.61,0,0,1,475.93,383.9Z"/><path class="cls-4" d="M477.31,384.24Z"/><path class="cls-3" d="M499.35,334.54a.8.8,0,0,1-.26-.05.64.64,0,0,1-.31-.83c.21-.47.44-1,.67-1.44a18.37,18.37,0,0,1-1.85-2.52.62.62,0,1,1,1.09-.61,13.21,13.21,0,0,0,1.93,2.56l0,0a.63.63,0,0,1,.15.66.53.53,0,0,1-.08.15c-.28.59-.54,1.15-.79,1.7A.61.61,0,0,1,499.35,334.54Z"/><path class="cls-3" d="M500.94,353.44a.61.61,0,0,1-.45-.19,10.82,10.82,0,0,0-1.73-1.33,14.07,14.07,0,0,1-1.7-1.26.63.63,0,0,1,.84-.93,13,13,0,0,0,1.55,1.15,11.45,11.45,0,0,1,1.94,1.5.62.62,0,0,1,0,.88A.6.6,0,0,1,500.94,353.44Zm-5.06-8.63h-.09a.62.62,0,0,1-.53-.7,26.32,26.32,0,0,1,1.07-4.33.63.63,0,0,1,.79-.39.62.62,0,0,1,.4.79,23.67,23.67,0,0,0-1,4.1A.63.63,0,0,1,495.88,344.81Z"/><path class="cls-3" d="M501.53,361.55a.57.57,0,0,1-.18,0,.63.63,0,0,1-.42-.78c.2-.67.37-1.3.49-1.88a.63.63,0,0,1,.74-.49.63.63,0,0,1,.48.74c-.13.62-.3,1.29-.51,2A.64.64,0,0,1,501.53,361.55Z"/><path class="cls-3" d="M656.67,303.55a.57.57,0,0,1-.18,0l-1.92-.58a.62.62,0,0,1-.41-.78.61.61,0,0,1,.78-.41l1.91.58a.62.62,0,0,1,.42.78A.63.63,0,0,1,656.67,303.55Z"/><path class="cls-3" d="M651,301.82l-.18,0-2.53-.76a.63.63,0,1,1,.36-1.2l2.53.77a.62.62,0,0,1-.18,1.22Z"/><path class="cls-3" d="M644.63,299.9l-.18,0-1.91-.58a.62.62,0,0,1-.42-.43c-.2-.7-.37-1.36-.5-2a.61.61,0,0,1,.47-.74.63.63,0,0,1,.75.47c.11.5.24,1,.39,1.58l1.58.48a.63.63,0,0,1,.42.78A.62.62,0,0,1,644.63,299.9Z"/><path class="cls-3" d="M641.9,293.17h-.1a.62.62,0,0,1-.52-.71,5.13,5.13,0,0,1,1.34-2.85.61.61,0,0,1,.88,0,.62.62,0,0,1,0,.88,3.89,3.89,0,0,0-1,2.19A.63.63,0,0,1,641.9,293.17Z"/><path class="cls-3" d="M646.74,288.59a.63.63,0,0,1-.6-.43.62.62,0,0,1,.4-.79c.44-.14.9-.27,1.41-.4-.09-.45-.18-.9-.29-1.36a.62.62,0,0,1,.48-.74.64.64,0,0,1,.75.47c.14.67.28,1.34.39,2a.62.62,0,0,1-.47.72c-.7.16-1.32.33-1.88.51A.63.63,0,0,1,646.74,288.59Z"/><path class="cls-3" d="M646.57,279.88a.62.62,0,0,1-.59-.43c-.44-1.34-.93-2.69-1.45-4a.62.62,0,0,1,1.16-.46c.53,1.34,1,2.71,1.48,4.08a.63.63,0,0,1-.4.79A.69.69,0,0,1,646.57,279.88ZM642.44,270a.62.62,0,0,1-.56-.34c-.66-1.28-1.37-2.53-2.09-3.7a.62.62,0,0,1,1.06-.66c.74,1.2,1.46,2.48,2.14,3.79a.62.62,0,0,1-.27.84A.58.58,0,0,1,642.44,270Zm-5.86-9a.65.65,0,0,1-.48-.23,35.87,35.87,0,0,0-2.86-3.11.63.63,0,0,1,0-.88.64.64,0,0,1,.89,0,40.22,40.22,0,0,1,3,3.22.62.62,0,0,1-.09.88A.65.65,0,0,1,636.58,261Zm-8-7.11a.65.65,0,0,1-.32-.09,21.15,21.15,0,0,0-3.75-1.81.63.63,0,1,1,.43-1.18,23,23,0,0,1,4,1.92.63.63,0,0,1-.33,1.16Z"/><path class="cls-3" d="M615.42,252.58a.62.62,0,0,1-.32-.09.63.63,0,0,1-.21-.86c.32-.53.65-1.1,1-1.71a.61.61,0,0,1,.5-.32,20.44,20.44,0,0,1,2.07-.06.63.63,0,0,1,.61.64.62.62,0,0,1-.64.61c-.54,0-1.07,0-1.61,0-.28.52-.57,1-.84,1.46A.63.63,0,0,1,615.42,252.58Z"/><path class="cls-3" d="M607.63,259.61a.62.62,0,0,1-.61-.49.63.63,0,0,1,.47-.75,7.34,7.34,0,0,0,3.53-1.79.62.62,0,0,1,.88.05.63.63,0,0,1,0,.89,8.62,8.62,0,0,1-4.08,2.07Z"/><path class="cls-3" d="M601.42,266.65a.62.62,0,0,1-.59-.42.63.63,0,0,1,.39-.8c.66-.22,1.14-.39,1.5-.49.11-.61.22-1.16.34-1.65a.63.63,0,0,1,.75-.46.62.62,0,0,1,.46.75q-.18.78-.36,1.77a.65.65,0,0,1-.43.64h-.05l-1.8.62Z"/><path class="cls-3" d="M596.5,268.05a.61.61,0,0,1-.34-.1.62.62,0,0,1-.19-.86,3.42,3.42,0,0,0,.47-1.89,8.56,8.56,0,0,0-.2-1.7.62.62,0,0,1,.48-.74.63.63,0,0,1,.74.48,9,9,0,0,1,.23,2,4.73,4.73,0,0,1-.66,2.56A.63.63,0,0,1,596.5,268.05Z"/><path class="cls-3" d="M594.69,258.11a.62.62,0,0,1-.57-.39c-.21-.49-.43-1-.59-1.55L592,256a.64.64,0,0,1-.54-.71.63.63,0,0,1,.71-.53c.82.11,1.51.21,2,.26a.63.63,0,0,1,.53.47,13.59,13.59,0,0,0,.65,1.79.63.63,0,0,1-.34.82A.69.69,0,0,1,594.69,258.11Z"/><path class="cls-3" d="M586.4,255.16h-.09l-2-.27a.63.63,0,0,1,.16-1.24l2,.27a.63.63,0,0,1-.09,1.25Z"/><path class="cls-3" d="M452.33,558.68l-.15,0a11.6,11.6,0,0,0-1.88-.29.64.64,0,0,1-.58-.67.63.63,0,0,1,.67-.58,13.19,13.19,0,0,1,2.08.33.62.62,0,0,1-.14,1.23Z"/><path class="cls-3" d="M437,564a4.33,4.33,0,0,1-1.28-.2.62.62,0,1,1,.36-1.19,3.37,3.37,0,0,0,2.63-.32.63.63,0,0,1,.56,1.12A5.15,5.15,0,0,1,437,564Zm5.92-3.25a.64.64,0,0,1-.51-.27.63.63,0,0,1,.15-.87,15.64,15.64,0,0,1,2.89-1.65.63.63,0,0,1,.48,1.16,13.92,13.92,0,0,0-2.65,1.51A.6.6,0,0,1,442.89,560.72Z"/><path class="cls-3" d="M432.11,560.9a.62.62,0,0,1-.47-.21c-.27-.31-.54-.65-.81-1a7,7,0,0,1-1.11.88.63.63,0,0,1-.67-1.06,5.38,5.38,0,0,0,1.34-1.2.67.67,0,0,1,.5-.23.65.65,0,0,1,.49.26c.41.56.81,1.07,1.21,1.53a.63.63,0,0,1-.07.88A.58.58,0,0,1,432.11,560.9Z"/><path class="cls-3" d="M426.27,561.53a9.69,9.69,0,0,1-2-.23.63.63,0,0,1-.47-.75.61.61,0,0,1,.74-.47,8.45,8.45,0,0,0,1.74.2h.16a.65.65,0,0,1,.65.6.63.63,0,0,1-.61.65Z"/><path class="cls-3" d="M418.7,561.06a.66.66,0,0,1-.35-.11.63.63,0,0,1-.17-.87c.33-.5.66-1.06,1-1.66a.59.59,0,0,1,.38-.31.61.61,0,0,1,.49.06c.59.35,1.17.65,1.71.91a.62.62,0,0,1-.53,1.13c-.4-.19-.82-.41-1.25-.64-.24.43-.49.83-.74,1.21A.63.63,0,0,1,418.7,561.06Z"/><path class="cls-3" d="M409.05,565.58a.63.63,0,0,1-.27-1.19,7.31,7.31,0,0,1,2.71-.53,14.62,14.62,0,0,0,1.83-.2.62.62,0,0,1,.24,1.22,15.08,15.08,0,0,1-2,.23,6.21,6.21,0,0,0-2.26.41A.63.63,0,0,1,409.05,565.58Z"/><path class="cls-3" d="M406.56,573.54a.68.68,0,0,1-.31-.08c-.57-.33-1.15-.64-1.73-.93a.63.63,0,1,1,.56-1.12l.89.46c0-.35,0-.68.06-1a.63.63,0,0,1,.67-.58.62.62,0,0,1,.57.67c0,.6-.07,1.25-.09,2a.61.61,0,0,1-.31.53A.68.68,0,0,1,406.56,573.54Z"/><path class="cls-3" d="M399,570.18a.64.64,0,0,1-.2,0c-1.28-.43-2.62-.81-4-1.14a.63.63,0,0,1,.29-1.22c1.4.34,2.77.74,4.08,1.18a.62.62,0,0,1-.19,1.21Zm-10.22-2.29h-.09c-1.32-.18-2.71-.32-4.14-.43a.62.62,0,0,1-.57-.67.65.65,0,0,1,.67-.58c1.45.11,2.86.26,4.21.44a.63.63,0,0,1-.08,1.25Zm-25.15-.42a.63.63,0,0,1,0-1.25l4.2-.15a.64.64,0,0,1,.64.61.62.62,0,0,1-.6.64l-4.19.15Zm14.69-.3h0c-1.39,0-2.79,0-4.18,0h0a.64.64,0,0,1-.63-.62.63.63,0,0,1,.62-.63c1.41,0,2.81,0,4.22,0a.63.63,0,0,1,0,1.25Z"/><path class="cls-3" d="M355.33,567.68a.63.63,0,0,1-.63-.62.62.62,0,0,1,.62-.63l2,0a.63.63,0,0,1,.64.62.62.62,0,0,1-.61.63l-2,0Z"/><path class="cls-3" d="M637.67,262.52a.62.62,0,0,1-.44-.18.63.63,0,0,1,0-.89l2.57-2.61a.63.63,0,0,1,.89.88l-2.57,2.61A.63.63,0,0,1,637.67,262.52Z"/><path class="cls-3" d="M601,419.15a.63.63,0,0,1-.19,0l-1.91-.59a.61.61,0,0,1-.41-.78.62.62,0,0,1,.78-.41l1.91.58a.63.63,0,0,1-.18,1.23Z"/><path class="cls-3" d="M608.67,421.51l-.18,0-1.91-.58a.63.63,0,0,1-.42-.78.64.64,0,0,1,.79-.42l1.91.59a.62.62,0,0,1-.19,1.22Z"/><path class="cls-3" d="M271.33,91.68h-.1a.62.62,0,0,1-.52-.71L271.3,87a.62.62,0,0,1,.71-.53.63.63,0,0,1,.53.71l-.6,4A.61.61,0,0,1,271.33,91.68Zm1.48-9.89h-.09a.62.62,0,0,1-.53-.71l.59-3.95a.63.63,0,1,1,1.24.18l-.59,4A.63.63,0,0,1,272.81,81.79Zm1.48-9.89h-.09a.63.63,0,0,1-.53-.71l0-.22a.62.62,0,0,1,1.23.19l0,.22A.62.62,0,0,1,274.29,71.9Z"/><path class="cls-3" d="M528.8,519.67a.59.59,0,0,1-.52-.32,7,7,0,0,1-.84-3.2.61.61,0,0,1,.59-.61.56.56,0,0,1,.58.56v0a5.9,5.9,0,0,0,.71,2.67.57.57,0,0,1-.26.78A.48.48,0,0,1,528.8,519.67Zm2-7.61a.59.59,0,0,1-.48-.25.58.58,0,0,1,.15-.81,12.42,12.42,0,0,1,3.18-1.58l.3-.11a.58.58,0,0,1,.75.35.58.58,0,0,1-.35.74l-.31.12a11.78,11.78,0,0,0-2.91,1.43A.57.57,0,0,1,530.78,512.06Zm8.38-4.08a.58.58,0,0,1-.32-1.07,8.56,8.56,0,0,0,2.59-2.3.59.59,0,0,1,1,.63,10,10,0,0,1-2.94,2.65A.62.62,0,0,1,539.16,508Zm-9.61-3.13a.52.52,0,0,1-.24-.05,8.11,8.11,0,0,1-3.24-2.36.58.58,0,0,1,.13-.81.59.59,0,0,1,.82.12,7.05,7.05,0,0,0,2.76,2,.58.58,0,0,1,.3.77A.57.57,0,0,1,529.55,504.85Zm5.42-.12a.58.58,0,0,1-.55-.4.59.59,0,0,1,.36-.74c.45-.15.91-.31,1.36-.48.73-.26,1.5-.54,2.2-.74a.58.58,0,1,1,.33,1.12c-.67.19-1.38.45-2.14.72l-1.37.49A.63.63,0,0,1,535,504.73Z"/><path class="cls-3" d="M465.28,547.38a.63.63,0,0,1-.37-.12l-3.21-2.38a.62.62,0,0,1,.74-1l3.22,2.38a.62.62,0,0,1-.38,1.12Zm-9.1-3.45h-.1l-2.9-.49a.61.61,0,0,1-.52-.61v-1.06a.62.62,0,0,1,.62-.62.63.63,0,0,1,.63.62v.53l2.38.4a.62.62,0,0,1-.11,1.24Zm-2.9-7.54a.63.63,0,0,1-.62-.52H449.8a.63.63,0,0,1,0-1.25h3.48a.63.63,0,0,1,.63.62v.52A.63.63,0,0,1,453.28,536.39Zm-9.48-.52h-4a.63.63,0,0,1,0-1.25h4a.63.63,0,1,1,0,1.25Zm-4.63-5.37a.63.63,0,0,1-.63-.63v-3l-.27-.63a.63.63,0,0,1,1.15-.5l.32.75a.56.56,0,0,1,.05.25v3.18A.63.63,0,0,1,439.17,530.5Zm-2.72-9.44a.62.62,0,0,1-.57-.37L434.29,517a.62.62,0,1,1,1.14-.5l1.6,3.67a.63.63,0,0,1-.33.82A.53.53,0,0,1,436.45,521.06Zm-4.32-9a.62.62,0,0,1-.51-.26l-2.32-3.26a.64.64,0,0,1,.15-.88.62.62,0,0,1,.87.15l2.32,3.27a.63.63,0,0,1-.15.87A.61.61,0,0,1,432.13,512.08Zm-7-5.77h-4a.63.63,0,0,1,0-1.25h4a.63.63,0,1,1,0,1.25Zm-9.85-.66a.66.66,0,0,1-.27-.06l-3.61-1.72a.63.63,0,0,1-.29-.84.62.62,0,0,1,.83-.29l3.61,1.72a.62.62,0,0,1-.27,1.19Zm-9.34-3.29h-.09l-4-.59a.62.62,0,0,1-.52-.71.62.62,0,0,1,.71-.52l4,.59a.62.62,0,0,1-.1,1.24ZM396,500.88h-.09l-3.95-.6a.62.62,0,0,1-.53-.71.61.61,0,0,1,.71-.52l4,.59a.62.62,0,0,1-.1,1.24Zm-9.94-1h0c-1.26,0-2.67,0-4,0a.63.63,0,0,1,0-1.25h0c1.34,0,2.76,0,4,0a.63.63,0,0,1,.62.63A.63.63,0,0,1,386.09,499.9Zm-10-.13a.69.69,0,0,1-.2,0c-.7-.23-1.74-.66-3.1-1.27a.63.63,0,0,1,.52-1.14c1.32.59,2.32,1,3,1.22a.63.63,0,0,1,.39.79A.62.62,0,0,1,376.12,499.77Z"/></svg>