<svg id="Camada_1" data-name="Camada 1" xmlns="http://www.w3.org/2000/svg" viewBox="0 0 700.91 697.83"><defs><style>.cls-1{fill:#dadada;}.cls-2{fill:#d9977b;}.cls-3{fill:#fff;}.cls-4{fill:none;}</style></defs><path class="cls-1" d="M558.5,179.69c-.41,7.32-14.23,45.94-15,51.22s5.7,8.54,3.66,17.08-11,15.44-11,20.73,9.35,10.16,11.79,15.85-5.29,52.45-5.29,57.32,5.29,14.23.81,20.33-13.82,14.23-9.75,17.48,10.57-2.44,14.23-4.06,2-13.42,6.5-12.61c2.75.51,4.26,3,5,6.9a48.59,48.59,0,0,1,.66,9c0,8.94-1.22,29.27-4.88,35.77s-11.38,8.13-14.63,10.17-9,6.91-5.69,15.85,0,11.39-4.07,14.64-13-4.07-21.14.81-7.32,19.51-12.19,21.14-9.76-5.28-15.45-6.1-13.42,4.88-13.82,10.57,6.91,11.39,4.87,19.92S456.46,519.55,445.89,524s-10.17-2-11.39-8.54-2.84-12.19-9.35-13.82-18.29-.4-17.07-6.91,14.63-.81,23.58-3.66,17.48-24,11-31.3-21.54-12.2-18.29-19.92,28.86-4.47,30.08-13.82-25.61-6.51-37-4.07-14.23,16.67-16.67,32.52-13.82,31.71-21.95,35-22.77-5.29-29.68-6.1-4.06,4.06-6.1,10.16c-1.12,3.37-8.42,7-14.75,9.55,2.41,6.6,4.44,14.5,6.22,18.5,3.25,7.32,14.63,6.51,17.88,11.79s-1.22,14.64-.4,19.11,3.25,14.23,4.47,21.55c1,6.24-13.92,14.57-21.35,19.92a24.25,24.25,0,0,0-3,2.43c-4.88,4.88-17.08,22.77-20.74,28.06s-12.19,10.16-8.94,13,10.57-.81,15.45,4.07,39.84,26.42,49.19,32.12,0,21.54,3.25,24,8.94-16.26,13-27.24c3.71-10,10.13-21.39,14-21.13-.66-.46-.9-.71.6.15a1.72,1.72,0,0,1,.43.25c3.73,2.18,11.95-.1,24.64-17.32,10.49-14.21,20.13-28.63,22.52-32.68,5.28-8.95-.81-21.55,1.22-31.31s26.83-30.49,40.25-38.21,49.59-9.76,65.45-19.11,43.5-50,50.81-65.45,17.89-90.66,22-98,15.85-9.76,21.54-16.67,7.73-23.17,13.83-30.49,10.16-8.95,17.88-16.67,14.23-11,20.74-33.34c5-17-1.68-40.27-6.9-51.58-1.62-3.51-3.12-5.87-4.08-6.55-4.07-2.85-14.64,0-27.64-4.88S632.48,165.87,624,155.3c-8.15-10.1-33.37-9.81-44.12-9.4-1.72,3.92-3.33,7.38-4.26,9-2.85,4.88-18.29,5.69-20.33,10.16S558.9,172.37,558.5,179.69Z"/><path class="cls-1" d="M30.41,277.66c6.91,1.22,2.84,8.95,8.94,9.35s16.26-9.75,21.55-7.72-1.63,18.7,4.88,21.54,6.1-.81,16.67-1.21,14.22,1.21,21.54,0,15.45-9.36,21.55-15.86,9.75-5.28,15.45-5.69,10.16-5.69,13.82-2.85-2.85,18.3,7.32,34.15,21.54,13,29.67,13.42S200.34,326,210.1,333s18.7,4.88,27.64,6.91S247.9,374,251.16,383.77c2.76,8.29,10.52,5.43,18.26,4.89a23.4,23.4,0,0,1,4.1,0c8.94.81,5.28,8.53,14.22,22.36s4.88,19.51,1.22,28.05-1.62,20.73.82,33.74a42.36,42.36,0,0,0,4.47,12.78c1.06-.54,2.15-1.14,3.25-1.81,10.16-6.09-1.22-26.83,6.91-32.11s8.95,3.66,18.3,4.88,9.35-2.44,11.79-11.39,8.13-18.7,6.09-25.2-.4-24.39,0-29.27-5.28-3.66-12.19-11-9.35-3.25-16.67-.4c-6.13,2.39-10,2.76-15.38-.3-.18-.73-.33-1.44-.47-2.14-1.63-8.13,13-17.89,14.63-22.36s-4.06-9.35-11.79-8.54-12.2,17.89-24.39,16.67-10.16-13.42-15.45-21.55-10.57-24-7.72-33.74,13.82-8.13,24.8-4.88,11.78,11.38,17.07,22,11,13,17.48,10.17,10.57-25.21,16.26-24.39,15.86,23.17,23.58,25.2,20.33-1.63,28-3.25,10.57,5.28,15,2.44,4.88-9.76,5.69-17.89-4.87-16.26-2-25.61,18.7-13.82,24-16.67S434.5,246.36,441,243.92s7.72,6.91,14.23,3.66,9.75-45.53,12.19-51.22,10.17-6.51,15-7.32,11.79,4.06,17.08,2,3.66-9.35,8.13-13.82,11-2.44,13.82-4.07-.41-5.69,3.66-9.35,4.88-1.22,8.94-4.06c2.46-1.73,6.85-14.31,9.94-24-3.42.18-5.5,1.59-9.53,0-6.1-2.44-5.28-8.54-8.54-13.41s-10.16-2-19.92-5.29-26.83-11-32.93-11.79-11.38,3.25-13.41.82-2-2.85-6.1-8.54c-6.5,0-18.29-6.91-22.36-11.79s3.25-17.08-1.22-24-9.35-1.62-14.63-6.09-5.7-39.44-12.2-39.44-20.33,33.34-26,38.22-38.62-3.66-48.78-2.85-5.69,5.69-8.13,8.94-5.69.82-15.45,1.22S287.74,70.74,278,70.74s-18.3-6.1-22.77-17.48.41-19.92,2.44-27.24-3.66-11.38-6.5-12.6S252,0,246.28,0s-8.54,5.28-11,9.76-8.13,7.72-17.07,7.72-13.82,6.91-21.14,7.73S166.19,15,162.94,18.7s6.5,8.13,8.94,11,3.25,9.35,3.66,14.63,7.73,4.47,7.32,9.76-7.32,6.5-15,15-20.74,13-33.75,9.76S120.25,56.51,116.59,56.1s-7.31,4.07-17.07,10.16-15.86-1.21-22.77-.81S70.66,71.55,71.88,76s12.19,2.85,11.78,7.32-11.78,0-15,7.72,7.32,16.67,8.54,22-4.07,49.59-5.69,58.13-6.1,3.66-9.76,2.85-2.84-.82-21.14,7.31-17.48,13-22.36,21.55-2.44,12.2-3.25,17.07S3.17,222.78.33,233.76s13.82,26.83,17.07,35S23.5,276.44,30.41,277.66Z"/><path class="cls-1" d="M397.29,649.24c1.06.76,3.21,2.1,1,.4l-.43-.25A2.2,2.2,0,0,0,397.29,649.24Z"/><path class="cls-2" d="M579.83,145.9c-1.72,3.92-3.33,7.38-4.26,9-2.85,4.88-18.29,5.69-20.33,10.16s3.66,7.32,3.26,14.64-14.23,45.94-15,51.22,5.7,8.54,3.66,17.08-11,15.44-11,20.73,9.35,10.16,11.79,15.85-5.29,52.45-5.29,57.32,5.29,14.23.81,20.33-13.82,14.23-9.75,17.48,10.57-2.44,14.23-4.06,2-13.42,6.5-12.61c2.75.51,4.26,3,5,6.9a48.59,48.59,0,0,1,.66,9c0,8.94-1.22,29.27-4.88,35.77s-11.38,8.13-14.63,10.17-9,6.91-5.69,15.85,0,11.39-4.07,14.64-13-4.07-21.14.81-7.32,19.51-12.19,21.14-9.76-5.28-15.45-6.1-13.42,4.88-13.82,10.57,6.91,11.39,4.87,19.92S456.46,519.55,445.89,524s-10.17-2-11.39-8.54-2.84-12.19-9.35-13.82-18.29-.4-17.07-6.91,14.63-.81,23.58-3.66,17.48-24,11-31.3-21.54-12.2-18.29-19.92,28.86-4.47,30.08-13.82-25.61-6.51-37-4.07-14.23,16.67-16.67,32.52-13.82,31.71-21.95,35-22.77-5.29-29.68-6.1-4.06,4.06-6.1,10.16c-1.12,3.37-8.42,7-14.75,9.55-2-5.47-4.22-10-6.79-10.77-5.69-1.62-6.51,5.69-14.23,4.47-4.88-.76-9.6-4.94-13-11.2,1.06-.54,2.15-1.14,3.25-1.81,10.16-6.09-1.22-26.83,6.91-32.11s8.95,3.66,18.3,4.88,9.35-2.44,11.79-11.39,8.13-18.7,6.09-25.2-.4-24.39,0-29.27-5.28-3.66-12.19-11-9.35-3.25-16.67-.4c-6.13,2.39-10,2.76-15.38-.3-.18-.73-.33-1.44-.47-2.14-1.63-8.13,13-17.89,14.63-22.36s-4.06-9.35-11.79-8.54-12.2,17.89-24.39,16.67-10.16-13.42-15.45-21.55-10.57-24-7.72-33.74,13.82-8.13,24.8-4.88,11.78,11.38,17.07,22,11,13,17.48,10.17,10.57-25.21,16.26-24.39,15.86,23.17,23.58,25.2,20.33-1.63,28-3.25,10.57,5.28,15,2.44,4.88-9.76,5.69-17.89-4.87-16.26-2-25.61,18.7-13.82,24-16.67S434.5,246.36,441,243.92s7.72,6.91,14.23,3.66,9.75-45.53,12.19-51.22,10.17-6.51,15-7.32,11.79,4.06,17.08,2,3.66-9.35,8.13-13.82,11-2.44,13.82-4.07-.41-5.69,3.66-9.35,4.88-1.22,8.94-4.06c2.46-1.73,6.85-14.31,9.94-24a15.45,15.45,0,0,1,6.73,1.2c8.54,3.25,17.89,9.35,27.65,8.95Z"/><path class="cls-3" d="M629.68,236.76a.67.67,0,0,1-.47-.2.63.63,0,0,1,0-.89h0a.68.68,0,0,1,.92,0,.58.58,0,0,1,0,.84h0l-.43-.46.43.46-.09.08A.61.61,0,0,1,629.68,236.76Z"/><path class="cls-3" d="M627.73,238.55a.63.63,0,0,1-.41-1.1l.42-.38a.62.62,0,0,1,.88.05.63.63,0,0,1,0,.88l-.43.39A.67.67,0,0,1,627.73,238.55Z"/><path class="cls-3" d="M628.61,238l-.87-.9,0,0,0,0a.67.67,0,0,1,.92,0,.59.59,0,0,1,0,.85Zm-.38-.5.41.47Z"/><path class="cls-3" d="M629.76,236.68a.61.61,0,0,1-.45-.19.63.63,0,0,1,0-.89l.47-.44h0l.4-.38a.62.62,0,0,1,.87.89h0l-.46.44c-.14.14-.27.27-.41.39A.59.59,0,0,1,629.76,236.68Z"/><path class="cls-3" d="M628.23,238.1a.67.67,0,0,1-.47-.2.61.61,0,0,1-.16-.42.64.64,0,0,1,.21-.47c.37-.34.88-.8,1.42-1.32h0a.63.63,0,0,1,.86.91c-.56.53-1.08,1-1.46,1.35A.61.61,0,0,1,628.23,238.1Z"/><path class="cls-3" d="M627.66,238.61a.6.6,0,0,1-.46-.21.63.63,0,0,1,0-.88h0a.68.68,0,0,1,.91,0h0a.58.58,0,0,1,0,.84h0l0,.05,0,0A.61.61,0,0,1,627.66,238.61Z"/><path class="cls-3" d="M411.89,447.91h-.13a.63.63,0,0,1-.48-.74l.42-2a.61.61,0,0,1,.74-.48.64.64,0,0,1,.48.74l-.42,2A.62.62,0,0,1,411.89,447.91Z"/><path class="cls-3" d="M627.53,238.72a.6.6,0,0,1-.46-.21.62.62,0,0,1,0-.88l.12-.11a.63.63,0,1,1,.84.93l-.13.11A.61.61,0,0,1,627.53,238.72Z"/><path class="cls-3" d="M600.4,230.77a.61.61,0,0,1-.61-.53.62.62,0,0,1,.53-.71q1-.15,2-.24a.63.63,0,0,1,.68.57.62.62,0,0,1-.56.67c-.66.06-1.31.14-2,.24Z"/><path class="cls-3" d="M621.28,234.07A.82.82,0,0,1,621,234a31.16,31.16,0,0,0-3.48-1.55.62.62,0,0,1,.43-1.17,30.31,30.31,0,0,1,3.63,1.61.62.62,0,0,1-.29,1.18ZM612.1,231H612a34.13,34.13,0,0,0-3.79-.48.61.61,0,0,1-.58-.66.62.62,0,0,1,.66-.58,34.2,34.2,0,0,1,3.94.49.62.62,0,0,1,.5.72A.63.63,0,0,1,612.1,231Z"/><path class="cls-3" d="M627.66,238.61a.63.63,0,0,1-.43-.17c-.47-.44-1-.88-1.46-1.29a.63.63,0,0,1,.79-1c.41.34.81.69,1.2,1a10,10,0,0,0,1.2-.79.62.62,0,0,1,.88.1.63.63,0,0,1-.11.88,11.06,11.06,0,0,1-1.78,1.13A.59.59,0,0,1,627.66,238.61Z"/><path class="cls-3" d="M631.87,233.74a.34.34,0,0,1-.14,0,.62.62,0,0,1-.47-.75,6.85,6.85,0,0,0,.17-1.54,10.27,10.27,0,0,0-.1-1.31.63.63,0,0,1,.53-.71.64.64,0,0,1,.71.54,11,11,0,0,1,.11,1.48,8.34,8.34,0,0,1-.2,1.83A.64.64,0,0,1,631.87,233.74Z"/><path class="cls-3" d="M630.6,226.22a.62.62,0,0,1-.57-.38c-.26-.6-.54-1.19-.83-1.79a.62.62,0,0,1,0-.59c.3-.51.74-1.12,1.16-1.7a.61.61,0,0,1,.87-.13.62.62,0,0,1,.14.87c-.31.43-.66.9-.92,1.32.24.5.48,1,.7,1.53a.63.63,0,0,1-.33.82A.74.74,0,0,1,630.6,226.22Z"/><path class="cls-3" d="M633.5,219.12a.59.59,0,0,1-.34-.1.63.63,0,0,1-.18-.87,21.59,21.59,0,0,0,1.47-2.5.63.63,0,0,1,1.12.56,24,24,0,0,1-1.55,2.63A.63.63,0,0,1,633.5,219.12Z"/><path class="cls-3" d="M636,212.25a.62.62,0,0,1-.62-.54,2.93,2.93,0,0,0-.66-1.49.6.6,0,0,1-.09-.64.61.61,0,0,1,.53-.38,7.09,7.09,0,0,0,1.8-.35.63.63,0,0,1,.4,1.19,8.05,8.05,0,0,1-1.1.28,4.2,4.2,0,0,1,.36,1.22.62.62,0,0,1-.53.7Z"/><path class="cls-3" d="M641.38,206.87a.6.6,0,0,1-.38-.13.62.62,0,0,1-.12-.88,18.84,18.84,0,0,0,1.83-2.93.62.62,0,1,1,1.11.57,19.72,19.72,0,0,1-2,3.13A.6.6,0,0,1,641.38,206.87Zm4-7.93a.59.59,0,0,1-.22-.05.63.63,0,0,1-.36-.81l.63-1.6c.22-.58.45-1.16.67-1.73a.62.62,0,1,1,1.16.46c-.22.57-.44,1.14-.67,1.72l-.62,1.61A.64.64,0,0,1,645.41,198.94Zm3.46-8.24a.65.65,0,0,1-.29-.07.62.62,0,0,1-.26-.84,20.84,20.84,0,0,1,1.95-3.12.63.63,0,0,1,1,.77,18.37,18.37,0,0,0-1.83,2.93A.63.63,0,0,1,648.87,190.7Z"/><path class="cls-3" d="M655.1,184.91a.63.63,0,0,1-.62-.67.56.56,0,0,1-.09-.17.62.62,0,0,1,.4-.79,8.22,8.22,0,0,1,2.11-.41.61.61,0,0,1,.65.48.63.63,0,0,1-.36.72l-1.84.79A.74.74,0,0,1,655.1,184.91Z"/><path class="cls-3" d="M651.28,186.55a.63.63,0,0,1-.25-1.2l1-.41h0a.62.62,0,1,1,.49,1.14l-1,.42A.74.74,0,0,1,651.28,186.55Z"/><path class="cls-3" d="M655.1,184.91a.63.63,0,0,1-.24-1.2l1.84-.79a.62.62,0,0,1,.82.33.63.63,0,0,1-.33.82l-1.84.79A.7.7,0,0,1,655.1,184.91Z"/><path class="cls-3" d="M698.86,215.47a.75.75,0,0,1-.26-.05l-1.16,0a.63.63,0,0,1,0-1.25h0c2.14,0,2.31,0,2.32.66s-.63.65-.88.66Z"/><path class="cls-3" d="M692.8,215.49h0c-1.26,0-2.63-.05-4-.1a.64.64,0,0,1-.61-.65.6.6,0,0,1,.65-.6c1.42.05,2.78.08,4,.1a.63.63,0,0,1,0,1.25Zm-10.1-.42h0c-1.48-.1-2.84-.23-4.06-.38a.62.62,0,0,1,.15-1.24c1.2.14,2.55.27,4,.38a.61.61,0,0,1,.57.67A.62.62,0,0,1,682.7,215.07Z"/><path class="cls-3" d="M671.8,214.29a.62.62,0,0,1-.59-.44c-.18-.54-.39-1.15-.67-1.84a.62.62,0,0,1,1.14-.51c0,.09.27.41,1.29.79a.62.62,0,0,1,.37.8.64.64,0,0,1-.81.37l-.15-.06a.19.19,0,0,0,0,.07.64.64,0,0,1-.41.79A.58.58,0,0,1,671.8,214.29Z"/><path class="cls-3" d="M671.39,220.05a.59.59,0,0,1-.41-.16.62.62,0,0,1-.06-.88,3.18,3.18,0,0,0,.8-1.84.62.62,0,0,1,1.24.13,4.35,4.35,0,0,1-1.1,2.53A.6.6,0,0,1,671.39,220.05Z"/><path class="cls-3" d="M666.48,222.69a.62.62,0,0,1-.61-.52,4.64,4.64,0,0,0-.59-1.64.63.63,0,1,1,1.05-.68,5.11,5.11,0,0,1,.61,1.4c.43-.15.82-.3,1.18-.45a.62.62,0,0,1,.82.33.64.64,0,0,1-.33.82c-.58.24-1.21.47-1.94.71A.58.58,0,0,1,666.48,222.69Z"/><path class="cls-3" d="M658.05,222.69a.57.57,0,0,1-.18,0,8.38,8.38,0,0,1-2-.85.63.63,0,0,1-.2-.86.62.62,0,0,1,.86-.21,6,6,0,0,0,1.24.58,7.64,7.64,0,0,1,1.09-1.27.63.63,0,0,1,.85.92,6,6,0,0,0-1.13,1.41A.63.63,0,0,1,658.05,222.69Z"/><path class="cls-3" d="M655.13,217.15a.7.7,0,0,1-.25-.05.63.63,0,0,1-.32-.83,17.9,17.9,0,0,1,1.94-3.2.63.63,0,0,1,1,.74,16.77,16.77,0,0,0-1.82,3A.62.62,0,0,1,655.13,217.15Z"/><path class="cls-3" d="M660.28,209.73a.58.58,0,0,1-.35-.11.62.62,0,0,1-.16-.87c.23-.34.43-.64.58-.92-.35-.05-.72-.08-1.08-.1a.63.63,0,0,1-.6-.65.6.6,0,0,1,.65-.6,11.82,11.82,0,0,1,2.09.28.61.61,0,0,1,.41.32.59.59,0,0,1,0,.52,9.57,9.57,0,0,1-1.05,1.86A.62.62,0,0,1,660.28,209.73Z"/><path class="cls-3" d="M642.6,215.65a7.16,7.16,0,0,1-1.46-.15.62.62,0,0,1,.24-1.22,6.5,6.5,0,0,0,2.67-.05l.47-.57a.62.62,0,1,1,.94.82l-.56.68a.57.57,0,0,1-.33.22A7.37,7.37,0,0,1,642.6,215.65Zm7.06-4.93a.62.62,0,0,1-.34-1.15,22.14,22.14,0,0,1,3.74-1.93.63.63,0,0,1,.46,1.17,20.33,20.33,0,0,0-3.53,1.81A.58.58,0,0,1,649.66,210.72Z"/><path class="cls-3" d="M636,212.25a.63.63,0,0,1-.62-.54,4.15,4.15,0,0,0-.11-.48,11.43,11.43,0,0,1-.63-1.14.62.62,0,0,1,1-.67,4.24,4.24,0,0,1,.73,1.27c.1.16.21.31.33.47a.62.62,0,0,1-.13.87.72.72,0,0,1-.27.12.58.58,0,0,1-.26.09Z"/><path class="cls-3" d="M641,235.75H641a14.42,14.42,0,0,1-4.23-1,.64.64,0,0,1-.33-.82.62.62,0,0,1,.82-.33,12.93,12.93,0,0,0,3.86.93.63.63,0,0,1,.56.68A.62.62,0,0,1,641,235.75Zm6.22-.41a.63.63,0,0,1-.12-1.24,32.55,32.55,0,0,0,4-1.08.62.62,0,0,1,.4,1.18,33.29,33.29,0,0,1-4.1,1.13Zm-15-4.49a.66.66,0,0,1-.52-.27,15.14,15.14,0,0,1-1.87-3.92.62.62,0,0,1,.41-.78.61.61,0,0,1,.78.4,13.28,13.28,0,0,0,1.72,3.59.63.63,0,0,1-.52,1Zm-.42-9.29a.63.63,0,0,1-.37-.12.61.61,0,0,1-.13-.87c.74-1,1.6-2.2,2.32-3.4a.63.63,0,0,1,.86-.21.62.62,0,0,1,.21.86c-.75,1.24-1.63,2.46-2.39,3.49A.6.6,0,0,1,631.79,221.56Z"/><path class="cls-3" d="M660,232.35a.63.63,0,0,1-.6-.46,2.2,2.2,0,0,0-.63-1c-.46.26-.93.52-1.4.76a.62.62,0,1,1-.58-1.1c.58-.31,1.16-.63,1.73-1a.62.62,0,0,1,.68,0,3.63,3.63,0,0,1,1.41,1.91.62.62,0,0,1-.44.77A.47.47,0,0,1,660,232.35Z"/><path class="cls-3" d="M657.4,241.3a.63.63,0,0,1-.52-.28c-.36-.54-.71-1.13-1.06-1.76a.62.62,0,0,1,0-.63c.3-.48.71-1,1.14-1.57l.08-.1a.62.62,0,0,1,1,.76l-.08.1c-.32.41-.62.81-.87,1.17.27.48.55.93.82,1.34a.63.63,0,0,1-.18.87A.59.59,0,0,1,657.4,241.3Z"/><path class="cls-3" d="M662.59,245.2a3.83,3.83,0,0,1-.83-.08.62.62,0,1,1,.24-1.22,4.47,4.47,0,0,0,3.32-.94.62.62,0,0,1,.86.18.63.63,0,0,1-.17.86A6.24,6.24,0,0,1,662.59,245.2Zm7.62-5.07a.6.6,0,0,1-.45-.19.62.62,0,0,1,0-.88c1.09-1.05,2-1.92,3-2.73a.62.62,0,0,1,.87.1.61.61,0,0,1-.09.87c-1,.79-1.89,1.63-3,2.66A.6.6,0,0,1,670.21,240.13Zm8.84-3.19a.62.62,0,0,1-.62-.56.63.63,0,0,1,.56-.69,21.4,21.4,0,0,0,3.83-.74.63.63,0,1,1,.35,1.2,22.93,22.93,0,0,1-4.06.79Zm9.54-3a.63.63,0,0,1-.27-1.19l.42-.21a34,34,0,0,1,3.32-1.47.63.63,0,0,1,.79.38.62.62,0,0,1-.38.8,33.24,33.24,0,0,0-3.18,1.42l-.43.2A.52.52,0,0,1,688.59,233.92Z"/><path class="cls-3" d="M699.58,234.09a.66.66,0,0,1-.45-.18,8.93,8.93,0,0,0-1.43-1.21.63.63,0,0,1,.7-1A10.35,10.35,0,0,1,700,233a.63.63,0,0,1,0,.88A.62.62,0,0,1,699.58,234.09Z"/><path class="cls-3" d="M412.38,445.6h-.13a.64.64,0,0,1-.48-.75l.07-.35a.63.63,0,0,1,1.23.27l-.08.35A.62.62,0,0,1,412.38,445.6Z"/><path class="cls-3" d="M630.64,235.84a.63.63,0,0,1-.45-.18.63.63,0,0,1,0-.88l.89.88A.62.62,0,0,1,630.64,235.84Z"/><path class="cls-3" d="M633,233.35h-.06a.64.64,0,0,1-.52-.4.62.62,0,1,1,.58.4Zm0-.63.48.41Z"/><path class="cls-3" d="M630.65,235.83a.63.63,0,0,1-.45-.19.62.62,0,0,1,0-.88h0c.64-.62,1.18-1.17,1.62-1.64v0h0a.63.63,0,0,1,.93.84h0l0,0c-.45.48-1,1.05-1.65,1.67A.62.62,0,0,1,630.65,235.83Z"/><path class="cls-3" d="M632.37,234.07a.62.62,0,0,1-.46-1c.22-.25.42-.48.58-.68h0a.62.62,0,0,1,1,.77h0c-.18.23-.4.48-.65.75A.63.63,0,0,1,632.37,234.07Z"/><path class="cls-3" d="M632.31,234.13a.57.57,0,0,1-.41-.16.6.6,0,0,1-.21-.46.61.61,0,0,1,.16-.42.65.65,0,0,1,.91-.07.62.62,0,0,1,.22.47.54.54,0,0,1-.15.38l-.05.06A.67.67,0,0,1,632.31,234.13Z"/><path class="cls-3" d="M575.44,151.5a.63.63,0,0,1-.61-.5,7.61,7.61,0,0,0-.63-1.73.63.63,0,0,1,1.12-.56,8.18,8.18,0,0,1,.73,2,.62.62,0,0,1-.48.74Z"/><path class="cls-3" d="M556.56,186.52A.62.62,0,0,1,556,186a36.54,36.54,0,0,1-.57-4.41.63.63,0,1,1,1.25-.08,36.07,36.07,0,0,0,.55,4.26.63.63,0,0,1-.5.73Zm-.15-10.86-.13,0a.62.62,0,0,1-.48-.74,17.27,17.27,0,0,1,1.5-4.27.62.62,0,0,1,1.11.57,16,16,0,0,0-1.39,4A.62.62,0,0,1,556.41,175.66Zm3.91-10a.62.62,0,0,1-.48-1,13.9,13.9,0,0,1,3.5-2.91.62.62,0,1,1,.67,1.05,12.88,12.88,0,0,0-3.2,2.65A.65.65,0,0,1,560.32,165.66Zm9.07-6a.62.62,0,0,1-.31-1.16,24.33,24.33,0,0,0,3.54-2.37.62.62,0,1,1,.81.95,24.07,24.07,0,0,1-3.73,2.5A.58.58,0,0,1,569.39,159.65Z"/><path class="cls-3" d="M557.52,196.3a.58.58,0,0,1-.37-.13.61.61,0,0,1-.13-.87,14.17,14.17,0,0,1,1.09-1.3c-.17-.51-.35-1-.51-1.55a.61.61,0,0,1,.4-.78.62.62,0,0,1,.79.4c.2.64.41,1.27.62,1.88a.62.62,0,0,1-.14.65,12.69,12.69,0,0,0-1.25,1.45A.63.63,0,0,1,557.52,196.3Z"/><path class="cls-3" d="M557.1,213.68a.63.63,0,0,1-.62-.58,26,26,0,0,0-.55-3.47.62.62,0,0,1,1.22-.26,27.5,27.5,0,0,1,.58,3.64.64.64,0,0,1-.58.67Zm-1.61-8.85a.63.63,0,0,1-.62-.55,17,17,0,0,1-.14-2.06,13.21,13.21,0,0,1,.11-1.69.64.64,0,0,1,.71-.54.62.62,0,0,1,.53.71,12.38,12.38,0,0,0-.1,1.52,14.59,14.59,0,0,0,.13,1.91.62.62,0,0,1-.55.69Z"/><path class="cls-3" d="M555.35,220.73h-.12c-.65-.13-1.3-.23-1.93-.31a.62.62,0,0,1,.15-1.24c.53.06,1.07.14,1.61.24a9,9,0,0,0,.69-1.3.62.62,0,1,1,1.14.49,11,11,0,0,1-1,1.86A.63.63,0,0,1,555.35,220.73Z"/><path class="cls-3" d="M522.65,232.21a.61.61,0,0,1-.58-.4.62.62,0,0,1,.35-.81,39.52,39.52,0,0,0,4-1.85.62.62,0,1,1,.58,1.1,42.21,42.21,0,0,1-4.11,1.92A1,1,0,0,1,522.65,232.21Zm9.85-5.27a.65.65,0,0,1-.54-.3.62.62,0,0,1,.21-.86c1.25-.77,2.54-1.56,3.85-2.31a.62.62,0,0,1,.85.23.61.61,0,0,1-.23.85c-1.29.74-2.58,1.53-3.82,2.3A.62.62,0,0,1,532.5,226.94Zm9.87-5.21a.61.61,0,0,1-.58-.41.63.63,0,0,1,.37-.8,24.82,24.82,0,0,1,4.42-1.19.62.62,0,1,1,.21,1.23,23.48,23.48,0,0,0-4.2,1.14A.78.78,0,0,1,542.37,221.73Z"/><path class="cls-3" d="M513.24,236a.6.6,0,0,1-.28-.08.62.62,0,0,1-.27-.84l.93-1.77a.61.61,0,0,1,.51-.33c.64,0,1.3-.12,1.94-.22a.63.63,0,0,1,.19,1.24c-.56.08-1.13.15-1.69.2l-.77,1.46A.64.64,0,0,1,513.24,236Z"/><path class="cls-3" d="M505.91,253a.69.69,0,0,1-.2,0,.63.63,0,0,1-.39-.79,23,23,0,0,0,.84-3.54.63.63,0,0,1,1.24.2,24.26,24.26,0,0,1-.9,3.73A.61.61,0,0,1,505.91,253Zm3-8.78a.59.59,0,0,1-.29-.07.63.63,0,0,1-.26-.84l1.74-3.32a.61.61,0,0,1,.84-.26.62.62,0,0,1,.27.84l-1.74,3.32A.64.64,0,0,1,508.89,244.26Z"/><path class="cls-3" d="M501.12,260.67h0a.63.63,0,0,1-.63-.62,12.73,12.73,0,0,1,.17-2.09.62.62,0,0,1,.46-.51,4,4,0,0,0,1.53-.78.62.62,0,0,1,.88.09.63.63,0,0,1-.09.88,5.25,5.25,0,0,1-1.61.9,12.26,12.26,0,0,0-.09,1.51A.62.62,0,0,1,501.12,260.67Z"/><path class="cls-3" d="M502.12,266a.64.64,0,0,1-.59-.39,15.08,15.08,0,0,1-.67-2.19.64.64,0,0,1,.48-.75.63.63,0,0,1,.74.48,13.58,13.58,0,0,0,.62,2,.63.63,0,0,1-.35.81A.68.68,0,0,1,502.12,266Z"/><path class="cls-3" d="M505,272.17h-.12a.63.63,0,0,1-.5-.73,10.81,10.81,0,0,0,.2-1.55,7.84,7.84,0,0,1-1.32-1.26.62.62,0,0,1,.07-.88.63.63,0,0,1,.88.07,6.83,6.83,0,0,0,1.35,1.24.6.6,0,0,1,.27.51,10.51,10.51,0,0,1-.22,2.11A.63.63,0,0,1,505,272.17Z"/><path class="cls-3" d="M502.54,283.85a.64.64,0,0,1-.59-.4,4.63,4.63,0,0,1-.26-1.6,12.55,12.55,0,0,1,.65-3.54.63.63,0,0,1,1.2.35,11.54,11.54,0,0,0-.6,3.19,3.1,3.1,0,0,0,.19,1.16.63.63,0,0,1-.37.8A.57.57,0,0,1,502.54,283.85Z"/><path class="cls-3" d="M511.64,286.34a.63.63,0,0,1-.6-.45c-.14-.5-.27-1-.38-1.6a7.31,7.31,0,0,0-1.4,0,.61.61,0,0,1-.68-.56.63.63,0,0,1,.56-.68,6.09,6.09,0,0,1,2.22.1.64.64,0,0,1,.45.49,18.22,18.22,0,0,0,.43,1.89.63.63,0,0,1-.42.78Z"/><path class="cls-3" d="M518.37,292.07a7.6,7.6,0,0,1-3.11-.6.63.63,0,0,1,.5-1.15,7.5,7.5,0,0,0,4,.4.61.61,0,0,1,.7.53.62.62,0,0,1-.53.71A13,13,0,0,1,518.37,292.07Zm8-1.89a.62.62,0,0,1-.22-1.21l1.64-.6,2.56-.92a.62.62,0,0,1,.79.39.61.61,0,0,1-.38.79c-.84.29-1.69.61-2.54.92l-1.64.6A.76.76,0,0,1,526.32,290.18Z"/><path class="cls-3" d="M539,287.08h-.07a9.78,9.78,0,0,0-1.88,0,.63.63,0,0,1-.1-1.25,13.24,13.24,0,0,1,1.66,0c.2-.45.44-.93.69-1.43a.62.62,0,1,1,1.11.56c-.31.64-.6,1.23-.84,1.77A.6.6,0,0,1,539,287.08Z"/><path class="cls-3" d="M542.49,279.81a.69.69,0,0,1-.24-.05.62.62,0,0,1-.33-.82,20.81,20.81,0,0,0,1.22-3.73.63.63,0,0,1,.74-.49.64.64,0,0,1,.49.74,21.66,21.66,0,0,1-1.3,4A.64.64,0,0,1,542.49,279.81Z"/><path class="cls-3" d="M542.88,270.12a.65.65,0,0,1-.51-.25,5.93,5.93,0,0,0-1.28-1.27.63.63,0,0,1-.18-.81c.36-.65.7-1.24,1-1.76a.62.62,0,1,1,1.06.66c-.23.38-.48.79-.73,1.24a7,7,0,0,1,1.12,1.2.61.61,0,0,1-.14.87A.6.6,0,0,1,542.88,270.12Z"/><path class="cls-3" d="M549.82,265.16a.63.63,0,0,1-.37-.12l-.68-.51a4.69,4.69,0,0,0-2.24-1.22.64.64,0,0,1-.61-.65.62.62,0,0,1,.65-.6,5.52,5.52,0,0,1,3,1.48l.65.49a.62.62,0,0,1,.14.87A.61.61,0,0,1,549.82,265.16Z"/><path class="cls-3" d="M557.88,268.1a.62.62,0,0,1-.49-.24,4.42,4.42,0,0,1-.73-1.42,8.7,8.7,0,0,1-1.43.3.6.6,0,0,1-.7-.54.63.63,0,0,1,.54-.7,8.8,8.8,0,0,0,1.81-.44.61.61,0,0,1,.51,0,.64.64,0,0,1,.31.41,4.05,4.05,0,0,0,.67,1.58.62.62,0,0,1-.1.88A.63.63,0,0,1,557.88,268.1Z"/><path class="cls-3" d="M563.21,268.72a.63.63,0,0,1-.19-1.22,32.6,32.6,0,0,0,3.47-1.43.64.64,0,0,1,.83.31.63.63,0,0,1-.31.83,34.54,34.54,0,0,1-3.6,1.48A.69.69,0,0,1,563.21,268.72Zm11.19-2.51a9.69,9.69,0,0,1-2.47-.36.62.62,0,0,1-.45-.76.63.63,0,0,1,.77-.44,6.48,6.48,0,0,0,3.43.14.64.64,0,0,1,.78.42.62.62,0,0,1-.43.78A5.59,5.59,0,0,1,574.4,266.21Zm5-4.39a.57.57,0,0,1-.22,0,.63.63,0,0,1-.36-.81c.33-.88.62-1.85.93-2.88l.22-.72a.63.63,0,1,1,1.2.37l-.22.71c-.32,1.05-.62,2.05-1,3A.65.65,0,0,1,579.43,261.82Z"/><path class="cls-3" d="M587,255.29a.66.66,0,0,1-.27-.06,2.91,2.91,0,0,0-1.61-.2.64.64,0,0,1-.7-.54.61.61,0,0,1,.54-.7,4.47,4.47,0,0,1,1.21,0,3.5,3.5,0,0,1,.18-1.26.61.61,0,0,1,.78-.41.62.62,0,0,1,.41.78,2.22,2.22,0,0,0,0,1.53.63.63,0,0,1-.57.87Z"/><path class="cls-3" d="M591.19,248.36a.6.6,0,0,1-.49-.24.62.62,0,0,1,.1-.88c1-.8,2.2-1.65,3.63-2.6a.63.63,0,1,1,.69,1.05c-1.4.92-2.56,1.75-3.54,2.53A.67.67,0,0,1,591.19,248.36Z"/><path class="cls-3" d="M600.37,242.23a.63.63,0,0,1-.34-1.15l.92-.63c-.32-.24-.63-.5-1-.79a.62.62,0,0,1-.06-.88.63.63,0,0,1,.89-.05,13.78,13.78,0,0,0,1.5,1.18.63.63,0,0,1,.28.47.65.65,0,0,1-.2.51,14.7,14.7,0,0,1-1.7,1.24A.59.59,0,0,1,600.37,242.23Z"/><path class="cls-3" d="M597.69,236.77a.63.63,0,0,1-.52-.28,7.92,7.92,0,0,1-1.24-2.68.62.62,0,0,1,.48-.74.61.61,0,0,1,.74.48,6.77,6.77,0,0,0,1.06,2.24.64.64,0,0,1-.17.87A.66.66,0,0,1,597.69,236.77Z"/><path class="cls-3" d="M598.45,231.15a.63.63,0,0,1-.6-.42.62.62,0,0,1,.39-.79,7.69,7.69,0,0,1,1.69-.37c.15-.54.29-1,.43-1.51a.62.62,0,1,1,1.2.33c-.16.6-.35,1.24-.55,1.93a.63.63,0,0,1-.55.45,7.54,7.54,0,0,0-1.81.35Z"/><path class="cls-3" d="M602.09,222.64a.61.61,0,0,1-.62-.61c0-1.67-.61-1.79-2-2.09l.25-1.23c1.47.31,3,.64,3,3.3a.63.63,0,0,1-.62.63Zm-7.38-6.27a.62.62,0,0,1-.56-.34,17.86,17.86,0,0,1-1.41-4.11.63.63,0,0,1,.48-.74.61.61,0,0,1,.74.47,17,17,0,0,0,1.3,3.81.63.63,0,0,1-.26.84A.62.62,0,0,1,594.71,216.37Zm-2.21-10.2a.62.62,0,0,1-.62-.58c-.09-1.3-.15-2.73-.18-4.23a.62.62,0,0,1,.61-.64h0a.63.63,0,0,1,.63.61c0,1.48.09,2.89.18,4.17a.63.63,0,0,1-.58.67Zm-.57-10.49a.63.63,0,0,1-.62-.54c-.13-1-.26-2.08-.41-3.27l-.11-.93a.62.62,0,0,1,1.24-.15l.11.93c.15,1.18.28,2.28.41,3.25a.63.63,0,0,1-.54.7Zm-1.35-10.46a.62.62,0,0,1-.62-.53c-.22-1.51-.44-2.87-.68-4.14a.63.63,0,0,1,.5-.73.62.62,0,0,1,.73.5c.24,1.29.46,2.66.69,4.18a.62.62,0,0,1-.53.71Zm-2.05-10.33a.63.63,0,0,1-.61-.46,41,41,0,0,0-1.28-4,.62.62,0,0,1,.35-.81.63.63,0,0,1,.81.36,40.62,40.62,0,0,1,1.33,4.07.64.64,0,0,1-.44.77Z"/><path class="cls-3" d="M584,165.39a.62.62,0,0,1-.44-.18,6.05,6.05,0,0,0-1.44-1.11.62.62,0,0,1-.31-.43.58.58,0,0,1,.14-.52A12.68,12.68,0,0,0,583,161.6a.62.62,0,1,1,1.06.66,13.07,13.07,0,0,1-.77,1.13,9.36,9.36,0,0,1,1.1.93.63.63,0,0,1,0,.89A.62.62,0,0,1,584,165.39Z"/><path class="cls-3" d="M586.16,156.85a.45.45,0,0,1-.2,0,.62.62,0,0,1-.39-.79c.43-1.26.82-2.59,1.16-4a.62.62,0,1,1,1.21.29c-.34,1.41-.74,2.78-1.19,4.08A.62.62,0,0,1,586.16,156.85Z"/><path class="cls-3" d="M588.43,146.64h-.06a.63.63,0,0,1-.56-.68c.07-.71.11-1.37.12-2a.61.61,0,0,1,.64-.61.63.63,0,0,1,.61.64c0,.61-.06,1.3-.13,2A.62.62,0,0,1,588.43,146.64Z"/><path class="cls-3" d="M5.94,226.94a.57.57,0,0,1-.18,0l-1.91-.59a.64.64,0,0,1-.41-.79.62.62,0,0,1,.78-.41l1.91.6a.62.62,0,0,1-.19,1.22Z"/><path class="cls-3" d="M120.65,277.25a.66.66,0,0,1-.27-.06c-1-.48-2.23-1.06-3.51-1.7a.62.62,0,0,1-.27-.84.63.63,0,0,1,.84-.28c1.26.64,2.43,1.21,3.47,1.69a.61.61,0,0,1,.3.82A.62.62,0,0,1,120.65,277.25ZM112,272.84a.56.56,0,0,1-.3-.08c-1.1-.6-2.23-1.22-3.4-1.88a.62.62,0,0,1,.61-1.09c1.16.65,2.29,1.28,3.39,1.88a.61.61,0,0,1,.25.85A.63.63,0,0,1,112,272.84Zm-8.45-4.75a.59.59,0,0,1-.31-.09c-1.11-.63-2.23-1.29-3.36-1.94a.64.64,0,0,1-.23-.86.62.62,0,0,1,.86-.22l3.35,1.94a.62.62,0,0,1,.23.85A.6.6,0,0,1,103.55,268.09Zm-8.37-4.9a.62.62,0,0,1-.32-.09l-3.34-2a.62.62,0,0,1,.64-1.07l3.34,2a.62.62,0,0,1-.32,1.16Zm-8.33-5a.62.62,0,0,1-.32-.09l-3.33-2a.62.62,0,1,1,.64-1.07l3.33,2a.63.63,0,0,1,.21.86A.62.62,0,0,1,86.85,258.23Zm-8.33-5a.62.62,0,0,1-.32-.09l-3.34-2a.63.63,0,0,1,.64-1.08l3.34,2a.63.63,0,0,1-.32,1.17Zm-8.37-4.91a.58.58,0,0,1-.31-.08c-1.26-.72-2.4-1.35-3.38-1.88a.62.62,0,1,1,.59-1.1c1,.53,2.13,1.17,3.41,1.89a.64.64,0,0,1,.23.86A.61.61,0,0,1,70.15,248.35Zm-8.77-4.09a.57.57,0,0,1-.18,0l-3.7-1.15a.62.62,0,1,1,.38-1.19L61.57,243a.62.62,0,0,1-.19,1.22Zm-9.24-2.88a.57.57,0,0,1-.18,0l-3.7-1.16a.62.62,0,0,1-.41-.78.63.63,0,0,1,.79-.41l3.69,1.15a.63.63,0,0,1-.19,1.23Zm-9.23-2.89a.58.58,0,0,1-.19,0L39,237.31a.63.63,0,1,1,.38-1.2l3.69,1.16a.62.62,0,0,1-.18,1.22Zm-9.25-2.89a.57.57,0,0,1-.18,0l-3.7-1.15a.62.62,0,1,1,.38-1.19l3.69,1.15a.62.62,0,0,1-.19,1.22Zm-9.24-2.89a.55.55,0,0,1-.18,0l-3.7-1.16a.62.62,0,1,1,.37-1.19l3.7,1.15a.64.64,0,0,1,.41.79A.62.62,0,0,1,24.42,232.71Zm-9.24-2.88-.18,0-3.7-1.16a.62.62,0,1,1,.37-1.19l3.7,1.16a.62.62,0,0,1-.19,1.22Z"/><path class="cls-3" d="M126.77,279.3a4.67,4.67,0,0,1-.92-.1.63.63,0,0,1-.5-.73.64.64,0,0,1,.73-.5c.86.17,1.08,0,1.08,0a.58.58,0,0,1,.32-.38.61.61,0,0,1,.51,0,1.34,1.34,0,0,0,1.33-.15.62.62,0,1,1,.67,1.05,2.59,2.59,0,0,1-2,.41A1.72,1.72,0,0,1,126.77,279.3Z"/><path class="cls-3" d="M132.2,275.08a.54.54,0,0,1-.27-.07.62.62,0,0,1-.29-.83c.35-.72.71-1.57,1.13-2.65a.63.63,0,0,1,1.17.45c-.44,1.12-.81,2-1.17,2.74A.64.64,0,0,1,132.2,275.08Z"/><path class="cls-3" d="M135,268.27a.52.52,0,0,1-.24,0,.62.62,0,0,1-.33-.82,7.8,7.8,0,0,1,1-1.91.65.65,0,0,1,.47-.23l2,0a.62.62,0,0,1,.64.6.63.63,0,0,1-.6.65l-1.7,0a9.81,9.81,0,0,0-.68,1.38A.63.63,0,0,1,135,268.27Z"/><path class="cls-3" d="M143.58,266.13a.62.62,0,0,1-.62-.57.63.63,0,0,1,.57-.68c1.28-.11,2.54-.25,3.75-.41a.63.63,0,0,1,.7.53.64.64,0,0,1-.54.71c-1.22.16-2.5.3-3.8.42Zm9.39-1.4a.64.64,0,0,1-.61-.49.62.62,0,0,1,.48-.74c1.24-.27,2.47-.58,3.65-.91a.61.61,0,0,1,.77.43.62.62,0,0,1-.43.77c-1.21.34-2.46.65-3.72.93Zm9.08-2.75a.63.63,0,0,1-.23-1.21c1.16-.46,2.31-1,3.44-1.51a.62.62,0,1,1,.54,1.12c-1.15.56-2.33,1.08-3.52,1.55A.59.59,0,0,1,162.05,262Zm8.47-4.28a.61.61,0,0,1-.53-.3.62.62,0,0,1,.21-.86c1-.63,2.09-1.33,3.14-2.07a.62.62,0,0,1,.87.16.63.63,0,0,1-.15.87c-1.07.75-2.15,1.46-3.21,2.11A.63.63,0,0,1,170.52,257.7Zm7.71-5.54a.63.63,0,0,1-.39-1.11c.93-.76,1.9-1.59,2.87-2.45a.63.63,0,0,1,.83.94c-1,.87-2,1.7-2.91,2.48A.67.67,0,0,1,178.23,252.16Zm7.08-6.34a.62.62,0,0,1-.43-1.07c.89-.86,1.79-1.74,2.7-2.66a.63.63,0,0,1,.89.89q-1.38,1.38-2.73,2.67A.59.59,0,0,1,185.31,245.82Z"/><path class="cls-3" d="M192,239.07a.63.63,0,0,1-.45-1.06l1.39-1.45a.63.63,0,0,1,.44-.19h0a.65.65,0,0,1,.44.18c.47.47.95.92,1.43,1.36a.62.62,0,0,1,0,.88.63.63,0,0,1-.89,0c-.34-.31-.68-.62-1-1l-1,1A.64.64,0,0,1,192,239.07Z"/><path class="cls-3" d="M256.5,255.45a.63.63,0,0,1,0-1.25c1.33,0,2.65,0,3.95,0a.63.63,0,0,1,.63.62.62.62,0,0,1-.61.63q-2,0-4,0Zm-5.93-.06h0l-4-.12a.63.63,0,0,1-.6-.65.59.59,0,0,1,.65-.6l3.94.12a.63.63,0,0,1,.61.64A.62.62,0,0,1,250.57,255.39Zm15.81-.1a.62.62,0,0,1-.63-.6.63.63,0,0,1,.61-.65c1.33,0,2.65-.08,3.95-.12h0a.63.63,0,0,1,.62.6.61.61,0,0,1-.6.65c-1.3,0-2.62.09-4,.12Zm-25.69-.36h-.05c-1.32-.1-2.64-.21-3.95-.35a.62.62,0,0,1,.12-1.24c1.31.13,2.62.24,3.93.34a.63.63,0,0,1-.05,1.25Zm-9.82-1.07h-.09c-1.33-.2-2.65-.41-3.92-.64a.64.64,0,0,1-.51-.73.62.62,0,0,1,.73-.5c1.26.23,2.57.44,3.88.63a.62.62,0,0,1-.09,1.24Zm-9.7-1.87H221c-1.3-.32-2.6-.67-3.84-1a.63.63,0,0,1,.35-1.2c1.23.36,2.5.71,3.79,1a.62.62,0,0,1-.15,1.23Zm-9.43-2.92a.57.57,0,0,1-.22,0c-1.25-.48-2.49-1-3.68-1.54a.63.63,0,0,1,.52-1.14c1.16.53,2.38,1,3.61,1.51a.63.63,0,0,1-.23,1.21Zm-8.9-4.25a.61.61,0,0,1-.31-.09c-1.16-.68-2.29-1.41-3.37-2.16a.62.62,0,0,1,.72-1c1,.73,2.15,1.43,3.28,2.1a.62.62,0,0,1,.22.86A.61.61,0,0,1,202.84,244.82Z"/><path class="cls-3" d="M276.28,255a.62.62,0,0,1-.63-.6.64.64,0,0,1,.6-.65l1.48,0c.06-.32.18-.79.38-1.51a.62.62,0,0,1,.76-.44.63.63,0,0,1,.44.77,12.37,12.37,0,0,0-.42,1.82.62.62,0,0,1-.6.59l-2,.07Z"/><path class="cls-3" d="M280.15,248.17a.63.63,0,0,1-.19,0,.64.64,0,0,1-.41-.79c.32-1,.66-2.07,1-3.16a.61.61,0,0,1,.78-.4.63.63,0,0,1,.41.78c-.36,1.09-.7,2.16-1,3.16A.62.62,0,0,1,280.15,248.17Zm2.55-7.9a.62.62,0,0,1-.59-.82l1-3.15a.64.64,0,0,1,.79-.41.62.62,0,0,1,.4.79l-1,3.16A.64.64,0,0,1,282.7,240.27Z"/><path class="cls-3" d="M285.22,232.36l-.18,0a.64.64,0,0,1-.42-.78c.21-.69.32-1.12.39-1.38a3.49,3.49,0,0,1-1.35-1.27.62.62,0,0,1,.19-.86.63.63,0,0,1,.86.19,2.22,2.22,0,0,0,1.21,1,.65.65,0,0,1,.42.61,11.36,11.36,0,0,1-.52,2.1A.62.62,0,0,1,285.22,232.36Z"/><path class="cls-3" d="M283.49,223.07h-.08a.63.63,0,0,1-.55-.69,38.92,38.92,0,0,1,.74-4.19.62.62,0,1,1,1.22.27,36.39,36.39,0,0,0-.71,4.06A.63.63,0,0,1,283.49,223.07Zm2.38-10.18a.63.63,0,0,1-.6-.81c.4-1.26.84-2.6,1.33-4a.63.63,0,0,1,1.18.42c-.48,1.37-.92,2.71-1.31,3.95A.63.63,0,0,1,285.87,212.89Zm3.49-9.87a.57.57,0,0,1-.22,0,.64.64,0,0,1-.36-.81c.49-1.28,1-2.58,1.55-3.91a.62.62,0,1,1,1.15.47c-.53,1.32-1,2.62-1.53,3.89A.64.64,0,0,1,289.36,203Zm4-9.7a.52.52,0,0,1-.24,0,.62.62,0,0,1-.33-.82c.54-1.27,1.1-2.56,1.66-3.85a.63.63,0,1,1,1.15.51c-.57,1.28-1.12,2.56-1.66,3.83A.63.63,0,0,1,293.32,193.32Zm4.23-9.58a.75.75,0,0,1-.26-.05.64.64,0,0,1-.31-.83l1.74-3.82a.63.63,0,0,1,.83-.3.63.63,0,0,1,.31.83q-.89,1.91-1.74,3.81A.62.62,0,0,1,297.55,183.74Zm4.4-9.51a.51.51,0,0,1-.27-.06.62.62,0,0,1-.3-.83c.6-1.27,1.2-2.53,1.79-3.79a.63.63,0,0,1,.84-.29.62.62,0,0,1,.29.83l-1.79,3.79A.63.63,0,0,1,302,174.23Zm4.5-9.45a.66.66,0,0,1-.27-.06.63.63,0,0,1-.29-.84l1.82-3.77a.62.62,0,0,1,.83-.29.61.61,0,0,1,.29.84L307,164.43A.62.62,0,0,1,306.45,164.78Zm4.57-9.42a.72.72,0,0,1-.28-.07.62.62,0,0,1-.29-.83l1.84-3.77a.62.62,0,1,1,1.12.54L311.58,155A.62.62,0,0,1,311,155.36Zm4.56-9.43a.54.54,0,0,1-.27-.07A.62.62,0,0,1,315,145c.65-1.36,1.25-2.62,1.79-3.78a.63.63,0,0,1,.83-.31.63.63,0,0,1,.3.83c-.54,1.17-1.14,2.44-1.8,3.8A.63.63,0,0,1,315.58,145.93Z"/><path class="cls-3" d="M319.85,136.5a.62.62,0,0,1-.58-.85c.18-.47.3-.82.38-1.09l-1.24-.07a.61.61,0,0,1-.59-.65.64.64,0,0,1,.65-.59l2,.1a.59.59,0,0,1,.45.22.64.64,0,0,1,.14.48,9.36,9.36,0,0,1-.63,2A.61.61,0,0,1,319.85,136.5Z"/><path class="cls-3" d="M312.2,134.06h-.06c-1.47-.13-2.87-.27-4.17-.43a.62.62,0,0,1,.15-1.24c1.29.15,2.68.3,4.13.42a.64.64,0,0,1,.57.68A.62.62,0,0,1,312.2,134.06Zm-10.32-1.4-.13,0c-1.46-.29-2.84-.63-4.09-1a.63.63,0,1,1,.35-1.2c1.22.36,2.57.69,4,1a.63.63,0,0,1-.12,1.24Zm-9.83-3.31a.54.54,0,0,1-.3-.08,21.56,21.56,0,0,1-3.55-2.38.63.63,0,0,1-.08-.88.62.62,0,0,1,.88-.08,21.43,21.43,0,0,0,3.34,2.25.62.62,0,0,1,.26.84A.64.64,0,0,1,292.05,129.35Zm-7.58-7a.62.62,0,0,1-.52-.28,32.2,32.2,0,0,1-2.14-3.66.62.62,0,1,1,1.11-.57,34,34,0,0,0,2.06,3.53.62.62,0,0,1-.17.87A.6.6,0,0,1,284.47,122.39Zm-4.7-9.29a.62.62,0,0,1-.57-.38c-.51-1.23-1-2.52-1.57-3.88A.63.63,0,0,1,278,108a.62.62,0,0,1,.81.35c.54,1.35,1,2.64,1.56,3.86a.62.62,0,0,1-.34.81A.52.52,0,0,1,279.77,113.1Zm-3.86-9.68a.63.63,0,0,1-.58-.4c-.49-1.23-1-2.52-1.56-3.85a.62.62,0,1,1,1.15-.48c.56,1.34,1.08,2.63,1.57,3.87a.61.61,0,0,1-.34.81A.69.69,0,0,1,275.91,103.42Z"/><path class="cls-3" d="M271.83,93.7a.63.63,0,0,1-.57-.37c-.22-.49-.44-1-.67-1.49L269,91.72a.63.63,0,0,1-.59-.67.65.65,0,0,1,.67-.58c.65,0,1.32.1,2,.16a.63.63,0,0,1,.51.36l.83,1.83a.64.64,0,0,1-.32.83A.75.75,0,0,1,271.83,93.7Z"/><path class="cls-3" d="M240.15,108.79a.56.56,0,0,1-.3-.08.62.62,0,0,1-.25-.84q.92-1.7,1.77-3.21a.63.63,0,1,1,1.09.62c-.57,1-1.16,2.06-1.76,3.18A.62.62,0,0,1,240.15,108.79Zm4.67-7.85a.66.66,0,0,1-.36-.11.63.63,0,0,1-.15-.87A28.52,28.52,0,0,1,246.62,97a.63.63,0,0,1,.88,0,.61.61,0,0,1,0,.88,30.09,30.09,0,0,0-2.21,2.8A.61.61,0,0,1,244.82,100.94Zm6.44-6.37a.63.63,0,0,1-.53-.3.62.62,0,0,1,.21-.86,18.14,18.14,0,0,1,3.41-1.62.64.64,0,0,1,.8.38.63.63,0,0,1-.38.8,16.61,16.61,0,0,0-3.18,1.51A.66.66,0,0,1,251.26,94.57Zm8.63-2.75a.63.63,0,0,1-.62-.56.62.62,0,0,1,.55-.69c1.15-.13,2.39-.22,3.7-.25h0a.64.64,0,0,1,.63.62.62.62,0,0,1-.61.63c-1.27,0-2.48.11-3.59.24Z"/><path class="cls-3" d="M236.6,115.43a.66.66,0,0,1-.36-.11c-.57-.4-1.11-.8-1.63-1.2a.62.62,0,1,1,.75-1l1,.75.61-1.13a.62.62,0,0,1,.85-.26.64.64,0,0,1,.26.85l-.95,1.76a.62.62,0,0,1-.41.31Z"/><path class="cls-3" d="M214.68,124a2.72,2.72,0,0,1-2-1.12.63.63,0,1,1,.94-.83,1.59,1.59,0,0,0,1.07.7c.47,0,1-.56,1.34-1a.63.63,0,0,1,1,.75A3.09,3.09,0,0,1,214.68,124ZM210,117.71a.62.62,0,0,1-.55-.33c-.54-1-1.25-2.33-2.07-3.55a.62.62,0,1,1,1-.7,37.34,37.34,0,0,1,2.14,3.67.61.61,0,0,1-.26.84A.59.59,0,0,1,210,117.71Zm9.28-.54a.57.57,0,0,1-.22,0,.64.64,0,0,1-.36-.81c.3-.77.61-1.62.94-2.55a.48.48,0,0,1,.08-.16c.3-.42.6-.81.88-1.17a.63.63,0,1,1,1,.78c-.26.32-.52.67-.79,1-.32.91-.63,1.74-.92,2.5A.63.63,0,0,1,219.28,117.17Zm10.65-6.62a.68.68,0,0,1-.31-.08,4.73,4.73,0,0,0-3.53-.8.63.63,0,0,1-.28-1.22,6,6,0,0,1,4.43.93.64.64,0,0,1,.23.86A.61.61,0,0,1,229.93,110.55Zm-25.49-1.5a.64.64,0,0,1-.61-.47c-.31-1.29-.61-2.66-.92-4.1a.63.63,0,0,1,1.23-.26c.3,1.43.6,2.79.91,4.06a.63.63,0,0,1-.46.76Zm-2.17-10.22a.63.63,0,0,1-.61-.5c-.28-1.34-.56-2.71-.86-4.09A.62.62,0,1,1,202,94c.3,1.38.59,2.76.86,4.1a.63.63,0,0,1-.49.74ZM200,88.63a.62.62,0,0,1-.6-.47c-.36-1.4-.74-2.75-1.11-4a.63.63,0,0,1,1.2-.36c.38,1.27.75,2.64,1.12,4a.63.63,0,0,1-.45.76A.44.44,0,0,1,200,88.63Zm-3.15-9.95a.62.62,0,0,1-.58-.4c-.53-1.33-1.09-2.6-1.67-3.78A.62.62,0,0,1,195.7,74c.6,1.21,1.17,2.51,1.71,3.87a.62.62,0,0,1-.35.81A.64.64,0,0,1,196.83,78.68Zm-4.9-9.19a.64.64,0,0,1-.51-.26,24.35,24.35,0,0,0-2.66-3.07.63.63,0,1,1,.88-.9,27,27,0,0,1,2.79,3.23.63.63,0,0,1-.13.88A.63.63,0,0,1,191.93,69.49Zm-7.8-6.77a.66.66,0,0,1-.27-.06,17.72,17.72,0,0,0-3.78-1.35.63.63,0,1,1,.29-1.22,19.08,19.08,0,0,1,4,1.45.62.62,0,0,1,.29.83A.63.63,0,0,1,184.13,62.72Z"/><path class="cls-3" d="M172,61a.63.63,0,0,1-.62-.55.63.63,0,0,1,.54-.7c.69-.09,1.38-.15,2-.18a.63.63,0,0,1,.66.59.62.62,0,0,1-.59.65c-.63,0-1.29.1-2,.18Z"/><path class="cls-3" d="M220.45,256.13h0a.62.62,0,0,1-.62-.63v-2a.63.63,0,0,1,.63-.62h0a.61.61,0,0,1,.61.63v2A.63.63,0,0,1,220.45,256.13Z"/><path class="cls-3" d="M221,285.16a.62.62,0,0,1-.63-.6l-.11-3.87a.63.63,0,0,1,.61-.65.65.65,0,0,1,.64.61l.11,3.87a.62.62,0,0,1-.6.64Zm-.26-9.67a.63.63,0,0,1-.63-.61c0-1.27-.06-2.57-.08-3.88a.63.63,0,0,1,.61-.64.67.67,0,0,1,.64.62c0,1.3,0,2.6.08,3.87a.63.63,0,0,1-.61.64Zm-.19-9.68a.64.64,0,0,1-.63-.62c0-1.31,0-2.61,0-3.88a.64.64,0,0,1,.62-.63h0a.62.62,0,0,1,.62.62c0,1.27,0,2.57,0,3.87a.63.63,0,0,1-.61.64Z"/><path class="cls-3" d="M223.12,293.56H223a9,9,0,0,1-2-.66.64.64,0,0,1-.34-.53l-.07-2a.63.63,0,1,1,1.25,0l.06,1.6a10.8,10.8,0,0,0,1.42.41.62.62,0,0,1-.13,1.23Z"/><path class="cls-3" d="M251.1,301.42a.63.63,0,0,1-.62-.57c-.09-.9-.81-1.72-2.14-2.46a.62.62,0,1,1,.61-1.09c1.71.94,2.64,2.1,2.77,3.43a.62.62,0,0,1-.56.68Zm-8.13-4.9h-.14c-1.16-.27-2.43-.51-3.9-.75a.63.63,0,0,1-.52-.72.62.62,0,0,1,.72-.51c1.49.24,2.79.49,4,.76a.62.62,0,0,1-.14,1.23Zm-9.9-1.58H233l-4-.48a.62.62,0,0,1-.54-.7.63.63,0,0,1,.7-.54l4,.48a.62.62,0,0,1-.07,1.24Z"/><path class="cls-3" d="M247.41,309.44a.62.62,0,0,1-.57-.37c-.27-.57-.55-1.16-.87-1.76a.62.62,0,0,1,.18-.79c.55-.42,1.06-.83,1.51-1.23a.63.63,0,1,1,.83.94c-.36.31-.75.64-1.17,1,.23.46.45.91.65,1.36a.61.61,0,0,1-.31.82A.57.57,0,0,1,247.41,309.44Z"/><path class="cls-3" d="M236.53,348h-.1a.62.62,0,0,1-.52-.71,20.12,20.12,0,0,1,1.14-4.19.63.63,0,0,1,1.17.45,18.43,18.43,0,0,0-1.07,3.93A.63.63,0,0,1,236.53,348Zm4-9.66a.61.61,0,0,1-.34-.1.62.62,0,0,1-.19-.86c.73-1.16,1.5-2.29,2.36-3.53a.62.62,0,0,1,.87-.16.64.64,0,0,1,.16.87c-.85,1.23-1.61,2.34-2.33,3.49A.63.63,0,0,1,240.55,338.37Zm5.8-8.81a.6.6,0,0,1-.31-.08.64.64,0,0,1-.23-.86,27.49,27.49,0,0,0,1.84-3.69.63.63,0,1,1,1.16.47,28.11,28.11,0,0,1-1.92,3.85A.61.61,0,0,1,246.35,329.56Zm3.27-9.91h0A.61.61,0,0,1,249,319c0-.28,0-.56,0-.84a18.71,18.71,0,0,0-.29-3.22.61.61,0,0,1,.5-.72.62.62,0,0,1,.73.5,20.27,20.27,0,0,1,.31,3.44q0,.45,0,.9A.61.61,0,0,1,249.62,319.65Z"/><path class="cls-3" d="M237.07,356.31a.62.62,0,0,1-.6-.46c-.19-.68-.34-1.35-.46-2a.64.64,0,0,1,.51-.73.63.63,0,0,1,.72.51c.11.62.26,1.26.43,1.9a.61.61,0,0,1-.44.76A.45.45,0,0,1,237.07,356.31Z"/><path class="cls-3" d="M374,417.06h-.14c-.27-.05-.62-.24-.72-.9a.61.61,0,0,1,.51-.71.65.65,0,0,1,.39.06q.12-.19.3-.54a.64.64,0,0,1,.85-.26.63.63,0,0,1,.26.84C375,416.5,374.56,417.06,374,417.06Z"/><path class="cls-3" d="M377.3,410.25a.54.54,0,0,1-.22,0,.63.63,0,0,1-.37-.81c.45-1.17.93-2.46,1.42-3.81a.62.62,0,1,1,1.17.42c-.49,1.36-1,2.65-1.42,3.84A.61.61,0,0,1,377.3,410.25Zm3.46-9.59a.52.52,0,0,1-.21,0,.62.62,0,0,1-.38-.79L381.5,396a.62.62,0,1,1,1.18.4c-.44,1.29-.89,2.58-1.33,3.86A.62.62,0,0,1,380.76,400.66Zm3.31-9.64a.45.45,0,0,1-.2,0,.61.61,0,0,1-.39-.79l1.32-3.86a.62.62,0,0,1,1.18.4l-1.32,3.86A.63.63,0,0,1,384.07,391Z"/><path class="cls-3" d="M387.42,381.4a.57.57,0,0,1-.22,0,.63.63,0,0,1-.37-.81c.72-1.9.88-2.16,1.36-2.19l.2,0c.62,0,1.24.05,1.84,0a.63.63,0,1,1,0,1.25c-.56,0-1.14,0-1.71,0-.1.21-.27.61-.55,1.34A.62.62,0,0,1,387.42,381.4Z"/><path class="cls-3" d="M396.19,378.52a.61.61,0,0,1-.58-.4.64.64,0,0,1,.36-.81,17.58,17.58,0,0,0,3.49-1.76.62.62,0,0,1,.86.18.63.63,0,0,1-.18.87,19.19,19.19,0,0,1-3.73,1.88A.54.54,0,0,1,396.19,378.52Zm8.17-5.81a.59.59,0,0,1-.41-.16.62.62,0,0,1-.06-.88,29.58,29.58,0,0,0,2.43-3.14.63.63,0,0,1,1,.7,32.4,32.4,0,0,1-2.53,3.27A.64.64,0,0,1,404.36,372.71Zm5.5-8.48a.54.54,0,0,1-.27-.07.62.62,0,0,1-.29-.83c.56-1.16,1.11-2.39,1.62-3.67a.62.62,0,1,1,1.16.46c-.52,1.31-1.08,2.57-1.66,3.76A.62.62,0,0,1,409.86,364.23Zm3.67-9.45a.63.63,0,0,1-.6-.81c.39-1.25.76-2.55,1.11-3.88a.63.63,0,0,1,.77-.44.62.62,0,0,1,.44.76c-.35,1.35-.73,2.67-1.13,3.93A.62.62,0,0,1,413.53,354.78Zm2.52-9.83-.13,0a.63.63,0,0,1-.48-.74c.28-1.33.54-2.66.78-4a.63.63,0,1,1,1.23.23c-.24,1.32-.5,2.66-.79,4A.62.62,0,0,1,416.05,345Zm1.78-10h-.09a.62.62,0,0,1-.52-.71c.2-1.38.39-2.72.56-4a.64.64,0,0,1,.7-.54.62.62,0,0,1,.54.71c-.17,1.29-.36,2.64-.57,4A.62.62,0,0,1,417.83,335Zm1.33-10.07h-.08a.64.64,0,0,1-.55-.7h0c-.2-1.2-.35-2.51-.46-3.9a.62.62,0,1,1,1.24-.1c.11,1.39.27,2.69.46,3.88a.91.91,0,0,1,0,.17v.1A.63.63,0,0,1,419.16,324.88Zm-.33-.67.33.05-.22-.06Zm-.32-9.44h0a.63.63,0,0,1-.62-.63c0-1.3.06-2.68.13-4.08a.66.66,0,0,1,.66-.6.63.63,0,0,1,.59.66c-.07,1.39-.11,2.74-.13,4A.62.62,0,0,1,418.51,314.77Zm.61-10.12h-.07a.62.62,0,0,1-.55-.69c.14-1.33.31-2.7.49-4a.64.64,0,0,1,.71-.54.63.63,0,0,1,.53.71c-.19,1.34-.35,2.68-.49,4A.63.63,0,0,1,419.12,304.65Zm1.47-10h-.11a.62.62,0,0,1-.5-.73c.25-1.35.52-2.7.81-4a.64.64,0,0,1,.75-.47.63.63,0,0,1,.48.74c-.29,1.29-.56,2.62-.81,4A.63.63,0,0,1,420.59,294.61Zm2.3-9.88a.47.47,0,0,1-.17,0,.62.62,0,0,1-.44-.77c.39-1.35.79-2.67,1.2-3.91a.63.63,0,0,1,1.19.4c-.41,1.22-.8,2.51-1.18,3.85A.63.63,0,0,1,422.89,284.73Z"/><path class="cls-3" d="M426.25,275.18a.62.62,0,0,1-.26-.06.62.62,0,0,1-.31-.82c.16-.37.33-.73.5-1.08-.33-.05-.71-.1-1.12-.14a.63.63,0,0,1,.14-1.25,18.56,18.56,0,0,1,2,.31.63.63,0,0,1,.44.34.63.63,0,0,1,0,.55c-.28.57-.56,1.16-.84,1.78A.62.62,0,0,1,426.25,275.18Z"/><path class="cls-3" d="M419.06,272.69h0c-1.25-.05-2.6-.1-4.06-.13a.62.62,0,0,1-.6-.64.61.61,0,0,1,.62-.61h0c1.46,0,2.82.08,4.07.13a.61.61,0,0,1,.6.65A.63.63,0,0,1,419.06,272.69Zm-10.17-.26h0l-4.07-.06a.61.61,0,0,1-.61-.63.62.62,0,0,1,.62-.62h0l4.07.06a.63.63,0,0,1,.61.64A.61.61,0,0,1,408.89,272.43Zm-10.17-.13h0l-4.06-.05a.63.63,0,0,1-.62-.63.59.59,0,0,1,.63-.62l4.07.05a.63.63,0,0,1,.62.63A.64.64,0,0,1,398.72,272.3Zm-10.16-.13h0l-4.07-.06a.63.63,0,0,1-.61-.64.61.61,0,0,1,.62-.61h0l4.07.06a.63.63,0,0,1,0,1.25ZM378.4,272h0l-4.06-.09a.63.63,0,0,1,0-1.25h0l4.06.09a.63.63,0,0,1,0,1.25Zm-10.16-.26h0l-4.06-.14a.61.61,0,0,1-.6-.64.59.59,0,0,1,.64-.61l4.06.14a.63.63,0,0,1,0,1.25Zm-10.15-.38h0l-4.07-.2a.62.62,0,0,1-.59-.65.64.64,0,0,1,.66-.59l4.05.19a.63.63,0,0,1,0,1.25Zm-10.15-.54h0c-1.36-.08-2.72-.17-4.06-.27a.62.62,0,0,1-.58-.67.64.64,0,0,1,.67-.58l4.05.28a.63.63,0,0,1,0,1.25Zm-10.13-.76h-.06l-4.05-.38a.62.62,0,1,1,.12-1.24l4,.38a.63.63,0,0,1-.05,1.25ZM327.7,269h-.08c-1.37-.17-2.72-.35-4-.54a.63.63,0,1,1,.18-1.24q2,.29,4,.54a.62.62,0,0,1-.08,1.24Zm-10.05-1.51h-.11c-1.38-.25-2.71-.52-4-.79a.63.63,0,0,1,.27-1.23c1.28.28,2.6.54,4,.79a.62.62,0,0,1-.11,1.24Zm-9.9-2.26a.47.47,0,0,1-.17,0c-1.39-.4-2.71-.83-3.91-1.27a.62.62,0,0,1,.43-1.17c1.18.43,2.46.85,3.82,1.24a.63.63,0,0,1-.17,1.23Zm-9.37-3.82a.66.66,0,0,1-.33-.09,15.59,15.59,0,0,1-3.29-2.59.62.62,0,1,1,.91-.85,14.32,14.32,0,0,0,3,2.37.62.62,0,0,1,.21.86A.63.63,0,0,1,298.38,261.39Zm-5.49-7.9a.62.62,0,0,1-.61-.51l-.08-.4c-.19-1-.42-2.26-.69-3.58a.62.62,0,0,1,1.22-.25c.27,1.32.5,2.55.7,3.6l.08.4a.63.63,0,0,1-.5.73Zm-2.2-9.91a.62.62,0,0,1-.6-.45c-.4-1.4-.83-2.68-1.27-3.79a.62.62,0,1,1,1.16-.46,40.56,40.56,0,0,1,1.31,3.91.62.62,0,0,1-.43.77A.47.47,0,0,1,290.69,243.58Z"/><path class="cls-3" d="M284.22,235.32a.57.57,0,0,1-.18,0,.62.62,0,0,1-.41-.78l.51-1.67c.08-.28.23-.75.76-.68a.64.64,0,0,1,.18.06,6.43,6.43,0,0,1,1.77,1.32.63.63,0,0,1,0,.89.62.62,0,0,1-.88,0,6.77,6.77,0,0,0-.78-.68l-.35,1.15A.62.62,0,0,1,284.22,235.32Z"/><path class="cls-3" d="M280.87,246.36a.58.58,0,0,1-.19,0,.62.62,0,0,1-.41-.78l1.34-4.41a.62.62,0,0,1,.78-.42.63.63,0,0,1,.42.78l-1.35,4.41A.63.63,0,0,1,280.87,246.36Z"/><path class="cls-3" d="M278.27,254.88a.55.55,0,0,1-.18,0,.63.63,0,0,1-.42-.78l.58-1.91a.62.62,0,0,1,.78-.42.63.63,0,0,1,.42.78l-.58,1.91A.63.63,0,0,1,278.27,254.88Z"/><path class="cls-3" d="M352,533.68a.62.62,0,0,1-.41-1.09,6.07,6.07,0,0,0,1.14-1.4.63.63,0,0,1,.86-.21.62.62,0,0,1,.21.85,6.75,6.75,0,0,1-1.39,1.69A.57.57,0,0,1,352,533.68Z"/><path class="cls-3" d="M354.7,527.52h-.09a.62.62,0,0,1-.53-.7c.14-1,.23-2,.32-3.13H355l.62.05c-.1,1.18-.19,2.23-.33,3.26A.63.63,0,0,1,354.7,527.52Zm.95-8h-.13a.63.63,0,0,1-.48-.74,15.65,15.65,0,0,1,1-3.22.62.62,0,0,1,.82-.32.63.63,0,0,1,.33.82,14,14,0,0,0-.92,3A.62.62,0,0,1,355.65,519.47Z"/><path class="cls-3" d="M359.48,512.5a.65.65,0,0,1-.48-.23.63.63,0,0,1,.08-.88,11.36,11.36,0,0,1,1.28-.93,3.59,3.59,0,0,1,0-1.84.63.63,0,1,1,1.21.32,2.12,2.12,0,0,0,.1,1.52.62.62,0,0,1-.25.81,11.31,11.31,0,0,0-1.56,1.08A.59.59,0,0,1,359.48,512.5Z"/><path class="cls-3" d="M364.73,504.55a.59.59,0,0,1-.47-.22.62.62,0,0,1,.06-.88c.92-.8,2-1.67,3.31-2.58a.62.62,0,0,1,.87.15.63.63,0,0,1-.15.87c-1.24.88-2.32,1.73-3.21,2.5A.61.61,0,0,1,364.73,504.55Zm8.45-5.94a.63.63,0,0,1-.53-.3.62.62,0,0,1,.21-.86c1.17-.72,2.37-1.43,3.58-2.12a.62.62,0,0,1,.85.23.64.64,0,0,1-.23.86c-1.2.68-2.39,1.38-3.55,2.09A.58.58,0,0,1,373.18,498.61Zm9-5.13a.62.62,0,0,1-.55-.33.64.64,0,0,1,.25-.85l2.79-1.51.85-.46a.63.63,0,0,1,.6,1.1l-.86.46-2.78,1.51A.67.67,0,0,1,382.17,493.48Z"/><path class="cls-3" d="M391.23,488.49a.65.65,0,0,1-.54-.3.63.63,0,0,1,.21-.86c.59-.35,1-.65,1.33-.87a17,17,0,0,1,0-1.75.62.62,0,0,1,.63-.6h0a.63.63,0,0,1,.61.64,17.76,17.76,0,0,0,0,1.93.61.61,0,0,1-.2.51,11.6,11.6,0,0,1-1.74,1.21A.62.62,0,0,1,391.23,488.49Z"/><path class="cls-3" d="M394,479.59a.57.57,0,0,1-.22,0,.63.63,0,0,1-.37-.8,23.83,23.83,0,0,1,1.71-3.65.62.62,0,0,1,.85-.24.64.64,0,0,1,.24.86,22.37,22.37,0,0,0-1.63,3.46A.62.62,0,0,1,394,479.59Zm5-8.43a.6.6,0,0,1-.38-.13.63.63,0,0,1-.11-.88c.7-.9,1.48-1.84,2.51-3.07a.63.63,0,0,1,.88-.07.62.62,0,0,1,.07.88c-1,1.21-1.78,2.15-2.47,3A.63.63,0,0,1,399,471.16Zm6.29-7.57a.67.67,0,0,1-.39-.14.62.62,0,0,1-.09-.88c.92-1.13,1.69-2.15,2.37-3.1a.62.62,0,0,1,1,.72c-.69,1-1.48,2-2.42,3.17A.62.62,0,0,1,405.25,463.59Zm5.39-8.21a.58.58,0,0,1-.26-.06.63.63,0,0,1-.31-.83,20.66,20.66,0,0,0,1.29-3.59.62.62,0,1,1,1.21.31,22.63,22.63,0,0,1-1.36,3.81A.64.64,0,0,1,410.64,455.38Z"/><path class="cls-3" d="M412.54,445.82a.63.63,0,0,1-.62-.6c0-.52-.08-1-.15-1.58-.37-.16-.87-.4-1.52-.73a.62.62,0,1,1,.56-1.11c.83.42,1.4.68,1.75.82a.61.61,0,0,1,.4.49c.1.69.17,1.38.21,2.05a.62.62,0,0,1-.59.65Z"/><path class="cls-3" d="M405.75,440.45a.59.59,0,0,1-.29-.07l-3.18-1.71a.64.64,0,0,1-.26-.85.63.63,0,0,1,.85-.25l3.18,1.7a.63.63,0,0,1-.3,1.18Zm-8-4.23a.59.59,0,0,1-.29-.07c-1.06-.55-2.14-1.09-3.21-1.62a.64.64,0,0,1-.28-.84.62.62,0,0,1,.84-.28c1.07.53,2.16,1.08,3.23,1.63a.64.64,0,0,1,.26.85A.62.62,0,0,1,397.79,436.22Zm-8.1-4a.58.58,0,0,1-.26-.06c-1.19-.53-2.3-1-3.3-1.39a.62.62,0,0,1,.46-1.16c1,.4,2.15.87,3.35,1.41a.63.63,0,0,1,.32.83A.64.64,0,0,1,389.69,432.27Z"/><path class="cls-3" d="M379.23,429.58a.62.62,0,0,1-.39-.14.63.63,0,0,1-.21-.68,4.17,4.17,0,0,0,.13-1.72.62.62,0,1,1,1.24-.14,5.89,5.89,0,0,1,0,1.18,6.53,6.53,0,0,1,1.23,0,.62.62,0,0,1,.54.7.61.61,0,0,1-.69.54,2.56,2.56,0,0,0-1.56.14A.62.62,0,0,1,379.23,429.58Z"/><path class="cls-3" d="M378.19,423.91a.62.62,0,0,1-.56-.35c-.33-.69-.73-1.41-1.22-2.22a.63.63,0,0,1,1.07-.65c.51.84.92,1.6,1.27,2.32a.63.63,0,0,1-.29.84A.66.66,0,0,1,378.19,423.91Z"/><path class="cls-3" d="M374.84,418.37a.63.63,0,0,1-.52-.28c-.33-.51-.64-1-.9-1.41h-1.64a.63.63,0,1,1,0-1.25h2a.63.63,0,0,1,.54.31c.29.48.65,1,1.06,1.66a.62.62,0,0,1-.18.86A.66.66,0,0,1,374.84,418.37Z"/><path class="cls-3" d="M368.4,416.68h-2.26a.63.63,0,0,1,0-1.25h2.26a.63.63,0,0,1,0,1.25Z"/><path class="cls-3" d="M362.75,416.68h-2a.62.62,0,0,1-.58-.4,6.1,6.1,0,0,1-.24-2.22.68.68,0,0,1,.64-.61.63.63,0,0,1,.61.64,6.56,6.56,0,0,0,.06,1.34h1.51a.63.63,0,0,1,0,1.25Z"/><path class="cls-3" d="M360.87,410.49h-.05a.64.64,0,0,1-.58-.68c.08-.86.11-1.5.11-2q0-.37,0-.69a.62.62,0,0,1,.57-.67.64.64,0,0,1,.68.57c0,.24,0,.5,0,.79,0,.55,0,1.23-.11,2.12A.63.63,0,0,1,360.87,410.49Z"/><path class="cls-3" d="M357,409.42h-.11c-.64-.12-1.29-.2-1.93-.26a.62.62,0,0,1-.57-.67.63.63,0,0,1,.68-.57c.55,0,1.1.11,1.65.2.38-.49.73-.92,1.05-1.3a.62.62,0,0,1,.94.82c-.36.43-.77.94-1.21,1.53A.64.64,0,0,1,357,409.42Z"/><path class="cls-3" d="M338.86,411.41a10.25,10.25,0,0,1-2.78-.37.62.62,0,0,1-.43-.77.61.61,0,0,1,.77-.43,9.93,9.93,0,0,0,3.54.27.62.62,0,1,1,.12,1.24C339.67,411.39,339.26,411.41,338.86,411.41Zm6.73-1.26a.62.62,0,0,1-.6-.47.61.61,0,0,1,.45-.76c1.08-.28,2.38-.59,3.78-.81a.63.63,0,0,1,.19,1.24c-1.35.21-2.61.51-3.66.78Z"/><path class="cls-3" d="M331.33,408.26a.63.63,0,0,1-.41-.15c-.4-.35-.82-.74-1.24-1.15a6.63,6.63,0,0,1-1.8.18.63.63,0,0,1-.61-.64.6.6,0,0,1,.64-.61,5.47,5.47,0,0,0,1.78-.23.64.64,0,0,1,.62.16c.48.49,1,.94,1.43,1.34a.62.62,0,0,1,.06.88A.63.63,0,0,1,331.33,408.26Z"/><path class="cls-3" d="M324.64,406.42a.66.66,0,0,1-.23,0,15.26,15.26,0,0,1-2.08-1,.62.62,0,1,1,.62-1.08,14.65,14.65,0,0,0,1.92.93.62.62,0,0,1-.23,1.2Z"/><path class="cls-3" d="M317.8,404a.7.7,0,0,1-.34-.1.63.63,0,0,1-.18-.87,3.93,3.93,0,0,0,.55-1.62.63.63,0,0,1,.44-.51.59.59,0,0,1,.64.17,17.7,17.7,0,0,0,1.39,1.32.61.61,0,0,1,.07.88.62.62,0,0,1-.88.08c-.24-.21-.47-.41-.69-.62a4.66,4.66,0,0,1-.47,1A.62.62,0,0,1,317.8,404Z"/><path class="cls-3" d="M307.94,407.92a.67.67,0,0,1-.28-.06.63.63,0,0,1-.28-.84,11.69,11.69,0,0,0,.72-1.77.61.61,0,0,1,.59-.43h0l1.15,0,.85,0a.63.63,0,0,1,.61.65.65.65,0,0,1-.65.6l-.86,0-.67,0a12.76,12.76,0,0,1-.64,1.5A.62.62,0,0,1,307.94,407.92Z"/><path class="cls-3" d="M291.64,415.75a.63.63,0,0,1-.62-.55.64.64,0,0,1,.55-.7c1.51-.17,2.65-.33,3.71-.51a.62.62,0,1,1,.21,1.23c-1.08.19-2.25.35-3.77.53Zm9.23-1.91a.65.65,0,0,1-.59-.41.63.63,0,0,1,.37-.8,15.39,15.39,0,0,0,3.22-1.64.63.63,0,1,1,.71,1,16.53,16.53,0,0,1-3.49,1.78A.85.85,0,0,1,300.87,413.84Z"/><path class="cls-3" d="M284,416.68a.62.62,0,0,1-.1-1.24c.65-.11,1.32-.21,2-.29a.63.63,0,0,1,.7.54.63.63,0,0,1-.54.7c-.67.08-1.32.18-2,.28Z"/><path class="cls-3" d="M431,621.59h-.07a5.6,5.6,0,0,1-2.15-.62.61.61,0,0,1-.25-.85.62.62,0,0,1,.85-.24,4.51,4.51,0,0,0,1.68.47.62.62,0,0,1-.06,1.24Z"/><path class="cls-3" d="M427.73,615.31l-.15,0a.63.63,0,0,1-.46-.76,28.24,28.24,0,0,1,1.43-4.09.63.63,0,0,1,1.15.49,27.83,27.83,0,0,0-1.37,3.91A.62.62,0,0,1,427.73,615.31Z"/><path class="cls-3" d="M431.76,605.54a.74.74,0,0,1-.25,0,.64.64,0,0,1-.33-.82,10.93,10.93,0,0,0,.43-1.15l-.62-.11-.77-.14a.62.62,0,0,1,.21-1.23l.78.14,1.18.21.12,0a.6.6,0,0,1,.4.47,4.49,4.49,0,0,1-.58,2.27A.63.63,0,0,1,431.76,605.54Z"/><path class="cls-3" d="M425.58,602.45h-.11l-3.17-.56a.62.62,0,1,1,.22-1.23l3.16.56a.62.62,0,0,1,.51.72A.63.63,0,0,1,425.58,602.45Z"/><path class="cls-3" d="M417.66,601.06h-.11l-2-.35a.62.62,0,0,1-.44-.32q-.45-.84-1-1.68a.62.62,0,0,1,1.05-.67c.32.49.62,1,.9,1.49l1.67.3a.62.62,0,0,1,.51.72A.63.63,0,0,1,417.66,601.06Z"/><path class="cls-3" d="M411,594.45a.62.62,0,0,1-.44-.18,28.18,28.18,0,0,0-2.92-2.47.62.62,0,0,1-.14-.87.64.64,0,0,1,.88-.14,29.71,29.71,0,0,1,3.05,2.59.62.62,0,0,1,0,.88A.63.63,0,0,1,411,594.45Zm-8-5.58a.71.71,0,0,1-.28-.06c-1.1-.55-2.29-1.08-3.53-1.56a.63.63,0,0,1-.36-.81.64.64,0,0,1,.81-.36c1.28.5,2.5,1,3.64,1.61a.62.62,0,0,1-.28,1.18Zm-9.18-3.39-.17,0c-1.2-.32-2.48-.62-3.78-.89a.63.63,0,0,1-.49-.74.62.62,0,0,1,.74-.48c1.33.27,2.63.57,3.86.9a.63.63,0,0,1,.44.77A.62.62,0,0,1,393.75,585.48Zm-9.63-1.87H384c-1.24-.16-2.55-.31-3.88-.44a.63.63,0,0,1-.56-.68.61.61,0,0,1,.68-.56c1.35.13,2.67.28,3.92.44a.63.63,0,0,1-.08,1.25Zm-9.77-.88h0l-3.91-.15a.63.63,0,0,1,0-1.25h0c1.3,0,2.62.09,3.94.16a.62.62,0,0,1,0,1.24Zm-13.74-.23a.63.63,0,0,1-.62-.63.62.62,0,0,1,.62-.62h3.93a.63.63,0,0,1,0,1.25h-3.93Z"/><path class="cls-3" d="M352.73,582.57a.63.63,0,0,1-.63-.62.63.63,0,0,1,.62-.63h2a.6.6,0,0,1,.63.61.63.63,0,0,1-.62.64Z"/><path class="cls-3" d="M391.74,121.6a.64.64,0,0,1-.3-.08.62.62,0,0,1-.25-.85l.95-1.76a.62.62,0,0,1,1.1.59l-.95,1.77A.64.64,0,0,1,391.74,121.6Z"/><path class="cls-3" d="M393.7,118a.51.51,0,0,1-.29-.08.62.62,0,0,1-.26-.84L395,113.7a.62.62,0,0,1,.84-.26.63.63,0,0,1,.26.85l-1.81,3.34A.62.62,0,0,1,393.7,118Z"/><path class="cls-3" d="M398.21,109.61a.66.66,0,0,1-.3-.07.63.63,0,0,1-.25-.85l.57-1c.13-.24.23-.43.33-.59a.54.54,0,0,1,.05-.11h0a1.42,1.42,0,0,1,.18-.22h0l0,0a.38.38,0,0,1,.13-.09l1.48-1.05a.62.62,0,1,1,.72,1l-1.51,1.07-.88,1.63A.61.61,0,0,1,398.21,109.61Z"/><path class="cls-3" d="M405.55,103.34a.63.63,0,0,1-.36-1.14l3.17-2.25a.63.63,0,0,1,.87.15.62.62,0,0,1-.15.87l-3.17,2.25A.62.62,0,0,1,405.55,103.34Zm7.94-5.62a.6.6,0,0,1-.51-.27.62.62,0,0,1,.14-.87l.75-.53a17.89,17.89,0,0,1,1.38-2.36.63.63,0,1,1,1,.7A17,17,0,0,0,415,96.57c0,.23-.27.4-.86.82l-.3.21A.62.62,0,0,1,413.49,97.72Zm5.93-7.6A.67.67,0,0,1,419,90a.64.64,0,0,1,0-.89c.84-.93,1.76-1.88,2.71-2.83a.63.63,0,0,1,.89,0,.62.62,0,0,1,0,.88c-.94.93-1.83,1.87-2.66,2.78A.64.64,0,0,1,419.42,90.12Zm7-6.75a.61.61,0,0,1-.48-.22.63.63,0,0,1,.07-.88c1.05-.88,2.08-1.7,3.08-2.44a.62.62,0,0,1,.74,1c-1,.73-2,1.53-3,2.4A.61.61,0,0,1,426.42,83.37Z"/><path class="cls-3" d="M434.37,77.86a.62.62,0,0,1-.56-.35.63.63,0,0,1,.28-.84,14.11,14.11,0,0,1,2-.78.63.63,0,1,1,.36,1.2,11.17,11.17,0,0,0-1.76.71A.66.66,0,0,1,434.37,77.86Z"/><path class="cls-3" d="M391.22,122.55a.6.6,0,0,1-.38-.13.63.63,0,0,1-.11-.88,5.55,5.55,0,0,0,.92-1.51.62.62,0,1,1,1.19.36,6.07,6.07,0,0,1-1.13,1.92A.6.6,0,0,1,391.22,122.55Z"/><path class="cls-3" d="M387.7,117.64a.63.63,0,0,1-.54-.32l-2.06-3.66a.62.62,0,0,1,1.09-.61l2.06,3.66a.62.62,0,0,1-.24.85A.68.68,0,0,1,387.7,117.64Zm-5.14-9.14a.63.63,0,0,1-.55-.32L380,104.53a.62.62,0,0,1,.23-.85.63.63,0,0,1,.86.24l2.05,3.65a.62.62,0,0,1-.24.85A.64.64,0,0,1,382.56,108.5Zm-5.15-9.13a.61.61,0,0,1-.54-.32l-2.06-3.65a.62.62,0,0,1,1.09-.61L378,98.44a.62.62,0,0,1-.24.85A.58.58,0,0,1,377.41,99.37Zm-5.14-9.13a.61.61,0,0,1-.54-.31l-2.06-3.66a.62.62,0,0,1,1.09-.61l2.06,3.65a.62.62,0,0,1-.24.85A.58.58,0,0,1,372.27,90.24Zm-5.14-9.13a.63.63,0,0,1-.55-.32l-2-3.55a.65.65,0,0,1-.09-.63.6.6,0,0,1,.8-.33.82.82,0,0,1,.35.29l2,3.61a.62.62,0,0,1-.23.85A.6.6,0,0,1,367.13,81.11Zm-7.72-6.38a.6.6,0,0,1-.29-.08c-1.31-.7-2.54-1.41-3.65-2.11a.62.62,0,0,1-.2-.86.63.63,0,0,1,.86-.2c1.09.69,2.29,1.38,3.58,2.07a.63.63,0,0,1,.25.85A.62.62,0,0,1,359.41,74.73Zm-8.59-5.86a.61.61,0,0,1-.43-.18,16.5,16.5,0,0,1-2.77-3.31.62.62,0,0,1,.21-.86.63.63,0,0,1,.86.2,15.21,15.21,0,0,0,2.56,3.07.62.62,0,0,1,0,.88A.61.61,0,0,1,350.82,68.87Zm-4.48-9.11a.64.64,0,0,1-.63-.57l0-.48a11.74,11.74,0,0,0-.67-3.42.64.64,0,0,1,.33-.82.63.63,0,0,1,.82.34,12.11,12.11,0,0,1,.76,3.78l0,.48a.63.63,0,0,1-.56.68Z"/><path class="cls-3" d="M341.11,51.51a.67.67,0,0,1-.28-.06c-.54-.28-1.14-.55-1.78-.81a.62.62,0,0,1-.34-.81.63.63,0,0,1,.81-.35c.68.28,1.31.56,1.87.85a.63.63,0,0,1,.28.84A.62.62,0,0,1,341.11,51.51Z"/><path class="cls-3" d="M452.91,195.76a.67.67,0,0,1-.42-.16.63.63,0,0,1-.05-.88c.4-.46.88-1,1.42-1.48a.63.63,0,0,1,.87.9c-.52.5-1,1-1.35,1.4A.65.65,0,0,1,452.91,195.76Z"/><path class="cls-3" d="M458.9,190.43a.62.62,0,0,1-.5-.24.63.63,0,0,1,.11-.88c1-.77,2.11-1.58,3.26-2.4a.64.64,0,0,1,.88.15.64.64,0,0,1-.16.88c-1.14.8-2.22,1.6-3.21,2.36A.62.62,0,0,1,458.9,190.43Zm8.25-5.73a.62.62,0,0,1-.34-1.15c1.18-.75,2.34-1.46,3.45-2.11a.61.61,0,0,1,.85.22.62.62,0,0,1-.22.86c-1.1.64-2.24,1.34-3.41,2.08A.58.58,0,0,1,467.15,184.7Zm8-5.74a.61.61,0,0,1-.3-.08.62.62,0,0,1-.25-.85c.58-1.06,1.25-2.25,2-3.52a.63.63,0,0,1,1.09.62c-.72,1.26-1.39,2.44-2,3.5A.61.61,0,0,1,475.12,179Zm5-8.71a.63.63,0,0,1-.54-.95c.69-1.14,1.4-2.3,2.11-3.44a.63.63,0,0,1,.86-.2.62.62,0,0,1,.2.86c-.71,1.14-1.41,2.29-2.1,3.42A.6.6,0,0,1,480.14,170.25Zm5.38-8.49a.66.66,0,0,1-.35-.11.64.64,0,0,1-.17-.87c.84-1.23,1.62-2.35,2.33-3.31a.63.63,0,0,1,1,.74c-.7.95-1.48,2-2.3,3.27A.63.63,0,0,1,485.52,161.76Zm4.67-8.53h0a.61.61,0,0,1-.58-.66,38.31,38.31,0,0,1,.51-4,.62.62,0,1,1,1.23.22,38.78,38.78,0,0,0-.5,3.91A.62.62,0,0,1,490.19,153.23Zm1.9-9.84-.17,0a.64.64,0,0,1-.43-.78c.36-1.22.77-2.52,1.24-3.86a.61.61,0,0,1,.79-.38.62.62,0,0,1,.39.79c-.46,1.32-.87,2.6-1.22,3.8A.63.63,0,0,1,492.09,143.39Zm3.34-9.47a.59.59,0,0,1-.23,0,.62.62,0,0,1-.35-.81c.5-1.25,1-2.49,1.53-3.73a.61.61,0,0,1,.81-.33.62.62,0,0,1,.34.81c-.52,1.23-1,2.47-1.52,3.71A.62.62,0,0,1,495.43,133.92Zm3.89-9.27a.7.7,0,0,1-.25-.05.63.63,0,0,1-.33-.82c.54-1.25,1.06-2.48,1.57-3.7a.63.63,0,0,1,.82-.33.62.62,0,0,1,.33.82c-.5,1.21-1,2.45-1.57,3.7A.62.62,0,0,1,499.32,124.65Z"/><path class="cls-3" d="M503.1,115.38a.57.57,0,0,1-.22,0,.63.63,0,0,1-.37-.8c.24-.63.46-1.26.67-1.87a.62.62,0,1,1,1.18.4c-.21.63-.44,1.26-.67,1.9A.65.65,0,0,1,503.1,115.38Z"/><path class="cls-3" d="M694.85,254.46h-.07c-.69-.08-1.35-.14-2-.19a.63.63,0,0,1,.1-1.25c.64,0,1.31.12,2,.19a.63.63,0,0,1-.06,1.25Z"/><path class="cls-3" d="M665,265.19a.63.63,0,0,1-.62-.55.62.62,0,0,1,.55-.7,22.77,22.77,0,0,0,4-.82.63.63,0,0,1,.37,1.2,25,25,0,0,1-4.21.86Zm-5.46-2.77a.6.6,0,0,1-.31-.08,40.25,40.25,0,0,0-3.67-1.93.62.62,0,0,1,.52-1.13,40,40,0,0,1,3.78,2,.62.62,0,0,1-.32,1.16Zm14.91-1.26A.61.61,0,0,1,674,261a.62.62,0,0,1,0-.88,23.5,23.5,0,0,0,1.55-1.83c.37-.46.73-.92,1.13-1.37a.63.63,0,0,1,.88-.05.62.62,0,0,1,.05.88c-.38.43-.73.87-1.08,1.32-.51.63-1,1.28-1.64,1.91A.59.59,0,0,1,674.43,261.16Zm-28.51-.91a.65.65,0,0,1-.46-.2.63.63,0,0,1,0-.89,5.9,5.9,0,0,1,4.21-1.58.65.65,0,0,1,.65.62.6.6,0,0,1-.6.63h0a4.64,4.64,0,0,0-3.36,1.25A.65.65,0,0,1,645.92,260.25Zm36.48-5.52a.62.62,0,0,1-.6-.46.63.63,0,0,1,.44-.77,21.12,21.12,0,0,1,4.27-.62.63.63,0,0,1,.07,1.25,19.38,19.38,0,0,0-4,.58Z"/><path class="cls-3" d="M641,261.58a.61.61,0,0,1-.5-.26,16.58,16.58,0,0,1-1.14-1.73.61.61,0,0,1,.2-.83.63.63,0,0,1,.85.16c.45.62.84,1.13,1.19,1.53a.62.62,0,0,1-.06.88l-.12.08-.05,0A.58.58,0,0,1,641,261.58Z"/><path class="cls-3" d="M649.57,269.16a.62.62,0,0,1-.32-.09,34.67,34.67,0,0,1-3.81-2.71.62.62,0,0,1-.09-.88.64.64,0,0,1,.88-.09A31,31,0,0,0,649.9,268a.63.63,0,0,1,.21.86A.65.65,0,0,1,649.57,269.16Z"/><path class="cls-3" d="M659,274a.6.6,0,0,1-.47-.22,17.71,17.71,0,0,1-1.1-1.42,17.84,17.84,0,0,1-1.75-.38.63.63,0,1,1,.33-1.21,15.87,15.87,0,0,0,1.88.4.61.61,0,0,1,.43.27,16.72,16.72,0,0,0,1.16,1.53.63.63,0,0,1-.48,1Z"/><path class="cls-3" d="M667.46,281.34a.62.62,0,0,1-.36-.12c-1.26-.88-2.48-1.8-3.62-2.73a.63.63,0,1,1,.79-1c1.11.91,2.31,1.81,3.55,2.68a.63.63,0,0,1,.15.87A.6.6,0,0,1,667.46,281.34Z"/><path class="cls-3" d="M675,285.78a.58.58,0,0,1-.26-.06c-.57-.25-1.18-.56-1.83-.9a.62.62,0,0,1,.59-1.1c.62.32,1.21.62,1.75.86a.63.63,0,0,1,.32.83A.63.63,0,0,1,675,285.78Z"/><path class="cls-3" d="M581,480.56h-.09a11.24,11.24,0,0,1-2.06-.46.63.63,0,1,1,.39-1.19,9.58,9.58,0,0,0,1.83.41.63.63,0,0,1-.07,1.25Z"/><path class="cls-3" d="M573.61,475.42a.64.64,0,0,1-.54-.32,27.27,27.27,0,0,1-1.61-3.51l-.42-1a.62.62,0,0,1,.33-.82.62.62,0,0,1,.82.33c.14.32.28.67.43,1a25.91,25.91,0,0,0,1.54,3.36.62.62,0,0,1-.24.85A.56.56,0,0,1,573.61,475.42Z"/><path class="cls-3" d="M565.52,473.54a.59.59,0,0,1-.34-.1.64.64,0,0,1-.19-.87q.62-.94,1.14-1.68a.61.61,0,0,1,.87-.14.63.63,0,0,1,.15.87c-.34.47-.71,1-1.11,1.63A.61.61,0,0,1,565.52,473.54Z"/><path class="cls-3" d="M285.13,232.34a.39.39,0,0,1-.15,0h0a.63.63,0,0,1-.42-.78l.59-1.91h0c.14-.39.23-.4.49-.44a.64.64,0,0,1,.57.21.63.63,0,0,1,.12.59l-.16.52c0,.12-.08.25-.12.39l-.3,1A.62.62,0,0,1,285.13,232.34Z"/><path class="cls-3" d="M412.67,444.17l-.12,0a.57.57,0,0,1-.48-.69v-.08a.64.64,0,0,1,.74-.48.61.61,0,0,1,.49.72h0l0,.1h0A.71.71,0,0,1,412.67,444.17Zm-.6-.71.61.14Z"/><path class="cls-3" d="M374.26,417.64c-.13,0-.24-.08-.42-.33h0l-.33-.53-.25-.4h0a.62.62,0,0,1,1.06-.66l.59.93a.64.64,0,0,1-.36.94A1,1,0,0,1,374.26,417.64Z"/><path class="cls-3" d="M595.53,268.72a.68.68,0,0,1-.67-.64c0-.45.38-.61.74-.77a.63.63,0,0,1,.82.33.61.61,0,0,1-.1.65A1,1,0,0,1,595.53,268.72Z"/><path class="cls-3" d="M500,332.75a1.09,1.09,0,0,1-.3-.07.61.61,0,0,1-.33-.81v0a0,0,0,0,0,0,0,.78.78,0,0,1,.67-.51.69.69,0,0,1,.64.68A.7.7,0,0,1,500,332.75Z"/><path class="cls-3" d="M411.85,448.12h-.13a.64.64,0,0,1-.5-.62.5.5,0,0,1,0-.12l0-.21a.62.62,0,1,1,1.22.25l0,.21A.62.62,0,0,1,411.85,448.12Z"/><path class="cls-3" d="M412.7,444.13l-.14,0a.62.62,0,0,1-.47-.75l0-.09a.62.62,0,1,1,1.22.25l0,.12A.64.64,0,0,1,412.7,444.13Z"/><path class="cls-3" d="M483.63,367.37a.63.63,0,0,1-.61-.48l-.46-1.94a.62.62,0,0,1,.13-.55.56.56,0,0,1,.5-.22,10.63,10.63,0,0,0,1.89-.11.63.63,0,0,1,.17,1.24q-.69.09-1.29.12l.28,1.17a.63.63,0,0,1-.47.76Z"/><path class="cls-3" d="M479.31,402.81a.68.68,0,0,1-.31-.08.62.62,0,0,1-.23-.85,4.33,4.33,0,0,0,.56-2.19,7.14,7.14,0,0,0-.21-1.63.63.63,0,0,1,1.22-.29,8.47,8.47,0,0,1,.24,1.92,5.53,5.53,0,0,1-.73,2.81A.61.61,0,0,1,479.31,402.81Zm-2.11-10.36a.64.64,0,0,1-.56-.36c-.56-1.18-1.21-2.56-1.81-4.06a.63.63,0,0,1,.35-.81.62.62,0,0,1,.81.35c.59,1.47,1.23,2.82,1.78,4a.64.64,0,0,1-.3.84A.66.66,0,0,1,477.2,392.45Zm.71-10a.58.58,0,0,1-.33-.1.62.62,0,0,1-.19-.86,10.75,10.75,0,0,1,3.14-3.41.61.61,0,0,1,.86.2.62.62,0,0,1-.19.86,9.6,9.6,0,0,0-2.76,3A.62.62,0,0,1,477.91,382.48Zm8.15-4.37a.62.62,0,0,1-.62-.54c-.11-.86-.44-2.32-.89-4.25a.63.63,0,0,1,1.22-.28c.46,2,.79,3.45.91,4.36a.62.62,0,0,1-.53.71Z"/><path class="cls-3" d="M474.23,407.82l-.17,0a7.48,7.48,0,0,0-1.82-.25.63.63,0,0,1-.6-.52.62.62,0,0,1,.39-.69c.66-.25,1.26-.5,1.82-.75a.64.64,0,0,1,.83.31.64.64,0,0,1-.17.74.63.63,0,0,1-.28,1.19Z"/><path class="cls-3" d="M474.73,422.45a.83.83,0,0,1-.22,0,.64.64,0,0,1-.37-.81c.38-1,.76-2,1.12-3.08a.62.62,0,1,1,1.18.4c-.36,1.06-.75,2.11-1.13,3.12A.61.61,0,0,1,474.73,422.45Zm2.42-7.86h-.1a.62.62,0,0,1-.51-.72,12.31,12.31,0,0,0,.19-2.06,6.63,6.63,0,0,0-.07-1,.63.63,0,0,1,.53-.71.62.62,0,0,1,.71.52,9.34,9.34,0,0,1,.08,1.21,13.68,13.68,0,0,1-.21,2.27A.62.62,0,0,1,477.15,414.59Z"/><path class="cls-3" d="M472.75,429.09a.73.73,0,0,1-.29-.07l-1.77-.9a.62.62,0,1,1,.55-1.12l1,.49c.06-.34.15-.73.27-1.16a.63.63,0,0,1,1.21.34,8.59,8.59,0,0,0-.34,1.81.6.6,0,0,1-.31.52A.56.56,0,0,1,472.75,429.09Z"/><path class="cls-3" d="M434.75,429.49a.63.63,0,0,1,0-1.25,36.26,36.26,0,0,0,3.67-.33.63.63,0,0,1,.71.53.62.62,0,0,1-.53.71,36,36,0,0,1-3.8.34Zm9.21-1.57a.63.63,0,0,1-.59-.44.62.62,0,0,1,.41-.78c1.24-.38,2.37-.78,3.53-1.2a.64.64,0,0,1,.8.38.62.62,0,0,1-.38.8c-1.17.42-2.32.83-3.58,1.21A.63.63,0,0,1,444,427.92ZM465.78,426a.76.76,0,0,1-.21,0,30.15,30.15,0,0,0-3.53-1,.62.62,0,1,1,.27-1.22,30.1,30.1,0,0,1,3.67,1.06.63.63,0,0,1,.39.8A.64.64,0,0,1,465.78,426Zm-12.9-1a.62.62,0,0,1-.61-.48.63.63,0,0,1,.46-.76,21,21,0,0,1,3.82-.57.63.63,0,0,1,.65.59.62.62,0,0,1-.59.66A19.52,19.52,0,0,0,453,425Z"/><path class="cls-3" d="M425.93,430.71a.58.58,0,0,1-.37-.13.62.62,0,0,1-.12-.88c.43-.57.82-1.11,1.14-1.59a.62.62,0,0,1,.6-.27c.68.09,1.33.16,2,.22a.63.63,0,0,1,.56.68.63.63,0,0,1-.68.57l-1.63-.18c-.29.41-.61.86-1,1.33A.63.63,0,0,1,425.93,430.71Z"/><path class="cls-3" d="M418.89,438.64a.6.6,0,0,1-.45-.19.62.62,0,0,1,0-.88c1-.94,1.95-2,2.93-3a.62.62,0,0,1,.92.84c-1,1.09-2,2.13-3,3.08A.61.61,0,0,1,418.89,438.64Z"/><path class="cls-3" d="M412.06,445.81H412a.63.63,0,0,1-.53-.71c.1-.64.19-1.3.29-2a.6.6,0,0,1,.33-.47,16.32,16.32,0,0,0,1.63-1,.63.63,0,0,1,.87.15.62.62,0,0,1-.16.87,16.86,16.86,0,0,1-1.48.94c-.08.57-.16,1.13-.24,1.67A.63.63,0,0,1,412.06,445.81Z"/><path class="cls-3" d="M412.26,455.05c-1.13,0-1.7-.92-1.7-2.73,0-.24,0-.49,0-.76a.62.62,0,0,1,.66-.59.63.63,0,0,1,.59.66c0,.24,0,.47,0,.69,0,.67.08,1.48.45,1.48a1.52,1.52,0,0,0,.64-.19.63.63,0,0,1,.52,1.14A2.85,2.85,0,0,1,412.26,455.05Z"/><path class="cls-3" d="M418.23,450.8a.63.63,0,0,1-.46-.19.63.63,0,0,1,0-.88c.45-.43.93-.89,1.43-1.39a.64.64,0,0,1,.52-.18l2,.27a.62.62,0,0,1,.54.7.63.63,0,0,1-.7.54l-1.68-.23c-.43.42-.83.82-1.22,1.19A.65.65,0,0,1,418.23,450.8Z"/><path class="cls-3" d="M433.28,451.25h-.08l-4.66-.63a.62.62,0,0,1-.53-.71.61.61,0,0,1,.7-.53l4.66.63a.61.61,0,0,1,.53.7A.63.63,0,0,1,433.28,451.25Z"/><path class="cls-3" d="M442.17,454.47h0a.63.63,0,0,1-.6-.65l0-.58c0-.27,0-.56,0-.85l-1.42-.2a.62.62,0,1,1,.16-1.23l2,.26a.65.65,0,0,1,.54.64c0,.5,0,1-.05,1.42l0,.58A.63.63,0,0,1,442.17,454.47Z"/><path class="cls-3" d="M483.75,480.14a.6.6,0,0,1-.4-.15,12.51,12.51,0,0,1-2.77-3.5.62.62,0,0,1,.24-.85.64.64,0,0,1,.85.25,11.5,11.5,0,0,0,2.49,3.15.63.63,0,0,1,.07.88A.66.66,0,0,1,483.75,480.14Zm-4.69-9.35a.63.63,0,0,1-.61-.51,33,33,0,0,1-.53-4.31.63.63,0,1,1,1.25-.07,32.31,32.31,0,0,0,.51,4.14.64.64,0,0,1-.5.74Zm-.43-10.62h-.05a.63.63,0,0,1-.57-.68c0-.16,0-.32,0-.48a9.1,9.1,0,0,0-2.29-2,.62.62,0,0,1,.66-1.06,10.4,10.4,0,0,1,2.77,2.49.61.61,0,0,1,.13.45l-.06.72A.63.63,0,0,1,478.63,460.17Zm-33.85-1.28a.63.63,0,0,1-.12-1.24,21.84,21.84,0,0,0,3.55-1.13.59.59,0,0,1,.26,0l.41,0a.63.63,0,0,1,.6.65.59.59,0,0,1-.65.6l-.3,0a21.56,21.56,0,0,1-3.64,1.15Zm10.44-1.67a.62.62,0,0,1-.62-.52.64.64,0,0,1,.52-.72c1.2-.19,2.43-.42,3.67-.64l.52-.1a.63.63,0,0,1,.72.51.61.61,0,0,1-.5.72l-.52.1c-1.24.23-2.48.45-3.69.65Zm10.52-1.7a.62.62,0,0,1-.62-.56.61.61,0,0,1,.56-.68,26.16,26.16,0,0,1,4.35-.14.62.62,0,0,1,.59.66.63.63,0,0,1-.66.59,26.08,26.08,0,0,0-4.16.13Z"/><path class="cls-3" d="M490.66,484.36a.63.63,0,0,1-.27-.06.64.64,0,0,1-.3-.84l.44-.85q-.51,0-1-.06a.63.63,0,0,1-.57-.68.64.64,0,0,1,.69-.57,13.34,13.34,0,0,0,1.91.05.58.58,0,0,1,.56.3.62.62,0,0,1,0,.63c-.33.56-.64,1.14-.92,1.73A.63.63,0,0,1,490.66,484.36Z"/><path class="cls-3" d="M491,505.47a.63.63,0,0,1-.51-.26,15.72,15.72,0,0,1-2-4.1.63.63,0,1,1,1.19-.39,14.43,14.43,0,0,0,1.87,3.77.62.62,0,0,1-.15.87A.59.59,0,0,1,491,505.47ZM488.08,495h0a.62.62,0,0,1-.61-.63,25.8,25.8,0,0,1,.49-4.5.64.64,0,0,1,.74-.49.63.63,0,0,1,.49.74,24.15,24.15,0,0,0-.47,4.27A.63.63,0,0,1,488.08,495Z"/><path class="cls-3" d="M497.8,510.53l-.21,0a17.15,17.15,0,0,1-1.91-.82.63.63,0,1,1,.56-1.12,14.48,14.48,0,0,0,1.45.64,12.61,12.61,0,0,1,1.49-.93.63.63,0,0,1,.85.26.62.62,0,0,1-.26.84,11.35,11.35,0,0,0-1.58,1A.63.63,0,0,1,497.8,510.53Z"/><path class="cls-3" d="M504.38,507.66a.63.63,0,0,1-.14-1.24,24.22,24.22,0,0,1,3.54-.53.63.63,0,0,1,.67.58.63.63,0,0,1-.58.67,23,23,0,0,0-3.35.5Z"/><path class="cls-3" d="M514.93,508.13a.58.58,0,0,1-.26-.06,10.93,10.93,0,0,0-1.78-.6.62.62,0,0,1,.29-1.21,11.7,11.7,0,0,1,1.58.49,14.63,14.63,0,0,1,1.33-1,.62.62,0,0,1,.87.15.63.63,0,0,1-.15.87,6.91,6.91,0,0,0-1.38,1.14A.61.61,0,0,1,514.93,508.13Z"/><path class="cls-3" d="M521.17,503.91a.63.63,0,0,1-.32-1.17c1-.6,2.15-1.21,3.26-1.81a.63.63,0,0,1,.85.26.62.62,0,0,1-.26.84c-1.09.59-2.19,1.2-3.22,1.79A.61.61,0,0,1,521.17,503.91Zm8.19-4.32a.63.63,0,0,1-.56-.36.62.62,0,0,1,.29-.83c1.45-.69,2.62-1.19,3.47-1.49a.63.63,0,1,1,.41,1.19,35.22,35.22,0,0,0-3.34,1.43A.66.66,0,0,1,529.36,499.59Zm8.69-3.15a.61.61,0,0,1-.59-.43.62.62,0,0,1,.4-.79l2.65-.84.89-.28a.63.63,0,0,1,.38,1.2l-.9.28-2.63.83A.69.69,0,0,1,538.05,496.44Zm8.82-2.86a.63.63,0,0,1-.21-1.22c1.25-.44,2.38-.87,3.44-1.3a.62.62,0,0,1,.81.34.63.63,0,0,1-.34.82c-1.08.44-2.22.87-3.49,1.32A.52.52,0,0,1,546.87,493.58Zm8.49-3.69a.63.63,0,0,1-.55-.32.62.62,0,0,1,.24-.85,31.25,31.25,0,0,0,3.07-1.94.61.61,0,0,1,.87.13.64.64,0,0,1-.14.88,32.51,32.51,0,0,1-3.19,2A.67.67,0,0,1,555.36,489.89Zm7.14-5.8a.63.63,0,0,1-.39-.13.62.62,0,0,1-.11-.87,14.35,14.35,0,0,0,1.81-3,.63.63,0,0,1,1.15.5,15.32,15.32,0,0,1-2,3.3A.62.62,0,0,1,562.5,484.09Z"/><path class="cls-3" d="M565.57,475.54h0a.63.63,0,0,1-.6-.65,15.65,15.65,0,0,0-.05-1.93.64.64,0,0,1,.17-.47,11.57,11.57,0,0,0,1.17-1.5.64.64,0,0,1,.87-.17.63.63,0,0,1,.17.87,14.26,14.26,0,0,1-1.11,1.45c0,.6.05,1.21,0,1.79A.63.63,0,0,1,565.57,475.54Z"/><path class="cls-3" d="M568.52,466a.62.62,0,0,1-.62-.57,5.41,5.41,0,0,0-.47-1.74.61.61,0,0,1,0-.48c.28-.75.54-1.43.78-2.05a.63.63,0,0,1,.81-.35.62.62,0,0,1,.35.81c-.21.54-.44,1.14-.68,1.79a6.46,6.46,0,0,1,.47,1.9.62.62,0,0,1-.56.68Zm6-8.67a4.4,4.4,0,0,1-1.51-.32,1.51,1.51,0,0,0-.82-.18.62.62,0,0,1-.22-1.23,1.73,1.73,0,0,1,.32,0,3.23,3.23,0,0,1,1.14.26,2.55,2.55,0,0,0,2.37-.14.61.61,0,0,1,.85.22.64.64,0,0,1-.22.86A3.76,3.76,0,0,1,574.49,457.37Zm5.88-5a.66.66,0,0,1-.36-.11.62.62,0,0,1-.15-.87c.71-1,1.47-2.17,2.27-3.48a.62.62,0,0,1,.86-.21.63.63,0,0,1,.21.86c-.82,1.33-1.6,2.53-2.32,3.55A.64.64,0,0,1,580.37,452.34Zm4.69-9.07a.63.63,0,0,1-.6-.42,19,19,0,0,0-1.49-3.06l-.33-.61a.61.61,0,0,1,.25-.84.62.62,0,0,1,.85.24l.33.6a21.58,21.58,0,0,1,1.58,3.26.64.64,0,0,1-.39.8Z"/><path class="cls-3" d="M586.36,435.46h-.12a14.89,14.89,0,0,0-1.9-.25.62.62,0,0,1-.59-.65.61.61,0,0,1,.65-.6l.59.05-.31-.47a.63.63,0,1,1,1.06-.68c.34.54.71,1.08,1.11,1.6a.64.64,0,0,1,0,.71A.63.63,0,0,1,586.36,435.46Z"/><path class="cls-3" d="M582.9,428.18a.63.63,0,0,1-.62-.52,10.28,10.28,0,0,1-.12-1.54,8.16,8.16,0,0,1,.48-2.8.62.62,0,1,1,1.17.43,7.06,7.06,0,0,0-.4,2.37,9,9,0,0,0,.11,1.34.64.64,0,0,1-.52.72Zm4.4-8.38a.64.64,0,0,1-.56-.34.65.65,0,0,1,.27-.85,14.47,14.47,0,0,1,4-1.3.62.62,0,0,1,.22,1.23,13.07,13.07,0,0,0-3.7,1.19A.68.68,0,0,1,587.3,419.8Z"/><path class="cls-3" d="M599.26,418.81h-.13q-1-.21-1.92-.33a.62.62,0,0,1-.54-.7.63.63,0,0,1,.7-.54l1.17.18a6.23,6.23,0,0,0-.25-1,.63.63,0,1,1,1.18-.42,7.9,7.9,0,0,1,.41,2.12.62.62,0,0,1-.62.67Z"/><path class="cls-3" d="M593.34,412.15a.58.58,0,0,1-.33-.1,9,9,0,0,1-3.52-3.89.63.63,0,0,1,1.13-.54,7.9,7.9,0,0,0,3.06,3.38.62.62,0,0,1-.34,1.15Z"/><path class="cls-3" d="M588.77,401.21h0a.62.62,0,0,1-.62-.62q0-1,.06-2a.65.65,0,0,1,.21-.43.63.63,0,0,1,.46-.16,9.88,9.88,0,0,0,1.89,0,.63.63,0,1,1,.13,1.25,11.8,11.8,0,0,1-1.47.06q0,.7,0,1.35A.62.62,0,0,1,588.77,401.21Z"/><path class="cls-3" d="M596.51,396.37a.62.62,0,0,1-.45-1.06,16.2,16.2,0,0,0,2.41-3.37.62.62,0,1,1,1.09.61,17.08,17.08,0,0,1-2.6,3.63A.61.61,0,0,1,596.51,396.37Z"/><path class="cls-3" d="M601.83,387.05a.66.66,0,0,1-.27-.06.63.63,0,0,1-.3-.83c.21-.45.43-.89.65-1.32l-1.18-.6a.62.62,0,0,1,.55-1.12c1.94,1,2.19,1.09,2.06,1.65a.55.55,0,0,1-.12.24c-.28.55-.56,1.11-.82,1.68A.63.63,0,0,1,601.83,387.05Z"/><path class="cls-3" d="M595.07,381.44a.63.63,0,0,1-.27-.06l-4-1.86a.63.63,0,0,1,.52-1.14l4,1.87a.62.62,0,0,1-.26,1.19Z"/><path class="cls-3" d="M581.89,377.37a.63.63,0,0,1-.46-.2.64.64,0,0,1,0-.89c.44-.39.9-.86,1.37-1.37a.65.65,0,0,1,.73-.15l1.81.84a.62.62,0,0,1-.53,1.13l-1.4-.64c-.39.41-.77.78-1.14,1.12A.61.61,0,0,1,581.89,377.37Z"/><path class="cls-3" d="M576.07,379a.58.58,0,0,1-.33-.1,10.12,10.12,0,0,1-3-3.53.63.63,0,1,1,1.09-.63,8.82,8.82,0,0,0,2.54,3.1.63.63,0,0,1-.33,1.16Z"/><path class="cls-3" d="M570.15,370a.63.63,0,0,1-.53-.28c-.32-.49-.62-.92-.92-1.31a13.12,13.12,0,0,1-1.77,0,.63.63,0,0,1-.58-.67.65.65,0,0,1,.67-.58,10.78,10.78,0,0,0,1.89,0,.61.61,0,0,1,.54.22,16.29,16.29,0,0,1,1.22,1.68.61.61,0,0,1-.19.86A.58.58,0,0,1,570.15,370Z"/><path class="cls-3" d="M562.11,367.39l-.19,0c-1-.3-2-.68-3.17-1.12a.62.62,0,0,1,.46-1.16c1.08.43,2.12.79,3.08,1.09a.62.62,0,0,1-.18,1.22Zm-7.67-3.12a.58.58,0,0,1-.28-.07c-1-.49-2-1-3-1.52a.62.62,0,0,1,.59-1.1c1,.51,1.93,1,2.93,1.5a.63.63,0,0,1-.27,1.19Z"/><path class="cls-3" d="M543.82,360.5a.63.63,0,0,1-.37-1.13l1-.73c.78-.58.78-.58,1-.58a.59.59,0,0,1,.32.09l1.72,1a.63.63,0,0,1-.63,1.08l-1.37-.81-1.28.95A.63.63,0,0,1,543.82,360.5Z"/><path class="cls-3" d="M540.46,363a.66.66,0,0,1-.27-.06l-.23-.11c-.51-.25-1.05-.51-1.58-.79a.63.63,0,0,1-.26-.84.62.62,0,0,1,.84-.27q.74.39,1.44.72l1.3-1a.63.63,0,1,1,.75,1l-1.62,1.19A.63.63,0,0,1,540.46,363Z"/><path class="cls-3" d="M534.66,357h-.13a.63.63,0,0,1-.48-.75,5.35,5.35,0,0,1,.65-1.58,4.85,4.85,0,0,0-1.06-.75.63.63,0,0,1,.58-1.11A6.67,6.67,0,0,1,536,354.1a.63.63,0,0,1,0,.79,4.47,4.47,0,0,0-.75,1.57A.62.62,0,0,1,534.66,357Z"/><path class="cls-3" d="M506.78,365.81a.64.64,0,0,1-.51-.26.62.62,0,0,1,.14-.87l.61-.45,2.71-2a.61.61,0,0,1,.87.14.62.62,0,0,1-.14.87l-2.7,2-.61.45A.63.63,0,0,1,506.78,365.81Zm8.36-5.92a.63.63,0,0,1-.52-.28.62.62,0,0,1,.18-.86c1.22-.81,2.39-1.56,3.49-2.21a.62.62,0,0,1,.64,1.07c-1.08.65-2.24,1.38-3.44,2.18A.64.64,0,0,1,515.14,359.89Zm8.91-5a.62.62,0,0,1-.57-.38.63.63,0,0,1,.32-.82,24.31,24.31,0,0,1,4-1.35.62.62,0,0,1,.75.47.63.63,0,0,1-.46.75,21.83,21.83,0,0,0-3.77,1.28A.7.7,0,0,1,524.05,354.86Z"/><path class="cls-3" d="M500,370.33a.61.61,0,0,1-.42-.16.62.62,0,0,1-.18-.66c.22-.68.41-1.3.56-1.88a.63.63,0,0,1,.76-.45.64.64,0,0,1,.45.76c0,.15-.08.31-.13.46.12-.06.23-.14.35-.21a.63.63,0,1,1,.68,1.05,17.58,17.58,0,0,1-1.81,1A.58.58,0,0,1,500,370.33Z"/><path class="cls-3" d="M490,364.11a.62.62,0,0,1-.19-1.22c.57-.17,1.13-.36,1.69-.54l1.49-.48a.63.63,0,0,1,.79.41.62.62,0,0,1-.41.78l-1.49.48-1.69.55A.65.65,0,0,1,490,364.11Zm10.82-.64a.62.62,0,0,1-.58-.39c-.2-.5-.61-1.07-2-1.07h-.14l0-1.25h.17a3.08,3.08,0,0,1,3.18,1.85.63.63,0,0,1-.35.81A.68.68,0,0,1,500.85,363.47Z"/><path class="cls-3" d="M412.31,445.94h-.13a.61.61,0,0,1-.48-.74l.07-.35a.62.62,0,1,1,1.22.27l-.07.34A.64.64,0,0,1,412.31,445.94Z"/><path class="cls-3" d="M412.74,444a.66.66,0,0,1-.3-.07h0l-.38-.19a.63.63,0,0,1,.05-1.14.57.57,0,0,1,.52,0h0l.08,0,.19.1.11,0a.63.63,0,0,1,.34.53.65.65,0,0,1-.3.56A.57.57,0,0,1,412.74,444Zm-.15-.24h0Z"/><path class="cls-3" d="M412.46,445.25h-.14a.64.64,0,0,1-.48-.75l.23-1a.62.62,0,0,1,1.22.26h0l-.22,1A.64.64,0,0,1,412.46,445.25Z"/><path class="cls-3" d="M421.65,327.56a.59.59,0,0,1-.34-.1.62.62,0,0,1-.19-.86c.38-.58.73-1.14,1.07-1.69a.63.63,0,0,1,.86-.2.64.64,0,0,1,.2.87c-.34.54-.7,1.11-1.08,1.69A.61.61,0,0,1,421.65,327.56Z"/><path class="cls-3" d="M425.09,322a.58.58,0,0,1-.33-.1.62.62,0,0,1-.19-.86c1-1.54,1.35-1.94,1.85-1.94.19,0,.79.07.79,1.08a2.82,2.82,0,0,1,0,.39.61.61,0,0,1-.67.57.58.58,0,0,1-.4-.19c-.13.19-.3.44-.5.76A.64.64,0,0,1,425.09,322Z"/><path class="cls-3" d="M427,328.66a.58.58,0,0,1-.33-.1c-.54-.35-1.1-.71-1.68-1.11a.61.61,0,0,1-.26-.66c.16-.7.31-1.35.44-1.94a.64.64,0,0,1,.75-.48.62.62,0,0,1,.47.75c-.1.48-.22,1-.35,1.54l1.3.85a.62.62,0,0,1-.34,1.15Z"/><path class="cls-3" d="M436.14,333.4a.39.39,0,0,1-.15,0,18.72,18.72,0,0,1-4-1.61.62.62,0,0,1,.57-1.11,17.54,17.54,0,0,0,3.7,1.51.62.62,0,0,1-.15,1.23Zm5.32-2.21A.61.61,0,0,1,441,331a.62.62,0,0,1,0-.89,9.41,9.41,0,0,1,3.53-2.58.62.62,0,1,1,.47,1.15,8.21,8.21,0,0,0-3.08,2.28A.63.63,0,0,1,441.46,331.19Z"/><path class="cls-3" d="M453,330.21a.62.62,0,0,1-.6-.49,6.23,6.23,0,0,1-.16-1.58c-.48-.06-.94-.1-1.37-.13a.62.62,0,1,1,.08-1.24c.63,0,1.32.1,2,.2a.62.62,0,0,1,.54.68,5.26,5.26,0,0,0,.09,1.79.63.63,0,0,1-.46.75Z"/><path class="cls-3" d="M462.21,335.72h-.11a26.52,26.52,0,0,1-4.51-1.11.64.64,0,0,1-.38-.8.63.63,0,0,1,.81-.38,24,24,0,0,0,4.29,1.05.63.63,0,0,1-.1,1.25Z"/><path class="cls-3" d="M470.93,336.93c-.2,0-.33,0-.42-.08-.44-.1-1-.19-1.63-.28a.63.63,0,0,1-.54-.7.62.62,0,0,1,.71-.54c.48.07.89.13,1.26.2,0-.33,0-.73,0-1.23a.63.63,0,1,1,1.25,0c0,1,0,1.88,0,2s0,.07,0,.1A.63.63,0,0,1,470.93,336.93Z"/><path class="cls-3" d="M470.93,333.15a.63.63,0,0,1-.63-.62v-2a.62.62,0,0,1,.54-.61.62.62,0,0,1,.69.45,6.88,6.88,0,0,0,.71,1.67.62.62,0,0,1-.2.86.62.62,0,0,1-.62,0A.6.6,0,0,1,470.93,333.15Z"/><path class="cls-3" d="M477.63,335.77a9.1,9.1,0,0,1-.91,0,.62.62,0,0,1,.09-1.24,15.43,15.43,0,0,0,3.82-.27.63.63,0,0,1,.73.51.62.62,0,0,1-.51.72A18.44,18.44,0,0,1,477.63,335.77Zm8.89-1.87a.63.63,0,0,1-.2-1.22c1.32-.44,2.63-.93,3.74-1.35a.63.63,0,0,1,.81.37.63.63,0,0,1-.37.8c-1.12.42-2.44.91-3.78,1.36A.45.45,0,0,1,486.52,333.9Z"/><path class="cls-3" d="M495.92,330.5a.63.63,0,0,1-.19-1.23c.39-.12.75-.22,1.07-.3-.21-.32-.4-.64-.58-1a.64.64,0,0,1,.25-.85.63.63,0,0,1,.85.25,17.57,17.57,0,0,0,1,1.62.61.61,0,0,1,.07.6.6.6,0,0,1-.48.38,14.06,14.06,0,0,0-1.85.46Z"/><path class="cls-3" d="M495.27,323.47a.63.63,0,0,1-.62-.59c0-.25,0-.5,0-.75a12.71,12.71,0,0,1,.32-2.82.64.64,0,0,1,.75-.48.62.62,0,0,1,.47.75,11.53,11.53,0,0,0-.29,2.55c0,.22,0,.45,0,.67a.62.62,0,0,1-.58.66Zm2-8.23a.53.53,0,0,1-.25-.05.62.62,0,0,1-.33-.82l.07-.16a30.84,30.84,0,0,0,1.18-3,.62.62,0,0,1,.79-.4.62.62,0,0,1,.4.78,32.74,32.74,0,0,1-1.22,3.08l-.07.16A.62.62,0,0,1,497.29,315.24Zm1.23-8.17a.62.62,0,0,1-.56-.36,7.18,7.18,0,0,0-2-2.39.62.62,0,0,1-.09-.88.63.63,0,0,1,.88-.09,8.27,8.27,0,0,1,2.34,2.83.62.62,0,0,1-.3.83A.6.6,0,0,1,498.52,307.07Z"/><path class="cls-3" d="M492,301.83a.75.75,0,0,1-.26-.05c-.57-.26-1.17-.53-1.81-.79a.62.62,0,0,1-.37-.75,7,7,0,0,1,1-1.95.62.62,0,1,1,1,.7,7.87,7.87,0,0,0-.62,1.08c.46.19.89.38,1.3.57a.62.62,0,0,1-.26,1.19Z"/><path class="cls-3" d="M494.54,295.11a.63.63,0,0,1-.43-.17.62.62,0,0,1,0-.88l.81-.87c.56-.59,1.13-1.18,1.67-1.78a.63.63,0,0,1,.89,0,.62.62,0,0,1,0,.88c-.55.6-1.11,1.2-1.68,1.79l-.81.86A.62.62,0,0,1,494.54,295.11Zm5.91-6.88a.66.66,0,0,1-.33-.09.63.63,0,0,1-.19-.87,5.45,5.45,0,0,0,1.05-2.73,1.93,1.93,0,0,0,0-.24.63.63,0,0,1,.55-.69.62.62,0,0,1,.69.55,2.36,2.36,0,0,1,0,.38,6.54,6.54,0,0,1-1.25,3.4A.62.62,0,0,1,500.45,288.23Zm-3-6.27h-.11c-.47-.09-1-.16-1.55-.22a.71.71,0,0,1-.36-.17c-.54-.5-1-1-1.47-1.43a.63.63,0,0,1,.9-.87c.38.4.8.81,1.27,1.25.51.05,1,.13,1.44.21a.63.63,0,0,1-.12,1.24Zm-6.15-6.06a.62.62,0,0,1-.59-.42,4.88,4.88,0,0,1-.27-1.56,5.3,5.3,0,0,1,.66-2.42.62.62,0,0,1,.83-.29.63.63,0,0,1,.29.84,4.09,4.09,0,0,0-.53,1.87,3.54,3.54,0,0,0,.2,1.16.62.62,0,0,1-.39.79A.69.69,0,0,1,491.26,275.9Zm.38-8.58a.63.63,0,0,1-.52-.28,15.53,15.53,0,0,0-2.3-2.62.62.62,0,0,1,0-.88.63.63,0,0,1,.88,0,16.27,16.27,0,0,1,2.48,2.84.63.63,0,0,1-.18.87A.67.67,0,0,1,491.64,267.32Z"/><path class="cls-3" d="M485,261.09a.64.64,0,0,1-.38-.12c-.5-.38-1-.77-1.6-1.18a.63.63,0,0,1-.06-1c.46-.42.93-.87,1.41-1.37a.63.63,0,0,1,.9.88c-.31.31-.61.61-.91.89.35.25.69.5,1,.75a.61.61,0,0,1,.12.87A.63.63,0,0,1,485,261.09Z"/><path class="cls-3" d="M489.25,253.11a.59.59,0,0,1-.34-.1.62.62,0,0,1-.17-.87,27.41,27.41,0,0,0,2.21-4,.62.62,0,1,1,1.14.51,28.19,28.19,0,0,1-2.32,4.15A.61.61,0,0,1,489.25,253.11Z"/><path class="cls-3" d="M492.94,242.28a.62.62,0,0,1-.62-.58,9.84,9.84,0,0,0-.17-1.23,11.41,11.41,0,0,1-1.44.26.62.62,0,0,1-.14-1.24,9.16,9.16,0,0,0,1.83-.39.6.6,0,0,1,.49,0,.61.61,0,0,1,.3.38,9.52,9.52,0,0,1,.37,2.09.61.61,0,0,1-.57.67Z"/><path class="cls-3" d="M485.9,240.35h-.15a21.83,21.83,0,0,1-3.11-1,.63.63,0,1,1,.48-1.16,19.76,19.76,0,0,0,2.93,1,.62.62,0,0,1-.15,1.23Zm-7.25-3.22a.63.63,0,0,1-.33-.09c-.9-.56-1.8-1.18-2.67-1.84a.63.63,0,0,1,.75-1c.85.64,1.71,1.24,2.58,1.78a.63.63,0,0,1,.2.86A.62.62,0,0,1,478.65,237.13Z"/><path class="cls-3" d="M472.39,232.21A.64.64,0,0,1,472,232c-.5-.49-1-1-1.41-1.47a.64.64,0,0,1-.12-.62l.63-1.88a.63.63,0,0,1,.78-.41.64.64,0,0,1,.41.79c-.17.52-.34,1-.52,1.56q.51.56,1.11,1.14a.62.62,0,0,1-.44,1.07Z"/><path class="cls-3" d="M473.47,222.54l-.16,0a.64.64,0,0,1-.45-.76c.37-1.47.68-2.9.94-4.26a.64.64,0,0,1,.73-.5.62.62,0,0,1,.5.73c-.26,1.39-.58,2.84-1,4.33A.62.62,0,0,1,473.47,222.54Zm1.82-10.83h0a.61.61,0,0,1-.58-.66c.06-.88.08-1.73.08-2.52,0-.61,0-1.21-.05-1.8a.63.63,0,0,1,.59-.66.64.64,0,0,1,.66.59c0,.61.05,1.23.05,1.87,0,.82,0,1.7-.09,2.6A.62.62,0,0,1,475.29,211.71ZM474,200.89a.64.64,0,0,1-.58-.39,10.43,10.43,0,0,0-2.27-3.43.64.64,0,0,1,0-.89.62.62,0,0,1,.88,0,11.88,11.88,0,0,1,2.55,3.84.63.63,0,0,1-.34.82A.69.69,0,0,1,474,200.89Zm-8.22-6.52h-.11a18,18,0,0,0-4.24-.22.63.63,0,0,1-.06-1.25,19.3,19.3,0,0,1,4.52.24.63.63,0,0,1-.11,1.24Z"/><path class="cls-3" d="M454.68,196.69a.64.64,0,0,1-.3-.08c-.54-.3-1.12-.61-1.75-.92a.63.63,0,0,1-.35-.61.65.65,0,0,1,.45-.55q1-.3,1.95-.54a.62.62,0,0,1,.76.45.63.63,0,0,1-.45.76l-.4.1.39.22a.63.63,0,0,1,.25.85A.65.65,0,0,1,454.68,196.69Z"/><path class="cls-3" d="M434.42,258.65a.63.63,0,0,1-.45-1.06c.94-1,1.79-1.9,2.57-2.81a.62.62,0,0,1,.88-.06.63.63,0,0,1,.07.88c-.8.92-1.66,1.86-2.62,2.86A.67.67,0,0,1,434.42,258.65Zm6.1-7.41a.64.64,0,0,1-.35-.1.64.64,0,0,1-.17-.87,27.46,27.46,0,0,0,1.87-3.25.63.63,0,0,1,1.13.54,30.1,30.1,0,0,1-2,3.4A.63.63,0,0,1,440.52,251.24Zm3.69-8.79h-.1a.63.63,0,0,1-.52-.72,13.21,13.21,0,0,0,.16-2.07,13.82,13.82,0,0,0-.09-1.58.63.63,0,0,1,.54-.7.64.64,0,0,1,.7.55,14.22,14.22,0,0,1,.1,1.73,15.63,15.63,0,0,1-.17,2.26A.63.63,0,0,1,444.21,242.45Zm-3-8.3a.6.6,0,0,1-.5-.25,5.25,5.25,0,0,1-1.09-3.24,5.93,5.93,0,0,1,.06-.84.63.63,0,0,1,.7-.54.62.62,0,0,1,.54.7,5.31,5.31,0,0,0-.05.68,4.06,4.06,0,0,0,.83,2.49.62.62,0,0,1-.49,1Zm1.49-8.8a.62.62,0,0,1-.5-1,30,30,0,0,1,2.52-3,.62.62,0,0,1,.88,0,.61.61,0,0,1,0,.88,28.92,28.92,0,0,0-2.42,2.88A.64.64,0,0,1,442.72,225.35Zm6.68-6.89a.66.66,0,0,1-.48-.22.62.62,0,0,1,.08-.88c.95-.81,2-1.62,3-2.43a.62.62,0,0,1,.88.12.61.61,0,0,1-.12.87c-1,.8-2,1.6-3,2.39A.65.65,0,0,1,449.4,218.46Zm7.6-5.84a.66.66,0,0,1-.27-.06.62.62,0,0,1-.29-.83l.4-.83c.46-.94.89-1.81,1.26-2.63a.63.63,0,0,1,1.14.53c-.38.82-.81,1.7-1.27,2.65l-.4.82A.61.61,0,0,1,457,212.62Zm3.43-8.91h0a.63.63,0,0,1-.59-.66,2.81,2.81,0,0,0,0-.29,4.38,4.38,0,0,0-1-2.85.62.62,0,0,1,.09-.88.63.63,0,0,1,.88.1,5.62,5.62,0,0,1,1.32,3.63c0,.12,0,.24,0,.36A.62.62,0,0,1,460.43,203.71Z"/><path class="cls-3" d="M429.23,266a.63.63,0,0,1-.62-.5l-.38-2a.63.63,0,0,1,.18-.57l1.46-1.37a.62.62,0,0,1,.88,0,.63.63,0,0,1,0,.89l-1.2,1.13.32,1.63a.62.62,0,0,1-.49.73Z"/><path class="cls-3" d="M428.61,272.69a.6.6,0,0,1-.53-.31.63.63,0,0,1,.21-.86l1.34-.8-.3-1.53a.63.63,0,1,1,1.23-.24l.38,2a.64.64,0,0,1-.29.66l-1.72,1A.62.62,0,0,1,428.61,272.69Z"/><path class="cls-3" d="M426.75,273.8a.65.65,0,0,1-.54-.3.62.62,0,0,1,.22-.86l1.71-1a.63.63,0,0,1,.65,1.07l-1.72,1A.62.62,0,0,1,426.75,273.8Z"/><path class="cls-3" d="M375.42,419.31a.63.63,0,0,1-.45-.18l-.09-.12-1.05-1.69a.62.62,0,0,1-.06-.56.61.61,0,0,1,.41-.37c.26-.08.38-.11.68.28h0l.63,1c.12.2.27.43.43.68a.64.64,0,0,1-.2.87A.66.66,0,0,1,375.42,419.31Z"/><path class="cls-3" d="M379.23,425.41c-.22,0-.3,0-.52-.3h0l-.35-.56-.2-.32-.51-.82,0-.05a.63.63,0,0,1,1.09-.61l1.06,1.7a.62.62,0,0,1,0,.63A.63.63,0,0,1,379.23,425.41Z"/><path class="cls-3" d="M480.18,379.4a.55.55,0,0,1-.31-.08.62.62,0,0,1-.32-.54.56.56,0,0,1,.09-.31l1-1.74a.63.63,0,0,1,1.17.32.48.48,0,0,1-.09.31h0l-.1.18a1.14,1.14,0,0,0-.09.16l-.81,1.39A.63.63,0,0,1,480.18,379.4Z"/><path class="cls-3" d="M477,384.87h0a.62.62,0,0,1-.54-.31c-.1-.18-.15-.25,0-.62h0l.69-1.2.31-.53a.62.62,0,1,1,1.08.62l-1,1.74A.63.63,0,0,1,477,384.87Z"/><path class="cls-3" d="M475.23,388a.58.58,0,0,1-.31-.08.63.63,0,0,1-.23-.86h0l1.77-3.07a.65.65,0,0,1,.55-.31h0a.63.63,0,0,1,.54.31c.08.15.13.22,0,.6l0,0-1.3,2.24-.49.84A.61.61,0,0,1,475.23,388Z"/><path class="cls-3" d="M477.31,375.48a.63.63,0,0,1-.62-.54c-.06-.45-.12-.91-.2-1.4l-1.47.06h0a.62.62,0,0,1-.62-.62.62.62,0,0,1,.61-.63c.65,0,1.31,0,2-.09a.62.62,0,0,1,.66.51q.18,1.07.3,2a.62.62,0,0,1-.54.7Z"/><path class="cls-3" d="M459.32,377.54h-.12a.63.63,0,0,1-.49-.74,5.58,5.58,0,0,1,1.88-3.43.63.63,0,1,1,.79,1,4.45,4.45,0,0,0-1.45,2.71A.63.63,0,0,1,459.32,377.54Zm10.34-4.14h0c-1.26-.09-2.45-.16-3.53-.17a.63.63,0,0,1-.63-.62.63.63,0,0,1,.63-.63h0c1.12,0,2.33.09,3.61.17a.62.62,0,0,1,.58.66A.63.63,0,0,1,469.66,373.4Z"/><path class="cls-3" d="M459.6,384.87a.62.62,0,0,1-.61-.52q-.18-1.07-.3-2a.62.62,0,0,1,1.24-.15c.05.44.12.91.2,1.39.49,0,1,0,1.47-.05h0a.62.62,0,0,1,.62.62.62.62,0,0,1-.61.63c-.65,0-1.31,0-2,.09Z"/><path class="cls-3" d="M470.53,385.14h0c-1.12,0-2.33-.08-3.61-.16a.64.64,0,0,1-.58-.67.61.61,0,0,1,.66-.58c1.26.08,2.45.16,3.53.16a.63.63,0,0,1,.63.63A.64.64,0,0,1,470.53,385.14Zm5.1-1.24a.59.59,0,0,1-.48-.23.61.61,0,0,1,.09-.87,4.48,4.48,0,0,0,1.45-2.71.62.62,0,0,1,1.22.24,5.58,5.58,0,0,1-1.88,3.43A.61.61,0,0,1,475.63,383.9Z"/><path class="cls-4" d="M477,384.24Z"/><path class="cls-3" d="M499.06,334.54a.75.75,0,0,1-.26-.05.62.62,0,0,1-.31-.83c.21-.47.43-1,.67-1.44a18.78,18.78,0,0,1-1.86-2.52.63.63,0,0,1,.24-.85.62.62,0,0,1,.85.24,13.61,13.61,0,0,0,1.94,2.56v0a.63.63,0,0,1,.16.66.38.38,0,0,1-.09.15c-.27.59-.54,1.15-.79,1.7A.61.61,0,0,1,499.06,334.54Z"/><path class="cls-3" d="M500.64,353.44a.59.59,0,0,1-.44-.19,11.39,11.39,0,0,0-1.74-1.33,14.07,14.07,0,0,1-1.7-1.26.63.63,0,0,1,.85-.93,11.54,11.54,0,0,0,1.55,1.15,11.38,11.38,0,0,1,1.93,1.5.63.63,0,0,1-.45,1.06Zm-5.06-8.63h-.08a.63.63,0,0,1-.54-.7,25.46,25.46,0,0,1,1.08-4.33.63.63,0,0,1,1.19.4,23.79,23.79,0,0,0-1,4.1A.63.63,0,0,1,495.58,344.81Z"/><path class="cls-3" d="M501.23,361.55a.57.57,0,0,1-.18,0,.63.63,0,0,1-.42-.78c.21-.67.37-1.3.49-1.88a.63.63,0,1,1,1.23.25c-.13.62-.31,1.29-.52,2A.63.63,0,0,1,501.23,361.55Z"/><path class="cls-3" d="M656.37,303.55a.57.57,0,0,1-.18,0l-1.91-.58a.62.62,0,1,1,.36-1.19l1.91.58a.63.63,0,0,1,.42.78A.62.62,0,0,1,656.37,303.55Z"/><path class="cls-3" d="M650.66,301.82l-.18,0L648,301a.63.63,0,1,1,.36-1.2l2.53.77a.63.63,0,0,1,.42.78A.62.62,0,0,1,650.66,301.82Z"/><path class="cls-3" d="M644.34,299.9l-.18,0-1.92-.58a.67.67,0,0,1-.42-.43c-.19-.7-.36-1.36-.5-2a.62.62,0,0,1,.48-.74.61.61,0,0,1,.74.47c.11.5.24,1,.39,1.58l1.59.48a.62.62,0,0,1-.18,1.22Z"/><path class="cls-3" d="M641.6,293.17h-.09a.62.62,0,0,1-.52-.71,5.1,5.1,0,0,1,1.34-2.85.62.62,0,0,1,.88,0,.63.63,0,0,1,0,.89,4,4,0,0,0-1,2.19A.62.62,0,0,1,641.6,293.17Z"/><path class="cls-3" d="M646.44,288.59a.63.63,0,0,1-.19-1.22c.43-.14.9-.27,1.4-.4-.09-.45-.18-.9-.28-1.36a.62.62,0,0,1,.47-.74.64.64,0,0,1,.75.47c.15.67.28,1.34.4,2a.63.63,0,0,1-.48.72c-.68.16-1.32.33-1.88.51A.63.63,0,0,1,646.44,288.59Z"/><path class="cls-3" d="M646.28,279.88a.62.62,0,0,1-.6-.43c-.44-1.34-.92-2.69-1.45-4a.63.63,0,0,1,.35-.81.62.62,0,0,1,.81.35c.54,1.34,1,2.71,1.48,4.08a.62.62,0,0,1-.59.82ZM642.14,270a.63.63,0,0,1-.56-.34c-.66-1.28-1.36-2.53-2.09-3.7a.63.63,0,0,1,.2-.86.62.62,0,0,1,.86.2c.75,1.2,1.47,2.48,2.14,3.79a.63.63,0,0,1-.26.84A.62.62,0,0,1,642.14,270Zm-5.85-9a.62.62,0,0,1-.48-.23,39.2,39.2,0,0,0-2.86-3.11.62.62,0,0,1,.86-.9,36.81,36.81,0,0,1,3,3.22.63.63,0,0,1-.08.88A.67.67,0,0,1,636.29,261Zm-8-7.11a.62.62,0,0,1-.32-.09,21.57,21.57,0,0,0-3.76-1.81.63.63,0,0,1,.43-1.18,23,23,0,0,1,4,1.92.63.63,0,0,1-.32,1.16Z"/><path class="cls-3" d="M615.13,252.58a.68.68,0,0,1-.33-.09.63.63,0,0,1-.21-.86q.48-.8,1-1.71a.6.6,0,0,1,.5-.32,20.33,20.33,0,0,1,2.06-.06.63.63,0,0,1,.61.64.6.6,0,0,1-.64.61c-.53,0-1.06,0-1.6,0-.29.52-.57,1-.85,1.46A.62.62,0,0,1,615.13,252.58Z"/><path class="cls-3" d="M607.33,259.61a.63.63,0,0,1-.13-1.24,7.29,7.29,0,0,0,3.53-1.79.62.62,0,0,1,.88.05.64.64,0,0,1-.06.89,8.53,8.53,0,0,1-4.08,2.07Z"/><path class="cls-3" d="M601.13,266.65a.61.61,0,0,1-.59-.42.62.62,0,0,1,.39-.8c.65-.22,1.13-.39,1.49-.49.11-.61.23-1.16.34-1.65a.63.63,0,0,1,1.22.29c-.13.52-.24,1.1-.36,1.77a.68.68,0,0,1-.44.64h0l-1.81.62A.69.69,0,0,1,601.13,266.65Z"/><path class="cls-3" d="M596.2,268.05a.58.58,0,0,1-.33-.1.63.63,0,0,1-.2-.86,3.42,3.42,0,0,0,.48-1.89,7.94,7.94,0,0,0-.21-1.7.62.62,0,0,1,1.22-.26,9,9,0,0,1,.24,2,4.74,4.74,0,0,1-.67,2.56A.62.62,0,0,1,596.2,268.05Z"/><path class="cls-3" d="M594.4,258.11a.63.63,0,0,1-.58-.39c-.22-.52-.43-1.05-.59-1.55l-1.58-.21a.63.63,0,0,1-.53-.71.62.62,0,0,1,.7-.53c.82.11,1.52.21,2,.26a.63.63,0,0,1,.52.47,17.23,17.23,0,0,0,.65,1.79.62.62,0,0,1-.33.82A.69.69,0,0,1,594.4,258.11Z"/><path class="cls-3" d="M586.1,255.16H586l-2-.27a.63.63,0,0,1-.54-.7.62.62,0,0,1,.7-.54l2,.27a.63.63,0,0,1-.09,1.25Z"/><path class="cls-3" d="M452,558.68l-.15,0a11.65,11.65,0,0,0-1.87-.29.63.63,0,0,1-.58-.67.61.61,0,0,1,.67-.58,13.07,13.07,0,0,1,2.07.33.62.62,0,0,1,.47.75A.63.63,0,0,1,452,558.68Z"/><path class="cls-3" d="M436.67,564a4.43,4.43,0,0,1-1.28-.2.62.62,0,0,1,.37-1.19,3.35,3.35,0,0,0,2.62-.32.63.63,0,0,1,.56,1.12A5.08,5.08,0,0,1,436.67,564Zm5.93-3.25a.63.63,0,0,1-.36-1.14,15.59,15.59,0,0,1,2.88-1.65.63.63,0,0,1,.82.34.64.64,0,0,1-.33.82A13.92,13.92,0,0,0,443,560.6.62.62,0,0,1,442.6,560.72Z"/><path class="cls-3" d="M431.82,560.9a.64.64,0,0,1-.48-.21c-.26-.31-.53-.64-.81-1a6.53,6.53,0,0,1-1.1.88.63.63,0,1,1-.67-1.06,5.53,5.53,0,0,0,1.33-1.2.67.67,0,0,1,.5-.23.62.62,0,0,1,.49.26c.42.57.83,1.08,1.21,1.53a.61.61,0,0,1-.07.88A.56.56,0,0,1,431.82,560.9Z"/><path class="cls-3" d="M426,561.53a9.6,9.6,0,0,1-2-.23.64.64,0,0,1-.48-.75.62.62,0,0,1,.75-.47,8.36,8.36,0,0,0,1.73.2h.16a.63.63,0,0,1,.05,1.25Z"/><path class="cls-3" d="M418.4,561.06a.66.66,0,0,1-.35-.11.64.64,0,0,1-.17-.87,17.78,17.78,0,0,0,1-1.66.62.62,0,0,1,.38-.31.6.6,0,0,1,.49.06c.59.35,1.17.65,1.72.91a.62.62,0,0,1,.3.83.62.62,0,0,1-.83.3c-.41-.19-.83-.41-1.26-.64-.24.43-.49.84-.74,1.21A.63.63,0,0,1,418.4,561.06Z"/><path class="cls-3" d="M408.76,565.58a.64.64,0,0,1-.57-.35.63.63,0,0,1,.29-.84,7.36,7.36,0,0,1,2.72-.53,14.67,14.67,0,0,0,1.82-.2.62.62,0,1,1,.24,1.22,15.13,15.13,0,0,1-2,.23,6.16,6.16,0,0,0-2.26.41A.66.66,0,0,1,408.76,565.58Z"/><path class="cls-3" d="M406.26,573.54a.64.64,0,0,1-.3-.08q-.87-.5-1.74-.93a.63.63,0,0,1,.56-1.12l.89.46c0-.35,0-.68.06-1A.63.63,0,0,1,407,571c-.05.6-.07,1.25-.09,2a.63.63,0,0,1-.63.61Z"/><path class="cls-3" d="M398.69,570.18a.69.69,0,0,1-.2,0c-1.27-.43-2.61-.81-4-1.14a.63.63,0,0,1-.46-.76.64.64,0,0,1,.76-.46c1.39.34,2.77.74,4.08,1.18a.62.62,0,0,1-.2,1.21Zm-10.22-2.29h-.08c-1.32-.18-2.72-.32-4.14-.43a.63.63,0,1,1,.1-1.25c1.44.11,2.86.26,4.2.44a.63.63,0,0,1-.08,1.25Zm-25.14-.42a.63.63,0,0,1,0-1.25l4.2-.15a.65.65,0,0,1,.65.61.63.63,0,0,1-.61.64l-4.19.15Zm14.68-.3h0c-1.39,0-2.78,0-4.18,0h0a.63.63,0,0,1,0-1.25c1.4,0,2.81,0,4.21,0a.63.63,0,1,1,0,1.25Z"/><path class="cls-3" d="M355,567.68a.64.64,0,0,1-.63-.62.63.63,0,0,1,.62-.63l2,0a.63.63,0,0,1,.63.62.61.61,0,0,1-.61.63l-2,0Z"/><path class="cls-3" d="M637.37,262.52a.61.61,0,0,1-.43-.18.63.63,0,0,1,0-.89l2.56-2.61a.64.64,0,0,1,.89,0,.63.63,0,0,1,0,.89l-2.56,2.61A.64.64,0,0,1,637.37,262.52Z"/><path class="cls-3" d="M600.67,419.15l-.18,0-1.92-.59a.62.62,0,0,1-.41-.78.61.61,0,0,1,.78-.41l1.91.58a.63.63,0,0,1,.42.78A.64.64,0,0,1,600.67,419.15Z"/><path class="cls-3" d="M608.38,421.51l-.18,0-1.92-.58a.63.63,0,0,1,.37-1.2l1.91.59a.62.62,0,0,1-.18,1.22Z"/><path class="cls-3" d="M271,91.68h-.09a.62.62,0,0,1-.53-.71L271,87a.63.63,0,0,1,.72-.53.62.62,0,0,1,.52.71l-.59,4A.63.63,0,0,1,271,91.68Zm1.48-9.89h-.09a.63.63,0,0,1-.53-.71l.6-3.95a.62.62,0,0,1,.71-.53.62.62,0,0,1,.52.71l-.59,4A.62.62,0,0,1,272.51,81.79ZM274,71.9h-.1a.62.62,0,0,1-.52-.71l0-.22a.62.62,0,0,1,.71-.52.63.63,0,0,1,.53.71l0,.22A.61.61,0,0,1,274,71.9Z"/><path class="cls-3" d="M528.5,519.67a.6.6,0,0,1-.52-.32,7.09,7.09,0,0,1-.83-3.2.61.61,0,0,1,.58-.61.56.56,0,0,1,.58.56v0a5.9,5.9,0,0,0,.71,2.67.57.57,0,0,1-.25.78A.54.54,0,0,1,528.5,519.67Zm2-7.61a.61.61,0,0,1-.48-.25.58.58,0,0,1,.15-.81,12.5,12.5,0,0,1,3.19-1.58l.3-.11a.58.58,0,1,1,.39,1.09l-.3.12a11.78,11.78,0,0,0-2.91,1.43A.6.6,0,0,1,530.48,512.06Zm8.39-4.08a.58.58,0,0,1-.32-1.07,8.82,8.82,0,0,0,2.59-2.3.59.59,0,0,1,1,.63,10.06,10.06,0,0,1-3,2.65A.61.61,0,0,1,538.87,508Zm-9.62-3.13a.46.46,0,0,1-.23-.05,8.11,8.11,0,0,1-3.24-2.36.57.57,0,0,1,.13-.81.58.58,0,0,1,.81.12h0a7.08,7.08,0,0,0,2.77,2,.6.6,0,0,1,.3.77A.59.59,0,0,1,529.25,504.85Zm5.43-.12a.58.58,0,0,1-.56-.4.59.59,0,0,1,.37-.74q.68-.22,1.35-.48c.74-.26,1.5-.54,2.21-.74a.58.58,0,0,1,.72.39.59.59,0,0,1-.4.73c-.67.19-1.38.45-2.13.72l-1.38.49A.57.57,0,0,1,534.68,504.73Z"/><path class="cls-3" d="M465.36,547.47a.63.63,0,0,1-.37-.12L461.77,545a.61.61,0,0,1-.13-.87.63.63,0,0,1,.88-.13l3.21,2.38a.63.63,0,0,1-.37,1.13Zm-9.1-3.45h-.11l-2.9-.49a.62.62,0,0,1-.52-.62v-1a.63.63,0,1,1,1.25,0v.52l2.38.41a.62.62,0,0,1-.1,1.24Zm-2.91-7.55a.61.61,0,0,1-.61-.52h-2.87a.63.63,0,0,1,0-1.25h3.48a.63.63,0,0,1,.63.62v.53A.63.63,0,0,1,453.35,536.47Zm-9.48-.52h-4a.63.63,0,0,1,0-1.25h4a.63.63,0,1,1,0,1.25Zm-4.63-5.37a.62.62,0,0,1-.62-.62V526.9l-.28-.63a.63.63,0,0,1,1.15-.5l.33.76a.64.64,0,0,1,.05.24V530A.63.63,0,0,1,439.24,530.58Zm-2.71-9.43a.64.64,0,0,1-.58-.38l-1.59-3.67a.62.62,0,0,1,.32-.82.64.64,0,0,1,.83.32l1.59,3.67a.62.62,0,0,1-.32.82A.61.61,0,0,1,436.53,521.15Zm-4.33-9a.64.64,0,0,1-.51-.27l-2.31-3.26a.62.62,0,1,1,1-.72l2.31,3.26a.63.63,0,0,1-.15.87A.6.6,0,0,1,432.2,512.17Zm-7-5.78h-4a.63.63,0,1,1,0-1.25h4a.63.63,0,0,1,0,1.25Zm-9.85-.66a.6.6,0,0,1-.27-.06L411.46,504a.62.62,0,0,1-.3-.83.63.63,0,0,1,.83-.3l3.61,1.72a.62.62,0,0,1-.26,1.19ZM406,502.44h-.1l-3.95-.59a.63.63,0,0,1-.53-.71.62.62,0,0,1,.71-.53l4,.59a.62.62,0,0,1-.09,1.24ZM396.11,501H396l-4-.59a.63.63,0,1,1,.18-1.24l4,.59a.63.63,0,0,1,.53.71A.64.64,0,0,1,396.11,501Zm-9.94-1h0l-4,0a.63.63,0,0,1,0-1.25h0l4,0a.63.63,0,0,1,.61.64A.61.61,0,0,1,386.17,500Zm-10-.13a.49.49,0,0,1-.2,0c-.69-.23-1.73-.66-3.09-1.27a.63.63,0,0,1-.32-.83.63.63,0,0,1,.83-.31c1.32.6,2.32,1,3,1.23a.62.62,0,0,1-.2,1.21Z"/></svg>