<svg id="Camada_1" data-name="Camada 1" xmlns="http://www.w3.org/2000/svg" viewBox="0 0 700.91 697.83"><defs><style>.cls-1{fill:#dadada;}.cls-2{fill:#ada6c3;}.cls-3{fill:#fff;}.cls-4{fill:none;}</style></defs><path class="cls-1" d="M692.26,198.84c-1.62-3.51-3.12-5.87-4.08-6.55-4.07-2.85-14.64,0-27.64-4.88S632.48,165.87,624,155.3c-8.15-10.1-33.37-9.81-44.12-9.4l-1.41,0c-9.76.4-19.11-5.7-27.65-8.95a15.45,15.45,0,0,0-6.73-1.2c-3.42.18-5.5,1.59-9.53,0-6.1-2.44-5.28-8.54-8.54-13.41s-10.16-2-19.92-5.29-26.83-11-32.93-11.79-11.38,3.25-13.41.82-2-2.85-6.1-8.54c-6.5,0-18.29-6.91-22.36-11.79s3.25-17.08-1.22-24-9.35-1.62-14.63-6.09-5.7-39.44-12.2-39.44-20.33,33.34-26,38.22-38.62-3.66-48.78-2.85-5.69,5.69-8.13,8.94-5.69.82-15.45,1.22S287.74,70.74,278,70.74s-18.3-6.1-22.77-17.48.41-19.92,2.44-27.24-3.66-11.38-6.5-12.6S252,0,246.28,0s-8.54,5.28-11,9.76-8.13,7.72-17.07,7.72-13.82,6.91-21.14,7.73S166.19,15,162.94,18.7s6.5,8.13,8.94,11,3.25,9.35,3.66,14.63,7.73,4.47,7.32,9.76-7.32,6.5-15,15-20.74,13-33.75,9.76S120.25,56.51,116.59,56.1s-7.31,4.07-17.07,10.16-15.86-1.21-22.77-.81S70.66,71.55,71.88,76s12.19,2.85,11.78,7.32-11.78,0-15,7.72,7.32,16.67,8.54,22-4.07,49.59-5.69,58.13-6.1,3.66-9.76,2.85-2.84-.82-21.14,7.31-17.48,13-22.36,21.55-2.44,12.2-3.25,17.07S3.17,222.78.33,233.76s13.82,26.83,17.07,35,6.1,7.72,13,8.94,2.84,8.95,8.94,9.35,16.26-9.75,21.55-7.72-1.63,18.7,4.88,21.54,6.1-.81,16.67-1.21,14.22,1.21,21.54,0,15.45-9.36,21.55-15.86,9.75-5.28,15.45-5.69,10.16-5.69,13.82-2.85-2.85,18.3,7.32,34.15,21.54,13,29.67,13.42S200.34,326,210.1,333s18.7,4.88,27.64,6.91S247.9,374,251.16,383.77c2.76,8.29,10.52,5.43,18.26,4.89a23.4,23.4,0,0,1,4.1,0c8.94.81,5.28,8.53,14.22,22.36s4.88,19.51,1.22,28.05-1.62,20.73.82,33.74a42.36,42.36,0,0,0,4.47,12.78c3.41,6.26,8.13,10.44,13,11.2,7.72,1.22,8.54-6.09,14.23-4.47,2.57.73,4.81,5.3,6.79,10.77,6.33-2.57,13.63-6.18,14.75-9.55,2-6.1-.81-11,6.1-10.16s21.55,9.35,29.68,6.1,19.51-19.11,21.95-35,5.29-30.08,16.67-32.52,38.21-5.28,37,4.07-26.83,6.1-30.08,13.82,11.79,12.6,18.29,19.92-2,28.46-11,31.3-22.36-2.84-23.58,3.66,10.57,5.29,17.07,6.91,8.13,7.32,9.35,13.82.82,13,11.39,8.54,25.2-13.82,27.23-22.36-5.28-14.23-4.87-19.92,8.13-11.38,13.82-10.57,10.57,7.73,15.45,6.1,4.06-16.26,12.19-21.14,17.08,2.44,21.14-.81,7.32-5.69,4.07-14.64,2.44-13.82,5.69-15.85,11-3.66,14.63-10.17,4.88-26.83,4.88-35.77a48.59,48.59,0,0,0-.66-9c5-2.51,10.37-2,16.52-2.83,8.94-1.22,12.6-3.25,19.51-9.76s-1.63-11.38,0-17.48,5.29-4.88,10.57-8.94,6.1-16.26,11.79-17.89,7.32,2.85,12.6,1.22,8.95-7.32,15.45-21.55,9.35-11.38,15.45-15.44,6.1-10.57,11-17.89,9.75-6.51,15.44-15.45-4.06-37.4-3.25-41.06C684.86,201.32,688.33,199.93,692.26,198.84Z"/><path class="cls-1" d="M397.29,649.24c1.06.76,3.21,2.1,1,.4l-.43-.25A2.2,2.2,0,0,0,397.29,649.24Z"/><path class="cls-1" d="M384.09,628.5c-15,1.22-37.4-2.85-34.55-8.13s10.16.41,13.41-6.5-5.28-6.51-13.82-14.64c-3.28-3.12-8.65-4.63-14-5.28a24.25,24.25,0,0,0-3,2.43c-4.88,4.88-17.08,22.77-20.74,28.06s-12.19,10.16-8.94,13,10.57-.81,15.45,4.07,39.84,26.42,49.19,32.12,0,21.54,3.25,24,8.94-16.26,13-27.24c3.71-10,10.13-21.39,14-21.13-.66-.46-.9-.71.6.15a1.72,1.72,0,0,1,.43.25c3.73,2.18,11.95-.1,24.64-17.32C410.62,622.52,397.87,627.38,384.09,628.5Z"/><path class="cls-2" d="M699.16,250.42c-6.51,22.36-13,25.62-20.74,33.34s-11.79,9.35-17.88,16.67-8.13,23.58-13.83,30.49-17.48,9.35-21.54,16.67-14.64,82.52-22,98-35,56.1-50.81,65.45-52,11.39-65.45,19.11-38.22,28.46-40.25,38.21,4.06,22.36-1.22,31.31c-2.39,4.05-12,18.47-22.52,32.68-12.34-9.8-25.09-4.94-38.87-3.82-15,1.22-37.4-2.85-34.55-8.13s10.16.41,13.41-6.5-5.28-6.51-13.82-14.64c-3.28-3.12-8.65-4.63-14-5.28,7.43-5.35,22.39-13.68,21.35-19.92-1.22-7.32-3.66-17.08-4.47-21.55s3.66-13.82.4-19.11-14.63-4.47-17.88-11.79c-1.78-4-3.81-11.9-6.22-18.5,6.33-2.57,13.63-6.18,14.75-9.55,2-6.1-.81-11,6.1-10.16s21.55,9.35,29.68,6.1,19.51-19.11,21.95-35,5.29-30.08,16.67-32.52,38.21-5.28,37,4.07-26.83,6.1-30.08,13.82,11.79,12.6,18.29,19.92-2,28.46-11,31.3-22.36-2.84-23.58,3.66,10.57,5.29,17.07,6.91,8.13,7.32,9.35,13.82.82,13,11.39,8.54,25.2-13.82,27.23-22.36-5.28-14.23-4.87-19.92,8.13-11.38,13.82-10.57,10.57,7.73,15.45,6.1,4.06-16.26,12.19-21.14,17.08,2.44,21.14-.81,7.32-5.69,4.07-14.64,2.44-13.82,5.69-15.85,11-3.66,14.63-10.17,4.88-26.83,4.88-35.77a48.59,48.59,0,0,0-.66-9c5-2.51,10.37-2,16.52-2.83,8.94-1.22,12.6-3.25,19.51-9.76s-1.63-11.38,0-17.48,5.29-4.88,10.57-8.94,6.1-16.26,11.79-17.89,7.32,2.85,12.6,1.22,8.95-7.32,15.45-21.55,9.35-11.38,15.45-15.44,6.1-10.57,11-17.89,9.75-6.51,15.44-15.45-4.06-37.4-3.25-41.06c.34-1.54,3.81-2.93,7.74-4C697.48,210.15,704.12,233.37,699.16,250.42Z"/><path class="cls-3" d="M630.16,236.73a.63.63,0,0,1-.45-.18.6.6,0,0,1,0-.86h0l.08-.07a.61.61,0,0,1,.88,0,.62.62,0,0,1,0,.88h0l-.14-.11.11.14A.69.69,0,0,1,630.16,236.73Z"/><path class="cls-3" d="M628.22,238.51a.61.61,0,0,1-.44-1h0l.43-.38a.61.61,0,0,1,.88,0,.63.63,0,0,1,0,.88l-.38.34h0A.68.68,0,0,1,628.22,238.51Z"/><path class="cls-3" d="M629.06,238l-.86-.91h0a.66.66,0,0,1,.87,0h0l0,0a.58.58,0,0,1,0,.8l0,.05h0Z"/><path class="cls-3" d="M630.23,236.68a.6.6,0,0,1-.45-.19.63.63,0,0,1,0-.89l.39-.37.4-.38.07-.07h0a.63.63,0,1,1,.88.89h0l-.43.42c-.14.12-.27.25-.4.38l0,0h0A.6.6,0,0,1,630.23,236.68Z"/><path class="cls-3" d="M628.69,238.1a.63.63,0,0,1-.46-.2.61.61,0,0,1-.16-.42.67.67,0,0,1,.2-.47c.38-.34.88-.79,1.42-1.3l0,0h0a.62.62,0,0,1,.88,0,.61.61,0,0,1,0,.88h0v0l-1.45,1.33A.61.61,0,0,1,628.69,238.1Z"/><path class="cls-3" d="M628.57,238.43l-.85-.92a.68.68,0,0,1,.92,0,.59.59,0,0,1,0,.85l-.41-.47.38.5,0,0Z"/><path class="cls-3" d="M412.36,447.91h-.13a.63.63,0,0,1-.48-.74h0l.41-2a.63.63,0,0,1,.75-.48.64.64,0,0,1,.48.74l-.42,2h0A.62.62,0,0,1,412.36,447.91Z"/><path class="cls-3" d="M628,238.72a.64.64,0,0,1-.47-.21.63.63,0,0,1,.06-.88l.12-.11a.62.62,0,0,1,.88,0,.63.63,0,0,1,0,.88l-.13.12A.66.66,0,0,1,628,238.72Z"/><path class="cls-3" d="M600.87,230.77a.62.62,0,0,1-.09-1.24c.67-.1,1.35-.18,2-.24a.63.63,0,0,1,.68.57.62.62,0,0,1-.56.67c-.66.06-1.31.14-2,.24Z"/><path class="cls-3" d="M621.75,234.07a.59.59,0,0,1-.29-.07,31.16,31.16,0,0,0-3.48-1.55.62.62,0,0,1,.43-1.17,30.31,30.31,0,0,1,3.63,1.61.62.62,0,0,1,.26.84A.6.6,0,0,1,621.75,234.07ZM612.56,231h-.11a34,34,0,0,0-3.8-.48.61.61,0,0,1-.57-.66.59.59,0,0,1,.66-.58,33.75,33.75,0,0,1,3.93.49.62.62,0,0,1,.51.72A.64.64,0,0,1,612.56,231Z"/><path class="cls-3" d="M628.13,238.61a.61.61,0,0,1-.43-.17c-.47-.44-1-.88-1.47-1.29a.63.63,0,0,1-.08-.88.62.62,0,0,1,.88-.09c.41.34.81.69,1.2,1a8.9,8.9,0,0,0,1.2-.79.62.62,0,0,1,.88.1.63.63,0,0,1-.11.88,10.74,10.74,0,0,1-1.79,1.13A.58.58,0,0,1,628.13,238.61Z"/><path class="cls-3" d="M632.34,233.74h-.14a.63.63,0,0,1-.47-.75,7.08,7.08,0,0,0,.17-1.55,10.27,10.27,0,0,0-.1-1.31A.62.62,0,1,1,633,230a9.62,9.62,0,0,1,.12,1.48,8.34,8.34,0,0,1-.2,1.83A.63.63,0,0,1,632.34,233.74Z"/><path class="cls-3" d="M631.07,226.22a.63.63,0,0,1-.58-.38c-.25-.6-.53-1.19-.82-1.79a.65.65,0,0,1,0-.59c.31-.51.74-1.12,1.17-1.7a.61.61,0,0,1,.87-.13.62.62,0,0,1,.14.87c-.33.45-.67.91-.93,1.31.25.51.48,1,.7,1.54a.62.62,0,0,1-.33.82A.52.52,0,0,1,631.07,226.22Z"/><path class="cls-3" d="M634,219.12a.64.64,0,0,1-.35-.1.64.64,0,0,1-.17-.87,23.85,23.85,0,0,0,1.47-2.5.62.62,0,0,1,.84-.28.63.63,0,0,1,.28.84,24.67,24.67,0,0,1-1.55,2.63A.63.63,0,0,1,634,219.12Z"/><path class="cls-3" d="M636.49,212.25a.62.62,0,0,1-.62-.54,3,3,0,0,0-.66-1.49.63.63,0,0,1,.44-1,7.18,7.18,0,0,0,1.8-.35.63.63,0,0,1,.4,1.19,8.44,8.44,0,0,1-1.1.28,4.53,4.53,0,0,1,.36,1.22.61.61,0,0,1-.53.7Z"/><path class="cls-3" d="M641.85,206.87a.58.58,0,0,1-.38-.13.62.62,0,0,1-.12-.88,18.11,18.11,0,0,0,1.82-2.93.63.63,0,0,1,.85-.27.64.64,0,0,1,.27.84,21,21,0,0,1-1.95,3.13A.62.62,0,0,1,641.85,206.87Zm4-7.93a.68.68,0,0,1-.23-.05.62.62,0,0,1-.35-.81l.63-1.6c.22-.58.44-1.16.67-1.73a.62.62,0,0,1,1.16.46c-.22.57-.45,1.14-.67,1.72l-.63,1.61A.61.61,0,0,1,645.88,198.94Zm3.46-8.24a.59.59,0,0,1-.29-.07.62.62,0,0,1-.26-.84,20.05,20.05,0,0,1,2-3.12.63.63,0,0,1,1,.77,17.93,17.93,0,0,0-1.83,2.93A.64.64,0,0,1,649.34,190.7Z"/><path class="cls-3" d="M655.57,184.91a.62.62,0,0,1-.57-.38.59.59,0,0,1,0-.29.56.56,0,0,1-.09-.17.62.62,0,0,1,.39-.79,8.38,8.38,0,0,1,2.12-.41.61.61,0,0,1,.65.48.63.63,0,0,1-.36.72l-1.84.79A.74.74,0,0,1,655.57,184.91Z"/><path class="cls-3" d="M651.75,186.55a.63.63,0,0,1-.25-1.2l1-.41h0a.62.62,0,0,1,.48,1.15l-1,.42A.69.69,0,0,1,651.75,186.55Z"/><path class="cls-3" d="M655.57,184.91a.63.63,0,0,1-.24-1.2l1.83-.79a.64.64,0,0,1,.83.32.65.65,0,0,1-.33.83l-1.84.79A.7.7,0,0,1,655.57,184.91Z"/><path class="cls-3" d="M699.33,215.48a.76.76,0,0,1-.26-.06l-1.16,0a.61.61,0,0,1-.62-.63.62.62,0,0,1,.62-.62h0c2.15,0,2.32,0,2.33.66s-.61.65-.88.66Z"/><path class="cls-3" d="M693.27,215.49h0c-1.26,0-2.63-.05-4.06-.1a.64.64,0,0,1-.6-.65.62.62,0,0,1,.62-.6h0c1.42.05,2.78.08,4,.1a.63.63,0,0,1,0,1.25Zm-10.1-.43h0c-1.48-.11-2.84-.24-4-.38a.62.62,0,1,1,.15-1.24c1.19.14,2.53.27,4,.38a.61.61,0,0,1,.57.67A.62.62,0,0,1,683.17,215.06Z"/><path class="cls-3" d="M672.27,214.29a.62.62,0,0,1-.59-.44c-.18-.55-.4-1.15-.67-1.84a.61.61,0,0,1,.32-.8.63.63,0,0,1,.82.29c0,.09.26.41,1.28.79a.62.62,0,0,1,.37.8.63.63,0,0,1-.8.37l-.16-.06,0,.07a.64.64,0,0,1-.41.79A.58.58,0,0,1,672.27,214.29Z"/><path class="cls-3" d="M671.86,220.05a.59.59,0,0,1-.41-.16.62.62,0,0,1-.06-.88,3.18,3.18,0,0,0,.8-1.84.62.62,0,1,1,1.24.14,4.35,4.35,0,0,1-1.1,2.52A.6.6,0,0,1,671.86,220.05Z"/><path class="cls-3" d="M667,222.69a.59.59,0,0,1-.32-.09.63.63,0,0,1-.3-.43,4.45,4.45,0,0,0-.58-1.64.63.63,0,1,1,1-.68,5.25,5.25,0,0,1,.61,1.4c.42-.15.82-.3,1.18-.45a.62.62,0,0,1,.82.33.63.63,0,0,1-.34.82c-.57.24-1.2.47-1.93.71A.63.63,0,0,1,667,222.69Z"/><path class="cls-3" d="M658.51,222.69a.57.57,0,0,1-.18,0,8.48,8.48,0,0,1-2-.85.63.63,0,0,1-.2-.86.62.62,0,0,1,.86-.21,6,6,0,0,0,1.24.58,7.64,7.64,0,0,1,1.09-1.27.63.63,0,0,1,.85.92,6.36,6.36,0,0,0-1.14,1.41A.61.61,0,0,1,658.51,222.69Z"/><path class="cls-3" d="M655.6,217.15a.7.7,0,0,1-.25-.05.63.63,0,0,1-.32-.83,17.9,17.9,0,0,1,1.94-3.2.63.63,0,0,1,1,.74,17.24,17.24,0,0,0-1.81,3A.62.62,0,0,1,655.6,217.15Z"/><path class="cls-3" d="M660.75,209.73a.66.66,0,0,1-.35-.11.62.62,0,0,1-.16-.87c.23-.34.42-.64.58-.92a9.81,9.81,0,0,0-1.09-.1.62.62,0,0,1-.59-.65.6.6,0,0,1,.65-.6,12,12,0,0,1,2.09.28.61.61,0,0,1,.41.32.59.59,0,0,1,0,.52,9.52,9.52,0,0,1-1.05,1.86A.62.62,0,0,1,660.75,209.73Z"/><path class="cls-3" d="M643.07,215.65a7.16,7.16,0,0,1-1.46-.15.62.62,0,0,1-.49-.73.63.63,0,0,1,.73-.5,6.33,6.33,0,0,0,2.67,0l.47-.57a.63.63,0,0,1,.88-.06.62.62,0,0,1,.06.88l-.56.68a.61.61,0,0,1-.33.22A7.42,7.42,0,0,1,643.07,215.65Zm7-4.93a.62.62,0,0,1-.33-1.15,22.14,22.14,0,0,1,3.74-1.93.62.62,0,0,1,.81.35.63.63,0,0,1-.35.82,20.33,20.33,0,0,0-3.53,1.81A.59.59,0,0,1,650.12,210.72Z"/><path class="cls-3" d="M636.48,212.25a.62.62,0,0,1-.61-.54,4.15,4.15,0,0,0-.11-.48,12.66,12.66,0,0,1-.63-1.14.63.63,0,0,1,.22-.8.64.64,0,0,1,.82.13,4.24,4.24,0,0,1,.73,1.27,5,5,0,0,0,.33.47.63.63,0,0,1-.13.87.8.8,0,0,1-.27.12.58.58,0,0,1-.26.09Z"/><path class="cls-3" d="M641.49,235.75h-.06a14.34,14.34,0,0,1-4.23-1,.63.63,0,0,1-.33-.82.62.62,0,0,1,.82-.33,13.17,13.17,0,0,0,3.85.94.62.62,0,0,1,0,1.24Zm6.22-.41a.62.62,0,0,1-.61-.5.63.63,0,0,1,.49-.74,31.92,31.92,0,0,0,3.94-1.08.63.63,0,0,1,.8.39.62.62,0,0,1-.39.79,33.29,33.29,0,0,1-4.1,1.13Zm-15-4.49a.64.64,0,0,1-.52-.27,15,15,0,0,1-1.87-3.92.62.62,0,0,1,1.19-.38,13.72,13.72,0,0,0,1.71,3.59.62.62,0,0,1-.16.87A.66.66,0,0,1,632.68,230.85Zm-.42-9.29a.63.63,0,0,1-.37-.12.61.61,0,0,1-.13-.87c.78-1.06,1.61-2.21,2.32-3.4a.63.63,0,0,1,.86-.21.62.62,0,0,1,.21.86c-.74,1.23-1.59,2.4-2.39,3.49A.6.6,0,0,1,632.26,221.56Z"/><path class="cls-3" d="M660.43,232.35a.63.63,0,0,1-.6-.46,2.14,2.14,0,0,0-.63-1c-.47.26-.93.52-1.4.76a.64.64,0,0,1-.85-.26.62.62,0,0,1,.27-.84c.58-.31,1.16-.63,1.73-1a.64.64,0,0,1,.68,0,3.56,3.56,0,0,1,1.4,1.91.62.62,0,0,1-.43.77A.51.51,0,0,1,660.43,232.35Z"/><path class="cls-3" d="M657.87,241.3a.63.63,0,0,1-.53-.28c-.34-.53-.69-1.12-1.05-1.76a.62.62,0,0,1,0-.63c.3-.48.72-1,1.16-1.6a.66.66,0,0,1,.9-.15.58.58,0,0,1,.15.84l-.06.08c-.33.42-.64.83-.89,1.18.28.49.55,1,.82,1.35a.63.63,0,0,1-.18.87A.63.63,0,0,1,657.87,241.3Z"/><path class="cls-3" d="M663.06,245.21a3.84,3.84,0,0,1-.83-.09.62.62,0,1,1,.24-1.22,4.44,4.44,0,0,0,3.31-.94.63.63,0,0,1,.87.18.62.62,0,0,1-.18.86A6.21,6.21,0,0,1,663.06,245.21Zm7.61-5.08a.63.63,0,0,1-.45-.19.62.62,0,0,1,0-.88c.89-.85,1.93-1.83,3-2.73a.63.63,0,0,1,.79,1c-1.08.86-2.1,1.82-3,2.65A.61.61,0,0,1,670.67,240.13Zm8.84-3.19a.63.63,0,0,1-.62-.56.64.64,0,0,1,.56-.69,21.33,21.33,0,0,0,3.84-.74.62.62,0,0,1,.77.43.61.61,0,0,1-.42.77,23.1,23.1,0,0,1-4.06.79Zm9.55-3a.61.61,0,0,1-.56-.36.62.62,0,0,1,.29-.83l.42-.21a33.87,33.87,0,0,1,3.31-1.47.63.63,0,0,1,.8.38.62.62,0,0,1-.38.8,32.16,32.16,0,0,0-3.18,1.42l-.43.21A.66.66,0,0,1,689.06,233.92Z"/><path class="cls-3" d="M700.05,234.09a.63.63,0,0,1-.45-.18,9.49,9.49,0,0,0-1.43-1.21.63.63,0,0,1-.17-.87.64.64,0,0,1,.87-.17,10.92,10.92,0,0,1,1.62,1.37.63.63,0,0,1,0,.88A.66.66,0,0,1,700.05,234.09Z"/><path class="cls-3" d="M412.85,445.6h-.14a.63.63,0,0,1-.47-.75l.07-.35a.62.62,0,1,1,1.22.27l-.07.35A.63.63,0,0,1,412.85,445.6Z"/><path class="cls-3" d="M631.12,235.81a.6.6,0,0,1-.45-.19.59.59,0,0,1,0-.84l0,0a.62.62,0,0,1,.88,0,.63.63,0,0,1,0,.89h0l0,0h0A.66.66,0,0,1,631.12,235.81Z"/><path class="cls-3" d="M633.46,233.35a.55.55,0,0,1-.28-.07.62.62,0,0,1-.35-.56.57.57,0,0,1,0-.18.64.64,0,0,1,.26-.34.49.49,0,0,1,.37-.1.51.51,0,0,1,.17,0,.73.73,0,0,1,.25.15h0l.08.1a.71.71,0,0,1,.09.28.41.41,0,0,1,0,.19.68.68,0,0,1-.12.26.49.49,0,0,1-.13.12.52.52,0,0,1-.23.1Z"/><path class="cls-3" d="M631.12,235.83a.61.61,0,0,1-.45-.19.63.63,0,0,1,0-.88h0l.54-.53c.41-.41.79-.8,1.1-1.14a.62.62,0,1,1,.92.84c-.31.35-.7.75-1.14,1.18q-.26.27-.54.54h0A.6.6,0,0,1,631.12,235.83Z"/><path class="cls-3" d="M632.84,234.07a.62.62,0,0,1-.46-1l.07-.08c.19-.22.37-.42.52-.61a.61.61,0,0,1,.87-.1.62.62,0,0,1,.11.87c-.16.21-.35.43-.57.67l-.08.09A.63.63,0,0,1,632.84,234.07Z"/><path class="cls-3" d="M632.79,234.11a.61.61,0,0,1-.42-.16.64.64,0,0,1-.21-.46.58.58,0,0,1,.16-.4.64.64,0,0,1,1.13.4.59.59,0,0,1-.15.38l0,0A.66.66,0,0,1,632.79,234.11Z"/><path class="cls-3" d="M575.91,151.5a.65.65,0,0,1-.62-.5,7,7,0,0,0-.62-1.73.63.63,0,1,1,1.12-.56,8.6,8.6,0,0,1,.73,2,.63.63,0,0,1-.49.74Z"/><path class="cls-3" d="M557,186.52a.61.61,0,0,1-.61-.51,36.54,36.54,0,0,1-.57-4.41.63.63,0,0,1,1.25-.08,38.18,38.18,0,0,0,.54,4.26.62.62,0,0,1-.5.73Zm-.15-10.86h-.13a.63.63,0,0,1-.48-.75,17.67,17.67,0,0,1,1.49-4.27.63.63,0,0,1,1.12.57,15.59,15.59,0,0,0-1.39,4A.62.62,0,0,1,556.88,175.66Zm3.91-10a.62.62,0,0,1-.48-1,14.11,14.11,0,0,1,3.5-2.91.63.63,0,0,1,.86.19.62.62,0,0,1-.19.86,12.88,12.88,0,0,0-3.2,2.65A.65.65,0,0,1,560.79,165.66Zm9.07-6a.61.61,0,0,1-.54-.31.62.62,0,0,1,.23-.85,23.61,23.61,0,0,0,3.53-2.37.63.63,0,0,1,.88.07.61.61,0,0,1-.07.88,23.43,23.43,0,0,1-3.72,2.5A.58.58,0,0,1,569.86,159.65Z"/><path class="cls-3" d="M558,196.3a.62.62,0,0,1-.38-.13.63.63,0,0,1-.13-.87,16.15,16.15,0,0,1,1.1-1.3c-.18-.51-.35-1-.52-1.55a.63.63,0,0,1,1.2-.38c.2.65.41,1.27.62,1.88a.62.62,0,0,1-.14.65,12.69,12.69,0,0,0-1.25,1.45A.63.63,0,0,1,558,196.3Z"/><path class="cls-3" d="M557.57,213.68a.62.62,0,0,1-.62-.58,26,26,0,0,0-.55-3.47.63.63,0,0,1,.48-.74.63.63,0,0,1,.74.48,27.5,27.5,0,0,1,.58,3.64.64.64,0,0,1-.58.67ZM556,204.83a.63.63,0,0,1-.62-.55,16.84,16.84,0,0,1-.14-2.06,13.21,13.21,0,0,1,.11-1.69A.64.64,0,0,1,556,200a.62.62,0,0,1,.53.71,10.68,10.68,0,0,0-.1,1.52,14.59,14.59,0,0,0,.13,1.91.62.62,0,0,1-.55.69Z"/><path class="cls-3" d="M555.82,220.73h-.12c-.65-.13-1.3-.23-1.93-.31a.62.62,0,0,1,.15-1.24c.53.06,1.07.14,1.61.24a10.08,10.08,0,0,0,.68-1.3.63.63,0,1,1,1.15.49,11.7,11.7,0,0,1-1,1.86A.63.63,0,0,1,555.82,220.73Z"/><path class="cls-3" d="M523.11,232.21a.62.62,0,0,1-.58-.4.63.63,0,0,1,.35-.81,39.63,39.63,0,0,0,4-1.85.62.62,0,0,1,.58,1.1,41.26,41.26,0,0,1-4.12,1.92A.59.59,0,0,1,523.11,232.21Zm9.85-5.27a.63.63,0,0,1-.32-1.16c1.36-.84,2.6-1.59,3.85-2.31a.62.62,0,0,1,.62,1.08c-1.24.71-2.46,1.46-3.82,2.3A.63.63,0,0,1,533,226.94Zm9.88-5.21a.61.61,0,0,1-.58-.41.62.62,0,0,1,.37-.8,24.82,24.82,0,0,1,4.42-1.19.62.62,0,1,1,.21,1.23,23.48,23.48,0,0,0-4.2,1.14A.83.83,0,0,1,542.84,221.73Z"/><path class="cls-3" d="M513.71,236a.82.82,0,0,1-.29-.07.64.64,0,0,1-.26-.85l.47-.9c.26-.5.43-.81.45-.86h0a.61.61,0,0,1,.51-.34c.65,0,1.31-.12,1.95-.22a.62.62,0,0,1,.71.53.62.62,0,0,1-.52.71c-.57.08-1.13.15-1.7.2-.07.15-.17.33-.29.56l-.47.9A.64.64,0,0,1,513.71,236Z"/><path class="cls-3" d="M506.38,253a.69.69,0,0,1-.2,0,.63.63,0,0,1-.4-.79,22.11,22.11,0,0,0,.85-3.54.63.63,0,0,1,1.24.19,24.11,24.11,0,0,1-.9,3.74A.63.63,0,0,1,506.38,253Zm3-8.78a.59.59,0,0,1-.29-.07.62.62,0,0,1-.26-.84l1.74-3.32a.62.62,0,0,1,.84-.27.63.63,0,0,1,.27.85l-1.75,3.32A.62.62,0,0,1,509.36,244.26Z"/><path class="cls-3" d="M501.58,260.67h0a.62.62,0,0,1-.62-.62,13.75,13.75,0,0,1,.16-2.09.63.63,0,0,1,.47-.51,4.12,4.12,0,0,0,1.53-.78.62.62,0,0,1,.88.09.63.63,0,0,1-.09.88,5.25,5.25,0,0,1-1.61.9,12.26,12.26,0,0,0-.09,1.51A.63.63,0,0,1,501.58,260.67Z"/><path class="cls-3" d="M502.58,266a.62.62,0,0,1-.58-.4,14.58,14.58,0,0,1-.67-2.18.62.62,0,1,1,1.22-.27,14,14,0,0,0,.61,2,.62.62,0,0,1-.34.81A.69.69,0,0,1,502.58,266Z"/><path class="cls-3" d="M505.51,272.17h-.12a.63.63,0,0,1-.5-.73,9.45,9.45,0,0,0,.19-1.55,8.68,8.68,0,0,1-1.32-1.26.62.62,0,0,1,.08-.88.63.63,0,0,1,.88.07,6.83,6.83,0,0,0,1.35,1.24.6.6,0,0,1,.27.51,11.3,11.3,0,0,1-.22,2.11A.63.63,0,0,1,505.51,272.17Z"/><path class="cls-3" d="M503,283.85a.63.63,0,0,1-.59-.4,4.71,4.71,0,0,1-.26-1.6,12.8,12.8,0,0,1,.65-3.54.62.62,0,0,1,.77-.42.63.63,0,0,1,.43.77,11.54,11.54,0,0,0-.6,3.19,3.37,3.37,0,0,0,.18,1.16.62.62,0,0,1-.36.8A.6.6,0,0,1,503,283.85Z"/><path class="cls-3" d="M512.11,286.34a.63.63,0,0,1-.6-.45c-.14-.5-.27-1-.39-1.6a6.47,6.47,0,0,0-1.39,0,.61.61,0,0,1-.68-.56.63.63,0,0,1,.56-.68,6.09,6.09,0,0,1,2.22.1.66.66,0,0,1,.45.49,17.65,17.65,0,0,0,.43,1.89.63.63,0,0,1-.43.78Z"/><path class="cls-3" d="M518.83,292.07a7.67,7.67,0,0,1-3.11-.6.64.64,0,0,1-.32-.83.64.64,0,0,1,.83-.32,7.49,7.49,0,0,0,4,.4.63.63,0,1,1,.16,1.24A13,13,0,0,1,518.83,292.07Zm7.95-1.89a.62.62,0,0,1-.21-1.21l1.61-.58c.86-.32,1.73-.64,2.59-.94a.64.64,0,0,1,.8.39.62.62,0,0,1-.39.79c-.85.3-1.72.61-2.57.93l-1.62.59A.76.76,0,0,1,526.78,290.18Z"/><path class="cls-3" d="M539.45,287.08h-.07a9.79,9.79,0,0,0-1.88,0,.65.65,0,0,1-.67-.57.63.63,0,0,1,.57-.68,13.24,13.24,0,0,1,1.66,0c.2-.45.43-.93.68-1.43a.63.63,0,0,1,.84-.28.62.62,0,0,1,.28.84q-.48,1-.84,1.77A.61.61,0,0,1,539.45,287.08Z"/><path class="cls-3" d="M543,279.81a.69.69,0,0,1-.24-.05.63.63,0,0,1-.34-.82,20.14,20.14,0,0,0,1.23-3.73.61.61,0,0,1,.74-.48.62.62,0,0,1,.48.73,21.55,21.55,0,0,1-1.29,4A.65.65,0,0,1,543,279.81Z"/><path class="cls-3" d="M543.35,270.12a.63.63,0,0,1-.51-.25,5.93,5.93,0,0,0-1.28-1.27.63.63,0,0,1-.18-.81c.36-.65.69-1.24,1-1.76a.62.62,0,1,1,1.06.66c-.24.38-.48.79-.73,1.24a7,7,0,0,1,1.12,1.2.63.63,0,0,1-.5,1Z"/><path class="cls-3" d="M550.28,265.16a.62.62,0,0,1-.36-.12c-.24-.17-.46-.34-.68-.51a4.67,4.67,0,0,0-2.25-1.22.64.64,0,0,1-.6-.65.65.65,0,0,1,.65-.6,5.52,5.52,0,0,1,3,1.48l.65.49a.62.62,0,0,1,.14.87A.62.62,0,0,1,550.28,265.16Z"/><path class="cls-3" d="M558.35,268.1a.6.6,0,0,1-.49-.24,4.42,4.42,0,0,1-.73-1.42,8.7,8.7,0,0,1-1.43.3.63.63,0,0,1-.16-1.24,8.8,8.8,0,0,0,1.81-.44.61.61,0,0,1,.51,0,.64.64,0,0,1,.31.41,3.91,3.91,0,0,0,.67,1.58.63.63,0,0,1-.11.88A.6.6,0,0,1,558.35,268.1Z"/><path class="cls-3" d="M563.68,268.72a.63.63,0,0,1-.19-1.22,32.6,32.6,0,0,0,3.47-1.43.63.63,0,0,1,.52,1.14,33.82,33.82,0,0,1-3.61,1.48A.63.63,0,0,1,563.68,268.72Zm11.19-2.51a9.69,9.69,0,0,1-2.47-.36.62.62,0,1,1,.31-1.2,6.52,6.52,0,0,0,3.44.14.63.63,0,1,1,.35,1.2A5.68,5.68,0,0,1,574.87,266.21Zm5-4.39a.57.57,0,0,1-.22,0,.61.61,0,0,1-.36-.8c.32-.88.62-1.85.93-2.87l.22-.74a.61.61,0,0,1,.78-.41.63.63,0,0,1,.42.78l-.23.73c-.31,1-.61,2-1,2.94A.63.63,0,0,1,579.9,261.82Z"/><path class="cls-3" d="M587.45,255.29a.65.65,0,0,1-.26-.06,2.85,2.85,0,0,0-1.62-.2.64.64,0,0,1-.7-.54.62.62,0,0,1,.54-.7,4.54,4.54,0,0,1,1.22,0,3.5,3.5,0,0,1,.18-1.26.61.61,0,0,1,.78-.41.62.62,0,0,1,.41.78,2.11,2.11,0,0,0,0,1.53.63.63,0,0,1-.14.69A.62.62,0,0,1,587.45,255.29Z"/><path class="cls-3" d="M591.66,248.36a.63.63,0,0,1-.39-1.12c1-.79,2.19-1.64,3.63-2.6a.63.63,0,1,1,.69,1.05c-1.41.93-2.57,1.76-3.55,2.53A.62.62,0,0,1,591.66,248.36Z"/><path class="cls-3" d="M600.84,242.23a.62.62,0,0,1-.52-.28.64.64,0,0,1,.17-.87q.56-.36.93-.63c-.32-.24-.64-.5-1-.79a.63.63,0,0,1-.05-.88.62.62,0,0,1,.88-.05,14.88,14.88,0,0,0,1.51,1.18.65.65,0,0,1,.28.47.63.63,0,0,1-.21.51,14.37,14.37,0,0,1-1.69,1.24A.59.59,0,0,1,600.84,242.23Z"/><path class="cls-3" d="M598.16,236.77a.63.63,0,0,1-.52-.28,7.92,7.92,0,0,1-1.24-2.68.62.62,0,0,1,1.22-.26,6.93,6.93,0,0,0,1,2.24.62.62,0,0,1-.17.87A.6.6,0,0,1,598.16,236.77Z"/><path class="cls-3" d="M598.91,231.15a.62.62,0,0,1-.2-1.21,7.59,7.59,0,0,1,1.68-.37c.16-.54.3-1,.43-1.51a.61.61,0,0,1,.77-.44.63.63,0,0,1,.44.77c-.17.6-.35,1.24-.56,1.93a.62.62,0,0,1-.54.45,7.09,7.09,0,0,0-1.81.35A.76.76,0,0,1,598.91,231.15Z"/><path class="cls-3" d="M602.56,222.64a.61.61,0,0,1-.62-.61c0-1.67-.62-1.79-2-2.09l.25-1.23c1.47.31,3,.64,3,3.3a.63.63,0,0,1-.62.63Zm-7.38-6.27a.64.64,0,0,1-.56-.34,17.4,17.4,0,0,1-1.41-4.11.63.63,0,0,1,.47-.74.62.62,0,0,1,.75.47,16.55,16.55,0,0,0,1.3,3.81.62.62,0,0,1-.27.84A.58.58,0,0,1,595.18,216.37ZM593,206.17a.62.62,0,0,1-.62-.58c-.1-1.31-.16-2.73-.19-4.23a.63.63,0,0,1,.62-.64h0a.61.61,0,0,1,.62.61c0,1.48.09,2.89.18,4.17a.62.62,0,0,1-.57.67Zm-.57-10.49a.63.63,0,0,1-.62-.55c-.13-1-.27-2.07-.41-3.26l-.11-.93a.62.62,0,0,1,1.24-.15l.11.93c.14,1.18.28,2.28.41,3.25a.63.63,0,0,1-.54.7Zm-1.35-10.46a.62.62,0,0,1-.62-.53c-.23-1.51-.45-2.87-.68-4.14a.63.63,0,1,1,1.23-.23c.24,1.29.46,2.66.68,4.18a.61.61,0,0,1-.52.71ZM589,174.89a.63.63,0,0,1-.6-.46,41,41,0,0,0-1.28-4,.61.61,0,0,1,.35-.8.62.62,0,0,1,.81.35,40.62,40.62,0,0,1,1.33,4.07.63.63,0,0,1-.44.77Z"/><path class="cls-3" d="M584.44,165.39a.59.59,0,0,1-.44-.19,6.27,6.27,0,0,0-1.44-1.1.62.62,0,0,1-.18-.95,12.7,12.7,0,0,0,1.12-1.55.62.62,0,1,1,1.06.66,13.07,13.07,0,0,1-.77,1.13,7.88,7.88,0,0,1,1.09.94.62.62,0,0,1-.44,1.06Z"/><path class="cls-3" d="M586.63,156.85a.52.52,0,0,1-.21,0A.61.61,0,0,1,586,156c.43-1.26.82-2.59,1.16-4a.62.62,0,1,1,1.21.29c-.35,1.41-.75,2.78-1.19,4.08A.62.62,0,0,1,586.63,156.85Z"/><path class="cls-3" d="M588.9,146.64h-.06a.61.61,0,0,1-.56-.68c.06-.7.11-1.35.12-2a.61.61,0,0,1,.64-.61.63.63,0,0,1,.61.64c0,.62-.06,1.31-.13,2A.62.62,0,0,1,588.9,146.64Z"/><path class="cls-3" d="M6.41,226.94a.57.57,0,0,1-.18,0l-1.91-.59a.63.63,0,0,1-.41-.79.62.62,0,0,1,.78-.41l1.91.6a.62.62,0,0,1,.41.78A.63.63,0,0,1,6.41,226.94Z"/><path class="cls-3" d="M121.11,277.25a.65.65,0,0,1-.26-.06c-1-.48-2.23-1.05-3.51-1.7a.63.63,0,0,1,.56-1.12c1.27.65,2.44,1.21,3.47,1.68a.63.63,0,0,1-.26,1.2Zm-8.64-4.41a.67.67,0,0,1-.3-.08c-1.1-.6-2.23-1.22-3.4-1.88a.62.62,0,0,1,.61-1.09c1.16.65,2.29,1.28,3.39,1.88a.61.61,0,0,1,.25.84A.62.62,0,0,1,112.47,272.84ZM104,268.09a.62.62,0,0,1-.32-.09l-3.35-1.94a.64.64,0,0,1-.23-.86A.62.62,0,0,1,101,265l3.35,1.94a.63.63,0,0,1-.31,1.17Zm-8.37-4.9a.62.62,0,0,1-.32-.09l-3.34-2a.62.62,0,1,1,.64-1.07L96,262a.62.62,0,0,1-.32,1.16Zm-8.33-5a.68.68,0,0,1-.33-.09l-3.32-2a.62.62,0,1,1,.64-1.07l3.33,2a.63.63,0,0,1,.21.86A.62.62,0,0,1,87.32,258.23Zm-8.33-5a.62.62,0,0,1-.32-.09l-3.34-2a.62.62,0,0,1-.22-.85.63.63,0,0,1,.86-.23l3.34,2a.64.64,0,0,1,.22.86A.63.63,0,0,1,79,253.26Zm-8.37-4.91a.58.58,0,0,1-.31-.08c-1.27-.72-2.4-1.35-3.38-1.88a.62.62,0,0,1-.26-.84.63.63,0,0,1,.85-.26c1,.53,2.13,1.17,3.41,1.89a.63.63,0,0,1-.31,1.17Zm-8.77-4.09a.57.57,0,0,1-.18,0L58,243.08a.63.63,0,0,1-.41-.78.61.61,0,0,1,.78-.41L62,243a.62.62,0,0,1-.19,1.22Zm-9.24-2.88a.57.57,0,0,1-.18,0l-3.7-1.16A.62.62,0,0,1,49.1,239l3.7,1.15a.63.63,0,0,1-.19,1.23Zm-9.24-2.89-.18,0-3.7-1.15a.64.64,0,0,1-.41-.79.62.62,0,0,1,.78-.41l3.7,1.16a.62.62,0,0,1-.19,1.22Zm-9.24-2.89a.57.57,0,0,1-.18,0l-3.7-1.15a.63.63,0,0,1-.41-.78.61.61,0,0,1,.78-.41l3.7,1.15a.62.62,0,0,1-.19,1.22Zm-9.24-2.88a.57.57,0,0,1-.18,0L21,231.53a.62.62,0,0,1-.41-.78.61.61,0,0,1,.78-.41l3.7,1.15a.63.63,0,0,1-.19,1.23Zm-9.24-2.89-.18,0-3.7-1.15a.64.64,0,0,1-.41-.79.62.62,0,0,1,.78-.41l3.7,1.16a.62.62,0,0,1,.41.78A.63.63,0,0,1,15.65,229.83Z"/><path class="cls-3" d="M127.23,279.3a4.66,4.66,0,0,1-.91-.1.62.62,0,0,1-.5-.73.63.63,0,0,1,.73-.5c.86.17,1.08,0,1.08,0a.58.58,0,0,1,.32-.38.61.61,0,0,1,.51,0,1.32,1.32,0,0,0,1.32-.15.63.63,0,0,1,.87.19.62.62,0,0,1-.19.86,2.59,2.59,0,0,1-2,.41A1.73,1.73,0,0,1,127.23,279.3Z"/><path class="cls-3" d="M132.67,275.08a.54.54,0,0,1-.27-.07.62.62,0,0,1-.29-.83c.35-.73.71-1.57,1.13-2.65a.63.63,0,0,1,.81-.36.64.64,0,0,1,.36.81c-.44,1.11-.81,2-1.17,2.74A.64.64,0,0,1,132.67,275.08Z"/><path class="cls-3" d="M135.42,268.27a.56.56,0,0,1-.25,0,.63.63,0,0,1-.33-.82,8.16,8.16,0,0,1,1-1.91.67.67,0,0,1,.48-.23l2,0a.62.62,0,0,1,.65.6.63.63,0,0,1-.61.65l-1.69,0a10.83,10.83,0,0,0-.69,1.38A.62.62,0,0,1,135.42,268.27Z"/><path class="cls-3" d="M144.05,266.13a.62.62,0,0,1-.62-.57.63.63,0,0,1,.57-.68c1.27-.11,2.53-.25,3.74-.41a.63.63,0,1,1,.17,1.24c-1.24.16-2.51.31-3.8.42Zm9.39-1.4a.62.62,0,0,1-.13-1.23c1.23-.27,2.46-.58,3.65-.91a.61.61,0,0,1,.77.43.63.63,0,0,1-.43.77c-1.21.34-2.47.65-3.73.93Zm9.08-2.75a.63.63,0,0,1-.23-1.21c1.16-.46,2.32-1,3.44-1.51a.61.61,0,0,1,.83.29.62.62,0,0,1-.29.83c-1.14.56-2.32,1.08-3.52,1.55A.59.59,0,0,1,162.52,262ZM171,257.7a.61.61,0,0,1-.53-.3.63.63,0,0,1,.2-.86c1-.63,2.1-1.33,3.15-2.07a.63.63,0,0,1,.71,1c-1.07.75-2.14,1.46-3.2,2.11A.66.66,0,0,1,171,257.7Zm7.71-5.54a.65.65,0,0,1-.49-.23.63.63,0,0,1,.09-.88c.94-.77,1.91-1.59,2.88-2.45a.63.63,0,0,1,.88.05.64.64,0,0,1-.05.89c-1,.87-2,1.7-2.92,2.48A.62.62,0,0,1,178.7,252.16Zm7.08-6.34a.62.62,0,0,1-.43-1.07c.89-.86,1.79-1.74,2.7-2.66a.63.63,0,0,1,.89.89q-1.38,1.38-2.73,2.67A.59.59,0,0,1,185.78,245.82Z"/><path class="cls-3" d="M192.51,239.07a.63.63,0,0,1-.45-1.06l1.39-1.45a.6.6,0,0,1,.44-.19.64.64,0,0,1,.45.18c.47.47.94.92,1.43,1.36a.62.62,0,0,1,0,.88.63.63,0,0,1-.89,0c-.34-.31-.68-.62-1-1l-.95,1A.64.64,0,0,1,192.51,239.07Z"/><path class="cls-3" d="M257,255.45a.63.63,0,0,1,0-1.25c1.33,0,2.64,0,4,0a.66.66,0,0,1,.63.62.62.62,0,0,1-.61.63q-2,0-4,0Zm-5.93-.06h0q-2,0-4-.12a.63.63,0,0,1-.6-.65.6.6,0,0,1,.65-.6c1.31,0,2.63.09,3.94.12a.63.63,0,0,1,0,1.25Zm15.82-.1a.63.63,0,0,1,0-1.25c1.33,0,2.65-.08,3.95-.12a.63.63,0,0,1,0,1.25c-1.3,0-2.62.09-4,.12Zm-25.69-.36h0c-1.32-.1-2.64-.21-4-.35a.61.61,0,0,1-.56-.68.63.63,0,0,1,.68-.56c1.31.13,2.62.24,3.92.34a.63.63,0,0,1,0,1.25Zm-9.82-1.07h-.09c-1.34-.2-2.66-.41-3.93-.64a.63.63,0,0,1,.23-1.24c1.25.23,2.55.45,3.88.64a.62.62,0,0,1-.09,1.24Zm-9.7-1.86-.15,0c-1.31-.32-2.6-.67-3.84-1a.63.63,0,0,1,.35-1.2c1.22.36,2.49.71,3.79,1a.64.64,0,0,1,.46.76A.63.63,0,0,1,221.64,252Zm-9.43-2.93a.57.57,0,0,1-.22,0c-1.26-.48-2.5-1-3.68-1.54a.63.63,0,0,1-.31-.83.62.62,0,0,1,.83-.31c1.16.53,2.37,1,3.61,1.51a.63.63,0,0,1-.23,1.21Zm-8.9-4.25a.61.61,0,0,1-.31-.09c-1.16-.68-2.29-1.41-3.37-2.16a.62.62,0,0,1,.72-1c1.05.73,2.15,1.44,3.28,2.1a.62.62,0,0,1,.22.86A.61.61,0,0,1,203.31,244.82Z"/><path class="cls-3" d="M276.74,255a.62.62,0,0,1-.62-.6.63.63,0,0,1,.6-.65l1.48,0c.06-.32.18-.79.37-1.51a.64.64,0,0,1,.77-.44.63.63,0,0,1,.44.77,12.37,12.37,0,0,0-.42,1.82.63.63,0,0,1-.6.59l-2,.07Z"/><path class="cls-3" d="M280.62,248.17a.58.58,0,0,1-.19,0,.64.64,0,0,1-.41-.79l1-3.16a.62.62,0,0,1,.79-.4.61.61,0,0,1,.4.78l-1,3.16A.62.62,0,0,1,280.62,248.17Zm2.55-7.9a.62.62,0,0,1-.59-.82l1-3.15a.64.64,0,0,1,.79-.41.62.62,0,0,1,.4.79l-1,3.16A.62.62,0,0,1,283.17,240.27Z"/><path class="cls-3" d="M285.69,232.36a.55.55,0,0,1-.18,0,.63.63,0,0,1-.42-.78c.21-.69.32-1.12.39-1.38a3.59,3.59,0,0,1-1.36-1.27.63.63,0,0,1,1.06-.67,2.23,2.23,0,0,0,1.2,1,.65.65,0,0,1,.43.61,11.15,11.15,0,0,1-.52,2.1A.62.62,0,0,1,285.69,232.36Z"/><path class="cls-3" d="M284,223.07h-.07a.63.63,0,0,1-.55-.69,38.92,38.92,0,0,1,.74-4.19.61.61,0,0,1,.75-.47.63.63,0,0,1,.47.74,39.09,39.09,0,0,0-.72,4.06A.61.61,0,0,1,284,223.07Zm2.39-10.18a.63.63,0,0,1-.6-.81c.39-1.26.84-2.6,1.33-4a.62.62,0,0,1,1.18.41c-.48,1.39-.93,2.72-1.32,4A.62.62,0,0,1,286.34,212.89Zm3.49-9.87a.62.62,0,0,1-.58-.85c.49-1.28,1-2.58,1.54-3.9a.63.63,0,0,1,.82-.35.62.62,0,0,1,.34.81c-.53,1.32-1,2.62-1.54,3.89A.61.61,0,0,1,289.83,203Zm4-9.7a.52.52,0,0,1-.24,0,.62.62,0,0,1-.33-.82c.54-1.27,1.1-2.55,1.66-3.85a.63.63,0,1,1,1.15.51c-.57,1.28-1.12,2.56-1.66,3.83A.64.64,0,0,1,293.79,193.32Zm4.23-9.58a.75.75,0,0,1-.26-.05.62.62,0,0,1-.31-.83c.57-1.27,1.15-2.55,1.74-3.81a.63.63,0,0,1,1.14.52c-.59,1.27-1.17,2.54-1.75,3.8A.6.6,0,0,1,298,183.74Zm4.39-9.51a.58.58,0,0,1-.26,0,.62.62,0,0,1-.3-.84c.6-1.27,1.19-2.53,1.79-3.78a.62.62,0,0,1,.83-.3.62.62,0,0,1,.3.83c-.6,1.25-1.19,2.52-1.79,3.79A.63.63,0,0,1,302.41,174.23Zm4.51-9.45a.63.63,0,0,1-.27-.06.64.64,0,0,1-.3-.84l1.83-3.77a.62.62,0,1,1,1.12.54l-1.82,3.78A.63.63,0,0,1,306.92,164.78Zm4.57-9.42a.68.68,0,0,1-.28-.07.62.62,0,0,1-.29-.83l1.84-3.77a.62.62,0,1,1,1.12.54L312.05,155A.62.62,0,0,1,311.49,155.36Zm4.56-9.43a.54.54,0,0,1-.27-.07.62.62,0,0,1-.29-.83c.65-1.36,1.25-2.62,1.78-3.78a.63.63,0,1,1,1.14.52c-.54,1.17-1.15,2.44-1.8,3.8A.64.64,0,0,1,316.05,145.93Z"/><path class="cls-3" d="M320.32,136.5a.59.59,0,0,1-.23,0,.64.64,0,0,1-.36-.81c.18-.47.31-.82.39-1.09l-1.24-.07a.63.63,0,0,1-.6-.65.64.64,0,0,1,.66-.59l2,.1a.56.56,0,0,1,.44.22.6.6,0,0,1,.15.48,10.66,10.66,0,0,1-.63,2A.62.62,0,0,1,320.32,136.5Z"/><path class="cls-3" d="M312.66,134.06h-.05c-1.46-.13-2.86-.27-4.17-.43a.62.62,0,0,1-.54-.7.61.61,0,0,1,.69-.54c1.29.15,2.68.3,4.13.42a.64.64,0,0,1,.57.68A.63.63,0,0,1,312.66,134.06Zm-10.31-1.4h-.13c-1.46-.3-2.84-.64-4.1-1a.62.62,0,0,1-.42-.77.63.63,0,0,1,.78-.43c1.22.36,2.56.69,4,1a.63.63,0,0,1-.12,1.24Zm-9.84-3.31a.6.6,0,0,1-.29-.08,20.75,20.75,0,0,1-3.55-2.38.62.62,0,0,1-.08-.88.61.61,0,0,1,.88-.08,20.28,20.28,0,0,0,3.34,2.24.62.62,0,0,1,.25.85A.61.61,0,0,1,292.51,129.35Zm-7.58-7a.61.61,0,0,1-.51-.28,32.2,32.2,0,0,1-2.14-3.66.63.63,0,0,1,.26-.84.64.64,0,0,1,.85.27,33,33,0,0,0,2.06,3.53.63.63,0,0,1-.52,1Zm-4.69-9.29a.62.62,0,0,1-.58-.38c-.5-1.23-1-2.52-1.56-3.88a.62.62,0,1,1,1.16-.46c.54,1.35,1.05,2.64,1.56,3.86a.62.62,0,0,1-.34.81A.52.52,0,0,1,280.24,113.1Zm-3.86-9.68a.62.62,0,0,1-.58-.4c-.49-1.23-1-2.52-1.56-3.85a.62.62,0,0,1,.33-.82.63.63,0,0,1,.82.34c.55,1.34,1.08,2.63,1.57,3.87a.62.62,0,0,1-.35.81A.59.59,0,0,1,276.38,103.42Z"/><path class="cls-3" d="M272.3,93.7a.62.62,0,0,1-.57-.37c-.22-.49-.44-1-.67-1.49l-1.62-.12a.63.63,0,0,1-.58-.67.65.65,0,0,1,.67-.58c.65,0,1.32.1,2,.16a.63.63,0,0,1,.51.36c.28.62.56,1.23.82,1.83a.63.63,0,0,1-.31.83A.8.8,0,0,1,272.3,93.7Z"/><path class="cls-3" d="M240.62,108.79a.66.66,0,0,1-.3-.07.64.64,0,0,1-.25-.85c.61-1.13,1.19-2.2,1.77-3.21a.63.63,0,1,1,1.09.62c-.58,1-1.16,2.06-1.76,3.18A.62.62,0,0,1,240.62,108.79Zm4.67-7.85a.66.66,0,0,1-.36-.11.63.63,0,0,1-.15-.87A28.81,28.81,0,0,1,247.09,97a.63.63,0,0,1,.88,0,.61.61,0,0,1,0,.88,30.09,30.09,0,0,0-2.21,2.8A.61.61,0,0,1,245.29,100.94Zm6.44-6.37a.63.63,0,0,1-.32-1.16,18.14,18.14,0,0,1,3.41-1.62.63.63,0,0,1,.79.38.62.62,0,0,1-.38.8,16.81,16.81,0,0,0-3.17,1.51A.68.68,0,0,1,251.73,94.57Zm8.63-2.75a.63.63,0,0,1-.08-1.25c1.15-.13,2.4-.22,3.71-.25a.69.69,0,0,1,.64.62.62.62,0,0,1-.61.63c-1.27,0-2.48.11-3.59.24Z"/><path class="cls-3" d="M237.07,115.43a.66.66,0,0,1-.36-.11c-.57-.4-1.11-.8-1.63-1.2a.62.62,0,0,1-.13-.87.63.63,0,0,1,.88-.12l1,.75.61-1.13a.63.63,0,0,1,1.11.58l-.95,1.77a.62.62,0,0,1-.41.31Z"/><path class="cls-3" d="M215.14,124a2.73,2.73,0,0,1-2-1.12.64.64,0,0,1,.07-.89.62.62,0,0,1,.88.07,1.61,1.61,0,0,0,1.06.69c.48,0,1-.56,1.35-1a.61.61,0,0,1,.87-.12.62.62,0,0,1,.13.87A3.1,3.1,0,0,1,215.14,124Zm-4.67-6.33a.62.62,0,0,1-.55-.33c-.54-1-1.26-2.33-2.08-3.55a.63.63,0,0,1,1-.7A41.85,41.85,0,0,1,211,116.8a.62.62,0,0,1-.26.84A.59.59,0,0,1,210.47,117.71Zm9.28-.54a.57.57,0,0,1-.22,0,.64.64,0,0,1-.36-.81q.45-1.16.93-2.55a.51.51,0,0,1,.09-.16c.3-.42.59-.81.88-1.17a.63.63,0,1,1,1,.78c-.26.32-.52.67-.8,1-.31.91-.62,1.74-.91,2.5A.64.64,0,0,1,219.75,117.17Zm10.65-6.62a.65.65,0,0,1-.31-.08,4.74,4.74,0,0,0-3.54-.8.62.62,0,0,1-.27-1.22,5.93,5.93,0,0,1,4.43.93.63.63,0,0,1-.31,1.17Zm-25.49-1.5a.63.63,0,0,1-.61-.47c-.31-1.28-.61-2.66-.92-4.1a.63.63,0,0,1,1.23-.26c.3,1.43.6,2.79.91,4.06a.64.64,0,0,1-.46.76Zm-2.17-10.22a.65.65,0,0,1-.62-.5c-.27-1.34-.55-2.71-.85-4.09a.62.62,0,1,1,1.22-.26c.3,1.38.59,2.76.86,4.1a.61.61,0,0,1-.49.73Zm-2.29-10.2a.64.64,0,0,1-.61-.47c-.36-1.4-.73-2.74-1.1-4a.62.62,0,1,1,1.19-.36c.38,1.27.76,2.64,1.12,4a.61.61,0,0,1-.45.76A.39.39,0,0,1,200.45,88.63Zm-3.15-9.95a.61.61,0,0,1-.58-.4c-.53-1.33-1.09-2.6-1.67-3.77a.64.64,0,0,1,.28-.84.63.63,0,0,1,.84.28c.59,1.2,1.17,2.51,1.71,3.87a.62.62,0,0,1-.35.81A.68.68,0,0,1,197.3,78.68Zm-4.9-9.19a.62.62,0,0,1-.51-.26,25.19,25.19,0,0,0-2.66-3.07.63.63,0,0,1,.87-.9,26.2,26.2,0,0,1,2.8,3.23.64.64,0,0,1-.14.88A.62.62,0,0,1,192.4,69.49Zm-7.8-6.77a.66.66,0,0,1-.27-.06,17.92,17.92,0,0,0-3.78-1.35.63.63,0,0,1,.28-1.22,19,19,0,0,1,4,1.45.61.61,0,0,1,.28.83A.63.63,0,0,1,184.6,62.72Z"/><path class="cls-3" d="M172.43,61a.63.63,0,0,1-.62-.55.63.63,0,0,1,.54-.7q1-.14,2-.18a.63.63,0,0,1,.66.59.62.62,0,0,1-.59.65q-1,.06-2,.18Z"/><path class="cls-3" d="M220.92,256.13h0a.61.61,0,0,1-.62-.63c0-.69,0-1.36,0-2a.63.63,0,0,1,.63-.61h0a.61.61,0,0,1,.61.63c0,.64,0,1.31,0,2A.64.64,0,0,1,220.92,256.13Z"/><path class="cls-3" d="M221.43,285.16a.62.62,0,0,1-.63-.6l-.11-3.87a.63.63,0,0,1,.61-.65.64.64,0,0,1,.64.61l.11,3.87a.62.62,0,0,1-.6.64Zm-.27-9.67a.63.63,0,0,1-.62-.61c0-1.27-.06-2.57-.09-3.88a.64.64,0,0,1,.62-.64.67.67,0,0,1,.63.62c0,1.3.06,2.6.09,3.87a.63.63,0,0,1-.61.64Zm-.18-9.68a.63.63,0,0,1-.63-.62c0-1.31,0-2.61,0-3.88a.63.63,0,0,1,.62-.63h0a.63.63,0,0,1,.63.62c0,1.27,0,2.57,0,3.87a.63.63,0,0,1-.61.64Z"/><path class="cls-3" d="M223.59,293.56h-.14a9,9,0,0,1-2-.66.64.64,0,0,1-.34-.53l-.07-2a.63.63,0,1,1,1.25,0l.06,1.6a10.8,10.8,0,0,0,1.42.41.62.62,0,0,1,.48.74A.64.64,0,0,1,223.59,293.56Z"/><path class="cls-3" d="M251.56,301.42a.63.63,0,0,1-.62-.57c-.08-.9-.8-1.72-2.13-2.46a.62.62,0,0,1-.24-.85.64.64,0,0,1,.85-.25c1.71.95,2.64,2.11,2.77,3.44a.62.62,0,0,1-.57.68Zm-8.12-4.9h-.14c-1.15-.26-2.43-.51-3.9-.75a.64.64,0,0,1-.52-.72.63.63,0,0,1,.72-.51c1.5.24,2.8.49,4,.76a.64.64,0,0,1,.47.75A.63.63,0,0,1,243.44,296.52Zm-9.91-1.58h-.07l-4-.48a.62.62,0,0,1-.54-.7.61.61,0,0,1,.69-.54l4,.48a.62.62,0,0,1-.08,1.24Z"/><path class="cls-3" d="M247.87,309.44a.63.63,0,0,1-.57-.37c-.26-.57-.55-1.16-.86-1.76a.62.62,0,0,1,.18-.79c.56-.42,1.07-.84,1.51-1.23a.63.63,0,0,1,.83.94c-.36.31-.75.63-1.17,1,.23.46.45.91.65,1.36a.63.63,0,0,1-.31.83A.75.75,0,0,1,247.87,309.44Z"/><path class="cls-3" d="M237,348h-.1a.62.62,0,0,1-.52-.71,20.12,20.12,0,0,1,1.14-4.19.62.62,0,0,1,.81-.35.61.61,0,0,1,.35.8,19,19,0,0,0-1.06,3.93A.63.63,0,0,1,237,348Zm4-9.66a.58.58,0,0,1-.33-.1.62.62,0,0,1-.19-.86c.74-1.17,1.5-2.29,2.36-3.53a.62.62,0,1,1,1,.71c-.84,1.23-1.6,2.34-2.33,3.49A.62.62,0,0,1,241,338.37Zm5.81-8.81a.58.58,0,0,1-.31-.08.64.64,0,0,1-.23-.86,27.49,27.49,0,0,0,1.84-3.69.63.63,0,0,1,1.16.47,29.3,29.3,0,0,1-1.92,3.85A.62.62,0,0,1,246.82,329.56Zm3.27-9.91h0a.63.63,0,0,1-.6-.65q0-.42,0-.84a17.79,17.79,0,0,0-.3-3.22.62.62,0,0,1,.51-.72.61.61,0,0,1,.72.5,19.24,19.24,0,0,1,.32,3.44q0,.45,0,.9A.61.61,0,0,1,250.09,319.65Z"/><path class="cls-3" d="M237.54,356.31a.62.62,0,0,1-.6-.46c-.19-.67-.34-1.35-.46-2a.64.64,0,0,1,.51-.73.63.63,0,0,1,.72.51c.11.62.26,1.26.43,1.9a.62.62,0,0,1-.44.76A.45.45,0,0,1,237.54,356.31Z"/><path class="cls-3" d="M374.48,417.06h-.13c-.27-.05-.62-.24-.73-.9a.62.62,0,0,1,.52-.71.65.65,0,0,1,.39.06q.12-.19.3-.54a.63.63,0,0,1,1.11.58C375.44,416.5,375,417.06,374.48,417.06Z"/><path class="cls-3" d="M377.77,410.25a.62.62,0,0,1-.23,0,.63.63,0,0,1-.36-.81c.45-1.17.93-2.46,1.42-3.81a.62.62,0,1,1,1.17.42c-.49,1.36-1,2.65-1.42,3.84A.61.61,0,0,1,377.77,410.25Zm3.46-9.59a.52.52,0,0,1-.21,0,.62.62,0,0,1-.38-.79L382,396a.62.62,0,1,1,1.18.4c-.44,1.29-.89,2.58-1.33,3.86A.62.62,0,0,1,381.23,400.66Zm3.31-9.64a.52.52,0,0,1-.21,0,.63.63,0,0,1-.39-.79l1.32-3.86a.63.63,0,0,1,1.19.4l-1.32,3.86A.63.63,0,0,1,384.54,391Z"/><path class="cls-3" d="M387.89,381.4a.54.54,0,0,1-.22,0,.63.63,0,0,1-.37-.81c.72-1.9.88-2.16,1.36-2.19a.63.63,0,0,1,.19,0c.63,0,1.24.05,1.85,0a.6.6,0,0,1,.64.6.63.63,0,0,1-.61.65c-.56,0-1.14,0-1.72,0-.1.21-.26.61-.54,1.34A.62.62,0,0,1,387.89,381.4Z"/><path class="cls-3" d="M396.66,378.52a.61.61,0,0,1-.58-.4.63.63,0,0,1,.36-.81,17.5,17.5,0,0,0,3.48-1.76.63.63,0,0,1,.87.18.64.64,0,0,1-.18.87,19.19,19.19,0,0,1-3.73,1.88A.57.57,0,0,1,396.66,378.52Zm8.17-5.81a.61.61,0,0,1-.42-.16.63.63,0,0,1-.05-.88,29.58,29.58,0,0,0,2.43-3.14.63.63,0,0,1,1,.7,32.4,32.4,0,0,1-2.53,3.27A.64.64,0,0,1,404.83,372.71Zm5.5-8.48a.62.62,0,0,1-.56-.9c.56-1.16,1.1-2.39,1.62-3.67a.63.63,0,0,1,.81-.35.62.62,0,0,1,.35.81c-.53,1.31-1.08,2.57-1.66,3.76A.63.63,0,0,1,410.33,364.23Zm3.67-9.45a.58.58,0,0,1-.19,0,.62.62,0,0,1-.41-.78c.39-1.25.76-2.55,1.11-3.88a.63.63,0,0,1,.77-.44.62.62,0,0,1,.44.76c-.36,1.34-.73,2.67-1.13,3.93A.62.62,0,0,1,414,354.78Zm2.52-9.83h-.13a.64.64,0,0,1-.48-.75c.28-1.33.54-2.66.78-4a.62.62,0,1,1,1.23.22c-.24,1.32-.5,2.66-.79,4A.62.62,0,0,1,416.52,345Zm1.78-10h-.09a.62.62,0,0,1-.53-.71c.21-1.38.4-2.72.57-4a.61.61,0,0,1,.7-.53.62.62,0,0,1,.54.7c-.17,1.29-.36,2.64-.57,4A.62.62,0,0,1,418.3,335Zm1.32-10.07h-.07a.63.63,0,0,1-.55-.7h0c-.19-1.2-.35-2.51-.46-3.9a.62.62,0,0,1,.58-.67.63.63,0,0,1,.67.57c.11,1.39.27,2.69.46,3.88a.91.91,0,0,1,0,.17l0,.1A.62.62,0,0,1,419.62,324.88Zm-.33-.66.33,0-.21-.06Zm-.31-9.45h0a.63.63,0,0,1-.62-.63c0-1.3.06-2.68.13-4.08a.63.63,0,0,1,1.25.06c-.07,1.39-.12,2.75-.13,4A.62.62,0,0,1,419,314.77Zm.61-10.12h-.07A.63.63,0,0,1,419,304c.15-1.34.31-2.7.5-4a.63.63,0,0,1,.71-.53.61.61,0,0,1,.53.7c-.19,1.34-.35,2.68-.49,4A.63.63,0,0,1,419.59,304.65Zm1.47-10h-.12a.62.62,0,0,1-.49-.73c.25-1.35.52-2.69.81-4a.64.64,0,0,1,.75-.47.62.62,0,0,1,.47.75c-.28,1.28-.56,2.62-.81,4A.61.61,0,0,1,421.06,294.61Zm2.29-9.88-.17,0a.64.64,0,0,1-.43-.78c.38-1.35.79-2.67,1.2-3.9a.62.62,0,1,1,1.18.39c-.4,1.22-.8,2.52-1.18,3.85A.61.61,0,0,1,423.35,284.73Z"/><path class="cls-3" d="M426.72,275.18a.58.58,0,0,1-.26-.06.62.62,0,0,1-.31-.82c.16-.37.33-.73.5-1.08-.34-.05-.71-.1-1.12-.14a.63.63,0,0,1-.55-.69.62.62,0,0,1,.68-.56,19.61,19.61,0,0,1,2,.31.63.63,0,0,1,.44.34.63.63,0,0,1,0,.55c-.29.57-.57,1.16-.84,1.78A.64.64,0,0,1,426.72,275.18Z"/><path class="cls-3" d="M419.53,272.69h0l-4.06-.13a.63.63,0,0,1-.61-.64.65.65,0,0,1,.64-.61c1.46,0,2.83.08,4.08.13a.61.61,0,0,1,.6.65A.63.63,0,0,1,419.53,272.69Zm-10.17-.25h0c-1.31,0-2.67-.05-4.07-.06a.64.64,0,0,1-.62-.64.65.65,0,0,1,.64-.61c1.4,0,2.76,0,4.07.06a.62.62,0,0,1,.61.63A.62.62,0,0,1,409.36,272.44Zm-10.17-.14h0l-4.06-.05a.63.63,0,0,1-.62-.63.61.61,0,0,1,.63-.62l4.07.05a.62.62,0,0,1,.61.63A.62.62,0,0,1,399.19,272.3ZM389,272.17h0l-4.07-.06a.63.63,0,0,1-.61-.64.61.61,0,0,1,.63-.61l4.06.06a.63.63,0,1,1,0,1.25ZM378.86,272h0l-4.07-.09a.63.63,0,0,1,0-1.25h0l4.06.09a.63.63,0,1,1,0,1.25Zm-10.16-.26h0l-4.06-.14a.61.61,0,0,1-.6-.64.63.63,0,0,1,.62-.61h0l4.05.14a.63.63,0,0,1,0,1.25Zm-10.15-.38h0l-4.07-.2a.62.62,0,1,1,.07-1.24l4.05.19a.63.63,0,0,1,0,1.25Zm-10.14-.54h0l-4.06-.28a.61.61,0,0,1-.58-.67.64.64,0,0,1,.67-.58l4.05.28a.62.62,0,0,1,.58.66A.63.63,0,0,1,348.41,270.81Zm-10.14-.76h0c-1.37-.12-2.72-.24-4.06-.38a.61.61,0,0,1-.55-.68.62.62,0,0,1,.68-.56l4,.38a.63.63,0,0,1,.57.68A.64.64,0,0,1,338.27,270.05ZM328.17,269h-.08c-1.37-.17-2.72-.35-4-.54a.63.63,0,0,1-.53-.71.62.62,0,0,1,.71-.53c1.31.19,2.65.37,4,.54a.62.62,0,0,1-.07,1.24Zm-10.05-1.51H318c-1.39-.25-2.74-.52-4-.79a.63.63,0,0,1,.26-1.23c1.28.28,2.61.54,4,.79a.63.63,0,0,1-.11,1.24Zm-9.9-2.26-.18,0c-1.39-.4-2.71-.83-3.9-1.27a.62.62,0,0,1,.43-1.17c1.17.43,2.45.85,3.82,1.24a.64.64,0,0,1,.43.78A.63.63,0,0,1,308.22,265.21Zm-9.38-3.82a.62.62,0,0,1-.32-.09,15.59,15.59,0,0,1-3.29-2.59.62.62,0,0,1,0-.88.63.63,0,0,1,.89,0,14.32,14.32,0,0,0,3,2.37.63.63,0,0,1-.33,1.16Zm-5.48-7.9a.63.63,0,0,1-.62-.51l-.05-.28c-.2-1.07-.43-2.33-.71-3.7a.62.62,0,0,1,.48-.73.63.63,0,0,1,.74.48c.28,1.38.52,2.65.72,3.72l.05.28a.62.62,0,0,1-.5.73Zm-2.2-9.91a.63.63,0,0,1-.6-.45,38.89,38.89,0,0,0-1.28-3.79.63.63,0,0,1,1.17-.46c.45,1.15.9,2.47,1.31,3.91a.62.62,0,0,1-.43.77A.5.5,0,0,1,291.16,243.58Z"/><path class="cls-3" d="M284.69,235.32a.57.57,0,0,1-.18,0,.63.63,0,0,1-.42-.78l.59-1.91a.63.63,0,0,1,.34-.39.65.65,0,0,1,.53,0,6.58,6.58,0,0,1,1.77,1.32.63.63,0,0,1,0,.89.62.62,0,0,1-.88,0,6.77,6.77,0,0,0-.78-.68l-.35,1.15A.62.62,0,0,1,284.69,235.32Z"/><path class="cls-3" d="M281.33,246.36l-.18,0a.61.61,0,0,1-.41-.78l1.34-4.41a.62.62,0,1,1,1.19.36l-1.34,4.41A.63.63,0,0,1,281.33,246.36Z"/><path class="cls-3" d="M278.74,254.88a.55.55,0,0,1-.18,0,.63.63,0,0,1-.42-.78l.58-1.92a.63.63,0,0,1,1.2.37l-.59,1.91A.61.61,0,0,1,278.74,254.88Z"/><path class="cls-3" d="M352.5,533.68a.62.62,0,0,1-.42-1.09,5.86,5.86,0,0,0,1.15-1.4.62.62,0,0,1,1.07.64,7,7,0,0,1-1.39,1.69A.59.59,0,0,1,352.5,533.68Z"/><path class="cls-3" d="M355.17,527.52h-.09a.62.62,0,0,1-.53-.7c.13-1,.22-2,.31-3l0-.18a.64.64,0,0,1,.67-.57.63.63,0,0,1,.57.68v.18c-.1,1.07-.19,2.08-.32,3.08A.64.64,0,0,1,355.17,527.52Zm.95-8H356a.63.63,0,0,1-.49-.74,16.28,16.28,0,0,1,1-3.22.62.62,0,1,1,1.14.5,14.65,14.65,0,0,0-.91,3A.62.62,0,0,1,356.12,519.47Z"/><path class="cls-3" d="M360,512.5a.63.63,0,0,1-.48-.23.62.62,0,0,1,.08-.88,12.35,12.35,0,0,1,1.28-.93,3.49,3.49,0,0,1,0-1.84.63.63,0,1,1,1.21.32,2.12,2.12,0,0,0,.1,1.52.63.63,0,0,1-.26.81,10.94,10.94,0,0,0-1.55,1.08A.6.6,0,0,1,360,512.5Z"/><path class="cls-3" d="M365.2,504.55a.62.62,0,0,1-.48-.22.63.63,0,0,1,.06-.88c.93-.8,2-1.67,3.31-2.58a.64.64,0,0,1,.88.15.63.63,0,0,1-.15.87c-1.24.88-2.32,1.73-3.21,2.5A.61.61,0,0,1,365.2,504.55Zm8.45-5.94a.63.63,0,0,1-.53-.3.62.62,0,0,1,.21-.86c1.17-.72,2.37-1.43,3.57-2.12a.63.63,0,1,1,.63,1.09c-1.2.68-2.39,1.38-3.55,2.09A.6.6,0,0,1,373.65,498.61Zm9-5.13a.63.63,0,0,1-.3-1.18l2.79-1.51.85-.46a.63.63,0,0,1,.85.26.62.62,0,0,1-.25.84l-.86.46-2.78,1.51A.67.67,0,0,1,382.64,493.48Z"/><path class="cls-3" d="M391.7,488.49a.63.63,0,0,1-.33-1.16q.88-.54,1.32-.87c0-.58,0-1.17,0-1.75a.62.62,0,0,1,.62-.6h0a.63.63,0,0,1,.61.64,17.76,17.76,0,0,0,0,1.93.61.61,0,0,1-.2.51A11.6,11.6,0,0,1,392,488.4.62.62,0,0,1,391.7,488.49Z"/><path class="cls-3" d="M394.44,479.59a.54.54,0,0,1-.22,0,.63.63,0,0,1-.37-.8,23.83,23.83,0,0,1,1.71-3.65.62.62,0,0,1,.85-.24.64.64,0,0,1,.24.86,22.37,22.37,0,0,0-1.63,3.46A.62.62,0,0,1,394.44,479.59Zm5-8.43a.6.6,0,0,1-.38-.13.63.63,0,0,1-.11-.88c.7-.9,1.47-1.84,2.51-3.07a.62.62,0,1,1,.95.81c-1,1.21-1.78,2.15-2.47,3A.63.63,0,0,1,399.43,471.16Zm6.29-7.57a.64.64,0,0,1-.39-.14.62.62,0,0,1-.09-.88c.91-1.13,1.69-2.15,2.37-3.1a.62.62,0,1,1,1,.72c-.69,1-1.48,2-2.41,3.17A.62.62,0,0,1,405.72,463.59Zm5.39-8.21a.58.58,0,0,1-.26-.06.63.63,0,0,1-.31-.83,21.51,21.51,0,0,0,1.29-3.59.62.62,0,0,1,.76-.45.64.64,0,0,1,.45.76,22.63,22.63,0,0,1-1.36,3.81A.62.62,0,0,1,411.11,455.38Z"/><path class="cls-3" d="M413,445.82a.62.62,0,0,1-.62-.59q0-.8-.15-1.59c-.38-.16-.88-.4-1.52-.73a.62.62,0,0,1-.28-.84.63.63,0,0,1,.84-.27c.81.41,1.4.68,1.75.82a.63.63,0,0,1,.4.49,20.31,20.31,0,0,1,.2,2.05.61.61,0,0,1-.59.65Z"/><path class="cls-3" d="M406.22,440.45a.59.59,0,0,1-.29-.07l-3.18-1.71a.64.64,0,0,1-.26-.85.63.63,0,0,1,.85-.25l3.18,1.7a.63.63,0,0,1,.25.85A.61.61,0,0,1,406.22,440.45Zm-8-4.23a.59.59,0,0,1-.29-.07c-1.06-.55-2.14-1.09-3.21-1.62a.63.63,0,0,1-.28-.84.62.62,0,0,1,.84-.28c1.07.53,2.15,1.08,3.22,1.63a.62.62,0,0,1-.28,1.18Zm-8.11-4a.57.57,0,0,1-.25-.06c-1.19-.53-2.3-1-3.3-1.39a.62.62,0,0,1,.46-1.16c1,.4,2.14.87,3.35,1.41a.63.63,0,0,1-.26,1.2Z"/><path class="cls-3" d="M379.7,429.58a.62.62,0,0,1-.39-.14.61.61,0,0,1-.21-.68,4.15,4.15,0,0,0,.13-1.72.62.62,0,1,1,1.24-.14,5.21,5.21,0,0,1,0,1.18,6.5,6.5,0,0,1,1.23,0,.62.62,0,0,1,.55.7.61.61,0,0,1-.69.54,2.56,2.56,0,0,0-1.56.14A.62.62,0,0,1,379.7,429.58Z"/><path class="cls-3" d="M378.66,423.91a.64.64,0,0,1-.57-.35c-.33-.69-.72-1.41-1.21-2.22a.62.62,0,0,1,.21-.86.63.63,0,0,1,.86.21c.5.84.92,1.6,1.27,2.32a.63.63,0,0,1-.29.84A.66.66,0,0,1,378.66,423.91Z"/><path class="cls-3" d="M375.31,418.37a.63.63,0,0,1-.52-.28c-.34-.51-.64-1-.9-1.41h-1.64a.63.63,0,1,1,0-1.25h2a.63.63,0,0,1,.54.31c.28.48.65,1,1.05,1.66a.62.62,0,0,1-.17.86A.66.66,0,0,1,375.31,418.37Z"/><path class="cls-3" d="M368.87,416.68h-2.26a.63.63,0,1,1,0-1.25h2.26a.63.63,0,0,1,0,1.25Z"/><path class="cls-3" d="M363.21,416.68h-2a.64.64,0,0,1-.59-.4,6.14,6.14,0,0,1-.23-2.22.63.63,0,0,1,1.25,0,7.52,7.52,0,0,0,.05,1.34h1.51a.63.63,0,1,1,0,1.25Z"/><path class="cls-3" d="M361.34,410.49h-.06a.64.64,0,0,1-.57-.68c.07-.86.11-1.5.11-2,0-.24,0-.47,0-.67a.63.63,0,0,1,.57-.68.64.64,0,0,1,.68.57q0,.36,0,.78c0,.56,0,1.24-.11,2.13A.63.63,0,0,1,361.34,410.49Z"/><path class="cls-3" d="M357.46,409.42h-.11c-.65-.12-1.3-.2-1.93-.26a.62.62,0,0,1-.57-.67.65.65,0,0,1,.68-.57c.54,0,1.1.11,1.65.2.38-.49.73-.93,1.05-1.3a.62.62,0,0,1,.94.82c-.36.42-.77.93-1.21,1.53A.64.64,0,0,1,357.46,409.42Z"/><path class="cls-3" d="M339.33,411.41a10.25,10.25,0,0,1-2.78-.37.62.62,0,0,1,.33-1.2,10,10,0,0,0,3.55.27.62.62,0,1,1,.12,1.24C340.14,411.39,339.73,411.41,339.33,411.41Zm6.73-1.26a.64.64,0,0,1-.61-.47.63.63,0,0,1,.46-.76c1.08-.28,2.37-.59,3.77-.81a.64.64,0,0,1,.72.53.62.62,0,0,1-.53.71c-1.34.21-2.6.51-3.66.78Z"/><path class="cls-3" d="M331.8,408.26a.63.63,0,0,1-.41-.15c-.41-.35-.82-.74-1.24-1.15a6.63,6.63,0,0,1-1.8.18.63.63,0,0,1,0-1.25h0a5.34,5.34,0,0,0,1.77-.23.65.65,0,0,1,.63.16c.48.49,1,.94,1.42,1.34a.62.62,0,0,1-.4,1.1Z"/><path class="cls-3" d="M325.11,406.42a.62.62,0,0,1-.23,0,16,16,0,0,1-2.09-1,.63.63,0,1,1,.63-1.08,14.06,14.06,0,0,0,1.92.93.62.62,0,0,1,.35.81A.63.63,0,0,1,325.11,406.42Z"/><path class="cls-3" d="M318.27,404a.67.67,0,0,1-.34-.1.64.64,0,0,1-.19-.87,3.8,3.8,0,0,0,.56-1.62.61.61,0,0,1,.43-.51.6.6,0,0,1,.65.17,16.1,16.1,0,0,0,1.39,1.32.63.63,0,0,1-.81,1c-.24-.21-.47-.41-.69-.62a4.25,4.25,0,0,1-.48,1A.61.61,0,0,1,318.27,404Z"/><path class="cls-3" d="M308.41,407.92a.67.67,0,0,1-.28-.06.63.63,0,0,1-.28-.84,12.13,12.13,0,0,0,.72-1.77.64.64,0,0,1,.61-.43l1.15,0,.85,0a.63.63,0,0,1,.61.65.64.64,0,0,1-.65.6l-.86,0-.67,0a13.52,13.52,0,0,1-.64,1.5A.62.62,0,0,1,308.41,407.92Z"/><path class="cls-3" d="M292.11,415.75a.63.63,0,0,1-.62-.55.64.64,0,0,1,.55-.7c1.5-.17,2.65-.33,3.71-.51a.64.64,0,0,1,.72.51.62.62,0,0,1-.51.72c-1.09.19-2.25.35-3.77.53Zm9.23-1.91a.64.64,0,0,1-.59-.41.62.62,0,0,1,.37-.8,15.39,15.39,0,0,0,3.22-1.64.62.62,0,0,1,.87.16.63.63,0,0,1-.16.87,16.53,16.53,0,0,1-3.49,1.78A.85.85,0,0,1,301.34,413.84Z"/><path class="cls-3" d="M284.5,416.68a.62.62,0,0,1-.1-1.24c.65-.11,1.32-.21,2-.29a.63.63,0,1,1,.16,1.24c-.67.08-1.32.18-2,.28Z"/><path class="cls-3" d="M431.42,621.59h-.06a5.66,5.66,0,0,1-2.16-.62.62.62,0,0,1,.61-1.09,4.46,4.46,0,0,0,1.68.47.62.62,0,0,1-.07,1.24Z"/><path class="cls-3" d="M428.2,615.31l-.15,0a.63.63,0,0,1-.46-.76,28.66,28.66,0,0,1,1.43-4.09.63.63,0,0,1,.81-.33.63.63,0,0,1,.34.82,26.6,26.6,0,0,0-1.37,3.91A.62.62,0,0,1,428.2,615.31Z"/><path class="cls-3" d="M432.23,605.54a.7.7,0,0,1-.25,0,.63.63,0,0,1-.33-.82,10.15,10.15,0,0,0,.43-1.15l-.35-.06-1-.19a.62.62,0,0,1,.21-1.23l1.05.19.9.16a.28.28,0,0,1,.13,0,.6.6,0,0,1,.4.47,4.49,4.49,0,0,1-.58,2.27A.63.63,0,0,1,432.23,605.54Z"/><path class="cls-3" d="M426,602.45h-.1l-3.08-.54a.66.66,0,0,1-.55-.73.59.59,0,0,1,.68-.52l3.16.56a.62.62,0,0,1,.51.72A.63.63,0,0,1,426,602.45Z"/><path class="cls-3" d="M418.13,601.06H418l-2-.35a.61.61,0,0,1-.44-.32c-.3-.56-.64-1.12-1-1.68a.62.62,0,0,1,1.05-.67c.32.49.62,1,.9,1.49l1.67.3a.62.62,0,0,1,.51.72A.64.64,0,0,1,418.13,601.06Z"/><path class="cls-3" d="M411.42,594.45a.62.62,0,0,1-.44-.18,27.29,27.29,0,0,0-2.93-2.47.63.63,0,0,1-.13-.87.61.61,0,0,1,.87-.14,28.81,28.81,0,0,1,3.06,2.59.62.62,0,0,1,0,.88A.63.63,0,0,1,411.42,594.45Zm-8-5.58a.71.71,0,0,1-.28-.06c-1.11-.55-2.3-1.08-3.54-1.56a.62.62,0,0,1-.35-.81.63.63,0,0,1,.81-.36c1.27.5,2.5,1,3.64,1.61a.63.63,0,0,1,.28.84A.62.62,0,0,1,403.4,588.87Zm-9.19-3.39-.16,0c-1.21-.32-2.48-.62-3.78-.89a.63.63,0,0,1-.49-.74.62.62,0,0,1,.74-.48c1.33.27,2.62.57,3.85.9a.62.62,0,0,1-.16,1.23Zm-9.62-1.87h-.08c-1.24-.16-2.55-.31-3.88-.44a.62.62,0,0,1,.12-1.24c1.35.13,2.67.28,3.92.44a.64.64,0,0,1,.54.71A.63.63,0,0,1,384.59,583.61Zm-9.77-.88h0c-1.31-.07-2.61-.12-3.91-.15a.63.63,0,0,1-.6-.65.62.62,0,0,1,.62-.6h0c1.3,0,2.62.09,3.94.15a.63.63,0,0,1,.59.66A.62.62,0,0,1,374.82,582.73Zm-13.74-.23a.63.63,0,0,1-.62-.63.61.61,0,0,1,.62-.62H365a.63.63,0,1,1,0,1.25h-3.93Z"/><path class="cls-3" d="M353.2,582.57a.63.63,0,0,1-.63-.62.63.63,0,0,1,.62-.63h2a.61.61,0,0,1,.62.61.63.63,0,0,1-.62.64Z"/><path class="cls-3" d="M392.2,121.6a.6.6,0,0,1-.29-.08.63.63,0,0,1-.26-.85l1-1.76a.62.62,0,0,1,1.1.59l-.95,1.77A.64.64,0,0,1,392.2,121.6Z"/><path class="cls-3" d="M394.17,118a.66.66,0,0,1-.3-.07.64.64,0,0,1-.25-.85l1.8-3.34a.64.64,0,0,1,.85-.26.62.62,0,0,1,.25.85l-1.8,3.34A.62.62,0,0,1,394.17,118Z"/><path class="cls-3" d="M398.68,109.61a.66.66,0,0,1-.3-.07.62.62,0,0,1-.25-.85c.41-.76.68-1.27.89-1.6a.58.58,0,0,1,.05-.14h0l.17-.23h0l0,0a.39.39,0,0,1,.22-.15l1.39-1a.62.62,0,1,1,.72,1l-1.51,1.07-.88,1.63A.63.63,0,0,1,398.68,109.61Z"/><path class="cls-3" d="M406,103.34a.63.63,0,0,1-.51-.27.62.62,0,0,1,.15-.87l3.17-2.25a.62.62,0,1,1,.72,1l-3.17,2.25A.62.62,0,0,1,406,103.34ZM414,97.72a.61.61,0,0,1-.51-.27.63.63,0,0,1,.15-.87l.75-.53a16.84,16.84,0,0,1,1.38-2.36.62.62,0,0,1,.87-.17.63.63,0,0,1,.17.87,15.56,15.56,0,0,0-1.35,2.33.75.75,0,0,1-.21.26l-.89.62A.6.6,0,0,1,414,97.72Zm5.94-7.6a.67.67,0,0,1-.42-.16.63.63,0,0,1,0-.89c.84-.93,1.76-1.88,2.71-2.83a.63.63,0,0,1,.89,0,.62.62,0,0,1,0,.88c-.94.93-1.84,1.86-2.67,2.78A.6.6,0,0,1,419.89,90.12Zm7-6.75a.61.61,0,0,1-.48-.22.63.63,0,0,1,.07-.88c1-.88,2.08-1.7,3.08-2.44a.62.62,0,0,1,.74,1c-1,.73-2,1.53-3,2.4A.67.67,0,0,1,426.89,83.37Z"/><path class="cls-3" d="M434.84,77.86a.62.62,0,0,1-.56-.35.61.61,0,0,1,.28-.83,12.67,12.67,0,0,1,1.95-.79.63.63,0,0,1,.36,1.2,11.17,11.17,0,0,0-1.76.71A.66.66,0,0,1,434.84,77.86Z"/><path class="cls-3" d="M391.69,122.55a.58.58,0,0,1-.38-.13.62.62,0,0,1-.11-.88,5.21,5.21,0,0,0,.91-1.51.64.64,0,0,1,.78-.42.63.63,0,0,1,.42.78,6.07,6.07,0,0,1-1.13,1.92A.62.62,0,0,1,391.69,122.55Z"/><path class="cls-3" d="M388.17,117.64a.62.62,0,0,1-.54-.32l-2.06-3.66a.62.62,0,0,1,.23-.85.63.63,0,0,1,.86.24l2.06,3.66a.62.62,0,0,1-.24.85A.68.68,0,0,1,388.17,117.64ZM383,108.5a.63.63,0,0,1-.55-.32l-2.06-3.65a.63.63,0,0,1,.24-.85.62.62,0,0,1,.85.24l2.06,3.65a.62.62,0,0,1-.24.85A.64.64,0,0,1,383,108.5Zm-5.15-9.13a.6.6,0,0,1-.54-.32l-2.06-3.65a.62.62,0,0,1,1.09-.61l2.06,3.65a.62.62,0,0,1-.24.85A.58.58,0,0,1,377.88,99.37Zm-5.14-9.13a.61.61,0,0,1-.54-.31l-2.06-3.66a.62.62,0,0,1,1.09-.61l2,3.65a.62.62,0,0,1-.23.85A.6.6,0,0,1,372.74,90.24Zm-5.14-9.13a.63.63,0,0,1-.55-.32c-1-1.82-1.73-3.07-1.95-3.47a.62.62,0,0,1,.69-1,1.1,1.1,0,0,1,.21.14c.07.07.07.07,2.14,3.75a.62.62,0,0,1-.24.85A.54.54,0,0,1,367.6,81.11Zm-7.72-6.38a.67.67,0,0,1-.3-.08c-1.31-.7-2.54-1.41-3.65-2.11a.63.63,0,0,1,.67-1.06c1.08.68,2.28,1.38,3.57,2.07a.63.63,0,0,1-.29,1.18Zm-8.59-5.86a.6.6,0,0,1-.43-.18,16.5,16.5,0,0,1-2.77-3.31.63.63,0,0,1,.2-.86.64.64,0,0,1,.87.2,15.21,15.21,0,0,0,2.56,3.07.63.63,0,0,1-.43,1.08Zm-4.49-9.11a.63.63,0,0,1-.62-.57l0-.48a11.74,11.74,0,0,0-.67-3.42.64.64,0,0,1,.33-.82.63.63,0,0,1,.82.34,12.4,12.4,0,0,1,.76,3.78l.05.48a.63.63,0,0,1-.56.68Z"/><path class="cls-3" d="M341.58,51.51a.67.67,0,0,1-.28-.06c-.55-.28-1.14-.55-1.78-.81a.62.62,0,0,1-.35-.81.64.64,0,0,1,.82-.35c.67.28,1.3.56,1.87.85a.63.63,0,0,1,.28.84A.62.62,0,0,1,341.58,51.51Z"/><path class="cls-3" d="M453.37,195.76a.66.66,0,0,1-.41-.16.62.62,0,0,1,0-.88c.4-.47.88-1,1.42-1.48a.62.62,0,0,1,.88,0,.63.63,0,0,1,0,.88c-.52.5-1,1-1.36,1.4A.62.62,0,0,1,453.37,195.76Z"/><path class="cls-3" d="M459.36,190.43a.62.62,0,0,1-.49-.24.63.63,0,0,1,.11-.88c1-.77,2.1-1.58,3.26-2.4a.62.62,0,0,1,.87.15.64.64,0,0,1-.15.88c-1.14.8-2.22,1.6-3.22,2.36A.58.58,0,0,1,459.36,190.43Zm8.26-5.73a.62.62,0,0,1-.34-1.15c1.17-.74,2.33-1.45,3.45-2.11a.61.61,0,0,1,.85.22.62.62,0,0,1-.22.86c-1.11.65-2.25,1.35-3.41,2.08A.58.58,0,0,1,467.62,184.7Zm8-5.74a.67.67,0,0,1-.3-.08A.62.62,0,0,1,475,178c.58-1.06,1.24-2.25,2-3.52a.62.62,0,0,1,.85-.23.61.61,0,0,1,.23.85c-.72,1.26-1.38,2.44-2,3.5A.62.62,0,0,1,475.58,179Zm5-8.71a.66.66,0,0,1-.33-.09.63.63,0,0,1-.21-.86c.69-1.14,1.4-2.3,2.11-3.44a.62.62,0,1,1,1.06.66c-.71,1.14-1.41,2.29-2.1,3.42A.62.62,0,0,1,480.61,170.25Zm5.38-8.49a.66.66,0,0,1-.35-.11.64.64,0,0,1-.17-.87c.84-1.23,1.62-2.35,2.33-3.31a.63.63,0,0,1,1,.74c-.7.95-1.48,2-2.3,3.27A.63.63,0,0,1,486,161.76Zm4.67-8.53h-.05a.62.62,0,0,1-.58-.66,38.42,38.42,0,0,1,.52-4,.62.62,0,1,1,1.23.21c-.24,1.37-.41,2.69-.5,3.92A.62.62,0,0,1,490.66,153.23Zm1.9-9.84a.47.47,0,0,1-.17,0,.61.61,0,0,1-.43-.77c.36-1.22.77-2.52,1.23-3.86a.63.63,0,0,1,.8-.38.61.61,0,0,1,.38.79c-.45,1.32-.86,2.6-1.21,3.8A.63.63,0,0,1,492.56,143.39Zm3.34-9.47a.69.69,0,0,1-.24,0,.61.61,0,0,1-.34-.81c.49-1.25,1-2.49,1.52-3.73a.63.63,0,0,1,1.16.48c-.52,1.23-1,2.47-1.52,3.71A.63.63,0,0,1,495.9,133.92Zm3.88-9.27a.69.69,0,0,1-.24-.05.63.63,0,0,1-.33-.82c.54-1.25,1.06-2.48,1.57-3.7a.63.63,0,0,1,1.15.49c-.51,1.21-1,2.45-1.57,3.7A.62.62,0,0,1,499.78,124.65Z"/><path class="cls-3" d="M503.57,115.38a.54.54,0,0,1-.22,0,.63.63,0,0,1-.37-.8c.23-.63.46-1.26.66-1.87a.64.64,0,0,1,.8-.39.63.63,0,0,1,.39.79c-.21.63-.44,1.26-.68,1.9A.62.62,0,0,1,503.57,115.38Z"/><path class="cls-3" d="M695.31,254.46h-.06l-2-.18a.62.62,0,0,1-.57-.67.63.63,0,0,1,.67-.58l2,.19a.63.63,0,0,1,.55.69A.62.62,0,0,1,695.31,254.46Z"/><path class="cls-3" d="M665.45,265.19a.63.63,0,0,1-.62-.55.62.62,0,0,1,.54-.7,22.7,22.7,0,0,0,4-.82.63.63,0,0,1,.37,1.2,25.16,25.16,0,0,1-4.21.86ZM660,262.42a.6.6,0,0,1-.31-.08c-1.3-.76-2.54-1.41-3.67-1.93a.62.62,0,1,1,.52-1.13,42.5,42.5,0,0,1,3.78,2,.62.62,0,0,1-.32,1.16Zm14.9-1.26a.6.6,0,0,1-.43-.17.63.63,0,0,1,0-.89c.57-.59,1.07-1.21,1.56-1.82.37-.46.73-.92,1.13-1.37a.62.62,0,0,1,.93.83c-.38.43-.73.87-1.08,1.32-.51.63-1,1.28-1.64,1.91A.6.6,0,0,1,674.89,261.16Zm-28.5-.92a.62.62,0,0,1-.43-1.08,5.94,5.94,0,0,1,4.22-1.58.65.65,0,0,1,.65.62.6.6,0,0,1-.6.63h-.05a4.64,4.64,0,0,0-3.36,1.25A.64.64,0,0,1,646.39,260.24Zm36.48-5.51a.62.62,0,0,1-.6-.46.63.63,0,0,1,.44-.77,21.12,21.12,0,0,1,4.27-.62.62.62,0,0,1,.66.59.63.63,0,0,1-.59.66,19.38,19.38,0,0,0-4,.58Z"/><path class="cls-3" d="M641.51,261.58a.64.64,0,0,1-.51-.26,17.54,17.54,0,0,1-1.13-1.73.62.62,0,0,1,1-.67c.44.6.84,1.12,1.2,1.53a.62.62,0,0,1-.06.88l-.12.08,0,0A.58.58,0,0,1,641.51,261.58Z"/><path class="cls-3" d="M650,269.16a.62.62,0,0,1-.32-.09,33.13,33.13,0,0,1-3.82-2.71.63.63,0,0,1,.79-1,31.92,31.92,0,0,0,3.68,2.61.64.64,0,0,1,.21.86A.65.65,0,0,1,650,269.16Z"/><path class="cls-3" d="M659.47,274a.62.62,0,0,1-.48-.22,17.48,17.48,0,0,1-1.09-1.42,17.84,17.84,0,0,1-1.75-.38.63.63,0,1,1,.33-1.21,16.15,16.15,0,0,0,1.87.4.61.61,0,0,1,.44.27A16.72,16.72,0,0,0,660,273a.62.62,0,0,1-.08.88A.6.6,0,0,1,659.47,274Z"/><path class="cls-3" d="M667.93,281.34a.62.62,0,0,1-.36-.12c-1.27-.89-2.49-1.81-3.62-2.73a.63.63,0,1,1,.79-1c1.11.91,2.3,1.81,3.55,2.68a.63.63,0,0,1-.36,1.14Z"/><path class="cls-3" d="M675.45,285.78a.57.57,0,0,1-.25-.06q-.87-.39-1.83-.9a.64.64,0,0,1-.26-.85.63.63,0,0,1,.85-.25c.62.33,1.21.62,1.75.86a.63.63,0,0,1,.32.83A.65.65,0,0,1,675.45,285.78Z"/><path class="cls-3" d="M581.45,480.56h-.08a11.35,11.35,0,0,1-2.07-.46.63.63,0,0,1-.39-.79.62.62,0,0,1,.79-.4,9.58,9.58,0,0,0,1.83.41.63.63,0,0,1-.08,1.25Z"/><path class="cls-3" d="M574.08,475.42a.62.62,0,0,1-.54-.32,27.27,27.27,0,0,1-1.61-3.51l-.42-1a.62.62,0,0,1,.32-.82.63.63,0,0,1,.83.33l.43,1a25.79,25.79,0,0,0,1.53,3.36.62.62,0,0,1-.23.85A.59.59,0,0,1,574.08,475.42Z"/><path class="cls-3" d="M566,473.54a.58.58,0,0,1-.33-.1.63.63,0,0,1-.19-.87q.62-.94,1.14-1.68a.61.61,0,0,1,.87-.14.62.62,0,0,1,.14.87c-.34.47-.7,1-1.1,1.63A.62.62,0,0,1,566,473.54Z"/><path class="cls-3" d="M285.6,232.34h0l-.19,0a.62.62,0,0,1-.41-.78l.58-1.91h0c.13-.35.21-.37.44-.43a.61.61,0,0,1,.6.17.64.64,0,0,1,.15.62l-.14.46c0,.1-.07.21-.1.33l-.34,1.12A.62.62,0,0,1,285.6,232.34Z"/><path class="cls-3" d="M413.15,444.23l-.15,0a.64.64,0,0,1-.47-.75l.61.14-.61-.14v0a0,0,0,0,1,0,0h0a.64.64,0,0,1,.74-.5.61.61,0,0,1,.49.72h0a.62.62,0,0,1,0,.1h0A.62.62,0,0,1,413.15,444.23Z"/><path class="cls-3" d="M374.73,417.64c-.13,0-.24-.08-.42-.33h0l-.33-.53-.25-.4h0a.62.62,0,0,1,1.06-.66l.58.93a.62.62,0,0,1,.06.56.67.67,0,0,1-.41.38A1,1,0,0,1,374.73,417.64Z"/><path class="cls-3" d="M596,268.72a.68.68,0,0,1-.67-.64c0-.45.37-.61.74-.77a.63.63,0,0,1,.73,1A1,1,0,0,1,596,268.72Z"/><path class="cls-3" d="M500.43,332.75a1.09,1.09,0,0,1-.3-.07.62.62,0,0,1-.34-.81s0,0,0-.05a.77.77,0,0,1,.67-.51.69.69,0,0,1,.64.68A.7.7,0,0,1,500.43,332.75Z"/><path class="cls-3" d="M412.32,448.12h-.13a.63.63,0,0,1-.5-.62s0-.08,0-.12l.05-.21a.63.63,0,0,1,.74-.49.62.62,0,0,1,.48.74l0,.21A.62.62,0,0,1,412.32,448.12Z"/><path class="cls-3" d="M413.17,444.13l-.13,0a.61.61,0,0,1-.48-.74l0-.12a.63.63,0,0,1,.75-.46.61.61,0,0,1,.47.74l0,.1A.62.62,0,0,1,413.17,444.13Zm.63-.59h0Z"/><path class="cls-3" d="M484.1,367.37a.62.62,0,0,1-.61-.48L483,365a.64.64,0,0,1,.12-.55.62.62,0,0,1,.51-.22,10.68,10.68,0,0,0,1.89-.11.64.64,0,0,1,.7.54.62.62,0,0,1-.53.7q-.69.09-1.29.12l.27,1.17a.62.62,0,0,1-.46.76Z"/><path class="cls-3" d="M479.78,402.81a.68.68,0,0,1-.31-.08.61.61,0,0,1-.23-.85,4.33,4.33,0,0,0,.56-2.19,7.14,7.14,0,0,0-.21-1.63.62.62,0,0,1,1.21-.29,8,8,0,0,1,.25,1.92,5.53,5.53,0,0,1-.73,2.81A.63.63,0,0,1,479.78,402.81Zm-2.11-10.37a.62.62,0,0,1-.56-.35c-.57-1.18-1.22-2.57-1.81-4.07a.62.62,0,0,1,.35-.81.63.63,0,0,1,.81.35c.58,1.46,1.22,2.83,1.77,4a.62.62,0,0,1-.29.83A.66.66,0,0,1,477.67,392.44Zm.71-10a.58.58,0,0,1-.33-.1.62.62,0,0,1-.19-.86,10.75,10.75,0,0,1,3.14-3.41.62.62,0,1,1,.66,1.06,9.58,9.58,0,0,0-2.75,3A.62.62,0,0,1,478.38,382.48Zm8.15-4.37a.62.62,0,0,1-.62-.54c-.12-.87-.44-2.33-.89-4.25a.63.63,0,1,1,1.22-.28c.54,2.34.8,3.57.91,4.36a.62.62,0,0,1-.53.71Z"/><path class="cls-3" d="M474.7,407.82l-.17,0a7.49,7.49,0,0,0-1.83-.25.63.63,0,0,1-.59-.52.62.62,0,0,1,.39-.69c.66-.25,1.26-.5,1.82-.75a.62.62,0,0,1,.82.31.63.63,0,0,1-.17.74.61.61,0,0,1,.33.73A.62.62,0,0,1,474.7,407.82Z"/><path class="cls-3" d="M475.2,422.45a.54.54,0,0,1-.22,0,.62.62,0,0,1-.37-.8c.37-1,.76-2,1.12-3.08a.62.62,0,0,1,1.18.4c-.36,1.05-.75,2.1-1.13,3.12A.61.61,0,0,1,475.2,422.45Zm2.42-7.86h-.11a.63.63,0,0,1-.51-.72,12.39,12.39,0,0,0,.2-2.05,6.67,6.67,0,0,0-.07-1,.62.62,0,0,1,.53-.71.62.62,0,0,1,.71.52,9.37,9.37,0,0,1,.08,1.22,13.67,13.67,0,0,1-.21,2.26A.63.63,0,0,1,477.62,414.59Z"/><path class="cls-3" d="M473.22,429.09a.73.73,0,0,1-.29-.07l-1.77-.9a.63.63,0,0,1-.29-.84.62.62,0,0,1,.83-.28l1,.49c.06-.34.15-.73.27-1.16a.63.63,0,0,1,1.21.34,7.46,7.46,0,0,0-.34,1.81.63.63,0,0,1-.31.52A.56.56,0,0,1,473.22,429.09Z"/><path class="cls-3" d="M435.21,429.49a.63.63,0,0,1,0-1.25,36.26,36.26,0,0,0,3.67-.33.63.63,0,1,1,.18,1.24,36.25,36.25,0,0,1-3.8.34Zm9.22-1.57a.64.64,0,0,1-.6-.44.63.63,0,0,1,.42-.78c1.23-.38,2.37-.78,3.53-1.2a.63.63,0,0,1,.42,1.18c-1.17.42-2.33.83-3.59,1.21A.57.57,0,0,1,444.43,427.92ZM466.24,426l-.2,0a29.74,29.74,0,0,0-3.54-1,.62.62,0,0,1,.27-1.22,29.72,29.72,0,0,1,3.68,1.06.62.62,0,0,1,.38.8A.63.63,0,0,1,466.24,426Zm-12.9-1a.62.62,0,0,1-.6-.48.63.63,0,0,1,.46-.76,21,21,0,0,1,3.82-.57.64.64,0,0,1,.65.59.62.62,0,0,1-.59.66,19.52,19.52,0,0,0-3.59.54Z"/><path class="cls-3" d="M426.4,430.71a.62.62,0,0,1-.38-.13.64.64,0,0,1-.12-.88c.44-.57.83-1.11,1.15-1.59a.62.62,0,0,1,.6-.27c.68.09,1.33.16,2,.22a.63.63,0,0,1,.56.68.64.64,0,0,1-.68.57l-1.63-.18c-.29.41-.61.86-1,1.33A.63.63,0,0,1,426.4,430.71Z"/><path class="cls-3" d="M419.36,438.64a.6.6,0,0,1-.45-.19.62.62,0,0,1,0-.88c1-.94,1.95-2,2.93-3a.62.62,0,0,1,.88,0,.63.63,0,0,1,0,.88c-1,1.09-2,2.13-3,3.08A.61.61,0,0,1,419.36,438.64Z"/><path class="cls-3" d="M412.53,445.81h-.09a.63.63,0,0,1-.53-.71c.1-.64.19-1.3.28-2a.61.61,0,0,1,.34-.47,16.32,16.32,0,0,0,1.63-1,.62.62,0,1,1,.71,1,16.86,16.86,0,0,1-1.48.94c-.08.57-.16,1.13-.24,1.67A.63.63,0,0,1,412.53,445.81Z"/><path class="cls-3" d="M412.72,455.05c-1.12,0-1.69-.92-1.69-2.74,0-.23,0-.48,0-.75a.63.63,0,1,1,1.25.07c0,.24,0,.47,0,.68,0,.68.07,1.49.44,1.49a1.68,1.68,0,0,0,.65-.19.63.63,0,0,1,.52,1.14A2.85,2.85,0,0,1,412.72,455.05Z"/><path class="cls-3" d="M418.69,450.8a.62.62,0,0,1-.43-1.07c.45-.43.93-.89,1.43-1.39a.61.61,0,0,1,.53-.18l2,.27a.63.63,0,1,1-.17,1.24l-1.66-.24c-.43.43-.84.83-1.24,1.2A.63.63,0,0,1,418.69,450.8Z"/><path class="cls-3" d="M433.75,451.25h-.09l-4.65-.63a.64.64,0,0,1-.54-.71.62.62,0,0,1,.71-.53l4.65.63a.62.62,0,0,1-.08,1.24Z"/><path class="cls-3" d="M442.64,454.47h0a.63.63,0,0,1-.6-.65l0-1.43-1.42-.2a.62.62,0,1,1,.17-1.23l2,.26a.63.63,0,0,1,.54.64l-.06,2A.64.64,0,0,1,442.64,454.47Z"/><path class="cls-3" d="M484.22,480.14a.65.65,0,0,1-.41-.15,12.69,12.69,0,0,1-2.77-3.5.63.63,0,0,1,1.1-.6,11,11,0,0,0,2.49,3.15.63.63,0,0,1,.07.88A.62.62,0,0,1,484.22,480.14Zm-4.69-9.35a.63.63,0,0,1-.61-.51,33.19,33.19,0,0,1-.53-4.31.63.63,0,0,1,.59-.66.65.65,0,0,1,.66.59,32.69,32.69,0,0,0,.51,4.15.63.63,0,0,1-.5.73Zm-.43-10.62h-.05a.63.63,0,0,1-.57-.68c0-.16,0-.32,0-.48a9.3,9.3,0,0,0-2.29-2,.62.62,0,1,1,.66-1.06,10.73,10.73,0,0,1,2.77,2.49.61.61,0,0,1,.13.45c0,.24-.05.48-.07.72A.62.62,0,0,1,479.1,460.17Zm-33.86-1.28a.63.63,0,0,1-.11-1.24,22.15,22.15,0,0,0,3.55-1.13.57.57,0,0,1,.26,0l.41,0a.63.63,0,0,1,0,1.25h0l-.3,0a21.85,21.85,0,0,1-3.64,1.15Zm10.45-1.67a.62.62,0,0,1-.62-.52.64.64,0,0,1,.52-.72c1.2-.19,2.43-.42,3.67-.64l.52-.1a.62.62,0,0,1,.72.51.62.62,0,0,1-.5.72l-.52.1c-1.24.23-2.48.45-3.69.65Zm10.52-1.7a.62.62,0,0,1-.62-.56.61.61,0,0,1,.56-.68,27.29,27.29,0,0,1,4.35-.14.62.62,0,0,1,.59.66.63.63,0,0,1-.66.59,26.08,26.08,0,0,0-4.16.13Z"/><path class="cls-3" d="M491.12,484.36a.66.66,0,0,1-.27-.06.63.63,0,0,1-.29-.84c.14-.29.29-.57.43-.85l-1-.06a.63.63,0,0,1-.56-.68.63.63,0,0,1,.68-.57,13.34,13.34,0,0,0,1.91.05.57.57,0,0,1,.57.3.6.6,0,0,1,0,.63c-.32.56-.63,1.13-.91,1.73A.63.63,0,0,1,491.12,484.36Z"/><path class="cls-3" d="M491.44,505.47a.63.63,0,0,1-.51-.26,15.41,15.41,0,0,1-2-4.1.63.63,0,0,1,.39-.79.62.62,0,0,1,.79.4,14.46,14.46,0,0,0,1.88,3.77.63.63,0,0,1-.15.87A.59.59,0,0,1,491.44,505.47ZM488.55,495h0a.62.62,0,0,1-.61-.63,25.8,25.8,0,0,1,.49-4.5.63.63,0,0,1,.74-.49.63.63,0,0,1,.49.74,23.25,23.25,0,0,0-.47,4.27A.63.63,0,0,1,488.55,495Z"/><path class="cls-3" d="M498.27,510.53l-.21,0a16.38,16.38,0,0,1-1.91-.82.63.63,0,0,1,.56-1.12,13.54,13.54,0,0,0,1.45.64,12.61,12.61,0,0,1,1.49-.93.62.62,0,0,1,.84.26.61.61,0,0,1-.25.84,12.11,12.11,0,0,0-1.59,1A.58.58,0,0,1,498.27,510.53Z"/><path class="cls-3" d="M504.85,507.66a.63.63,0,0,1-.14-1.24,24.22,24.22,0,0,1,3.54-.53.63.63,0,1,1,.09,1.25,23,23,0,0,0-3.35.5Z"/><path class="cls-3" d="M515.39,508.13a.57.57,0,0,1-.25-.06,10.93,10.93,0,0,0-1.78-.6.62.62,0,0,1,.29-1.21,11.7,11.7,0,0,1,1.58.49,12.25,12.25,0,0,1,1.33-1,.62.62,0,0,1,.87.15.63.63,0,0,1-.15.87,7.65,7.65,0,0,0-1.39,1.14A.6.6,0,0,1,515.39,508.13Z"/><path class="cls-3" d="M521.63,503.91a.63.63,0,0,1-.31-1.17c1-.6,2.15-1.21,3.26-1.81a.62.62,0,0,1,.59,1.1c-1.1.59-2.19,1.2-3.22,1.79A.62.62,0,0,1,521.63,503.91Zm8.2-4.32a.63.63,0,0,1-.56-.36.62.62,0,0,1,.29-.83c1.45-.69,2.62-1.19,3.47-1.49a.64.64,0,0,1,.8.39.63.63,0,0,1-.39.8,35.22,35.22,0,0,0-3.34,1.43A.66.66,0,0,1,529.83,499.59Zm8.69-3.15a.61.61,0,0,1-.59-.43.62.62,0,0,1,.4-.79l2.65-.84.89-.28a.61.61,0,0,1,.78.41.63.63,0,0,1-.41.79l-.89.28-2.64.83A.58.58,0,0,1,538.52,496.44Zm8.81-2.86a.63.63,0,0,1-.21-1.22c1.26-.44,2.39-.87,3.45-1.3a.62.62,0,0,1,.81.34.63.63,0,0,1-.34.82c-1.08.44-2.22.87-3.5,1.32A.52.52,0,0,1,547.33,493.58Zm8.49-3.69a.62.62,0,0,1-.3-1.17,29.92,29.92,0,0,0,3.06-1.94.61.61,0,0,1,.87.13.63.63,0,0,1-.13.88,33.75,33.75,0,0,1-3.19,2A.68.68,0,0,1,555.82,489.89Zm7.14-5.8a.6.6,0,0,1-.38-.13.62.62,0,0,1-.11-.87,14.35,14.35,0,0,0,1.81-3,.62.62,0,0,1,.82-.32.61.61,0,0,1,.32.82,15.69,15.69,0,0,1-2,3.3A.63.63,0,0,1,563,484.09Z"/><path class="cls-3" d="M566,475.54h0a.63.63,0,0,1-.6-.65,17.9,17.9,0,0,0,0-1.93.64.64,0,0,1,.17-.47,11.57,11.57,0,0,0,1.17-1.5.63.63,0,1,1,1,.7,14.26,14.26,0,0,1-1.11,1.45,17.87,17.87,0,0,1,0,1.79A.63.63,0,0,1,566,475.54Z"/><path class="cls-3" d="M569,466a.63.63,0,0,1-.62-.57,5.15,5.15,0,0,0-.46-1.74.61.61,0,0,1,0-.48c.28-.75.53-1.43.78-2.05a.63.63,0,0,1,.81-.35.62.62,0,0,1,.35.81c-.21.54-.44,1.14-.68,1.79a6.79,6.79,0,0,1,.47,1.9.62.62,0,0,1-.57.68Zm6-8.67a4.4,4.4,0,0,1-1.51-.32,1.45,1.45,0,0,0-.82-.18.63.63,0,0,1-.23-1.23l.33,0a3.23,3.23,0,0,1,1.14.26,2.55,2.55,0,0,0,2.37-.14.61.61,0,0,1,.85.22.64.64,0,0,1-.23.86A3.73,3.73,0,0,1,575,457.37Zm5.87-5a.69.69,0,0,1-.36-.11.62.62,0,0,1-.14-.87c.7-1,1.47-2.17,2.27-3.48a.62.62,0,0,1,.86-.21.63.63,0,0,1,.21.86c-.82,1.33-1.6,2.53-2.32,3.55A.65.65,0,0,1,580.83,452.34Zm4.69-9.07a.62.62,0,0,1-.59-.42,19.9,19.9,0,0,0-1.49-3.06l-.33-.61a.62.62,0,0,1,1.09-.6l.33.6a22.67,22.67,0,0,1,1.59,3.26.64.64,0,0,1-.39.8Z"/><path class="cls-3" d="M586.82,435.46h-.11a15.12,15.12,0,0,0-1.9-.25.63.63,0,1,1,.06-1.25l.59.05-.31-.47a.63.63,0,1,1,1.06-.68c.33.53.71,1.07,1.11,1.6a.63.63,0,0,1-.5,1Z"/><path class="cls-3" d="M583.37,428.18a.63.63,0,0,1-.62-.52,10.18,10.18,0,0,1-.12-1.54,8.35,8.35,0,0,1,.47-2.8.63.63,0,0,1,.81-.37.62.62,0,0,1,.37.8,6.82,6.82,0,0,0-.4,2.37,8.75,8.75,0,0,0,.11,1.34.64.64,0,0,1-.52.72Zm4.4-8.38a.64.64,0,0,1-.56-.34.63.63,0,0,1,.27-.85,14.47,14.47,0,0,1,4-1.3.62.62,0,0,1,.72.5.63.63,0,0,1-.51.73,13,13,0,0,0-3.69,1.19A.72.72,0,0,1,587.77,419.8Z"/><path class="cls-3" d="M599.73,418.81h-.13q-1-.21-1.92-.33a.63.63,0,0,1-.55-.7.65.65,0,0,1,.7-.54q.58.07,1.17.18a6.69,6.69,0,0,0-.24-1,.62.62,0,0,1,.38-.79.63.63,0,0,1,.8.38,8.4,8.4,0,0,1,.41,2.12.6.6,0,0,1-.21.52A.63.63,0,0,1,599.73,418.81Z"/><path class="cls-3" d="M593.81,412.15a.63.63,0,0,1-.34-.1,9.06,9.06,0,0,1-3.51-3.89.62.62,0,0,1,.29-.83.63.63,0,0,1,.84.29,7.84,7.84,0,0,0,3.06,3.38.63.63,0,0,1,.19.86A.62.62,0,0,1,593.81,412.15Z"/><path class="cls-3" d="M589.23,401.21h0a.62.62,0,0,1-.62-.62q0-1,.06-2a.63.63,0,0,1,.66-.59,10,10,0,0,0,1.9,0,.63.63,0,1,1,.13,1.25,11.88,11.88,0,0,1-1.47.06q0,.7,0,1.35A.63.63,0,0,1,589.23,401.21Z"/><path class="cls-3" d="M597,396.37a.66.66,0,0,1-.44-.17.63.63,0,0,1,0-.89,16.2,16.2,0,0,0,2.41-3.37.62.62,0,0,1,.85-.24.63.63,0,0,1,.24.86,18,18,0,0,1-2.6,3.62A.63.63,0,0,1,597,396.37Z"/><path class="cls-3" d="M602.3,387.05A.66.66,0,0,1,602,387a.62.62,0,0,1-.3-.83c.21-.45.43-.89.64-1.32-.23-.13-.6-.32-1.17-.6a.63.63,0,0,1-.29-.84.62.62,0,0,1,.84-.28c1.94,1,2.19,1.09,2.06,1.65a.55.55,0,0,1-.12.24c-.28.55-.56,1.11-.83,1.68A.61.61,0,0,1,602.3,387.05Z"/><path class="cls-3" d="M595.53,381.44a.58.58,0,0,1-.26-.06l-4-1.86a.63.63,0,0,1,.53-1.14l4,1.87a.62.62,0,0,1-.27,1.19Z"/><path class="cls-3" d="M582.36,377.37a.63.63,0,0,1-.46-.2.62.62,0,0,1,0-.89c.43-.39.89-.85,1.37-1.37a.63.63,0,0,1,.72-.15l1.82.84a.62.62,0,0,1-.53,1.13l-1.4-.64c-.39.41-.78.79-1.14,1.12A.61.61,0,0,1,582.36,377.37Z"/><path class="cls-3" d="M576.54,379a.56.56,0,0,1-.33-.1,9.91,9.91,0,0,1-3-3.53.63.63,0,1,1,1.09-.63,8.9,8.9,0,0,0,2.53,3.1.62.62,0,0,1,.21.86A.63.63,0,0,1,576.54,379Z"/><path class="cls-3" d="M570.62,370a.63.63,0,0,1-.53-.28c-.32-.49-.62-.92-.93-1.31a13,13,0,0,1-1.76,0,.63.63,0,0,1-.58-.67.64.64,0,0,1,.67-.58,10.78,10.78,0,0,0,1.89,0,.61.61,0,0,1,.54.22,16.29,16.29,0,0,1,1.22,1.68.62.62,0,0,1-.19.86A.58.58,0,0,1,570.62,370Z"/><path class="cls-3" d="M562.58,367.39a.58.58,0,0,1-.19,0c-1-.3-2.06-.68-3.17-1.12a.62.62,0,0,1,.46-1.16c1.08.43,2.12.79,3.08,1.09a.62.62,0,0,1-.18,1.22Zm-7.67-3.12a.58.58,0,0,1-.28-.07c-1-.49-2-1-3-1.52a.62.62,0,0,1,.59-1.1c1,.5,1.93,1,2.93,1.5a.63.63,0,0,1-.27,1.19Z"/><path class="cls-3" d="M544.29,360.5a.66.66,0,0,1-.51-.25.64.64,0,0,1,.14-.88l1.61-1.19a.62.62,0,0,1,.69,0l1.72,1a.64.64,0,0,1,.22.86.63.63,0,0,1-.86.22l-1.36-.81-1.28.95A.63.63,0,0,1,544.29,360.5Z"/><path class="cls-3" d="M540.93,363a.63.63,0,0,1-.27-.06l-.23-.11c-.51-.25-1-.51-1.58-.79a.63.63,0,0,1,.58-1.11c.48.26,1,.5,1.43.72l1.31-1a.63.63,0,0,1,.74,1l-1.61,1.19A.63.63,0,0,1,540.93,363Z"/><path class="cls-3" d="M535.13,357H535a.64.64,0,0,1-.48-.75,5.67,5.67,0,0,1,.66-1.58,5.11,5.11,0,0,0-1.06-.75.62.62,0,0,1-.27-.84.63.63,0,0,1,.85-.27,6.63,6.63,0,0,1,1.74,1.35.62.62,0,0,1,.06.78,4.25,4.25,0,0,0-.75,1.58A.64.64,0,0,1,535.13,357Z"/><path class="cls-3" d="M507.25,365.81a.62.62,0,0,1-.51-.26.62.62,0,0,1,.14-.87l.61-.45,2.71-2a.61.61,0,0,1,.87.14.62.62,0,0,1-.14.87l-2.7,2-.61.45A.68.68,0,0,1,507.25,365.81Zm8.36-5.92a.62.62,0,0,1-.35-1.14c1.22-.81,2.4-1.56,3.49-2.21a.62.62,0,0,1,.86.22.61.61,0,0,1-.22.85c-1.07.65-2.23,1.38-3.44,2.18A.59.59,0,0,1,515.61,359.89Zm8.91-5a.62.62,0,0,1-.57-.38.63.63,0,0,1,.32-.82,24.31,24.31,0,0,1,4-1.35.63.63,0,1,1,.28,1.22,21.74,21.74,0,0,0-3.76,1.28A.74.74,0,0,1,524.52,354.86Z"/><path class="cls-3" d="M500.49,370.33a.59.59,0,0,1-.41-.16.61.61,0,0,1-.18-.66c.22-.68.41-1.3.56-1.88a.62.62,0,0,1,.76-.45.64.64,0,0,1,.45.76c0,.15-.08.31-.13.46.12-.06.23-.14.35-.21a.63.63,0,0,1,.87.19.62.62,0,0,1-.2.86,14.88,14.88,0,0,1-1.8,1A.63.63,0,0,1,500.49,370.33Z"/><path class="cls-3" d="M490.5,364.11a.62.62,0,0,1-.19-1.22c.56-.17,1.13-.36,1.68-.54l1.5-.48a.63.63,0,0,1,.79.41.62.62,0,0,1-.41.78l-1.49.48-1.69.55A.65.65,0,0,1,490.5,364.11Zm10.81-.64a.64.64,0,0,1-.58-.39c-.2-.5-.61-1.07-2-1.07h-.13l0-1.25h.16a3.06,3.06,0,0,1,3.18,1.85.62.62,0,0,1-.34.81A.69.69,0,0,1,501.31,363.47Z"/><path class="cls-3" d="M412.78,445.94h-.14a.63.63,0,0,1-.48-.74l.08-.34a.63.63,0,0,1,.74-.49.64.64,0,0,1,.48.74l-.08.35A.62.62,0,0,1,412.78,445.94Z"/><path class="cls-3" d="M413.22,444a.94.94,0,0,1-.31-.07h0l-.38-.19a.64.64,0,0,1-.34-.53.61.61,0,0,1,.3-.56.58.58,0,0,1,.61,0h0l.1.05.14.07.14.07a.62.62,0,0,1,.15,1A.58.58,0,0,1,413.22,444Zm-.08-.29h0Z"/><path class="cls-3" d="M412.92,445.25h-.13a.64.64,0,0,1-.48-.75l.22-1a.63.63,0,0,1,1.23.26l-.23,1A.62.62,0,0,1,412.92,445.25Z"/><path class="cls-3" d="M422.11,327.56a.63.63,0,0,1-.34-.1.62.62,0,0,1-.18-.86l1.07-1.68a.61.61,0,0,1,.86-.2.63.63,0,0,1,.2.86c-.34.54-.7,1.11-1.08,1.69A.62.62,0,0,1,422.11,327.56Z"/><path class="cls-3" d="M425.56,322a.58.58,0,0,1-.33-.1.63.63,0,0,1-.2-.86c1-1.54,1.36-1.94,1.86-1.94.19,0,.79.07.79,1.08a2.82,2.82,0,0,1,0,.39.62.62,0,0,1-.67.57.58.58,0,0,1-.4-.19c-.14.19-.3.44-.5.76A.64.64,0,0,1,425.56,322Z"/><path class="cls-3" d="M427.42,328.66a.63.63,0,0,1-.34-.1c-.53-.35-1.09-.71-1.67-1.11a.61.61,0,0,1-.26-.66c.16-.7.31-1.35.44-1.94a.64.64,0,0,1,.75-.48.63.63,0,0,1,.47.75c-.11.48-.22,1-.35,1.54l1.3.85a.64.64,0,0,1,.19.87A.63.63,0,0,1,427.42,328.66Z"/><path class="cls-3" d="M436.6,333.4a.39.39,0,0,1-.15,0,18.35,18.35,0,0,1-4-1.61.62.62,0,0,1,.57-1.11,17.49,17.49,0,0,0,3.69,1.51.62.62,0,0,1-.15,1.23Zm5.33-2.21a.64.64,0,0,1-.43-.16.62.62,0,0,1,0-.88,9.32,9.32,0,0,1,3.53-2.59.62.62,0,1,1,.47,1.15,8.21,8.21,0,0,0-3.08,2.28A.65.65,0,0,1,441.93,331.19Z"/><path class="cls-3" d="M453.48,330.2a.63.63,0,0,1-.61-.48,6.28,6.28,0,0,1-.15-1.58c-.48-.06-.94-.1-1.38-.13a.62.62,0,0,1-.58-.66.61.61,0,0,1,.66-.58c.65,0,1.34.1,2,.2a.62.62,0,0,1,.54.68,5.27,5.27,0,0,0,.09,1.79.63.63,0,0,1-.47.75Z"/><path class="cls-3" d="M462.68,335.72h-.11a26.29,26.29,0,0,1-4.51-1.11.63.63,0,0,1-.38-.8.62.62,0,0,1,.8-.38,24.16,24.16,0,0,0,4.3,1.05.63.63,0,0,1-.1,1.25Z"/><path class="cls-3" d="M471.4,336.93a.66.66,0,0,1-.43-.08c-.43-.1-1-.19-1.62-.28a.62.62,0,0,1-.54-.7.63.63,0,0,1,.71-.54c.48.07.89.13,1.26.2,0-.33,0-.73,0-1.23a.63.63,0,1,1,1.25,0v2a.34.34,0,0,1,0,.1A.63.63,0,0,1,471.4,336.93Z"/><path class="cls-3" d="M471.4,333.15a.63.63,0,0,1-.63-.62v-2a.63.63,0,0,1,1.23-.16,6.88,6.88,0,0,0,.71,1.67.62.62,0,0,1-.82.88A.6.6,0,0,1,471.4,333.15Z"/><path class="cls-3" d="M478.1,335.77a9.1,9.1,0,0,1-.91,0,.63.63,0,0,1-.58-.67.64.64,0,0,1,.67-.57,15.43,15.43,0,0,0,3.82-.27.64.64,0,0,1,.73.51.62.62,0,0,1-.51.72A18.44,18.44,0,0,1,478.1,335.77ZM487,333.9a.63.63,0,0,1-.59-.43.62.62,0,0,1,.39-.79c1.31-.44,2.62-.93,3.74-1.35a.63.63,0,0,1,.44,1.17c-1.13.42-2.45.92-3.78,1.36A.48.48,0,0,1,487,333.9Z"/><path class="cls-3" d="M496.38,330.5a.63.63,0,0,1-.18-1.23c.39-.12.75-.22,1.07-.3-.21-.32-.4-.64-.58-1a.63.63,0,0,1,.25-.85.64.64,0,0,1,.85.25,14.18,14.18,0,0,0,1,1.62.64.64,0,0,1,.07.6.62.62,0,0,1-.49.38,14.37,14.37,0,0,0-1.84.46A.63.63,0,0,1,496.38,330.5Z"/><path class="cls-3" d="M495.74,323.47a.62.62,0,0,1-.62-.59q0-.37,0-.75a12.8,12.8,0,0,1,.33-2.82.64.64,0,0,1,.75-.48.63.63,0,0,1,.47.75,11.57,11.57,0,0,0-.3,2.55c0,.22,0,.45,0,.67a.63.63,0,0,1-.59.67Zm2-8.23a.52.52,0,0,1-.24-.05.62.62,0,0,1-.33-.82l.07-.16c.45-1,.87-2,1.18-3a.61.61,0,0,1,.78-.4.62.62,0,0,1,.41.78c-.33,1-.76,2-1.22,3.08l-.07.16A.63.63,0,0,1,497.75,315.24Zm1.24-8.17a.61.61,0,0,1-.56-.36,7.18,7.18,0,0,0-2-2.39.62.62,0,0,1-.09-.88.63.63,0,0,1,.88-.09,8.39,8.39,0,0,1,2.34,2.83.63.63,0,0,1-.3.83A.66.66,0,0,1,499,307.07Z"/><path class="cls-3" d="M492.42,301.83a.86.86,0,0,1-.27-.05c-.56-.26-1.16-.53-1.8-.79a.62.62,0,0,1-.37-.75,7.23,7.23,0,0,1,1-1.95.63.63,0,1,1,1,.7,7,7,0,0,0-.62,1.08c.45.19.89.38,1.3.57a.62.62,0,0,1,.3.83A.61.61,0,0,1,492.42,301.83Z"/><path class="cls-3" d="M495,295.11a.63.63,0,0,1-.45-1.05l.81-.87c.56-.59,1.13-1.18,1.67-1.78a.63.63,0,0,1,.89,0,.62.62,0,0,1,0,.88c-.55.6-1.12,1.2-1.68,1.79l-.81.86A.63.63,0,0,1,495,295.11Zm5.92-6.88a.66.66,0,0,1-.33-.09.63.63,0,0,1-.19-.87,5.45,5.45,0,0,0,1.05-2.73,1.93,1.93,0,0,0,0-.24.62.62,0,0,1,.55-.69.61.61,0,0,1,.69.55c0,.12,0,.25,0,.38a6.54,6.54,0,0,1-1.25,3.4A.62.62,0,0,1,500.92,288.23Zm-3-6.27h-.12a15.4,15.4,0,0,0-1.54-.22.67.67,0,0,1-.36-.17c-.55-.5-1-1-1.47-1.43a.62.62,0,1,1,.89-.87c.39.39.81.81,1.28,1.25.51.05,1,.13,1.44.21a.61.61,0,0,1,.49.73A.62.62,0,0,1,497.88,282Zm-6.15-6.06a.61.61,0,0,1-.59-.42,4.64,4.64,0,0,1-.28-1.56,5.3,5.3,0,0,1,.67-2.42.61.61,0,0,1,.83-.28.62.62,0,0,1,.29.83,4.11,4.11,0,0,0-.54,1.87,3.46,3.46,0,0,0,.21,1.15.64.64,0,0,1-.39.8Zm.38-8.58a.61.61,0,0,1-.52-.29,15.91,15.91,0,0,0-2.3-2.61.62.62,0,0,1,0-.88.63.63,0,0,1,.88,0,16.27,16.27,0,0,1,2.48,2.84.63.63,0,0,1-.18.87A.67.67,0,0,1,492.11,267.32Z"/><path class="cls-3" d="M485.49,261.09a.63.63,0,0,1-.37-.12c-.5-.38-1-.77-1.6-1.18a.6.6,0,0,1-.26-.47.63.63,0,0,1,.2-.5c.45-.42.93-.87,1.41-1.37a.63.63,0,1,1,.89.88c-.3.31-.6.61-.9.89.35.26.69.5,1,.75a.62.62,0,0,1,.12.87A.6.6,0,0,1,485.49,261.09Z"/><path class="cls-3" d="M489.72,253.11a.64.64,0,0,1-.35-.1.64.64,0,0,1-.17-.87,26.1,26.1,0,0,0,2.22-4,.62.62,0,0,1,.82-.32.63.63,0,0,1,.32.83,28.19,28.19,0,0,1-2.32,4.15A.62.62,0,0,1,489.72,253.11Z"/><path class="cls-3" d="M493.41,242.28a.62.62,0,0,1-.62-.58,8.28,8.28,0,0,0-.18-1.23,11,11,0,0,1-1.43.26.62.62,0,0,1-.69-.55.63.63,0,0,1,.55-.69,9.91,9.91,0,0,0,1.83-.39.62.62,0,0,1,.79.42,9.63,9.63,0,0,1,.37,2.09.61.61,0,0,1-.58.67Z"/><path class="cls-3" d="M486.37,240.35h-.15a21.83,21.83,0,0,1-3.11-1,.63.63,0,0,1,.48-1.16,19.38,19.38,0,0,0,2.93,1,.62.62,0,0,1-.15,1.23Zm-7.25-3.22a.69.69,0,0,1-.34-.09c-.89-.57-1.79-1.18-2.66-1.84a.63.63,0,1,1,.75-1c.84.64,1.71,1.23,2.58,1.78a.62.62,0,0,1-.33,1.15Z"/><path class="cls-3" d="M472.86,232.21a.62.62,0,0,1-.44-.18q-.76-.75-1.41-1.47a.61.61,0,0,1-.12-.62q.32-.93.63-1.89a.62.62,0,1,1,1.18.39l-.51,1.56q.51.56,1.11,1.14a.62.62,0,0,1-.44,1.07Z"/><path class="cls-3" d="M473.93,222.53h-.15a.63.63,0,0,1-.45-.76c.37-1.47.68-2.9.94-4.26a.63.63,0,1,1,1.23.23c-.26,1.39-.59,2.84-1,4.33A.62.62,0,0,1,473.93,222.53Zm1.83-10.83h-.05a.62.62,0,0,1-.58-.66c.06-.86.09-1.71.09-2.52,0-.61,0-1.21-.05-1.8a.63.63,0,0,1,1.25-.07c0,.61.05,1.23.05,1.87,0,.84,0,1.71-.09,2.6A.62.62,0,0,1,475.76,211.7Zm-1.32-10.81a.63.63,0,0,1-.58-.39,10.74,10.74,0,0,0-2.27-3.44.62.62,0,0,1,0-.88.63.63,0,0,1,.89,0A11.7,11.7,0,0,1,475,200a.62.62,0,0,1-.33.82A.69.69,0,0,1,474.44,200.89Zm-8.23-6.52h-.11a16.79,16.79,0,0,0-3-.26h0c-.39,0-.79,0-1.2,0a.63.63,0,1,1-.07-1.25c.44,0,.86,0,1.27,0h0a18.53,18.53,0,0,1,3.24.28.63.63,0,0,1-.12,1.24Z"/><path class="cls-3" d="M455.15,196.69a.61.61,0,0,1-.3-.08c-.54-.3-1.13-.6-1.76-.92a.63.63,0,0,1,.1-1.16c.67-.2,1.32-.38,2-.54a.62.62,0,0,1,.76.45.64.64,0,0,1-.45.76l-.4.1.39.22a.63.63,0,0,1,.25.85A.65.65,0,0,1,455.15,196.69Z"/><path class="cls-3" d="M434.89,258.65a.63.63,0,0,1-.45-1.06c.94-1,1.79-1.9,2.57-2.81a.62.62,0,0,1,.88-.06.63.63,0,0,1,.07.88c-.8.92-1.66,1.86-2.63,2.86A.63.63,0,0,1,434.89,258.65Zm6.1-7.41a.64.64,0,0,1-.35-.1.64.64,0,0,1-.17-.87,27.46,27.46,0,0,0,1.87-3.25.63.63,0,0,1,.84-.29.62.62,0,0,1,.29.83,30.1,30.1,0,0,1-2,3.4A.63.63,0,0,1,441,251.24Zm3.69-8.78h-.1a.62.62,0,0,1-.52-.71,13.43,13.43,0,0,0,.16-2.08,11.87,11.87,0,0,0-.1-1.58.62.62,0,1,1,1.24-.15,14.1,14.1,0,0,1,.11,1.73,15.74,15.74,0,0,1-.17,2.26A.64.64,0,0,1,444.68,242.46Zm-3-8.31a.6.6,0,0,1-.49-.25,5.25,5.25,0,0,1-1.09-3.24,5.93,5.93,0,0,1,.06-.84.62.62,0,0,1,.7-.54.63.63,0,0,1,.54.7,5.31,5.31,0,0,0-.05.68,4,4,0,0,0,.83,2.49.62.62,0,0,1-.12.88A.64.64,0,0,1,441.69,234.15Zm1.5-8.8a.63.63,0,0,1-.37-.12.64.64,0,0,1-.14-.88,32.86,32.86,0,0,1,2.53-3,.62.62,0,0,1,.88,0,.63.63,0,0,1,0,.88,30.3,30.3,0,0,0-2.43,2.88A.61.61,0,0,1,443.19,225.35Zm6.68-6.89a.66.66,0,0,1-.48-.22.63.63,0,0,1,.07-.88c1-.81,2-1.63,3-2.43a.62.62,0,1,1,.76,1c-1,.8-2,1.6-3,2.39A.6.6,0,0,1,449.87,218.46Zm7.6-5.84a.62.62,0,0,1-.56-.89l.35-.72c.48-1,.92-1.89,1.31-2.74a.63.63,0,0,1,.83-.3.62.62,0,0,1,.3.83c-.39.85-.83,1.76-1.32,2.76l-.35.71A.61.61,0,0,1,457.47,212.62Zm3.43-8.91h0a.63.63,0,0,1-.59-.66,2.81,2.81,0,0,0,0-.29,4.34,4.34,0,0,0-1-2.85.63.63,0,0,1,1-.78,5.62,5.62,0,0,1,1.32,3.63c0,.12,0,.24,0,.36A.63.63,0,0,1,460.9,203.71Z"/><path class="cls-3" d="M429.69,266a.63.63,0,0,1-.61-.5c-.21-1.06-.37-1.87-.38-2a.59.59,0,0,1,0-.14.65.65,0,0,1,.2-.44l1.45-1.37a.63.63,0,0,1,.89,0,.64.64,0,0,1,0,.89L430,263.66c.07.33.17.83.33,1.63a.64.64,0,0,1-.5.73Z"/><path class="cls-3" d="M429.08,272.69a.63.63,0,0,1-.32-1.17l1.34-.8-.3-1.53a.63.63,0,0,1,.49-.74.64.64,0,0,1,.74.5l.38,2a.64.64,0,0,1-.29.66l-1.72,1A.62.62,0,0,1,429.08,272.69Z"/><path class="cls-3" d="M427.22,273.8a.63.63,0,0,1-.54-.3.62.62,0,0,1,.22-.86l1.71-1a.63.63,0,1,1,.64,1.08l-1.71,1A.62.62,0,0,1,427.22,273.8Z"/><path class="cls-3" d="M375.89,419.31a.63.63,0,0,1-.45-.18,1.25,1.25,0,0,1-.09-.12l-1.06-1.69a.65.65,0,0,1-.05-.56.61.61,0,0,1,.41-.37c.3-.09.4-.12.69.28h0l.43.67.25.41.38.61a.63.63,0,0,1-.19.87A.68.68,0,0,1,375.89,419.31Z"/><path class="cls-3" d="M379.7,425.41a.61.61,0,0,1-.53-.29l-1.06-1.7,0-.05a.62.62,0,0,1,.22-.81.63.63,0,0,1,.87.2l1.06,1.7a.63.63,0,0,1-.2.86A.68.68,0,0,1,379.7,425.41Z"/><path class="cls-3" d="M480.65,379.4a.61.61,0,0,1-.32-.08.63.63,0,0,1-.31-.54.56.56,0,0,1,.09-.31l1-1.74a.62.62,0,0,1,1.16.32.57.57,0,0,1-.09.3h0l-.51.89c-.14.23-.3.5-.49.84A.63.63,0,0,1,480.65,379.4Z"/><path class="cls-3" d="M477.48,384.87a.61.61,0,0,1-.31-.09.62.62,0,0,1-.23-.85h0l1-1.73a.62.62,0,1,1,1.08.62l-1,1.74A.64.64,0,0,1,477.48,384.87Z"/><path class="cls-3" d="M475.7,388a.61.61,0,0,1-.32-.08.63.63,0,0,1-.22-.86l1.78-3.08a.64.64,0,0,1,.54-.31h0a.64.64,0,0,1,.54.31c.08.15.12.22,0,.6l0,0-1.31,2.25-.47.82h0A.63.63,0,0,1,475.7,388Z"/><path class="cls-3" d="M477.78,375.48a.62.62,0,0,1-.62-.54c-.06-.45-.12-.91-.2-1.4l-1.47.06h0a.62.62,0,0,1-.62-.62.62.62,0,0,1,.61-.63c.65,0,1.3,0,2-.09a.62.62,0,0,1,.66.51c.12.72.22,1.38.3,2a.62.62,0,0,1-.55.7Z"/><path class="cls-3" d="M459.79,377.54h-.12a.64.64,0,0,1-.5-.74,5.64,5.64,0,0,1,1.89-3.43.62.62,0,0,1,.88.09.63.63,0,0,1-.09.88A4.45,4.45,0,0,0,460.4,377,.63.63,0,0,1,459.79,377.54Zm10.33-4.14h0c-1.25-.09-2.44-.16-3.53-.17a.63.63,0,0,1,0-1.25h0c1.12,0,2.33.09,3.6.17a.63.63,0,0,1,.59.66A.63.63,0,0,1,470.12,373.4Z"/><path class="cls-3" d="M460.07,384.87a.62.62,0,0,1-.61-.52c-.13-.71-.22-1.38-.3-2a.62.62,0,0,1,.54-.69.63.63,0,0,1,.7.54c.05.44.12.91.2,1.39.49,0,1,0,1.47-.05h0a.62.62,0,0,1,.62.62.63.63,0,0,1-.62.63c-.64,0-1.3,0-2,.09Z"/><path class="cls-3" d="M471,385.14h0c-1.12,0-2.33-.08-3.61-.16a.64.64,0,0,1-.58-.67.61.61,0,0,1,.66-.58c1.26.08,2.45.16,3.53.16a.61.61,0,0,1,.62.63A.62.62,0,0,1,471,385.14Zm5.1-1.24a.59.59,0,0,1-.48-.23.62.62,0,0,1,.09-.88,4.37,4.37,0,0,0,1.44-2.7.65.65,0,0,1,.74-.5.63.63,0,0,1,.49.74,5.58,5.58,0,0,1-1.88,3.43A.61.61,0,0,1,476.1,383.9Z"/><path class="cls-4" d="M477.48,384.24Z"/><path class="cls-3" d="M499.52,334.54a.85.85,0,0,1-.26-.05.64.64,0,0,1-.31-.83l.67-1.44a19.33,19.33,0,0,1-1.85-2.52.62.62,0,0,1,1.09-.61,13.16,13.16,0,0,0,1.94,2.56v0a.6.6,0,0,1,.15.66.36.36,0,0,1-.08.15c-.28.59-.54,1.15-.79,1.7A.61.61,0,0,1,499.52,334.54Z"/><path class="cls-3" d="M501.11,353.44a.63.63,0,0,1-.45-.19,10.82,10.82,0,0,0-1.73-1.33,14.07,14.07,0,0,1-1.7-1.26.63.63,0,0,1,.85-.93,11.54,11.54,0,0,0,1.55,1.15,11.79,11.79,0,0,1,1.93,1.5.63.63,0,0,1,0,.88A.62.62,0,0,1,501.11,353.44Zm-5.06-8.63H496a.62.62,0,0,1-.53-.7,25.46,25.46,0,0,1,1.08-4.33.62.62,0,1,1,1.18.4,24.62,24.62,0,0,0-1,4.1A.63.63,0,0,1,496.05,344.81Z"/><path class="cls-3" d="M501.7,361.55a.57.57,0,0,1-.18,0,.63.63,0,0,1-.42-.78c.21-.67.37-1.3.49-1.88a.64.64,0,0,1,.74-.49.63.63,0,0,1,.49.74c-.13.62-.31,1.29-.52,2A.63.63,0,0,1,501.7,361.55Z"/><path class="cls-3" d="M656.84,303.55a.57.57,0,0,1-.18,0l-1.92-.58a.62.62,0,0,1-.41-.78.61.61,0,0,1,.78-.41l1.91.58a.62.62,0,0,1-.18,1.22Z"/><path class="cls-3" d="M651.13,301.82l-.18,0-2.53-.76a.63.63,0,1,1,.36-1.2l2.53.77a.63.63,0,0,1,.42.78A.62.62,0,0,1,651.13,301.82Z"/><path class="cls-3" d="M644.8,299.9l-.18,0-1.91-.58a.64.64,0,0,1-.42-.43c-.2-.7-.36-1.36-.5-2a.62.62,0,0,1,.48-.74.61.61,0,0,1,.74.47c.11.5.24,1,.39,1.58l1.59.48a.62.62,0,0,1-.19,1.22Z"/><path class="cls-3" d="M642.07,293.17H642a.63.63,0,0,1-.53-.71,5.16,5.16,0,0,1,1.34-2.85.63.63,0,1,1,.92.85,4,4,0,0,0-1,2.19A.62.62,0,0,1,642.07,293.17Z"/><path class="cls-3" d="M646.91,288.59a.62.62,0,0,1-.19-1.22c.43-.14.89-.27,1.4-.4-.09-.45-.18-.9-.28-1.36a.61.61,0,0,1,.47-.74.64.64,0,0,1,.75.47c.15.67.28,1.34.4,2a.63.63,0,0,1-.48.72c-.7.16-1.32.33-1.88.51A.63.63,0,0,1,646.91,288.59Z"/><path class="cls-3" d="M646.75,279.88a.62.62,0,0,1-.6-.43c-.44-1.34-.93-2.69-1.45-4a.62.62,0,0,1,1.16-.46c.54,1.34,1,2.71,1.48,4.08a.62.62,0,0,1-.59.82ZM642.61,270a.62.62,0,0,1-.56-.34c-.66-1.28-1.37-2.53-2.09-3.7a.62.62,0,0,1,1.06-.66c.75,1.2,1.47,2.48,2.14,3.79a.63.63,0,0,1-.26.84A.62.62,0,0,1,642.61,270Zm-5.85-9a.62.62,0,0,1-.48-.23,37.61,37.61,0,0,0-2.87-3.11.63.63,0,0,1,.87-.9,38.44,38.44,0,0,1,3,3.22.63.63,0,0,1-.08.88A.67.67,0,0,1,636.76,261Zm-8-7.11a.62.62,0,0,1-.32-.09,21.57,21.57,0,0,0-3.76-1.81.63.63,0,0,1-.37-.81.62.62,0,0,1,.8-.37,23,23,0,0,1,4,1.92.63.63,0,0,1-.32,1.16Z"/><path class="cls-3" d="M615.6,252.58a.66.66,0,0,1-.33-.09.63.63,0,0,1-.21-.86q.48-.8,1-1.71a.6.6,0,0,1,.5-.32,20.16,20.16,0,0,1,2.06-.06.63.63,0,1,1,0,1.25c-.53,0-1.07,0-1.6,0-.29.52-.57,1-.85,1.46A.63.63,0,0,1,615.6,252.58Z"/><path class="cls-3" d="M607.8,259.61a.63.63,0,0,1-.61-.49.64.64,0,0,1,.47-.75,7.29,7.29,0,0,0,3.53-1.79.63.63,0,0,1,.89.05.64.64,0,0,1-.06.89,8.58,8.58,0,0,1-4.08,2.07Z"/><path class="cls-3" d="M601.6,266.65a.63.63,0,0,1-.6-.42.64.64,0,0,1,.39-.8c.66-.22,1.14-.39,1.5-.49.11-.61.22-1.16.34-1.65a.64.64,0,0,1,.75-.46.63.63,0,0,1,.47.75c-.13.52-.25,1.11-.37,1.77a.65.65,0,0,1-.43.64h0l-1.8.62Z"/><path class="cls-3" d="M596.67,268.05a.56.56,0,0,1-.33-.1.62.62,0,0,1-.2-.86,3.42,3.42,0,0,0,.48-1.89,7.94,7.94,0,0,0-.21-1.7.62.62,0,0,1,1.22-.26,9,9,0,0,1,.24,2,4.74,4.74,0,0,1-.67,2.56A.62.62,0,0,1,596.67,268.05Z"/><path class="cls-3" d="M594.87,258.11a.63.63,0,0,1-.58-.39c-.21-.49-.43-1-.59-1.55l-1.58-.21a.63.63,0,0,1-.53-.71.61.61,0,0,1,.7-.53l2,.26a.63.63,0,0,1,.53.47,17.23,17.23,0,0,0,.65,1.79.62.62,0,0,1-.34.82A.59.59,0,0,1,594.87,258.11Z"/><path class="cls-3" d="M586.57,255.16h-.09l-2-.27a.63.63,0,0,1,.16-1.24l2,.27a.63.63,0,0,1-.09,1.25Z"/><path class="cls-3" d="M452.5,558.68l-.15,0a11.6,11.6,0,0,0-1.88-.29.62.62,0,0,1-.57-.67.62.62,0,0,1,.66-.58,13.19,13.19,0,0,1,2.08.33.62.62,0,0,1,.47.75A.63.63,0,0,1,452.5,558.68Z"/><path class="cls-3" d="M437.14,564a4.33,4.33,0,0,1-1.28-.2.62.62,0,1,1,.37-1.19,3.35,3.35,0,0,0,2.62-.32.63.63,0,0,1,.56,1.12A5.12,5.12,0,0,1,437.14,564Zm5.93-3.25a.66.66,0,0,1-.52-.27.63.63,0,0,1,.16-.87,15.59,15.59,0,0,1,2.88-1.65.63.63,0,1,1,.48,1.16,14.23,14.23,0,0,0-2.65,1.51A.57.57,0,0,1,443.07,560.72Z"/><path class="cls-3" d="M432.28,560.9a.62.62,0,0,1-.47-.21c-.27-.31-.54-.65-.81-1a7,7,0,0,1-1.11.88.62.62,0,1,1-.66-1.06,5.53,5.53,0,0,0,1.33-1.2.67.67,0,0,1,.5-.23.62.62,0,0,1,.49.26c.41.56.82,1.07,1.21,1.53a.63.63,0,0,1-.07.88A.58.58,0,0,1,432.28,560.9Z"/><path class="cls-3" d="M426.44,561.53a9.52,9.52,0,0,1-2-.23.64.64,0,0,1-.48-.75.63.63,0,0,1,.75-.47,8.36,8.36,0,0,0,1.73.2h.16a.63.63,0,1,1,0,1.25Z"/><path class="cls-3" d="M418.87,561.06a.66.66,0,0,1-.35-.11.64.64,0,0,1-.17-.87,17.78,17.78,0,0,0,1-1.66.62.62,0,0,1,.38-.31.6.6,0,0,1,.49.06c.59.35,1.17.65,1.72.91a.63.63,0,0,1,.3.83.62.62,0,0,1-.84.3c-.4-.19-.82-.41-1.25-.64-.24.43-.49.84-.74,1.21A.63.63,0,0,1,418.87,561.06Z"/><path class="cls-3" d="M409.22,565.58a.63.63,0,0,1-.27-1.19,7.36,7.36,0,0,1,2.72-.53,14.67,14.67,0,0,0,1.82-.2.62.62,0,1,1,.24,1.22,15.08,15.08,0,0,1-2,.23,6.15,6.15,0,0,0-2.25.41A.67.67,0,0,1,409.22,565.58Z"/><path class="cls-3" d="M406.73,573.54a.71.71,0,0,1-.31-.08c-.57-.33-1.15-.64-1.73-.93a.62.62,0,0,1-.28-.84.63.63,0,0,1,.84-.28l.89.46c0-.35,0-.68.06-1a.65.65,0,0,1,.67-.58.64.64,0,0,1,.58.67c-.05.6-.08,1.25-.09,2a.63.63,0,0,1-.63.61Z"/><path class="cls-3" d="M399.16,570.18a.69.69,0,0,1-.2,0c-1.28-.43-2.62-.81-4-1.14a.63.63,0,0,1-.46-.76.64.64,0,0,1,.75-.46c1.4.34,2.78.74,4.09,1.18a.62.62,0,0,1-.2,1.21Zm-10.22-2.29h-.08c-1.33-.18-2.72-.32-4.14-.43a.63.63,0,0,1-.58-.67.65.65,0,0,1,.67-.58c1.45.11,2.86.26,4.21.44a.63.63,0,0,1,.54.7A.63.63,0,0,1,388.94,567.89Zm-25.15-.42a.63.63,0,0,1,0-1.25l4.2-.15a.64.64,0,0,1,.64.61.62.62,0,0,1-.6.64l-4.19.15Zm14.69-.3h0c-1.39,0-2.78,0-4.18,0h0a.62.62,0,0,1-.62-.62.61.61,0,0,1,.61-.63c1.41,0,2.82,0,4.22,0a.63.63,0,0,1,.61.64A.61.61,0,0,1,378.48,567.17Z"/><path class="cls-3" d="M355.5,567.68a.64.64,0,0,1-.63-.62.63.63,0,0,1,.62-.63l2,0a.59.59,0,0,1,.63.62.62.62,0,0,1-.61.63l-2,0Z"/><path class="cls-3" d="M637.84,262.52a.64.64,0,0,1-.44-.18.63.63,0,0,1,0-.89l2.56-2.61a.63.63,0,0,1,.89,0,.62.62,0,0,1,0,.88l-2.56,2.61A.67.67,0,0,1,637.84,262.52Z"/><path class="cls-3" d="M601.14,419.15l-.19,0-1.91-.59a.62.62,0,1,1,.37-1.19l1.91.58a.63.63,0,0,1,.42.78A.64.64,0,0,1,601.14,419.15Z"/><path class="cls-3" d="M608.85,421.51a.63.63,0,0,1-.19,0l-1.91-.58a.63.63,0,0,1,.37-1.2l1.91.59a.62.62,0,0,1-.18,1.22Z"/><path class="cls-3" d="M271.5,91.68h-.09a.62.62,0,0,1-.53-.71l.59-3.95a.63.63,0,1,1,1.24.18l-.59,4A.63.63,0,0,1,271.5,91.68ZM273,81.79h-.09a.63.63,0,0,1-.53-.71l.6-3.95a.62.62,0,1,1,1.23.18l-.59,4A.62.62,0,0,1,273,81.79Zm1.49-9.89h-.1a.62.62,0,0,1-.52-.71l0-.22a.62.62,0,0,1,.71-.52.63.63,0,0,1,.53.71l0,.22A.61.61,0,0,1,274.47,71.9Z"/><path class="cls-3" d="M529,519.67a.59.59,0,0,1-.52-.32,7.14,7.14,0,0,1-.84-3.2.62.62,0,0,1,.59-.61.56.56,0,0,1,.58.56v0a5.9,5.9,0,0,0,.71,2.67.58.58,0,0,1-.25.78A.54.54,0,0,1,529,519.67Zm2-7.61a.61.61,0,0,1-.48-.25.58.58,0,0,1,.15-.81,12.5,12.5,0,0,1,3.19-1.58l.3-.11a.58.58,0,0,1,.39,1.09l-.3.12a11.61,11.61,0,0,0-2.91,1.43A.62.62,0,0,1,531,512.06Zm8.38-4.08a.58.58,0,0,1-.31-1.07,8.82,8.82,0,0,0,2.59-2.3.59.59,0,0,1,1,.63,10.06,10.06,0,0,1-3,2.65A.62.62,0,0,1,539.33,508Zm-9.61-3.13a.46.46,0,0,1-.23-.05,8.11,8.11,0,0,1-3.24-2.36.58.58,0,0,1,.12-.81.59.59,0,0,1,.82.12h0a7.09,7.09,0,0,0,2.76,2,.58.58,0,0,1,.3.77A.57.57,0,0,1,529.72,504.85Zm5.42-.12a.58.58,0,0,1-.55-.4.59.59,0,0,1,.37-.74l1.35-.48c.74-.26,1.5-.54,2.2-.74a.58.58,0,0,1,.73.39.59.59,0,0,1-.4.73c-.67.19-1.38.45-2.13.72l-1.38.49A.58.58,0,0,1,535.14,504.73Z"/><path class="cls-3" d="M464.85,547.53a.63.63,0,0,1-.37-.12L461.26,545a.63.63,0,0,1,.74-1l3.22,2.39a.61.61,0,0,1,.13.87A.63.63,0,0,1,464.85,547.53Zm-9.1-3.45h-.11l-2.9-.49a.62.62,0,0,1-.52-.62v-1.05a.63.63,0,1,1,1.25,0v.53l2.38.4a.62.62,0,0,1-.1,1.24Zm-2.91-7.55a.61.61,0,0,1-.61-.52h-2.87a.63.63,0,0,1,0-1.25h3.48a.63.63,0,0,1,.63.63v.52A.63.63,0,0,1,452.84,536.53Zm-9.48-.52h-4a.63.63,0,0,1,0-1.25h4a.63.63,0,1,1,0,1.25Zm-4.63-5.36a.63.63,0,0,1-.62-.63v-3l-.28-.63a.63.63,0,1,1,1.15-.5l.33.75a.7.7,0,0,1,.05.25V530A.63.63,0,0,1,438.73,530.65ZM436,521.21a.63.63,0,0,1-.58-.38l-1.59-3.67a.63.63,0,0,1,.32-.82.64.64,0,0,1,.83.33l1.59,3.67a.63.63,0,0,1-.32.82A.79.79,0,0,1,436,521.21Zm-4.33-9a.62.62,0,0,1-.51-.26l-2.31-3.27a.62.62,0,0,1,.15-.87.63.63,0,0,1,.87.15l2.31,3.26a.63.63,0,0,1-.51,1Zm-7-5.77h-4a.63.63,0,1,1,0-1.25h4a.63.63,0,0,1,0,1.25Zm-9.86-.66a.58.58,0,0,1-.26-.06L410.94,504a.63.63,0,0,1-.29-.84.62.62,0,0,1,.83-.29l3.61,1.72a.62.62,0,0,1,.3.83A.64.64,0,0,1,414.82,505.8Zm-9.33-3.29h-.1l-3.95-.59a.63.63,0,0,1-.53-.71.62.62,0,0,1,.71-.53l4,.59a.63.63,0,0,1-.09,1.25ZM395.6,501h-.1l-3.95-.59a.63.63,0,0,1-.53-.71.62.62,0,0,1,.71-.52l4,.59a.62.62,0,0,1-.09,1.24Zm-9.94-1h0l-4-.05a.63.63,0,0,1,0-1.25h0l4,.05a.63.63,0,0,1,0,1.25Zm-10-.13-.2,0c-.69-.24-1.74-.66-3.09-1.27a.63.63,0,0,1-.32-.83.63.63,0,0,1,.83-.31c1.32.59,2.32,1,3,1.22a.63.63,0,0,1-.2,1.22Z"/></svg>