<svg id="Camada_1" data-name="Camada 1" xmlns="http://www.w3.org/2000/svg" viewBox="0 0 700.91 697.83"><defs><style>.cls-1{fill:#dadada;}.cls-2{fill:#97c1b2;}.cls-3{fill:#fff;}.cls-4{fill:none;}</style></defs><path class="cls-1" d="M688.18,192.29c-4.07-2.85-14.64,0-27.64-4.88S632.48,165.87,624,155.3c-8.15-10.1-33.37-9.81-44.12-9.4l-1.41,0c-9.76.4-19.11-5.7-27.65-8.95a15.45,15.45,0,0,0-6.73-1.2c-3.42.18-5.5,1.59-9.53,0-6.1-2.44-5.28-8.54-8.54-13.41s-10.16-2-19.92-5.29-26.83-11-32.93-11.79-11.38,3.25-13.41.82-2-2.85-6.1-8.54c-6.5,0-18.29-6.91-22.36-11.79s3.25-17.08-1.22-24-9.35-1.62-14.63-6.09-5.7-39.44-12.2-39.44-20.33,33.34-26,38.22-38.62-3.66-48.78-2.85-5.69,5.69-8.13,8.94-5.69.82-15.45,1.22S287.74,70.74,278,70.74s-18.3-6.1-22.77-17.48.41-19.92,2.44-27.24-3.66-11.38-6.5-12.6S252,0,246.28,0s-8.54,5.28-11,9.76-8.13,7.72-17.07,7.72-13.82,6.91-21.14,7.73S166.19,15,162.94,18.7s6.5,8.13,8.94,11,3.25,9.35,3.66,14.63,7.73,4.47,7.32,9.76-7.32,6.5-15,15-20.74,13-33.75,9.76S120.25,56.51,116.59,56.1s-7.31,4.07-17.07,10.16-15.86-1.21-22.77-.81S70.66,71.55,71.88,76s12.19,2.85,11.78,7.32-11.78,0-15,7.72,7.32,16.67,8.54,22-4.07,49.59-5.69,58.13-6.1,3.66-9.76,2.85-2.84-.82-21.14,7.31-17.48,13-22.36,21.55-2.44,12.2-3.25,17.07S3.17,222.78.33,233.76s13.82,26.83,17.07,35,6.1,7.72,13,8.94,2.84,8.95,8.94,9.35,16.26-9.75,21.55-7.72-1.63,18.7,4.88,21.54,6.1-.81,16.67-1.21,14.22,1.21,21.54,0,15.45-9.36,21.55-15.86,9.75-5.28,15.45-5.69,10.16-5.69,13.82-2.85-2.85,18.3,7.32,34.15,21.54,13,29.67,13.42S200.34,326,210.1,333s18.7,4.88,27.64,6.91S247.9,374,251.16,383.77c2.76,8.29,10.52,5.43,18.26,4.89.13-3.05,1-6.4,3.69-8.55,6.1-4.88,12.6-8.54,19.92-3.25a37.82,37.82,0,0,0,3.32,2.14c5.4,3.06,9.25,2.69,15.38.3,7.32-2.85,9.76-6.92,16.67.4s12.6,6.1,12.19,11-2,22.76,0,29.27-3.65,16.26-6.09,25.2-2.44,12.61-11.79,11.39-10.17-10.17-18.3-4.88,3.25,26-6.91,32.11c-1.1.67-2.19,1.27-3.25,1.81,3.41,6.26,8.13,10.44,13,11.2,7.72,1.22,8.54-6.09,14.23-4.47,2.57.73,4.81,5.3,6.79,10.77,2.41,6.6,4.44,14.5,6.22,18.5,3.25,7.32,14.63,6.51,17.88,11.79s-1.22,14.64-.4,19.11,3.25,14.23,4.47,21.55c1,6.24-13.92,14.57-21.35,19.92a24.25,24.25,0,0,0-3,2.43c-4.88,4.88-17.08,22.77-20.74,28.06s-12.19,10.16-8.94,13,10.57-.81,15.45,4.07,39.84,26.42,49.19,32.12,0,21.54,3.25,24,8.94-16.26,13-27.24c3.71-10,10.13-21.39,14-21.13-.66-.46-.9-.71.6.15a1.72,1.72,0,0,1,.43.25c3.73,2.18,11.95-.1,24.64-17.32,10.49-14.21,20.13-28.63,22.52-32.68,5.28-8.95-.81-21.55,1.22-31.31s26.83-30.49,40.25-38.21,49.59-9.76,65.45-19.11,43.5-50,50.81-65.45,17.89-90.66,22-98,15.85-9.76,21.54-16.67,7.73-23.17,13.83-30.49,10.16-8.95,17.88-16.67,14.23-11,20.74-33.34c5-17-1.68-40.27-6.9-51.58C690.64,195.33,689.14,193,688.18,192.29Z"/><path class="cls-1" d="M397.29,649.24c1.06.76,3.21,2.1,1,.4l-.43-.25A2.2,2.2,0,0,0,397.29,649.24Z"/><path class="cls-2" d="M334.5,445.15c-2.44,9-2.44,12.61-11.79,11.39s-10.17-10.17-18.3-4.88,3.25,26-6.91,32.11c-1.1.67-2.19,1.27-3.25,1.81a42.36,42.36,0,0,1-4.47-12.78c-2.44-13-4.47-25.21-.82-33.74s7.73-14.23-1.22-28.05-5.28-21.55-14.22-22.36a23.4,23.4,0,0,0-4.1,0c.13-3.05,1-6.4,3.69-8.55,6.1-4.88,12.6-8.54,19.92-3.25a37.82,37.82,0,0,0,3.32,2.14c5.4,3.06,9.25,2.69,15.38.3,7.32-2.85,9.76-6.92,16.67.4s12.6,6.1,12.19,11-2,22.76,0,29.27S336.94,436.21,334.5,445.15Z"/><path class="cls-3" d="M630.08,236.76a.62.62,0,0,1-.45-.2.61.61,0,0,1,0-.88.67.67,0,0,1,.92,0,.58.58,0,0,1,0,.84h0l-.43-.46.43.46-.08.07A.63.63,0,0,1,630.08,236.76Z"/><path class="cls-3" d="M628.14,238.55a.61.61,0,0,1-.47-.21.62.62,0,0,1,.05-.88l.42-.39a.63.63,0,0,1,.89.05.62.62,0,0,1,0,.88l-.43.39A.66.66,0,0,1,628.14,238.55Z"/><path class="cls-3" d="M628.57,238.14a.61.61,0,0,1-.45-.19.6.6,0,0,1,0-.86l.06,0-.05-.06a.66.66,0,0,1,.91,0,.58.58,0,0,1,0,.85h0l-.42-.46.42.46,0,0h0A.7.7,0,0,1,628.57,238.14Z"/><path class="cls-3" d="M630.16,236.68a.61.61,0,0,1-.45-.19.63.63,0,0,1,0-.89h0l.44-.42.41-.39a.63.63,0,0,1,.89,0,.62.62,0,0,1,0,.88l-.36.35-.49.46,0,0h0A.59.59,0,0,1,630.16,236.68Z"/><path class="cls-3" d="M628.63,238.1a.67.67,0,0,1-.47-.2.63.63,0,0,1,.05-.89h0c.38-.34.89-.81,1.44-1.33a.63.63,0,1,1,.86.91h0v0l-1.45,1.33h0A.61.61,0,0,1,628.63,238.1Z"/><path class="cls-3" d="M628.5,238.43l-.85-.91.05,0,0-.05a.67.67,0,0,1,.91,0,.58.58,0,0,1,0,.85Zm-.36-.51.4.48Z"/><path class="cls-3" d="M412.3,447.91h-.13a.63.63,0,0,1-.49-.74l.42-2a.61.61,0,0,1,.74-.48.63.63,0,0,1,.5.61.69.69,0,0,1,0,.13l-.41,2A.62.62,0,0,1,412.3,447.91Z"/><path class="cls-3" d="M627.94,238.72a.64.64,0,0,1-.47-.21.63.63,0,0,1,0-.88l.13-.11a.62.62,0,1,1,.83.93l-.13.11A.57.57,0,0,1,627.94,238.72Z"/><path class="cls-3" d="M600.81,230.77a.62.62,0,0,1-.09-1.24c.67-.1,1.34-.18,2-.24a.63.63,0,0,1,.68.57.62.62,0,0,1-.57.67q-1,.09-2,.24Z"/><path class="cls-3" d="M621.69,234.07a.59.59,0,0,1-.29-.07,30.52,30.52,0,0,0-3.49-1.55.63.63,0,1,1,.44-1.17,30.31,30.31,0,0,1,3.63,1.61.63.63,0,0,1,.26.84A.61.61,0,0,1,621.69,234.07ZM612.5,231h-.11a34,34,0,0,0-3.8-.48.62.62,0,0,1-.58-.66.59.59,0,0,1,.67-.58,34,34,0,0,1,3.93.49.61.61,0,0,1,.5.72A.62.62,0,0,1,612.5,231Z"/><path class="cls-3" d="M628.06,238.61a.65.65,0,0,1-.43-.17c-.46-.44-1-.87-1.46-1.29a.63.63,0,1,1,.79-1c.42.34.82.69,1.2,1a10.12,10.12,0,0,0,1.21-.79.61.61,0,0,1,.87.1.62.62,0,0,1-.1.88,11.63,11.63,0,0,1-1.79,1.13A.59.59,0,0,1,628.06,238.61Z"/><path class="cls-3" d="M632.27,233.74h-.14a.64.64,0,0,1-.47-.75,7.08,7.08,0,0,0,.17-1.55,8.72,8.72,0,0,0-.1-1.31.63.63,0,0,1,.53-.71.64.64,0,0,1,.71.54,11,11,0,0,1,.11,1.48,8.34,8.34,0,0,1-.2,1.83A.62.62,0,0,1,632.27,233.74Z"/><path class="cls-3" d="M631,226.22a.62.62,0,0,1-.57-.38c-.26-.6-.53-1.19-.82-1.79a.59.59,0,0,1,0-.59c.31-.52.74-1.12,1.16-1.7a.63.63,0,0,1,1,.74c-.31.43-.65.9-.92,1.32.24.5.48,1,.7,1.53a.63.63,0,0,1-.33.82A.7.7,0,0,1,631,226.22Z"/><path class="cls-3" d="M633.91,219.12a.64.64,0,0,1-.35-.1.63.63,0,0,1-.18-.87,23.37,23.37,0,0,0,1.48-2.5.61.61,0,0,1,.83-.28.62.62,0,0,1,.28.84,23.76,23.76,0,0,1-1.54,2.63A.63.63,0,0,1,633.91,219.12Z"/><path class="cls-3" d="M636.42,212.25a.61.61,0,0,1-.61-.54,3.05,3.05,0,0,0-.66-1.49.6.6,0,0,1-.1-.64.61.61,0,0,1,.54-.38,7.18,7.18,0,0,0,1.8-.35.63.63,0,0,1,.39,1.19,8.05,8.05,0,0,1-1.1.28,4.2,4.2,0,0,1,.36,1.22.61.61,0,0,1-.53.7Z"/><path class="cls-3" d="M641.78,206.87a.62.62,0,0,1-.38-.13.63.63,0,0,1-.11-.88,19.63,19.63,0,0,0,1.82-2.93.62.62,0,1,1,1.11.57,20.18,20.18,0,0,1-1.94,3.13A.62.62,0,0,1,641.78,206.87Zm4-7.93a.64.64,0,0,1-.23-.05.62.62,0,0,1-.35-.81l.62-1.6c.23-.58.45-1.16.67-1.73a.63.63,0,0,1,1.17.46c-.23.57-.45,1.14-.67,1.72l-.63,1.61A.62.62,0,0,1,645.82,198.94Zm3.46-8.24a.59.59,0,0,1-.29-.07.62.62,0,0,1-.27-.84,20.05,20.05,0,0,1,2-3.12.62.62,0,1,1,1,.77,18.64,18.64,0,0,0-1.83,2.93A.62.62,0,0,1,649.28,190.7Z"/><path class="cls-3" d="M655.51,184.91a.62.62,0,0,1-.58-.38.77.77,0,0,1,0-.29l-.09-.17a.63.63,0,0,1,.4-.79,8.21,8.21,0,0,1,2.12-.41.6.6,0,0,1,.64.48.63.63,0,0,1-.36.72l-1.84.79A.69.69,0,0,1,655.51,184.91Z"/><path class="cls-3" d="M651.68,186.55a.63.63,0,0,1-.61-.5.62.62,0,0,1,.37-.7l.95-.41h0a.63.63,0,0,1,.48,1.16l-.56.24-.4.17h0A.52.52,0,0,1,651.68,186.55Z"/><path class="cls-3" d="M655.51,184.91a.63.63,0,0,1-.25-1.2l1.84-.79a.62.62,0,0,1,.82.32.63.63,0,0,1-.33.83l-1.84.79A.69.69,0,0,1,655.51,184.91Z"/><path class="cls-3" d="M699.27,215.48a.76.76,0,0,1-.27-.06l-1.16,0a.63.63,0,0,1,0-1.25h0c2.14,0,2.32,0,2.33.66s-.64.65-.88.66Z"/><path class="cls-3" d="M693.2,215.49h0c-1.25,0-2.63-.05-4.05-.1a.63.63,0,0,1,0-1.25h0c1.42.05,2.78.08,4,.1a.63.63,0,0,1,.62.63A.63.63,0,0,1,693.2,215.49Zm-10.09-.43h-.05c-1.48-.11-2.84-.24-4-.38a.62.62,0,1,1,.15-1.24c1.18.14,2.53.27,4,.38a.62.62,0,0,1,.58.67A.63.63,0,0,1,683.11,215.06Z"/><path class="cls-3" d="M672.21,214.29a.63.63,0,0,1-.6-.44c-.17-.54-.39-1.14-.67-1.84a.63.63,0,0,1,.33-.8.62.62,0,0,1,.81.29c0,.09.27.41,1.29.79a.62.62,0,0,1,.37.8.63.63,0,0,1-.8.37l-.16-.06a.19.19,0,0,1,0,.07.62.62,0,0,1-.4.79Z"/><path class="cls-3" d="M671.8,220.05a.63.63,0,0,1-.47-1,3.24,3.24,0,0,0,.8-1.84.6.6,0,0,1,.69-.55.62.62,0,0,1,.55.69,4.48,4.48,0,0,1-1.1,2.52A.62.62,0,0,1,671.8,220.05Z"/><path class="cls-3" d="M666.88,222.69a.62.62,0,0,1-.32-.09.65.65,0,0,1-.29-.43,4.28,4.28,0,0,0-.59-1.64.63.63,0,1,1,1.06-.68,5.23,5.23,0,0,1,.6,1.4c.43-.15.82-.3,1.18-.45A.63.63,0,1,1,669,222c-.57.24-1.2.47-1.93.71A.69.69,0,0,1,666.88,222.69Z"/><path class="cls-3" d="M658.45,222.69a.57.57,0,0,1-.18,0,8.3,8.3,0,0,1-2-.85.62.62,0,0,1-.21-.86.63.63,0,0,1,.87-.21,5.87,5.87,0,0,0,1.23.58,8.14,8.14,0,0,1,1.09-1.27.63.63,0,1,1,.86.92,6.09,6.09,0,0,0-1.14,1.41A.61.61,0,0,1,658.45,222.69Z"/><path class="cls-3" d="M655.53,217.15a.74.74,0,0,1-.25-.05.63.63,0,0,1-.32-.83,18.66,18.66,0,0,1,1.95-3.2.61.61,0,0,1,.87-.13.62.62,0,0,1,.14.87,16,16,0,0,0-1.81,3A.65.65,0,0,1,655.53,217.15Z"/><path class="cls-3" d="M660.69,209.73a.66.66,0,0,1-.36-.11.63.63,0,0,1-.16-.87c.24-.34.43-.64.59-.92a9.81,9.81,0,0,0-1.09-.1.64.64,0,0,1-.6-.65.62.62,0,0,1,.65-.6,12.07,12.07,0,0,1,2.1.28.65.65,0,0,1,.41.32.67.67,0,0,1,0,.52,9.42,9.42,0,0,1-1.06,1.86A.6.6,0,0,1,660.69,209.73Z"/><path class="cls-3" d="M643,215.65a7.16,7.16,0,0,1-1.46-.15.62.62,0,0,1-.49-.73.64.64,0,0,1,.74-.5,6.28,6.28,0,0,0,2.66,0c.16-.19.31-.38.48-.57a.63.63,0,0,1,.88-.06.62.62,0,0,1,.06.88l-.57.68a.54.54,0,0,1-.33.22A7.37,7.37,0,0,1,643,215.65Zm7.06-4.93a.62.62,0,0,1-.53-.29.63.63,0,0,1,.19-.86,21.86,21.86,0,0,1,3.75-1.93.62.62,0,0,1,.81.35.64.64,0,0,1-.35.82,20.33,20.33,0,0,0-3.53,1.81A.63.63,0,0,1,650.06,210.72Z"/><path class="cls-3" d="M636.42,212.25a.63.63,0,0,1-.62-.54,4.1,4.1,0,0,0-.1-.48,9.79,9.79,0,0,1-.64-1.14.63.63,0,0,1,1.05-.67,4,4,0,0,1,.72,1.27l.33.47a.61.61,0,0,1-.13.87.66.66,0,0,1-.27.12.54.54,0,0,1-.25.09Z"/><path class="cls-3" d="M641.42,235.75h-.06a14.35,14.35,0,0,1-4.22-1,.63.63,0,0,1,.49-1.15,13.17,13.17,0,0,0,3.85.94.61.61,0,0,1,.56.68A.62.62,0,0,1,641.42,235.75Zm6.23-.41a.62.62,0,0,1-.61-.5.63.63,0,0,1,.49-.74,31.92,31.92,0,0,0,3.94-1.08.62.62,0,0,1,.79.39.61.61,0,0,1-.39.79,32.35,32.35,0,0,1-4.1,1.13Zm-15-4.49a.64.64,0,0,1-.52-.27,15.32,15.32,0,0,1-1.88-3.92.63.63,0,0,1,1.2-.38,13.57,13.57,0,0,0,1.71,3.59.63.63,0,0,1-.16.87A.66.66,0,0,1,632.62,230.85Zm-.42-9.29a.57.57,0,0,1-.37-.12.62.62,0,0,1-.14-.87c.79-1.07,1.61-2.22,2.33-3.4a.63.63,0,1,1,1.07.65c-.74,1.22-1.59,2.4-2.39,3.49A.6.6,0,0,1,632.2,221.56Z"/><path class="cls-3" d="M660.37,232.35a.61.61,0,0,1-.6-.46,2.17,2.17,0,0,0-.64-1c-.46.26-.93.52-1.4.76a.62.62,0,1,1-.58-1.1c.59-.31,1.16-.63,1.73-1a.64.64,0,0,1,.69,0,3.66,3.66,0,0,1,1.4,1.91.63.63,0,0,1-.43.77Z"/><path class="cls-3" d="M657.8,241.3a.63.63,0,0,1-.52-.28c-.35-.53-.7-1.12-1-1.76a.64.64,0,0,1,0-.64c.3-.47.71-1,1.15-1.56l.07-.1a.63.63,0,0,1,.88-.11.62.62,0,0,1,.11.87l-.07.1c-.32.41-.63.81-.87,1.16.27.49.55.94.82,1.35a.62.62,0,0,1-.53,1Z"/><path class="cls-3" d="M663,245.21a4,4,0,0,1-.83-.09.62.62,0,1,1,.24-1.22,4.47,4.47,0,0,0,3.32-.94.63.63,0,0,1,.87.18.62.62,0,0,1-.18.86A6.24,6.24,0,0,1,663,245.21Zm7.62-5.07a.63.63,0,0,1-.43-1.08c1.1-1.05,2-1.91,3-2.73a.63.63,0,1,1,.78,1c-1,.78-1.88,1.63-3,2.65A.6.6,0,0,1,670.61,240.14Zm8.84-3.2a.62.62,0,0,1-.62-.56.63.63,0,0,1,.56-.69,21.06,21.06,0,0,0,3.83-.74.64.64,0,0,1,.78.43.63.63,0,0,1-.43.77,22.75,22.75,0,0,1-4.06.79Zm9.54-3a.63.63,0,0,1-.27-1.19l.42-.21a34,34,0,0,1,3.32-1.47.64.64,0,0,1,.8.38.63.63,0,0,1-.39.8,33.24,33.24,0,0,0-3.18,1.42l-.42.2A.58.58,0,0,1,689,233.92Z"/><path class="cls-3" d="M700,234.09a.62.62,0,0,1-.44-.18,9.49,9.49,0,0,0-1.43-1.21.62.62,0,0,1-.17-.87.64.64,0,0,1,.87-.17,11.46,11.46,0,0,1,1.62,1.37.63.63,0,0,1-.45,1.06Z"/><path class="cls-3" d="M412.78,445.6h-.13a.64.64,0,0,1-.48-.75l.08-.35a.62.62,0,1,1,1.22.27l-.08.35A.62.62,0,0,1,412.78,445.6Z"/><path class="cls-3" d="M631,235.84a.66.66,0,0,1-.42-.15.63.63,0,0,1-.06-.87l0,0h0a.12.12,0,0,1,0-.05.63.63,0,0,1,.88.07.62.62,0,0,1,0,.86A.66.66,0,0,1,631,235.84Zm.13-.5.29.34Z"/><path class="cls-3" d="M633.39,233.35a.66.66,0,0,1-.44-.18.63.63,0,0,1,0-.87h0a.64.64,0,0,1,.89,0,.62.62,0,0,1,0,.87h0A.66.66,0,0,1,633.39,233.35Z"/><path class="cls-3" d="M631.06,235.83a.6.6,0,0,1-.45-.19.62.62,0,0,1,0-.88h0c.65-.63,1.2-1.19,1.64-1.67a.62.62,0,1,1,.92.84h0c-.45.5-1,1.07-1.69,1.72A.61.61,0,0,1,631.06,235.83Z"/><path class="cls-3" d="M632.77,234.07a.61.61,0,0,1-.42-.16.63.63,0,0,1,0-.88c.23-.25.43-.48.59-.69a.62.62,0,0,1,.88-.1.6.6,0,0,1,.24.49.62.62,0,0,1-.14.38c-.18.23-.4.49-.64.76A.67.67,0,0,1,632.77,234.07Z"/><path class="cls-3" d="M632.72,234.13a.61.61,0,0,1-.42-.16.6.6,0,0,1-.21-.46.66.66,0,0,1,1.08-.49.65.65,0,0,1,.22.47.59.59,0,0,1-.15.38l-.06.06A.63.63,0,0,1,632.72,234.13Z"/><path class="cls-3" d="M575.84,151.5a.63.63,0,0,1-.61-.5,7,7,0,0,0-.62-1.73.62.62,0,1,1,1.11-.56,8.18,8.18,0,0,1,.73,2,.61.61,0,0,1-.48.74Z"/><path class="cls-3" d="M557,186.52a.63.63,0,0,1-.62-.51,38.56,38.56,0,0,1-.56-4.41.63.63,0,0,1,1.25-.08,36,36,0,0,0,.54,4.26.63.63,0,0,1-.5.73Zm-.15-10.86h-.14a.64.64,0,0,1-.48-.75,17.27,17.27,0,0,1,1.5-4.27.64.64,0,0,1,.84-.27.62.62,0,0,1,.27.84,16.12,16.12,0,0,0-1.38,4A.64.64,0,0,1,556.82,175.66Zm3.91-10a.67.67,0,0,1-.4-.14.64.64,0,0,1-.09-.88,14.18,14.18,0,0,1,3.51-2.91.62.62,0,1,1,.67,1.05,13,13,0,0,0-3.21,2.65A.62.62,0,0,1,560.73,165.66Zm9.07-6a.64.64,0,0,1-.55-.31.62.62,0,0,1,.24-.85,23.61,23.61,0,0,0,3.53-2.37.62.62,0,1,1,.81.95,23.43,23.43,0,0,1-3.72,2.5A.6.6,0,0,1,569.8,159.65Z"/><path class="cls-3" d="M557.92,196.3a.58.58,0,0,1-.37-.13.61.61,0,0,1-.13-.87,14.44,14.44,0,0,1,1.09-1.3c-.17-.51-.34-1-.51-1.55a.62.62,0,0,1,.41-.78.61.61,0,0,1,.78.4c.21.65.42,1.27.63,1.88a.63.63,0,0,1-.15.65,15.05,15.05,0,0,0-1.25,1.45A.63.63,0,0,1,557.92,196.3Z"/><path class="cls-3" d="M557.51,213.68a.62.62,0,0,1-.62-.58,26,26,0,0,0-.56-3.47.63.63,0,0,1,.48-.74.64.64,0,0,1,.75.48,27.57,27.57,0,0,1,.57,3.64.62.62,0,0,1-.57.67Zm-1.62-8.85a.63.63,0,0,1-.62-.55,16.87,16.87,0,0,1-.13-2.06,11.61,11.61,0,0,1,.11-1.69.63.63,0,0,1,.7-.54.64.64,0,0,1,.54.71,10.58,10.58,0,0,0-.1,1.52,16.44,16.44,0,0,0,.12,1.91.62.62,0,0,1-.54.69Z"/><path class="cls-3" d="M555.76,220.73h-.12c-.65-.13-1.3-.23-1.93-.31a.62.62,0,1,1,.15-1.24c.52.06,1.06.14,1.6.24a9.59,9.59,0,0,0,.69-1.3.62.62,0,0,1,.82-.33.63.63,0,0,1,.33.82,12,12,0,0,1-1,1.85A.63.63,0,0,1,555.76,220.73Z"/><path class="cls-3" d="M523.05,232.21a.63.63,0,0,1-.23-1.21,38.53,38.53,0,0,0,4-1.85.62.62,0,0,1,.85.26.63.63,0,0,1-.26.84,39.91,39.91,0,0,1-4.12,1.91A.64.64,0,0,1,523.05,232.21Zm9.85-5.27a.63.63,0,0,1-.33-1.16c1.37-.84,2.6-1.59,3.86-2.31a.62.62,0,0,1,.62,1.08c-1.24.71-2.46,1.46-3.82,2.3A.66.66,0,0,1,532.9,226.94Zm9.88-5.21a.61.61,0,0,1-.59-.41.63.63,0,0,1,.37-.8,25.15,25.15,0,0,1,4.43-1.19.62.62,0,1,1,.21,1.23A23.57,23.57,0,0,0,543,221.7.76.76,0,0,1,542.78,221.73Z"/><path class="cls-3" d="M513.65,236a.73.73,0,0,1-.29-.07.63.63,0,0,1-.26-.85l.92-1.77a.62.62,0,0,1,.51-.33c.65,0,1.3-.12,2-.22a.62.62,0,0,1,.71.53.63.63,0,0,1-.53.71c-.56.08-1.13.15-1.69.2l-.77,1.46A.63.63,0,0,1,513.65,236Z"/><path class="cls-3" d="M506.32,253a.64.64,0,0,1-.2,0,.62.62,0,0,1-.4-.79,23.53,23.53,0,0,0,.85-3.54.62.62,0,1,1,1.23.19,23.29,23.29,0,0,1-.89,3.74A.63.63,0,0,1,506.32,253Zm3-8.78a.59.59,0,0,1-.29-.07.62.62,0,0,1-.27-.84l1.74-3.32a.63.63,0,0,1,.85-.27.64.64,0,0,1,.26.85l-1.74,3.32A.62.62,0,0,1,509.3,244.26Z"/><path class="cls-3" d="M501.52,260.67h0a.61.61,0,0,1-.62-.62,12.75,12.75,0,0,1,.16-2.09.62.62,0,0,1,.47-.51,4,4,0,0,0,1.52-.78.63.63,0,1,1,.79,1,5.21,5.21,0,0,1-1.6.9,12.26,12.26,0,0,0-.09,1.51A.63.63,0,0,1,501.52,260.67Z"/><path class="cls-3" d="M502.52,266a.63.63,0,0,1-.58-.39,13.93,13.93,0,0,1-.67-2.19.62.62,0,0,1,.47-.75.64.64,0,0,1,.75.48,12.15,12.15,0,0,0,.61,2,.62.62,0,0,1-.35.81A.59.59,0,0,1,502.52,266Z"/><path class="cls-3" d="M505.44,272.17h-.12a.62.62,0,0,1-.49-.73,10.52,10.52,0,0,0,.19-1.55,8.68,8.68,0,0,1-1.32-1.26.62.62,0,0,1,.95-.81,7.44,7.44,0,0,0,1.35,1.24.61.61,0,0,1,.28.51,11.13,11.13,0,0,1-.22,2.11A.63.63,0,0,1,505.44,272.17Z"/><path class="cls-3" d="M502.94,283.86a.62.62,0,0,1-.58-.41,4.44,4.44,0,0,1-.26-1.6,12.84,12.84,0,0,1,.64-3.54.62.62,0,0,1,.78-.42.62.62,0,0,1,.42.77,11.84,11.84,0,0,0-.59,3.19,3.37,3.37,0,0,0,.18,1.16.63.63,0,0,1-.37.81A.78.78,0,0,1,502.94,283.86Z"/><path class="cls-3" d="M512.05,286.34a.62.62,0,0,1-.6-.45,15.63,15.63,0,0,1-.39-1.6,6.47,6.47,0,0,0-1.39,0,.62.62,0,0,1-.12-1.24,6.13,6.13,0,0,1,2.22.1.63.63,0,0,1,.44.49,17,17,0,0,0,.44,1.89.64.64,0,0,1-.43.78Z"/><path class="cls-3" d="M518.77,292.07a7.64,7.64,0,0,1-3.11-.6.63.63,0,0,1,.5-1.15,7.52,7.52,0,0,0,4.05.4.63.63,0,0,1,.16,1.24A13,13,0,0,1,518.77,292.07Zm8-1.89a.62.62,0,0,1-.21-1.21l1.6-.58c.87-.32,1.73-.64,2.59-.94a.63.63,0,0,1,.42,1.18l-2.58.93-1.61.59A.76.76,0,0,1,526.72,290.18Z"/><path class="cls-3" d="M539.38,287.08h-.06a9.79,9.79,0,0,0-1.88,0,.66.66,0,0,1-.68-.57.64.64,0,0,1,.58-.68,13.09,13.09,0,0,1,1.65,0c.21-.45.44-.93.69-1.43a.63.63,0,1,1,1.12.56c-.32.64-.61,1.23-.84,1.77A.62.62,0,0,1,539.38,287.08Z"/><path class="cls-3" d="M542.9,279.81a.74.74,0,0,1-.25-.05.64.64,0,0,1-.33-.82,19.32,19.32,0,0,0,1.22-3.73.63.63,0,0,1,1.23.25,21.66,21.66,0,0,1-1.3,4A.62.62,0,0,1,542.9,279.81Z"/><path class="cls-3" d="M543.28,270.12a.61.61,0,0,1-.5-.26,6,6,0,0,0-1.29-1.26.64.64,0,0,1-.18-.81c.36-.65.7-1.24,1-1.76a.63.63,0,0,1,.86-.2.62.62,0,0,1,.2.86c-.23.38-.47.79-.72,1.24a7,7,0,0,1,1.12,1.2.62.62,0,0,1-.14.87A.57.57,0,0,1,543.28,270.12Z"/><path class="cls-3" d="M550.22,265.16a.63.63,0,0,1-.37-.12c-.23-.17-.46-.34-.67-.51a4.72,4.72,0,0,0-2.25-1.22.63.63,0,0,1-.6-.65.62.62,0,0,1,.65-.6,5.55,5.55,0,0,1,3,1.48l.65.49a.63.63,0,0,1-.37,1.13Z"/><path class="cls-3" d="M558.28,268.1a.63.63,0,0,1-.49-.24,4.75,4.75,0,0,1-.73-1.42,8.29,8.29,0,0,1-1.43.3.62.62,0,1,1-.15-1.24,8.8,8.8,0,0,0,1.81-.44.61.61,0,0,1,.51,0,.63.63,0,0,1,.31.42,3.92,3.92,0,0,0,.67,1.57.63.63,0,0,1-.11.88A.61.61,0,0,1,558.28,268.1Z"/><path class="cls-3" d="M563.62,268.72a.63.63,0,0,1-.6-.43.62.62,0,0,1,.4-.79,31,31,0,0,0,3.47-1.43.63.63,0,0,1,.53,1.14,33.82,33.82,0,0,1-3.61,1.48Zm11.19-2.51a9.7,9.7,0,0,1-2.48-.36.62.62,0,0,1,.32-1.2,6.51,6.51,0,0,0,3.44.14.63.63,0,0,1,.35,1.2A5.68,5.68,0,0,1,574.81,266.21Zm5-4.39a.52.52,0,0,1-.21,0,.62.62,0,0,1-.37-.8c.33-.89.63-1.86.94-2.89l.22-.72a.61.61,0,0,1,.78-.41.62.62,0,0,1,.41.78l-.21.71c-.32,1.05-.63,2.05-1,3A.61.61,0,0,1,579.83,261.82Z"/><path class="cls-3" d="M587.39,255.29a.58.58,0,0,1-.26-.06,2.86,2.86,0,0,0-1.62-.2.63.63,0,0,1-.7-.54.62.62,0,0,1,.54-.7,4.47,4.47,0,0,1,1.21,0,4,4,0,0,1,.18-1.26.62.62,0,0,1,.78-.41.63.63,0,0,1,.42.78,2.11,2.11,0,0,0,0,1.53.63.63,0,0,1-.14.69A.62.62,0,0,1,587.39,255.29Z"/><path class="cls-3" d="M591.59,248.36a.62.62,0,0,1-.49-.24.63.63,0,0,1,.1-.88c1-.79,2.2-1.64,3.64-2.6a.62.62,0,0,1,.86.18.63.63,0,0,1-.17.87c-1.41.93-2.57,1.76-3.55,2.53A.64.64,0,0,1,591.59,248.36Z"/><path class="cls-3" d="M600.78,242.23a.63.63,0,0,1-.35-1.15c.37-.24.68-.45.92-.63-.31-.24-.63-.5-1-.79a.62.62,0,1,1,.83-.93,14.88,14.88,0,0,0,1.51,1.18.61.61,0,0,1,.27.47.62.62,0,0,1-.2.51,14.66,14.66,0,0,1-1.69,1.24A.63.63,0,0,1,600.78,242.23Z"/><path class="cls-3" d="M598.09,236.77a.63.63,0,0,1-.52-.28,8.12,8.12,0,0,1-1.24-2.68.63.63,0,0,1,.48-.74.64.64,0,0,1,.75.48,6.72,6.72,0,0,0,1.05,2.24.63.63,0,0,1-.17.87A.66.66,0,0,1,598.09,236.77Z"/><path class="cls-3" d="M598.85,231.15a.62.62,0,0,1-.21-1.21,7.69,7.69,0,0,1,1.69-.37c.16-.54.3-1,.43-1.51a.62.62,0,0,1,.77-.44.61.61,0,0,1,.43.77c-.16.6-.34,1.24-.55,1.93a.62.62,0,0,1-.55.45,7.09,7.09,0,0,0-1.8.35Z"/><path class="cls-3" d="M602.5,222.64a.63.63,0,0,1-.63-.61c0-1.67-.61-1.79-2-2.09l.26-1.23c1.47.31,3,.63,3,3.3a.62.62,0,0,1-.61.63Zm-7.39-6.27a.63.63,0,0,1-.55-.34,17.4,17.4,0,0,1-1.41-4.11.61.61,0,0,1,.47-.74.63.63,0,0,1,.75.47,16.09,16.09,0,0,0,1.3,3.81.62.62,0,0,1-.27.84A.59.59,0,0,1,595.11,216.37Zm-2.2-10.2a.63.63,0,0,1-.63-.58c-.09-1.3-.15-2.73-.18-4.23a.63.63,0,0,1,.61-.64h0a.63.63,0,0,1,.63.61c0,1.48.09,2.89.18,4.17a.62.62,0,0,1-.58.67Zm-.58-10.49a.63.63,0,0,1-.62-.55c-.13-1-.26-2.09-.41-3.28l-.11-.91a.63.63,0,0,1,.55-.69.61.61,0,0,1,.69.54l.11.91c.15,1.19.28,2.29.41,3.27a.61.61,0,0,1-.53.7ZM591,185.22a.61.61,0,0,1-.61-.53c-.23-1.51-.45-2.87-.68-4.14a.62.62,0,0,1,.5-.73.63.63,0,0,1,.73.5c.23,1.29.46,2.66.68,4.18a.62.62,0,0,1-.52.71Zm-2.05-10.33a.62.62,0,0,1-.6-.46,38.27,38.27,0,0,0-1.29-4,.64.64,0,0,1,.36-.81.63.63,0,0,1,.81.36,40.72,40.72,0,0,1,1.32,4.07.61.61,0,0,1-.44.76A.45.45,0,0,1,588.93,174.89Z"/><path class="cls-3" d="M584.38,165.39a.6.6,0,0,1-.45-.19,6.06,6.06,0,0,0-1.44-1.1.62.62,0,0,1-.31-.44.63.63,0,0,1,.14-.51,11.69,11.69,0,0,0,1.11-1.55.63.63,0,0,1,.86-.2.61.61,0,0,1,.2.86,13.07,13.07,0,0,1-.77,1.13,8,8,0,0,1,1.1.94.63.63,0,0,1,0,.88A.66.66,0,0,1,584.38,165.39Z"/><path class="cls-3" d="M586.56,156.85a.51.51,0,0,1-.2,0A.62.62,0,0,1,586,156c.43-1.25.82-2.59,1.16-4a.63.63,0,1,1,1.22.3c-.35,1.41-.75,2.78-1.2,4.07A.61.61,0,0,1,586.56,156.85Z"/><path class="cls-3" d="M588.83,146.64h-.06a.63.63,0,0,1-.56-.68c.07-.69.11-1.35.12-2a.67.67,0,0,1,.64-.61.62.62,0,0,1,.61.64c0,.63-.05,1.32-.12,2A.64.64,0,0,1,588.83,146.64Z"/><path class="cls-3" d="M6.35,226.94a.63.63,0,0,1-.19,0l-1.91-.59a.63.63,0,0,1,.38-1.2l1.9.6a.62.62,0,0,1-.18,1.22Z"/><path class="cls-3" d="M121.05,277.25a.58.58,0,0,1-.26-.06c-1.05-.48-2.23-1.05-3.52-1.7a.63.63,0,0,1,.57-1.12c1.27.65,2.44,1.21,3.47,1.68a.63.63,0,0,1-.26,1.2Zm-8.64-4.41a.64.64,0,0,1-.3-.08c-1.1-.6-2.24-1.22-3.4-1.88a.62.62,0,0,1,.61-1.09c1.16.65,2.29,1.28,3.39,1.88a.62.62,0,0,1,.25.84A.64.64,0,0,1,112.41,272.84ZM104,268.09a.61.61,0,0,1-.31-.09l-3.36-1.95a.63.63,0,0,1,.63-1.08l3.36,1.95a.62.62,0,0,1,.23.85A.65.65,0,0,1,104,268.09Zm-8.37-4.9a.62.62,0,0,1-.32-.09l-3.33-2a.61.61,0,0,1-.22-.85.62.62,0,0,1,.86-.22l3.33,2a.61.61,0,0,1,.22.85A.62.62,0,0,1,95.58,263.19Zm-8.33-5a.62.62,0,0,1-.32-.09l-3.33-2a.62.62,0,1,1,.64-1.07l3.33,2a.63.63,0,0,1,.22.86A.65.65,0,0,1,87.25,258.23Zm-8.33-5a.61.61,0,0,1-.31-.09l-3.34-2a.61.61,0,0,1-.22-.85.62.62,0,0,1,.85-.23l3.34,2a.62.62,0,0,1,.22.86A.61.61,0,0,1,78.92,253.26Zm-8.37-4.91a.6.6,0,0,1-.31-.08c-1.26-.72-2.4-1.35-3.38-1.88a.62.62,0,0,1,.59-1.1c1,.53,2.14,1.17,3.41,1.89a.62.62,0,0,1-.31,1.17Zm-8.76-4.09a.63.63,0,0,1-.19,0l-3.69-1.15a.62.62,0,0,1,.37-1.19L62,243a.63.63,0,0,1,.41.78A.64.64,0,0,1,61.79,244.26Zm-9.24-2.88a.63.63,0,0,1-.19,0l-3.69-1.16A.62.62,0,1,1,49,239l3.7,1.15a.65.65,0,0,1,.41.79A.65.65,0,0,1,52.55,241.38Zm-9.24-2.89a.63.63,0,0,1-.19,0l-3.69-1.15a.63.63,0,0,1-.41-.79.62.62,0,0,1,.78-.41l3.69,1.16a.63.63,0,0,1,.42.78A.64.64,0,0,1,43.31,238.49Zm-9.24-2.89a.63.63,0,0,1-.19,0l-3.69-1.15a.62.62,0,0,1-.41-.78.61.61,0,0,1,.78-.41l3.69,1.15a.62.62,0,0,1-.18,1.22Zm-9.24-2.88a.63.63,0,0,1-.19,0L21,231.53a.62.62,0,1,1,.37-1.19L25,231.49a.64.64,0,0,1,.42.79A.65.65,0,0,1,24.83,232.72Zm-9.24-2.89a.63.63,0,0,1-.19,0l-3.69-1.15a.63.63,0,0,1-.41-.79.62.62,0,0,1,.78-.41l3.69,1.16a.62.62,0,0,1-.18,1.22Z"/><path class="cls-3" d="M127.17,279.3a4.75,4.75,0,0,1-.92-.1.61.61,0,0,1-.49-.73.63.63,0,0,1,.73-.5c.86.17,1.07,0,1.07,0a.6.6,0,0,1,.33-.38.58.58,0,0,1,.5,0,1.34,1.34,0,0,0,1.33-.15.63.63,0,0,1,.68,1.05,2.6,2.6,0,0,1-2,.41A1.77,1.77,0,0,1,127.17,279.3Z"/><path class="cls-3" d="M132.61,275.08a.54.54,0,0,1-.27-.07.63.63,0,0,1-.3-.83c.35-.72.71-1.57,1.14-2.65a.62.62,0,1,1,1.16.45c-.44,1.12-.81,2-1.17,2.74A.63.63,0,0,1,132.61,275.08Z"/><path class="cls-3" d="M135.35,268.27a.52.52,0,0,1-.24,0,.62.62,0,0,1-.33-.82,8.16,8.16,0,0,1,1-1.91.66.66,0,0,1,.47-.23l2,0a.63.63,0,1,1,0,1.25l-1.7,0a11.06,11.06,0,0,0-.68,1.38A.62.62,0,0,1,135.35,268.27Z"/><path class="cls-3" d="M144,266.13a.63.63,0,0,1-.06-1.25c1.27-.11,2.53-.25,3.75-.41a.61.61,0,0,1,.7.54.62.62,0,0,1-.53.7c-1.24.16-2.52.31-3.81.42Zm9.39-1.4a.62.62,0,0,1-.61-.49.61.61,0,0,1,.47-.74c1.24-.27,2.47-.58,3.65-.91a.62.62,0,0,1,.34,1.2c-1.21.34-2.46.66-3.72.93Zm9.08-2.75a.61.61,0,0,1-.58-.4.62.62,0,0,1,.35-.81c1.16-.46,2.31-1,3.43-1.51a.62.62,0,1,1,.55,1.12c-1.15.56-2.33,1.08-3.52,1.55A.68.68,0,0,1,162.46,262Zm8.47-4.28a.62.62,0,0,1-.54-.3.63.63,0,0,1,.21-.86c1-.63,2.09-1.33,3.14-2.07a.64.64,0,0,1,.87.16.63.63,0,0,1-.15.87c-1.07.75-2.15,1.46-3.21,2.11A.62.62,0,0,1,170.93,257.7Zm7.71-5.54a.63.63,0,0,1-.4-1.11c.93-.76,1.9-1.58,2.88-2.45a.62.62,0,1,1,.82.94c-1,.87-2,1.71-2.91,2.48A.67.67,0,0,1,178.64,252.16Zm7.08-6.34a.63.63,0,0,1-.46-.19.63.63,0,0,1,0-.88c.89-.86,1.8-1.74,2.71-2.66a.62.62,0,0,1,.88,0,.61.61,0,0,1,0,.88c-.92.92-1.82,1.81-2.72,2.67A.6.6,0,0,1,185.72,245.82Z"/><path class="cls-3" d="M192.45,239.07a.64.64,0,0,1-.44-.18.63.63,0,0,1,0-.88l1.38-1.45a.64.64,0,0,1,.45-.19.75.75,0,0,1,.45.18c.46.47.94.92,1.43,1.36a.63.63,0,0,1,0,.88.61.61,0,0,1-.88,0c-.35-.31-.68-.62-1-1l-.95,1A.65.65,0,0,1,192.45,239.07Z"/><path class="cls-3" d="M256.9,255.45a.63.63,0,0,1,0-1.25c1.32,0,2.64,0,4,0h0a.63.63,0,0,1,.63.62.63.63,0,0,1-.62.63q-2,0-4,0Zm-5.93-.06h0l-4-.12a.64.64,0,0,1-.6-.65.6.6,0,0,1,.65-.6l3.94.12a.64.64,0,0,1,.62.64A.63.63,0,0,1,251,255.39Zm15.81-.1a.63.63,0,0,1,0-1.25c1.34,0,2.66-.08,3.95-.12a.64.64,0,0,1,.65.6.63.63,0,0,1-.6.65c-1.3,0-2.62.09-4,.12Zm-25.68-.36h0c-1.32-.1-2.64-.21-4-.35a.61.61,0,0,1-.56-.68.64.64,0,0,1,.68-.56c1.31.13,2.61.24,3.92.34a.63.63,0,0,1,0,1.25Zm-9.83-1.07h-.09c-1.34-.2-2.66-.42-3.92-.64a.63.63,0,0,1,.22-1.24c1.25.23,2.56.45,3.88.64a.62.62,0,0,1-.09,1.24ZM221.58,252l-.15,0c-1.31-.32-2.61-.67-3.85-1a.62.62,0,0,1-.42-.77.63.63,0,0,1,.78-.43c1.22.36,2.49.71,3.79,1a.62.62,0,0,1,.45.76A.62.62,0,0,1,221.58,252Zm-9.43-2.93a.54.54,0,0,1-.22,0c-1.27-.49-2.5-1-3.68-1.54a.63.63,0,0,1,.52-1.14c1.15.53,2.37,1,3.6,1.51a.62.62,0,0,1,.36.81A.61.61,0,0,1,212.15,249.07Zm-8.9-4.25a.62.62,0,0,1-.32-.09c-1.15-.68-2.28-1.41-3.36-2.16a.64.64,0,0,1-.16-.87.63.63,0,0,1,.87-.15c1.05.73,2.16,1.44,3.29,2.1a.63.63,0,0,1-.32,1.17Z"/><path class="cls-3" d="M276.68,255a.63.63,0,0,1-.63-.6.64.64,0,0,1,.61-.65l1.48,0c.06-.32.17-.79.37-1.51a.63.63,0,0,1,1.21.33,10.93,10.93,0,0,0-.42,1.82.63.63,0,0,1-.6.59l-2,.07Z"/><path class="cls-3" d="M280.55,248.17l-.19,0a.62.62,0,0,1-.4-.79c.31-1,.66-2.07,1-3.16a.62.62,0,0,1,.79-.4.61.61,0,0,1,.4.78l-1,3.16A.63.63,0,0,1,280.55,248.17Zm2.56-7.9a.69.69,0,0,1-.2,0,.62.62,0,0,1-.4-.79l1-3.15a.62.62,0,0,1,.78-.41.64.64,0,0,1,.41.79l-1,3.16A.63.63,0,0,1,283.11,240.27Z"/><path class="cls-3" d="M285.63,232.36a.55.55,0,0,1-.18,0,.63.63,0,0,1-.42-.78c.2-.69.32-1.12.38-1.38a3.56,3.56,0,0,1-1.35-1.27.62.62,0,0,1,1.05-.67,2.25,2.25,0,0,0,1.21,1,.62.62,0,0,1,.42.61,10.55,10.55,0,0,1-.51,2.1A.62.62,0,0,1,285.63,232.36Z"/><path class="cls-3" d="M283.89,223.07h-.07a.62.62,0,0,1-.55-.69,40.38,40.38,0,0,1,.73-4.19.62.62,0,0,1,1.22.27,38.85,38.85,0,0,0-.71,4.06A.63.63,0,0,1,283.89,223.07Zm2.38-10.18-.18,0a.61.61,0,0,1-.41-.78c.39-1.26.84-2.6,1.32-4a.63.63,0,0,1,.8-.38.62.62,0,0,1,.38.79c-.48,1.39-.92,2.72-1.31,4A.62.62,0,0,1,286.27,212.89Zm3.5-9.87a.62.62,0,0,1-.23,0,.64.64,0,0,1-.36-.81c.5-1.28,1-2.58,1.55-3.9a.61.61,0,0,1,.81-.35.62.62,0,0,1,.35.81c-.53,1.32-1.05,2.62-1.54,3.89A.62.62,0,0,1,289.77,203Zm4-9.7a.53.53,0,0,1-.25,0,.62.62,0,0,1-.33-.82c.55-1.27,1.1-2.55,1.67-3.85a.62.62,0,1,1,1.14.51c-.56,1.28-1.12,2.56-1.66,3.83A.62.62,0,0,1,293.73,193.32Zm4.22-9.58a.85.85,0,0,1-.26-.05.64.64,0,0,1-.31-.83c.58-1.27,1.16-2.55,1.75-3.81a.62.62,0,1,1,1.13.52l-1.74,3.8A.61.61,0,0,1,298,183.74Zm4.4-9.51a.61.61,0,0,1-.57-.89l1.8-3.78a.61.61,0,0,1,.83-.3.62.62,0,0,1,.29.83l-1.79,3.79A.62.62,0,0,1,302.35,174.23Zm4.5-9.45a.66.66,0,0,1-.27-.06.63.63,0,0,1-.29-.84l1.82-3.77a.63.63,0,0,1,.84-.29.62.62,0,0,1,.29.83l-1.82,3.78A.63.63,0,0,1,306.85,164.78Zm4.57-9.42a.68.68,0,0,1-.27-.07.62.62,0,0,1-.29-.83l1.83-3.77a.62.62,0,0,1,.83-.29.61.61,0,0,1,.29.83L312,155A.62.62,0,0,1,311.42,155.36Zm4.56-9.43a.54.54,0,0,1-.27-.07.62.62,0,0,1-.29-.83c.65-1.36,1.25-2.62,1.79-3.78a.62.62,0,1,1,1.13.53c-.54,1.16-1.14,2.43-1.79,3.79A.62.62,0,0,1,316,145.93Z"/><path class="cls-3" d="M320.25,136.5a.57.57,0,0,1-.22,0,.64.64,0,0,1-.36-.81c.18-.47.3-.82.39-1.09l-1.25-.07a.62.62,0,1,1,.07-1.24l2,.1a.56.56,0,0,1,.45.22.63.63,0,0,1,.14.48,9.76,9.76,0,0,1-.62,2A.64.64,0,0,1,320.25,136.5Z"/><path class="cls-3" d="M312.6,134.06h-.06c-1.45-.13-2.86-.27-4.16-.43a.63.63,0,0,1-.55-.7.62.62,0,0,1,.7-.54c1.29.15,2.68.3,4.12.42a.63.63,0,0,1,.57.68A.62.62,0,0,1,312.6,134.06Zm-10.32-1.4h-.12c-1.47-.3-2.85-.64-4.1-1a.62.62,0,0,1-.42-.77.63.63,0,0,1,.77-.43c1.22.36,2.57.69,4,1a.63.63,0,0,1-.12,1.24Zm-9.83-3.31a.67.67,0,0,1-.3-.08,21.06,21.06,0,0,1-3.54-2.38.62.62,0,0,1-.09-.88.61.61,0,0,1,.88-.08,20.8,20.8,0,0,0,3.35,2.24.64.64,0,0,1,.25.85A.62.62,0,0,1,292.45,129.35Zm-7.58-7a.63.63,0,0,1-.52-.28,35.48,35.48,0,0,1-2.14-3.66.62.62,0,1,1,1.11-.57,33,33,0,0,0,2.07,3.53.64.64,0,0,1-.17.87A.66.66,0,0,1,284.87,122.39Zm-4.69-9.29a.62.62,0,0,1-.58-.38c-.51-1.23-1-2.52-1.56-3.88a.62.62,0,1,1,1.16-.46c.53,1.35,1.05,2.64,1.55,3.86a.61.61,0,0,1-.33.81A.52.52,0,0,1,280.18,113.1Zm-3.86-9.68a.61.61,0,0,1-.58-.4c-.5-1.23-1-2.52-1.57-3.85a.63.63,0,1,1,1.16-.48c.55,1.34,1.07,2.63,1.57,3.87a.62.62,0,0,1-.35.81A.68.68,0,0,1,276.32,103.42Z"/><path class="cls-3" d="M272.24,93.7a.62.62,0,0,1-.57-.37c-.22-.49-.44-1-.67-1.49l-1.62-.12a.63.63,0,0,1-.58-.67.62.62,0,0,1,.66-.58c.66,0,1.32.1,2,.16A.64.64,0,0,1,272,91l.82,1.83a.63.63,0,0,1-.32.83A.74.74,0,0,1,272.24,93.7Z"/><path class="cls-3" d="M240.55,108.79a.59.59,0,0,1-.29-.07.63.63,0,0,1-.26-.85c.61-1.13,1.2-2.2,1.78-3.21a.62.62,0,0,1,.85-.24.64.64,0,0,1,.24.86c-.58,1-1.16,2.07-1.77,3.18A.62.62,0,0,1,240.55,108.79Zm4.67-7.85a.69.69,0,0,1-.36-.11.63.63,0,0,1-.15-.87A30.28,30.28,0,0,1,247,97a.64.64,0,0,1,.89,0,.63.63,0,0,1,0,.88,31.87,31.87,0,0,0-2.22,2.8A.6.6,0,0,1,245.22,100.94Zm6.45-6.37a.63.63,0,0,1-.33-1.16,18.44,18.44,0,0,1,3.41-1.62.64.64,0,0,1,.8.38.63.63,0,0,1-.38.8A16.61,16.61,0,0,0,252,94.48.62.62,0,0,1,251.67,94.57Zm8.62-2.75a.63.63,0,0,1-.07-1.25c1.15-.13,2.4-.22,3.7-.25h0a.63.63,0,0,1,.62.62.61.61,0,0,1-.61.63c-1.27,0-2.47.11-3.58.24Z"/><path class="cls-3" d="M237,115.43a.63.63,0,0,1-.35-.11c-.57-.4-1.12-.8-1.64-1.2a.62.62,0,0,1-.12-.87.61.61,0,0,1,.87-.12l1,.75.61-1.13a.62.62,0,1,1,1.1.58l-.95,1.77a.6.6,0,0,1-.4.31Z"/><path class="cls-3" d="M215.08,124a2.73,2.73,0,0,1-2-1.12.64.64,0,0,1,.06-.89.62.62,0,0,1,.88.07c.41.46.76.69,1.07.69.47,0,1-.56,1.34-1a.62.62,0,0,1,.88-.12.61.61,0,0,1,.12.87A3.09,3.09,0,0,1,215.08,124Zm-4.67-6.33a.64.64,0,0,1-.56-.33,38.78,38.78,0,0,0-2.07-3.55.63.63,0,0,1,1-.7A40.44,40.44,0,0,1,211,116.8a.63.63,0,0,1-.26.84A.59.59,0,0,1,210.41,117.71Zm9.28-.54a.62.62,0,0,1-.58-.85c.29-.77.61-1.62.93-2.55a.8.8,0,0,1,.08-.16c.31-.42.6-.81.89-1.17a.63.63,0,1,1,1,.78c-.26.32-.53.67-.8,1-.32.91-.62,1.74-.92,2.5A.61.61,0,0,1,219.69,117.17Zm10.64-6.62a.71.71,0,0,1-.31-.08,4.72,4.72,0,0,0-3.53-.8.64.64,0,0,1-.75-.48.63.63,0,0,1,.48-.74,6,6,0,0,1,4.43.93.63.63,0,0,1-.32,1.17Zm-25.48-1.5a.62.62,0,0,1-.61-.47c-.29-1.18-.58-2.48-.92-4.1a.62.62,0,0,1,.48-.74.61.61,0,0,1,.74.48c.34,1.61.63,2.9.91,4.06a.63.63,0,0,1-.46.76Zm-2.18-10.22a.63.63,0,0,1-.61-.5c-.27-1.34-.55-2.71-.85-4.09a.61.61,0,0,1,.47-.74.64.64,0,0,1,.75.48c.3,1.38.58,2.76.86,4.1a.61.61,0,0,1-.49.73Zm-2.28-10.2a.63.63,0,0,1-.61-.47c-.36-1.4-.73-2.75-1.11-4a.63.63,0,0,1,1.2-.36c.38,1.27.76,2.63,1.12,4a.61.61,0,0,1-.45.76A.39.39,0,0,1,200.39,88.63Zm-3.16-9.95a.63.63,0,0,1-.58-.4c-.53-1.34-1.09-2.61-1.66-3.77a.62.62,0,0,1,.28-.84.63.63,0,0,1,.84.28c.59,1.2,1.16,2.5,1.71,3.87a.64.64,0,0,1-.36.81A.59.59,0,0,1,197.23,78.68Zm-4.9-9.19a.61.61,0,0,1-.5-.26,26.08,26.08,0,0,0-2.66-3.07.61.61,0,0,1,0-.88.62.62,0,0,1,.88,0,27,27,0,0,1,2.79,3.23.62.62,0,0,1-.5,1Zm-7.79-6.77a.71.71,0,0,1-.28-.06,17.53,17.53,0,0,0-3.78-1.35.63.63,0,0,1,.29-1.22,18.69,18.69,0,0,1,4,1.45.62.62,0,0,1,.29.83A.61.61,0,0,1,184.54,62.72Z"/><path class="cls-3" d="M172.37,61a.63.63,0,0,1-.08-1.25q1-.14,2-.18a.62.62,0,1,1,.06,1.24c-.63,0-1.29.1-1.94.18Z"/><path class="cls-3" d="M220.86,256.13h0a.63.63,0,0,1-.62-.63c0-.69,0-1.36,0-2a.65.65,0,0,1,.63-.62.63.63,0,0,1,.62.63c0,.64,0,1.31,0,2A.62.62,0,0,1,220.86,256.13Z"/><path class="cls-3" d="M221.36,285.16a.62.62,0,0,1-.62-.6l-.11-3.87a.63.63,0,0,1,.6-.65.63.63,0,0,1,.65.61l.11,3.87a.63.63,0,0,1-.61.64Zm-.26-9.67a.63.63,0,0,1-.63-.61c0-1.27-.05-2.57-.08-3.88a.63.63,0,0,1,.61-.64.64.64,0,0,1,.64.62c0,1.3.06,2.6.08,3.87a.63.63,0,0,1-.61.64Zm-.19-9.68a.62.62,0,0,1-.62-.62c0-1.31,0-2.61,0-3.88a.64.64,0,0,1,.63-.63h0a.62.62,0,0,1,.62.62c0,1.27,0,2.57,0,3.87a.63.63,0,0,1-.62.64Z"/><path class="cls-3" d="M223.52,293.56h-.13a9.24,9.24,0,0,1-2.06-.66.63.63,0,0,1-.33-.53l-.07-2a.62.62,0,0,1,.6-.65.65.65,0,0,1,.65.61l0,1.6a11,11,0,0,0,1.43.41.61.61,0,0,1,.47.74A.62.62,0,0,1,223.52,293.56Z"/><path class="cls-3" d="M251.5,301.42a.63.63,0,0,1-.62-.57q-.13-1.35-2.13-2.46a.62.62,0,0,1-.24-.85.63.63,0,0,1,.85-.25c1.71.95,2.64,2.11,2.76,3.44a.61.61,0,0,1-.56.68Zm-8.12-4.9h-.14c-1.16-.27-2.43-.51-3.91-.75a.62.62,0,0,1-.51-.72.62.62,0,0,1,.71-.51c1.5.24,2.81.49,4,.76a.62.62,0,0,1,.47.75A.61.61,0,0,1,243.38,296.52Zm-9.91-1.58h-.08l-4-.48a.63.63,0,0,1-.55-.7.62.62,0,0,1,.7-.54l4,.48a.62.62,0,0,1-.08,1.24Z"/><path class="cls-3" d="M247.81,309.44a.61.61,0,0,1-.57-.37c-.26-.57-.55-1.16-.87-1.76a.63.63,0,0,1,.18-.79c.55-.42,1.06-.83,1.52-1.23a.62.62,0,1,1,.82.94c-.36.32-.75.64-1.17,1,.24.46.46.91.66,1.36a.64.64,0,0,1-.31.83A.8.8,0,0,1,247.81,309.44Z"/><path class="cls-3" d="M236.93,348h-.09a.62.62,0,0,1-.52-.71,20.72,20.72,0,0,1,1.13-4.19.63.63,0,0,1,1.17.45,19.68,19.68,0,0,0-1.07,3.93A.62.62,0,0,1,236.93,348Zm4-9.66a.58.58,0,0,1-.33-.1.63.63,0,0,1-.2-.86c.74-1.16,1.51-2.28,2.36-3.53a.64.64,0,0,1,.87-.16.63.63,0,0,1,.16.87c-.85,1.23-1.61,2.35-2.33,3.49A.62.62,0,0,1,241,338.37Zm5.81-8.81a.61.61,0,0,1-.32-.08.62.62,0,0,1-.22-.86,28.59,28.59,0,0,0,1.83-3.69.63.63,0,0,1,.82-.34.61.61,0,0,1,.34.81,29.17,29.17,0,0,1-1.91,3.85A.63.63,0,0,1,246.76,329.56Zm3.27-9.91h0a.62.62,0,0,1-.59-.65c0-.28,0-.56,0-.84a18.71,18.71,0,0,0-.29-3.22.62.62,0,0,1,1.23-.22,19.3,19.3,0,0,1,.31,3.44c0,.3,0,.6,0,.9A.62.62,0,0,1,250,319.65Z"/><path class="cls-3" d="M237.47,356.31a.64.64,0,0,1-.6-.46c-.18-.68-.34-1.35-.45-2a.62.62,0,1,1,1.23-.22c.11.62.25,1.26.43,1.9a.62.62,0,0,1-.44.76A.51.51,0,0,1,237.47,356.31Z"/><path class="cls-3" d="M374.42,417.06h-.14c-.27-.05-.61-.24-.72-.9a.62.62,0,0,1,.52-.71.6.6,0,0,1,.38.06l.31-.54a.62.62,0,0,1,1.1.58C375.37,416.5,375,417.06,374.42,417.06Z"/><path class="cls-3" d="M377.7,410.25a.57.57,0,0,1-.22,0,.63.63,0,0,1-.36-.81c.45-1.17.92-2.46,1.41-3.81a.63.63,0,0,1,.8-.38.62.62,0,0,1,.38.8c-.5,1.36-1,2.65-1.42,3.84A.64.64,0,0,1,377.7,410.25Zm3.46-9.59a.52.52,0,0,1-.21,0,.63.63,0,0,1-.38-.79c.45-1.28.89-2.57,1.33-3.85a.63.63,0,0,1,.8-.39.62.62,0,0,1,.38.79c-.44,1.29-.88,2.58-1.33,3.86A.62.62,0,0,1,381.16,400.66Zm3.31-9.64a.48.48,0,0,1-.2,0,.62.62,0,0,1-.39-.79l1.32-3.86a.62.62,0,1,1,1.18.4l-1.32,3.86A.63.63,0,0,1,384.47,391Z"/><path class="cls-3" d="M387.82,381.4a.6.6,0,0,1-.22,0,.63.63,0,0,1-.36-.81c.71-1.9.88-2.16,1.36-2.19a.63.63,0,0,1,.19,0c.62,0,1.24.05,1.84,0a.6.6,0,0,1,.64.6.63.63,0,0,1-.6.65c-.56,0-1.14,0-1.72,0-.1.21-.27.61-.54,1.34A.63.63,0,0,1,387.82,381.4Z"/><path class="cls-3" d="M396.6,378.52a.63.63,0,0,1-.59-.4.64.64,0,0,1,.37-.81,17.5,17.5,0,0,0,3.48-1.76.61.61,0,0,1,.86.18.63.63,0,0,1-.18.87,19.11,19.11,0,0,1-3.72,1.88A.6.6,0,0,1,396.6,378.52Zm8.17-5.81a.63.63,0,0,1-.47-1,31,31,0,0,0,2.43-3.14.62.62,0,1,1,1,.7,29.73,29.73,0,0,1-2.53,3.27A.6.6,0,0,1,404.77,372.71Zm5.5-8.48a.55.55,0,0,1-.28-.07.62.62,0,0,1-.29-.83c.57-1.16,1.11-2.39,1.63-3.67a.62.62,0,0,1,.81-.35.63.63,0,0,1,.35.81c-.53,1.31-1.09,2.57-1.66,3.76A.63.63,0,0,1,410.27,364.23Zm3.66-9.45-.18,0a.61.61,0,0,1-.41-.78c.38-1.25.76-2.55,1.11-3.88a.63.63,0,0,1,1.21.32c-.36,1.34-.74,2.67-1.13,3.93A.62.62,0,0,1,413.93,354.78Zm2.53-9.83-.13,0a.62.62,0,0,1-.48-.74c.28-1.33.54-2.66.78-4a.62.62,0,0,1,.73-.5.63.63,0,0,1,.5.73c-.24,1.32-.51,2.66-.79,4A.62.62,0,0,1,416.46,345Zm1.78-10h-.1a.62.62,0,0,1-.52-.71c.21-1.38.39-2.72.56-4a.62.62,0,0,1,.71-.53.61.61,0,0,1,.53.7c-.17,1.29-.36,2.64-.56,4A.63.63,0,0,1,418.24,335Zm1.32-10.07h-.08a.63.63,0,0,1-.54-.7h0c-.2-1.2-.35-2.51-.46-3.9a.61.61,0,0,1,.57-.67.63.63,0,0,1,.68.57c.11,1.39.26,2.69.46,3.88a.48.48,0,0,1,0,.17v.1A.63.63,0,0,1,419.56,324.88Zm-.34-.66.34,0-.22-.06Zm-.31-9.45h0a.61.61,0,0,1-.62-.63c0-1.3,0-2.68.12-4.08a.62.62,0,0,1,.66-.59.62.62,0,0,1,.59.65c-.07,1.39-.11,2.75-.12,4A.63.63,0,0,1,418.91,314.77Zm.61-10.12h-.06a.61.61,0,0,1-.56-.68c.14-1.34.31-2.7.5-4a.62.62,0,1,1,1.23.17c-.18,1.34-.35,2.68-.49,4A.62.62,0,0,1,419.52,304.65Zm1.48-10h-.12a.63.63,0,0,1-.5-.73c.25-1.35.53-2.7.82-4a.62.62,0,0,1,1.22.27c-.29,1.29-.56,2.62-.81,4A.63.63,0,0,1,421,294.61Zm2.29-9.88-.17,0a.63.63,0,0,1-.43-.78c.38-1.35.78-2.67,1.19-3.9a.63.63,0,0,1,1.19.39c-.41,1.22-.8,2.52-1.18,3.85A.63.63,0,0,1,423.29,284.73Z"/><path class="cls-3" d="M426.65,275.18a.74.74,0,0,1-.25-.05.63.63,0,0,1-.32-.83c.17-.37.33-.73.5-1.08-.33-.05-.7-.1-1.11-.14a.63.63,0,0,1-.56-.69.63.63,0,0,1,.69-.56,20,20,0,0,1,2,.31.6.6,0,0,1,.43.34.63.63,0,0,1,0,.55c-.29.57-.57,1.16-.85,1.78A.62.62,0,0,1,426.65,275.18Z"/><path class="cls-3" d="M419.46,272.69h0l-4.06-.13a.63.63,0,0,1-.61-.64.67.67,0,0,1,.64-.61l4.08.13a.63.63,0,0,1,0,1.25Zm-10.17-.25h0c-1.3,0-2.66-.05-4.06-.06a.63.63,0,0,1-.62-.64.62.62,0,0,1,.63-.61h0c1.41,0,2.76,0,4.07.06a.63.63,0,0,1,.62.63A.64.64,0,0,1,409.29,272.44Zm-10.16-.14h0l-4.07-.05a.62.62,0,0,1-.61-.63.61.61,0,0,1,.63-.62l4.06.05a.63.63,0,0,1,0,1.25ZM389,272.17h0l-4.06-.06a.64.64,0,0,1-.62-.64.6.6,0,0,1,.64-.61l4.06.06a.63.63,0,0,1,.62.63A.63.63,0,0,1,389,272.17ZM378.8,272h0l-4.07-.09a.63.63,0,0,1,0-1.25h0l4.06.09a.63.63,0,0,1,0,1.25Zm-10.16-.26h0l-4.06-.14a.62.62,0,0,1-.6-.64.6.6,0,0,1,.65-.61l4.05.14a.63.63,0,0,1,0,1.25Zm-10.15-.38h0l-4.06-.2a.62.62,0,0,1,.06-1.24l4.06.19a.63.63,0,0,1,0,1.25Zm-10.15-.54h0l-4.06-.28a.63.63,0,0,1,.09-1.25l4.05.28a.63.63,0,0,1,.59.66A.63.63,0,0,1,348.34,270.81Zm-10.13-.76h0c-1.37-.12-2.72-.24-4.06-.38a.63.63,0,0,1-.56-.68.63.63,0,0,1,.69-.56l4,.38a.62.62,0,0,1,.57.68A.63.63,0,0,1,338.21,270.05ZM328.11,269H328c-1.37-.17-2.72-.35-4-.54a.63.63,0,0,1,.18-1.24c1.31.19,2.65.37,4,.54a.62.62,0,0,1,.54.7A.61.61,0,0,1,328.11,269Zm-10.05-1.51h-.12c-1.39-.25-2.73-.52-4-.79a.63.63,0,0,1,.26-1.23c1.28.28,2.6.54,4,.79a.63.63,0,0,1-.11,1.24Zm-9.91-2.26-.17,0c-1.4-.4-2.71-.83-3.9-1.27a.62.62,0,1,1,.43-1.17c1.16.43,2.45.85,3.82,1.24a.62.62,0,0,1,.42.78A.61.61,0,0,1,308.15,265.21Zm-9.37-3.82a.62.62,0,0,1-.32-.09,15.41,15.41,0,0,1-3.3-2.59.63.63,0,0,1,0-.88.62.62,0,0,1,.88,0,14.66,14.66,0,0,0,3,2.37.63.63,0,0,1-.33,1.16Zm-5.49-7.9a.63.63,0,0,1-.61-.51l-.06-.34c-.2-1.06-.43-2.3-.71-3.64a.62.62,0,0,1,.49-.73.61.61,0,0,1,.74.48c.27,1.35.51,2.6.71,3.66l.06.34a.63.63,0,0,1-.5.73Zm-2.2-9.91a.62.62,0,0,1-.6-.45c-.4-1.4-.83-2.68-1.27-3.79a.62.62,0,1,1,1.16-.46c.46,1.15.9,2.47,1.32,3.91a.63.63,0,0,1-.43.77A.55.55,0,0,1,291.09,243.58Z"/><path class="cls-3" d="M284.63,235.32a.57.57,0,0,1-.18,0,.63.63,0,0,1-.42-.78l.58-1.91a.64.64,0,0,1,.35-.39.63.63,0,0,1,.52,0,6.28,6.28,0,0,1,1.77,1.32.64.64,0,0,1,0,.89.63.63,0,0,1-.89,0,6,6,0,0,0-.77-.68l-.35,1.15A.63.63,0,0,1,284.63,235.32Z"/><path class="cls-3" d="M281.27,246.36l-.18,0a.63.63,0,0,1-.42-.78l1.34-4.41a.63.63,0,0,1,1.2.36l-1.34,4.41A.64.64,0,0,1,281.27,246.36Z"/><path class="cls-3" d="M278.67,254.88a.55.55,0,0,1-.18,0,.61.61,0,0,1-.41-.78l.58-1.91a.62.62,0,1,1,1.19.36l-.58,1.91A.62.62,0,0,1,278.67,254.88Z"/><path class="cls-3" d="M352.43,533.68a.6.6,0,0,1-.46-.21.62.62,0,0,1,0-.88,5.59,5.59,0,0,0,1.14-1.4A.63.63,0,0,1,354,531a.62.62,0,0,1,.22.85,7.21,7.21,0,0,1-1.39,1.69A.61.61,0,0,1,352.43,533.68Z"/><path class="cls-3" d="M355.1,527.52H355a.63.63,0,0,1-.54-.7c.14-1,.23-2,.33-3.13h.63l.62.05c-.1,1.18-.19,2.23-.34,3.26A.63.63,0,0,1,355.1,527.52Zm.95-8h-.12a.63.63,0,0,1-.49-.74,15.64,15.64,0,0,1,1-3.22.62.62,0,1,1,1.14.5,15.3,15.3,0,0,0-.92,3A.62.62,0,0,1,356.05,519.47Z"/><path class="cls-3" d="M359.89,512.5a.63.63,0,0,1-.4-1.11,11.36,11.36,0,0,1,1.28-.93,3.49,3.49,0,0,1,0-1.84.63.63,0,1,1,1.21.32,2.17,2.17,0,0,0,.09,1.52.62.62,0,0,1-.25.81,11.2,11.2,0,0,0-1.55,1.08A.62.62,0,0,1,359.89,512.5Z"/><path class="cls-3" d="M365.13,504.55a.6.6,0,0,1-.47-.22.62.62,0,0,1,.06-.88c.93-.81,2-1.68,3.31-2.58a.62.62,0,0,1,.87.15.62.62,0,0,1-.14.87c-1.23.88-2.32,1.72-3.22,2.5A.59.59,0,0,1,365.13,504.55Zm8.46-5.94a.65.65,0,0,1-.54-.3.63.63,0,0,1,.21-.86c1.17-.72,2.38-1.43,3.58-2.12a.63.63,0,0,1,.62,1.09c-1.19.68-2.38,1.38-3.55,2.09A.55.55,0,0,1,373.59,498.61Zm9-5.13a.61.61,0,0,1-.55-.33.62.62,0,0,1,.25-.85l2.78-1.51.86-.46a.62.62,0,0,1,.84.25.61.61,0,0,1-.25.85l-.85.46-2.79,1.51A.6.6,0,0,1,382.58,493.48Z"/><path class="cls-3" d="M391.63,488.49a.63.63,0,0,1-.32-1.16c.58-.36,1-.65,1.32-.87,0-.59,0-1.18,0-1.75a.63.63,0,0,1,1.25,0,17.9,17.9,0,0,0,0,1.93.64.64,0,0,1-.2.51A11.3,11.3,0,0,1,392,488.4.62.62,0,0,1,391.63,488.49Z"/><path class="cls-3" d="M394.37,479.59a.52.52,0,0,1-.21,0,.63.63,0,0,1-.38-.8,24.9,24.9,0,0,1,1.72-3.65.62.62,0,0,1,.85-.24.63.63,0,0,1,.23.86,23.25,23.25,0,0,0-1.62,3.46A.63.63,0,0,1,394.37,479.59Zm5-8.43A.63.63,0,0,1,399,471a.62.62,0,0,1-.1-.88c.7-.9,1.47-1.84,2.5-3.07a.63.63,0,0,1,.88-.07.62.62,0,0,1,.08.88c-1,1.21-1.79,2.15-2.48,3A.62.62,0,0,1,399.37,471.16Zm6.29-7.57a.62.62,0,0,1-.39-.14.63.63,0,0,1-.1-.88c.92-1.13,1.7-2.15,2.37-3.1a.62.62,0,0,1,1,.72c-.69,1-1.48,2-2.42,3.17A.62.62,0,0,1,405.66,463.59Zm5.39-8.21a.66.66,0,0,1-.27-.06.62.62,0,0,1-.3-.83,20.6,20.6,0,0,0,1.28-3.59.62.62,0,0,1,1.21.31,22.63,22.63,0,0,1-1.36,3.81A.63.63,0,0,1,411.05,455.38Z"/><path class="cls-3" d="M413,445.82a.63.63,0,0,1-.63-.6c0-.52-.07-1-.14-1.58-.38-.16-.88-.4-1.53-.73a.62.62,0,1,1,.57-1.11c.82.42,1.4.68,1.75.82a.6.6,0,0,1,.39.49c.11.69.17,1.38.21,2.05a.62.62,0,0,1-.59.65Z"/><path class="cls-3" d="M406.16,440.45a.66.66,0,0,1-.3-.07l-3.18-1.71a.63.63,0,0,1-.25-.85.62.62,0,0,1,.84-.25l3.18,1.7a.63.63,0,0,1,.26.85A.62.62,0,0,1,406.16,440.45Zm-8-4.23a.58.58,0,0,1-.28-.07l-3.21-1.63a.62.62,0,0,1,.55-1.11c1.08.53,2.16,1.08,3.23,1.63a.62.62,0,0,1-.29,1.18Zm-8.1-4a.62.62,0,0,1-.26-.06c-1.18-.53-2.29-1-3.29-1.39a.63.63,0,0,1-.36-.81.62.62,0,0,1,.81-.35c1,.4,2.15.87,3.36,1.41a.64.64,0,0,1,.31.83A.62.62,0,0,1,390.09,432.27Z"/><path class="cls-3" d="M379.63,429.58a.64.64,0,0,1-.39-.14.62.62,0,0,1-.2-.68,4.34,4.34,0,0,0,.13-1.72.62.62,0,0,1,.55-.69.63.63,0,0,1,.69.55,6.71,6.71,0,0,1,0,1.18,6.5,6.5,0,0,1,1.23,0,.63.63,0,0,1,.55.7.62.62,0,0,1-.7.54,2.55,2.55,0,0,0-1.56.14A.62.62,0,0,1,379.63,429.58Z"/><path class="cls-3" d="M378.59,423.91a.63.63,0,0,1-.56-.35c-.33-.68-.73-1.41-1.22-2.22a.63.63,0,0,1,1.07-.65c.51.85.93,1.61,1.28,2.32a.63.63,0,0,1-.29.84A.71.71,0,0,1,378.59,423.91Z"/><path class="cls-3" d="M375.25,418.37a.63.63,0,0,1-.52-.28c-.34-.51-.65-1-.91-1.41h-1.64a.63.63,0,0,1,0-1.25h2a.63.63,0,0,1,.54.31c.28.48.64,1,1,1.66a.62.62,0,0,1-.18.86A.6.6,0,0,1,375.25,418.37Z"/><path class="cls-3" d="M368.8,416.68h-2.25a.63.63,0,1,1,0-1.25h2.25a.63.63,0,1,1,0,1.25Z"/><path class="cls-3" d="M363.15,416.68h-2a.63.63,0,0,1-.59-.4,6.29,6.29,0,0,1-.24-2.22.67.67,0,0,1,.64-.61.62.62,0,0,1,.61.64,8.42,8.42,0,0,0,.06,1.34h1.51a.63.63,0,1,1,0,1.25Z"/><path class="cls-3" d="M361.27,410.49h0a.63.63,0,0,1-.57-.68c.07-.88.1-1.51.1-2,0-.24,0-.47,0-.67a.62.62,0,0,1,.57-.68.64.64,0,0,1,.67.57q0,.36,0,.78c0,.56,0,1.22-.11,2.13A.62.62,0,0,1,361.27,410.49Z"/><path class="cls-3" d="M357.39,409.42h-.11c-.64-.12-1.29-.2-1.93-.26a.63.63,0,0,1-.57-.67.65.65,0,0,1,.68-.57c.55,0,1.11.11,1.66.2.37-.49.72-.92,1-1.3a.63.63,0,0,1,.95.82c-.37.43-.78.94-1.21,1.53A.64.64,0,0,1,357.39,409.42Z"/><path class="cls-3" d="M339.26,411.41a10.17,10.17,0,0,1-2.77-.37.63.63,0,0,1-.44-.77.62.62,0,0,1,.77-.43,9.76,9.76,0,0,0,3.55.26.63.63,0,0,1,.11,1.25C340.08,411.39,339.67,411.41,339.26,411.41Zm6.74-1.26a.62.62,0,0,1-.16-1.23c1.08-.28,2.38-.59,3.78-.81a.63.63,0,0,1,.19,1.24c-1.35.21-2.61.51-3.66.78Z"/><path class="cls-3" d="M331.73,408.26a.6.6,0,0,1-.4-.15c-.41-.35-.83-.74-1.25-1.15a6.63,6.63,0,0,1-1.8.18.63.63,0,1,1,0-1.25,5.44,5.44,0,0,0,1.78-.23.67.67,0,0,1,.63.16c.48.49,1,.94,1.42,1.34a.63.63,0,0,1,.07.88A.66.66,0,0,1,331.73,408.26Z"/><path class="cls-3" d="M325.05,406.42a.59.59,0,0,1-.23,0,16,16,0,0,1-2.09-1,.62.62,0,0,1-.23-.85.61.61,0,0,1,.85-.23,14.65,14.65,0,0,0,1.92.93.62.62,0,0,1-.22,1.2Z"/><path class="cls-3" d="M318.2,404a.67.67,0,0,1-.33-.1.63.63,0,0,1-.19-.87,3.8,3.8,0,0,0,.56-1.62.63.63,0,0,1,1.08-.34,16.1,16.1,0,0,0,1.39,1.32.63.63,0,0,1,.07.88.62.62,0,0,1-.88.08c-.24-.21-.47-.41-.69-.62a5.24,5.24,0,0,1-.48,1A.62.62,0,0,1,318.2,404Z"/><path class="cls-3" d="M308.34,407.92a.71.71,0,0,1-.28-.06.62.62,0,0,1-.27-.84,12.81,12.81,0,0,0,.71-1.77.61.61,0,0,1,.61-.43l1.15,0,.86,0a.63.63,0,0,1,.6.65.64.64,0,0,1-.64.6l-.87,0-.67,0a11.27,11.27,0,0,1-.64,1.5A.62.62,0,0,1,308.34,407.92Z"/><path class="cls-3" d="M292.05,415.75a.61.61,0,0,1-.62-.55.63.63,0,0,1,.55-.7c1.5-.17,2.64-.33,3.71-.51a.62.62,0,0,1,.72.51.63.63,0,0,1-.52.72c-1.08.19-2.24.35-3.77.53Zm9.22-1.91a.63.63,0,0,1-.22-1.21,15.48,15.48,0,0,0,3.23-1.64.62.62,0,0,1,.87.16.64.64,0,0,1-.16.87,16.38,16.38,0,0,1-3.5,1.78A.78.78,0,0,1,301.27,413.84Z"/><path class="cls-3" d="M284.43,416.68a.62.62,0,0,1-.1-1.24c.65-.11,1.32-.21,2-.29a.63.63,0,1,1,.16,1.24c-.66.08-1.32.18-1.95.28Z"/><path class="cls-3" d="M431.36,621.59h-.07a5.6,5.6,0,0,1-2.15-.62.63.63,0,0,1-.25-.85.62.62,0,0,1,.85-.24,4.51,4.51,0,0,0,1.68.47.62.62,0,0,1-.06,1.24Z"/><path class="cls-3" d="M428.13,615.31l-.15,0a.62.62,0,0,1-.45-.76,27.29,27.29,0,0,1,1.42-4.09.64.64,0,0,1,.82-.33.62.62,0,0,1,.33.82,26.41,26.41,0,0,0-1.36,3.91A.63.63,0,0,1,428.13,615.31Z"/><path class="cls-3" d="M432.16,605.54a.69.69,0,0,1-.24,0,.62.62,0,0,1-.33-.82,10.21,10.21,0,0,0,.42-1.15l-.61-.11-.78-.14a.62.62,0,0,1,.22-1.23l.77.14,1.18.21.12,0a.61.61,0,0,1,.41.47,4.49,4.49,0,0,1-.58,2.27A.64.64,0,0,1,432.16,605.54Z"/><path class="cls-3" d="M426,602.45h-.11l-3.17-.56a.62.62,0,0,1-.5-.72.62.62,0,0,1,.72-.51l3.17.56a.61.61,0,0,1,.5.72A.62.62,0,0,1,426,602.45Z"/><path class="cls-3" d="M418.07,601.06H418l-2-.35a.61.61,0,0,1-.44-.32c-.31-.57-.65-1.14-1-1.68a.63.63,0,0,1,1.06-.67c.31.48.61,1,.89,1.49l1.67.3a.62.62,0,0,1-.1,1.24Z"/><path class="cls-3" d="M411.35,594.45a.61.61,0,0,1-.43-.18A28.3,28.3,0,0,0,408,591.8a.63.63,0,0,1,.74-1,31,31,0,0,1,3.06,2.59.62.62,0,0,1,0,.88A.6.6,0,0,1,411.35,594.45Zm-8-5.58a.67.67,0,0,1-.28-.06c-1.11-.55-2.3-1.08-3.54-1.56a.63.63,0,1,1,.45-1.17c1.28.5,2.5,1,3.65,1.61a.64.64,0,0,1,.28.84A.63.63,0,0,1,403.34,588.87Zm-9.19-3.39-.16,0c-1.21-.32-2.48-.62-3.79-.89a.62.62,0,0,1-.48-.74.6.6,0,0,1,.73-.48c1.33.27,2.63.57,3.86.9a.63.63,0,0,1,.44.77A.62.62,0,0,1,394.15,585.48Zm-9.62-1.87h-.09c-1.24-.16-2.54-.31-3.88-.44a.63.63,0,0,1-.56-.68.63.63,0,0,1,.69-.56c1.34.13,2.66.28,3.92.45a.61.61,0,0,1,.53.7A.62.62,0,0,1,384.53,583.61Zm-9.78-.88h0c-1.31-.07-2.62-.12-3.91-.15a.63.63,0,0,1-.61-.65.62.62,0,0,1,.63-.6h0c1.3,0,2.61.09,3.93.15a.63.63,0,0,1,.59.66A.61.61,0,0,1,374.75,582.73ZM361,582.5a.63.63,0,0,1,0-1.25h3.93a.63.63,0,0,1,0,1.25H361Z"/><path class="cls-3" d="M353.13,582.57a.63.63,0,0,1,0-1.25h2a.67.67,0,0,1,.64.61.64.64,0,0,1-.62.64h-2Z"/><path class="cls-3" d="M392.14,121.6a.67.67,0,0,1-.3-.08.63.63,0,0,1-.25-.85l1-1.76a.63.63,0,0,1,.85-.25.61.61,0,0,1,.25.84l-.95,1.77A.62.62,0,0,1,392.14,121.6Z"/><path class="cls-3" d="M394.11,118a.62.62,0,0,1-.55-.92l1.8-3.34a.62.62,0,1,1,1.1.59l-1.8,3.34A.64.64,0,0,1,394.11,118Z"/><path class="cls-3" d="M398.61,109.61a.59.59,0,0,1-.29-.07.63.63,0,0,1-.26-.85c.41-.75.69-1.26.89-1.6a.47.47,0,0,1,.06-.15l0,0c.06-.1.12-.17.16-.23h0l0,0a.38.38,0,0,1,.21-.15l1.39-1a.62.62,0,1,1,.72,1L400,107.66l-.88,1.63A.6.6,0,0,1,398.61,109.61Z"/><path class="cls-3" d="M406,103.34a.64.64,0,0,1-.51-.27.63.63,0,0,1,.15-.87l3.18-2.25a.62.62,0,1,1,.72,1l-3.18,2.25A.6.6,0,0,1,406,103.34Zm7.94-5.62a.6.6,0,0,1-.51-.27.63.63,0,0,1,.15-.87l.75-.53a16.84,16.84,0,0,1,1.38-2.36.62.62,0,0,1,.87-.17.62.62,0,0,1,.16.87,15.4,15.4,0,0,0-1.34,2.33.75.75,0,0,1-.21.26l-.89.62A.62.62,0,0,1,413.89,97.72Zm5.94-7.6a.67.67,0,0,1-.42-.16.63.63,0,0,1-.05-.89c.85-.93,1.76-1.88,2.72-2.83a.63.63,0,0,1,.88.89c-.94.93-1.84,1.86-2.67,2.78A.6.6,0,0,1,419.83,90.12Zm7-6.75a.62.62,0,0,1-.4-1.1c1-.88,2.07-1.7,3.07-2.44a.63.63,0,1,1,.75,1c-1,.73-2,1.53-3,2.4A.65.65,0,0,1,426.82,83.37Z"/><path class="cls-3" d="M434.77,77.86a.63.63,0,0,1-.56-.35.62.62,0,0,1,.29-.83,13,13,0,0,1,1.94-.79.63.63,0,1,1,.36,1.2,11.49,11.49,0,0,0-1.75.71A.67.67,0,0,1,434.77,77.86Z"/><path class="cls-3" d="M391.63,122.55a.62.62,0,0,1-.5-1,5.44,5.44,0,0,0,.92-1.51.64.64,0,0,1,.78-.42.63.63,0,0,1,.42.78,6.49,6.49,0,0,1-1.13,1.92A.62.62,0,0,1,391.63,122.55Z"/><path class="cls-3" d="M388.11,117.64a.65.65,0,0,1-.55-.32l-2.06-3.66a.62.62,0,0,1,1.09-.61l2.06,3.66a.62.62,0,0,1-.24.85A.64.64,0,0,1,388.11,117.64ZM383,108.5a.6.6,0,0,1-.54-.32l-2.06-3.65a.62.62,0,0,1,1.09-.61l2.06,3.65a.63.63,0,0,1-.24.85A.68.68,0,0,1,383,108.5Zm-5.14-9.13a.63.63,0,0,1-.55-.32l-2-3.65a.62.62,0,0,1,1.09-.61l2.05,3.65a.62.62,0,0,1-.24.85A.54.54,0,0,1,377.82,99.37Zm-5.14-9.13a.64.64,0,0,1-.55-.31l-2.05-3.66a.62.62,0,1,1,1.08-.61l2.06,3.65a.62.62,0,0,1-.24.85A.54.54,0,0,1,372.68,90.24Zm-5.15-9.13a.61.61,0,0,1-.54-.31c-1-1.84-1.6-2.84-1.88-3.42a.63.63,0,0,1,.61-1.09.69.69,0,0,1,.31.3h0c0,.08.8,1.43,2,3.6a.62.62,0,0,1-.24.85A.58.58,0,0,1,367.53,81.11Zm-7.71-6.38a.67.67,0,0,1-.3-.08c-1.32-.7-2.55-1.42-3.65-2.11a.63.63,0,0,1,.67-1.06c1.08.68,2.28,1.38,3.57,2.07a.63.63,0,0,1,.26.85A.64.64,0,0,1,359.82,74.73Zm-8.6-5.87a.6.6,0,0,1-.43-.17A16.43,16.43,0,0,1,348,65.38a.62.62,0,1,1,1.06-.66,15.91,15.91,0,0,0,2.56,3.07.63.63,0,0,1,0,.88A.63.63,0,0,1,351.22,68.86Zm-4.48-9.1a.62.62,0,0,1-.62-.56l-.05-.5a11.35,11.35,0,0,0-.66-3.41.62.62,0,0,1,.33-.82.63.63,0,0,1,.82.34,12.71,12.71,0,0,1,.76,3.77l0,.49a.63.63,0,0,1-.56.69Z"/><path class="cls-3" d="M341.51,51.51a.71.71,0,0,1-.28-.06c-.54-.28-1.14-.55-1.78-.81a.63.63,0,0,1-.34-.81.64.64,0,0,1,.82-.35c.67.28,1.29.56,1.87.85a.63.63,0,0,1,.27.84A.62.62,0,0,1,341.51,51.51Z"/><path class="cls-3" d="M453.31,195.76a.64.64,0,0,1-.41-.16.62.62,0,0,1-.06-.88c.41-.47.89-1,1.43-1.48a.62.62,0,0,1,.86.9c-.51.5-1,1-1.35,1.4A.63.63,0,0,1,453.31,195.76Z"/><path class="cls-3" d="M459.3,190.43a.62.62,0,0,1-.38-1.12c1-.77,2.1-1.58,3.26-2.4a.63.63,0,0,1,.87.15.64.64,0,0,1-.15.88c-1.14.8-2.23,1.6-3.22,2.36A.6.6,0,0,1,459.3,190.43Zm8.25-5.73a.62.62,0,0,1-.53-.29.63.63,0,0,1,.19-.86c1.17-.75,2.33-1.45,3.45-2.11a.62.62,0,0,1,.86.22.64.64,0,0,1-.22.86c-1.11.65-2.26,1.35-3.42,2.08A.58.58,0,0,1,467.55,184.7Zm8-5.74a.67.67,0,0,1-.3-.08A.64.64,0,0,1,475,178c.59-1.06,1.25-2.25,2-3.52a.62.62,0,1,1,1.08.62c-.72,1.26-1.38,2.44-2,3.5A.64.64,0,0,1,475.52,179Zm5-8.71a.62.62,0,0,1-.53-.95c.69-1.14,1.39-2.3,2.11-3.44a.62.62,0,1,1,1.06.66c-.71,1.14-1.42,2.29-2.1,3.42A.63.63,0,0,1,480.54,170.25Zm5.39-8.49a.63.63,0,0,1-.52-1c.83-1.22,1.61-2.34,2.33-3.31a.62.62,0,0,1,1,.74c-.7,1-1.48,2.06-2.3,3.27A.61.61,0,0,1,485.93,161.76Zm4.67-8.53h-.05a.62.62,0,0,1-.58-.66,38.31,38.31,0,0,1,.51-4,.63.63,0,0,1,.73-.51.61.61,0,0,1,.5.72c-.24,1.37-.4,2.69-.49,3.92A.62.62,0,0,1,490.6,153.23Zm1.9-9.84-.18,0a.61.61,0,0,1-.42-.77c.35-1.22.77-2.52,1.23-3.86a.62.62,0,0,1,1.18.41c-.45,1.32-.86,2.6-1.21,3.8A.63.63,0,0,1,492.5,143.39Zm3.33-9.47a.64.64,0,0,1-.23,0,.62.62,0,0,1-.35-.81c.5-1.25,1-2.49,1.53-3.73a.62.62,0,0,1,.82-.33.61.61,0,0,1,.33.81c-.51,1.23-1,2.47-1.52,3.71A.61.61,0,0,1,495.83,133.92Zm3.89-9.27a.74.74,0,0,1-.25-.05.62.62,0,0,1-.32-.82c.53-1.25,1.06-2.49,1.56-3.7a.63.63,0,0,1,.82-.33.62.62,0,0,1,.34.81c-.51,1.22-1,2.46-1.58,3.71A.62.62,0,0,1,499.72,124.65Z"/><path class="cls-3" d="M503.5,115.38a.52.52,0,0,1-.21,0,.62.62,0,0,1-.37-.8c.23-.63.45-1.26.66-1.87a.63.63,0,0,1,.79-.39.61.61,0,0,1,.39.79c-.21.63-.43,1.26-.67,1.9A.63.63,0,0,1,503.5,115.38Z"/><path class="cls-3" d="M695.25,254.46h-.07l-2-.18a.62.62,0,0,1-.57-.67.64.64,0,0,1,.68-.58l2,.19a.63.63,0,0,1,.55.69A.62.62,0,0,1,695.25,254.46Z"/><path class="cls-3" d="M665.39,265.19a.63.63,0,0,1-.62-.55.62.62,0,0,1,.54-.7,22.58,22.58,0,0,0,4-.82.64.64,0,0,1,.79.42.63.63,0,0,1-.42.78,25,25,0,0,1-4.21.86Zm-5.46-2.77a.61.61,0,0,1-.32-.08c-1.3-.76-2.53-1.41-3.66-1.93a.62.62,0,1,1,.52-1.13,41.08,41.08,0,0,1,3.77,2,.62.62,0,0,1,.23.85A.63.63,0,0,1,659.93,262.42Zm14.9-1.26a.59.59,0,0,1-.43-.17.62.62,0,0,1,0-.88,23.5,23.5,0,0,0,1.55-1.83c.37-.46.74-.92,1.13-1.37a.63.63,0,0,1,.94.83c-.38.43-.73.87-1.09,1.32-.5.63-1,1.28-1.63,1.91A.61.61,0,0,1,674.83,261.16Zm-28.5-.92a.62.62,0,0,1-.46-.19.63.63,0,0,1,0-.89,5.9,5.9,0,0,1,4.21-1.58.64.64,0,0,1,.65.62.6.6,0,0,1-.59.63h-.06a4.65,4.65,0,0,0-3.36,1.25A.61.61,0,0,1,646.33,260.24Zm36.48-5.51a.62.62,0,0,1-.16-1.23,21,21,0,0,1,4.26-.62.62.62,0,0,1,.66.59.63.63,0,0,1-.59.66,19.28,19.28,0,0,0-4,.58Z"/><path class="cls-3" d="M641.45,261.58a.62.62,0,0,1-.51-.26,18.35,18.35,0,0,1-1.14-1.73.62.62,0,0,1,1.05-.67c.44.6.84,1.12,1.2,1.53a.63.63,0,0,1-.06.88l-.12.08,0,0A.62.62,0,0,1,641.45,261.58Z"/><path class="cls-3" d="M650,269.16a.66.66,0,0,1-.33-.09,33,33,0,0,1-3.81-2.71.62.62,0,0,1-.09-.88.64.64,0,0,1,.88-.09A32.7,32.7,0,0,0,650.3,268a.62.62,0,0,1,.21.86A.63.63,0,0,1,650,269.16Z"/><path class="cls-3" d="M659.41,274a.61.61,0,0,1-.48-.22,15.9,15.9,0,0,1-1.09-1.42,17.41,17.41,0,0,1-1.76-.38.63.63,0,0,1,.33-1.21,15.87,15.87,0,0,0,1.88.4.57.57,0,0,1,.43.27,17.66,17.66,0,0,0,1.16,1.53.63.63,0,0,1-.47,1Z"/><path class="cls-3" d="M667.86,281.34a.59.59,0,0,1-.35-.12c-1.27-.89-2.49-1.81-3.63-2.73a.64.64,0,0,1-.09-.88.62.62,0,0,1,.88-.09c1.11.91,2.31,1.81,3.55,2.68a.62.62,0,0,1,.16.87A.64.64,0,0,1,667.86,281.34Z"/><path class="cls-3" d="M675.39,285.78a.65.65,0,0,1-.26-.06c-.57-.26-1.18-.56-1.82-.9a.62.62,0,0,1-.26-.84.61.61,0,0,1,.84-.26c.62.33,1.21.62,1.76.86a.63.63,0,0,1,.31.83A.62.62,0,0,1,675.39,285.78Z"/><path class="cls-3" d="M581.39,480.56h-.08a11.17,11.17,0,0,1-2.07-.46.63.63,0,1,1,.39-1.19,9.51,9.51,0,0,0,1.84.41.63.63,0,0,1,.54.7A.63.63,0,0,1,581.39,480.56Z"/><path class="cls-3" d="M574,475.42a.65.65,0,0,1-.55-.32,28.71,28.71,0,0,1-1.61-3.51c-.14-.36-.28-.71-.42-1a.62.62,0,0,1,.33-.82.62.62,0,0,1,.82.33c.14.32.28.67.43,1a25.91,25.91,0,0,0,1.54,3.36.62.62,0,0,1-.23.85A.61.61,0,0,1,574,475.42Z"/><path class="cls-3" d="M565.92,473.54a.61.61,0,0,1-.34-.1.63.63,0,0,1-.18-.87c.4-.63.78-1.19,1.13-1.68a.61.61,0,0,1,.87-.14.63.63,0,0,1,.15.87c-.34.47-.71,1-1.1,1.63A.62.62,0,0,1,565.92,473.54Z"/><path class="cls-3" d="M285.54,232.34h0s-.12,0-.18,0a.61.61,0,0,1-.41-.78l.58-1.91h0c.12-.34.2-.37.43-.43a.63.63,0,0,1,.61.17.64.64,0,0,1,.14.62l-.58,1.91A.62.62,0,0,1,285.54,232.34Z"/><path class="cls-3" d="M413.08,444.23l-.13,0a.62.62,0,0,1-.48-.74v-.07l1.23.23-.14,0,.14,0-.57-.09.55.18-.09,0,.09,0A.63.63,0,0,1,413.08,444.23Zm-.61-.77.61.14Z"/><path class="cls-3" d="M374.67,417.64c-.14,0-.25-.08-.43-.33h0l-.33-.53-.25-.4h0a.62.62,0,0,1,1.06-.66l.58.93a.64.64,0,0,1-.36.94A1.05,1.05,0,0,1,374.67,417.64Z"/><path class="cls-3" d="M595.93,268.72a.68.68,0,0,1-.66-.64c0-.45.37-.61.73-.77a.63.63,0,0,1,.82.33.62.62,0,0,1-.08.64A1,1,0,0,1,595.93,268.72Z"/><path class="cls-3" d="M500.37,332.75a.94.94,0,0,1-.3-.07.62.62,0,0,1-.34-.81l0-.07a.75.75,0,0,1,.66-.49.69.69,0,0,1,.64.68A.7.7,0,0,1,500.37,332.75Z"/><path class="cls-3" d="M412.25,448.12h-.13a.63.63,0,0,1-.49-.62.49.49,0,0,1,0-.12l0-.21a.63.63,0,1,1,1.23.25l-.05.21A.62.62,0,0,1,412.25,448.12Z"/><path class="cls-3" d="M413.1,444.13l-.13,0a.62.62,0,0,1-.48-.74l0-.11a.62.62,0,0,1,.74-.48.64.64,0,0,1,.48.74l0,.12A.62.62,0,0,1,413.1,444.13Z"/><path class="cls-3" d="M484,367.37a.61.61,0,0,1-.6-.48L483,365a.65.65,0,0,1,.13-.55.54.54,0,0,1,.51-.22,10.58,10.58,0,0,0,1.88-.11.63.63,0,1,1,.17,1.24c-.46.06-.88.1-1.29.12l.28,1.17a.63.63,0,0,1-.46.76Z"/><path class="cls-3" d="M479.71,402.81a.71.71,0,0,1-.31-.08.62.62,0,0,1-.23-.85,4.34,4.34,0,0,0,.57-2.19,7.14,7.14,0,0,0-.21-1.63.61.61,0,0,1,.46-.75.62.62,0,0,1,.75.46,8,8,0,0,1,.25,1.92,5.53,5.53,0,0,1-.73,2.81A.64.64,0,0,1,479.71,402.81Zm-2.1-10.37a.63.63,0,0,1-.57-.35c-.56-1.18-1.21-2.56-1.8-4.06a.63.63,0,1,1,1.16-.47c.58,1.47,1.22,2.83,1.77,4a.61.61,0,0,1-.3.83A.48.48,0,0,1,477.61,392.44Zm.71-10a.61.61,0,0,1-.34-.1.63.63,0,0,1-.19-.86,10.88,10.88,0,0,1,3.15-3.41.61.61,0,0,1,.86.2.63.63,0,0,1-.2.86,9.58,9.58,0,0,0-2.75,3A.63.63,0,0,1,478.32,382.48Zm8.15-4.37a.62.62,0,0,1-.62-.54c-.12-.86-.44-2.32-.9-4.25a.63.63,0,0,1,.47-.75.63.63,0,0,1,.75.47c.46,2,.79,3.45.92,4.36a.64.64,0,0,1-.54.71Z"/><path class="cls-3" d="M474.64,407.82a.51.51,0,0,1-.17,0,7.56,7.56,0,0,0-1.83-.25.62.62,0,0,1-.2-1.21c.65-.25,1.26-.5,1.81-.75a.63.63,0,0,1,.66,1.05.63.63,0,0,1-.27,1.19Z"/><path class="cls-3" d="M475.13,422.45a.6.6,0,0,1-.22,0,.62.62,0,0,1-.36-.8c.37-1,.76-2,1.11-3.08a.63.63,0,0,1,1.19.4c-.36,1.05-.75,2.1-1.13,3.12A.64.64,0,0,1,475.13,422.45Zm2.43-7.86h-.11a.62.62,0,0,1-.51-.72,12.41,12.41,0,0,0,.2-2.06,8.17,8.17,0,0,0-.07-1,.62.62,0,0,1,.52-.71.61.61,0,0,1,.71.52,7.82,7.82,0,0,1,.09,1.21,12.76,12.76,0,0,1-.22,2.27A.61.61,0,0,1,477.56,414.59Z"/><path class="cls-3" d="M473.15,429.09a.73.73,0,0,1-.29-.07q-.9-.48-1.77-.9a.62.62,0,0,1,.55-1.12l1,.49a11.7,11.7,0,0,1,.27-1.16.62.62,0,1,1,1.2.34,7.78,7.78,0,0,0-.33,1.81.64.64,0,0,1-.31.52A.62.62,0,0,1,473.15,429.09Z"/><path class="cls-3" d="M435.15,429.49a.64.64,0,0,1-.63-.6.63.63,0,0,1,.61-.65,36.06,36.06,0,0,0,3.66-.33.63.63,0,1,1,.18,1.24,36,36,0,0,1-3.8.34Zm9.22-1.57a.62.62,0,0,1-.6-.44.63.63,0,0,1,.42-.78c1.23-.38,2.37-.78,3.52-1.19a.62.62,0,1,1,.43,1.17c-1.18.42-2.33.83-3.59,1.21A.57.57,0,0,1,444.37,427.92ZM466.18,426a.76.76,0,0,1-.21,0,29.08,29.08,0,0,0-3.53-1,.62.62,0,1,1,.27-1.22,30.75,30.75,0,0,1,3.68,1.06.62.62,0,0,1-.21,1.21Zm-12.9-1a.63.63,0,0,1-.61-.48.64.64,0,0,1,.46-.76,21,21,0,0,1,3.82-.57.65.65,0,0,1,.66.59.63.63,0,0,1-.59.66,19.39,19.39,0,0,0-3.59.54Z"/><path class="cls-3" d="M426.34,430.71a.6.6,0,0,1-.38-.13.63.63,0,0,1-.12-.88c.44-.57.82-1.11,1.15-1.59a.61.61,0,0,1,.6-.27c.67.09,1.33.16,2,.22a.63.63,0,0,1,.57.68.65.65,0,0,1-.69.57l-1.62-.18c-.29.41-.62.86-1,1.33A.64.64,0,0,1,426.34,430.71Z"/><path class="cls-3" d="M419.29,438.64a.62.62,0,0,1-.44-1.07c1-.95,2-2,2.93-3a.62.62,0,0,1,.88,0,.61.61,0,0,1,0,.88c-1,1.08-2,2.12-3,3.08A.62.62,0,0,1,419.29,438.64Z"/><path class="cls-3" d="M412.47,445.81h-.09a.62.62,0,0,1-.53-.71c.09-.64.19-1.3.28-2a.61.61,0,0,1,.33-.47,15.26,15.26,0,0,0,1.63-1,.62.62,0,0,1,.72,1,16.86,16.86,0,0,1-1.48.94c-.08.57-.17,1.13-.25,1.67A.62.62,0,0,1,412.47,445.81Z"/><path class="cls-3" d="M412.66,455.05c-1.13,0-1.7-.92-1.7-2.74q0-.35,0-.75a.61.61,0,0,1,.66-.59.64.64,0,0,1,.59.66c0,.24,0,.47,0,.68,0,.68.08,1.49.45,1.49a1.59,1.59,0,0,0,.65-.19.62.62,0,0,1,.82.32.61.61,0,0,1-.31.82A2.81,2.81,0,0,1,412.66,455.05Z"/><path class="cls-3" d="M418.63,450.8a.62.62,0,0,1-.43-1.07c.45-.43.92-.89,1.42-1.39a.65.65,0,0,1,.53-.18l2,.27a.63.63,0,0,1-.17,1.24l-1.68-.23c-.42.42-.83.82-1.22,1.19A.63.63,0,0,1,418.63,450.8Z"/><path class="cls-3" d="M433.69,451.25h-.09l-4.65-.63a.63.63,0,1,1,.16-1.24l4.66.63a.62.62,0,0,1-.08,1.24Z"/><path class="cls-3" d="M442.58,454.47h0a.63.63,0,0,1-.61-.65l0-.58c0-.27,0-.56,0-.85l-1.42-.2a.62.62,0,1,1,.17-1.23l2,.26a.64.64,0,0,1,.54.64c0,.5,0,1,0,1.42l0,.58A.63.63,0,0,1,442.58,454.47Z"/><path class="cls-3" d="M484.16,480.14a.63.63,0,0,1-.41-.15,12.51,12.51,0,0,1-2.77-3.5.62.62,0,0,1,.24-.85.63.63,0,0,1,.85.25,11.52,11.52,0,0,0,2.5,3.15.62.62,0,0,1,.06.88A.63.63,0,0,1,484.16,480.14Zm-4.69-9.35a.63.63,0,0,1-.62-.51,34.83,34.83,0,0,1-.52-4.31.62.62,0,0,1,.58-.66.65.65,0,0,1,.66.59,32.69,32.69,0,0,0,.51,4.15.62.62,0,0,1-.5.73ZM479,460.17H479a.63.63,0,0,1-.57-.68c0-.16,0-.32,0-.48a9.1,9.1,0,0,0-2.29-2,.62.62,0,0,1-.21-.86.63.63,0,0,1,.86-.2,10.59,10.59,0,0,1,2.78,2.49.66.66,0,0,1,.13.45c0,.24-.05.48-.07.72A.62.62,0,0,1,479,460.17Zm-33.86-1.28a.63.63,0,0,1-.11-1.24,22.47,22.47,0,0,0,3.55-1.13.57.57,0,0,1,.26,0l.4,0a.63.63,0,0,1,.6.65.6.6,0,0,1-.65.6l-.29,0a21.85,21.85,0,0,1-3.64,1.15Zm10.44-1.67a.61.61,0,0,1-.61-.52.62.62,0,0,1,.52-.72c1.2-.19,2.42-.42,3.66-.64l.52-.1a.63.63,0,0,1,.73.51.62.62,0,0,1-.5.72l-.52.1c-1.25.23-2.49.45-3.7.65Zm10.52-1.7a.62.62,0,0,1-.06-1.24,27.45,27.45,0,0,1,4.36-.14.63.63,0,0,1-.07,1.25,26.05,26.05,0,0,0-4.16.13Z"/><path class="cls-3" d="M491.06,484.36a.66.66,0,0,1-.27-.06.63.63,0,0,1-.29-.84c.14-.28.28-.57.43-.85q-.51,0-1-.06a.63.63,0,0,1,.12-1.25,13.34,13.34,0,0,0,1.91.05.57.57,0,0,1,.57.3.64.64,0,0,1,0,.64c-.32.55-.63,1.12-.92,1.72A.62.62,0,0,1,491.06,484.36Z"/><path class="cls-3" d="M491.38,505.47a.62.62,0,0,1-.51-.26,15.74,15.74,0,0,1-2.05-4.1.63.63,0,0,1,1.19-.39,14.46,14.46,0,0,0,1.88,3.77.63.63,0,0,1-.15.87A.61.61,0,0,1,491.38,505.47ZM488.49,495h0a.63.63,0,0,1-.62-.63,25.83,25.83,0,0,1,.5-4.5.62.62,0,1,1,1.22.25,25.13,25.13,0,0,0-.47,4.27A.61.61,0,0,1,488.49,495Z"/><path class="cls-3" d="M498.2,510.53a.64.64,0,0,1-.2,0,17.31,17.31,0,0,1-1.92-.82.62.62,0,0,1-.27-.84.63.63,0,0,1,.84-.28,13.54,13.54,0,0,0,1.45.64,12.47,12.47,0,0,1,1.48-.93.63.63,0,0,1,.6,1.1,10.91,10.91,0,0,0-1.59,1A.61.61,0,0,1,498.2,510.53Z"/><path class="cls-3" d="M504.79,507.66a.63.63,0,0,1-.14-1.24,24.22,24.22,0,0,1,3.54-.53.65.65,0,0,1,.67.58.64.64,0,0,1-.58.67,22.78,22.78,0,0,0-3.35.5Z"/><path class="cls-3" d="M515.33,508.13a.62.62,0,0,1-.26-.06,10.31,10.31,0,0,0-1.78-.6.62.62,0,1,1,.3-1.21,12.66,12.66,0,0,1,1.58.49,13,13,0,0,1,1.32-1,.62.62,0,1,1,.72,1,7.31,7.31,0,0,0-1.38,1.14A.61.61,0,0,1,515.33,508.13Z"/><path class="cls-3" d="M521.57,503.91a.6.6,0,0,1-.54-.32.62.62,0,0,1,.23-.85c1-.6,2.15-1.21,3.25-1.81a.63.63,0,0,1,.6,1.1c-1.1.59-2.19,1.2-3.23,1.79A.59.59,0,0,1,521.57,503.91Zm8.2-4.32a.64.64,0,0,1-.57-.36.62.62,0,0,1,.3-.83c1.45-.69,2.62-1.19,3.47-1.49a.62.62,0,0,1,.41,1.18c-.8.28-2,.78-3.35,1.43A.48.48,0,0,1,529.77,499.59Zm8.69-3.15a.63.63,0,0,1-.6-.43.64.64,0,0,1,.41-.79l2.64-.84.89-.28a.62.62,0,0,1,.79.41.64.64,0,0,1-.41.79l-.89.28-2.64.83A.63.63,0,0,1,538.46,496.44Zm8.81-2.86a.62.62,0,0,1-.59-.42.64.64,0,0,1,.38-.8c1.26-.44,2.39-.87,3.44-1.3a.63.63,0,0,1,.82.34.64.64,0,0,1-.34.82c-1.08.44-2.22.87-3.5,1.32A.52.52,0,0,1,547.27,493.58Zm8.49-3.69a.65.65,0,0,1-.55-.32.62.62,0,0,1,.25-.85,29.94,29.94,0,0,0,3.06-2,.62.62,0,0,1,.73,1,29.73,29.73,0,0,1-3.19,2A.64.64,0,0,1,555.76,489.89Zm7.14-5.8a.58.58,0,0,1-.38-.13.6.6,0,0,1-.11-.87,13.9,13.9,0,0,0,1.8-3,.63.63,0,0,1,.82-.32.62.62,0,0,1,.33.82,15.32,15.32,0,0,1-2,3.3A.62.62,0,0,1,562.9,484.09Z"/><path class="cls-3" d="M566,475.54h0a.63.63,0,0,1-.61-.65,15.7,15.7,0,0,0,0-1.93.59.59,0,0,1,.16-.47,11.64,11.64,0,0,0,1.18-1.5.63.63,0,0,1,1,.7,14.35,14.35,0,0,1-1.12,1.45c0,.61.05,1.21,0,1.79A.62.62,0,0,1,566,475.54Z"/><path class="cls-3" d="M568.92,466a.62.62,0,0,1-.62-.57,5.41,5.41,0,0,0-.47-1.74.66.66,0,0,1,0-.48c.28-.75.54-1.43.78-2.05a.64.64,0,0,1,.82-.35.63.63,0,0,1,.35.81c-.22.54-.44,1.14-.68,1.79a6.77,6.77,0,0,1,.46,1.9.61.61,0,0,1-.56.68Zm6-8.67a4.41,4.41,0,0,1-1.52-.32,1.4,1.4,0,0,0-.81-.18.63.63,0,0,1-.23-1.23l.33,0a3.28,3.28,0,0,1,1.14.26,2.53,2.53,0,0,0,2.36-.14.62.62,0,0,1,.86.22.64.64,0,0,1-.23.86A3.76,3.76,0,0,1,574.9,457.37Zm5.87-5a.69.69,0,0,1-.36-.11.63.63,0,0,1-.15-.87c.71-1,1.48-2.17,2.27-3.48a.63.63,0,1,1,1.07.65c-.81,1.33-1.59,2.53-2.32,3.55A.62.62,0,0,1,580.77,452.34Zm4.69-9.07a.62.62,0,0,1-.59-.42,21.28,21.28,0,0,0-1.49-3.05l-.34-.62a.63.63,0,0,1,1.1-.6l.33.61a21.49,21.49,0,0,1,1.58,3.25.63.63,0,0,1-.39.8A.69.69,0,0,1,585.46,443.27Z"/><path class="cls-3" d="M586.76,435.46h-.11a15,15,0,0,0-1.91-.25.63.63,0,0,1,.07-1.25l.59.05-.31-.47a.63.63,0,0,1,.19-.87.62.62,0,0,1,.86.19c.34.54.72,1.08,1.12,1.6a.63.63,0,0,1,0,.71A.62.62,0,0,1,586.76,435.46Z"/><path class="cls-3" d="M583.3,428.18a.62.62,0,0,1-.61-.52,10.18,10.18,0,0,1-.12-1.54,8.35,8.35,0,0,1,.47-2.8.62.62,0,0,1,.8-.37.64.64,0,0,1,.38.8,6.82,6.82,0,0,0-.4,2.37,8.73,8.73,0,0,0,.1,1.34.63.63,0,0,1-.52.72Zm4.4-8.38a.63.63,0,0,1-.28-1.19,14.4,14.4,0,0,1,4-1.3.63.63,0,0,1,.73.5.63.63,0,0,1-.51.73,12.9,12.9,0,0,0-3.69,1.19A.73.73,0,0,1,587.7,419.8Z"/><path class="cls-3" d="M599.66,418.81h-.13c-.64-.14-1.29-.25-1.92-.33a.63.63,0,0,1-.54-.7.64.64,0,0,1,.7-.54q.59.07,1.17.18a5.28,5.28,0,0,0-.25-1,.63.63,0,0,1,.39-.8.62.62,0,0,1,.79.38,8.39,8.39,0,0,1,.42,2.12.64.64,0,0,1-.22.52A.61.61,0,0,1,599.66,418.81Z"/><path class="cls-3" d="M593.74,412.15a.58.58,0,0,1-.33-.1,9.07,9.07,0,0,1-3.52-3.89.63.63,0,0,1,1.13-.54,7.9,7.9,0,0,0,3.06,3.38.62.62,0,0,1-.34,1.15Z"/><path class="cls-3" d="M589.17,401.21h0a.63.63,0,0,1-.63-.62q0-1,.06-2a.63.63,0,0,1,.67-.59,9.87,9.87,0,0,0,1.89,0,.64.64,0,0,1,.69.56.63.63,0,0,1-.56.69,11.72,11.72,0,0,1-1.47.06q0,.7,0,1.35A.62.62,0,0,1,589.17,401.21Z"/><path class="cls-3" d="M596.91,396.37a.65.65,0,0,1-.43-.17.63.63,0,0,1,0-.89,15.84,15.84,0,0,0,2.41-3.37.62.62,0,0,1,.85-.24.63.63,0,0,1,.24.86,17.25,17.25,0,0,1-2.6,3.62A.6.6,0,0,1,596.91,396.37Z"/><path class="cls-3" d="M602.23,387.05A.58.58,0,0,1,602,387a.62.62,0,0,1-.3-.83c.21-.45.42-.89.64-1.32l-1.18-.6a.63.63,0,0,1-.28-.84.62.62,0,0,1,.84-.28c1.94,1,2.19,1.09,2.06,1.65a.56.56,0,0,1-.13.24c-.28.55-.55,1.11-.82,1.68A.62.62,0,0,1,602.23,387.05Z"/><path class="cls-3" d="M595.47,381.44a.66.66,0,0,1-.27-.06l-4-1.86a.63.63,0,0,1,.53-1.14l4,1.87a.63.63,0,0,1,.29.84A.62.62,0,0,1,595.47,381.44Z"/><path class="cls-3" d="M582.3,377.37a.67.67,0,0,1-.47-.2.63.63,0,0,1,0-.89c.43-.39.89-.86,1.37-1.37a.63.63,0,0,1,.72-.15l1.81.84a.62.62,0,1,1-.52,1.13l-1.4-.64c-.39.41-.78.78-1.14,1.12A.61.61,0,0,1,582.3,377.37Z"/><path class="cls-3" d="M576.47,379a.55.55,0,0,1-.32-.1,9.91,9.91,0,0,1-3-3.53.64.64,0,0,1,.23-.86.62.62,0,0,1,.85.23,8.93,8.93,0,0,0,2.54,3.1.63.63,0,0,1,.21.86A.65.65,0,0,1,576.47,379Z"/><path class="cls-3" d="M570.55,370a.62.62,0,0,1-.52-.28c-.32-.49-.62-.92-.93-1.31a13.12,13.12,0,0,1-1.77,0,.64.64,0,0,1-.58-.67.66.66,0,0,1,.67-.58,10.88,10.88,0,0,0,1.9,0,.63.63,0,0,1,.54.22,19.94,19.94,0,0,1,1.22,1.68.63.63,0,0,1-.19.86A.61.61,0,0,1,570.55,370Z"/><path class="cls-3" d="M562.51,367.39l-.18,0c-1-.3-2.06-.68-3.17-1.12a.62.62,0,0,1,.46-1.16c1.08.43,2.11.79,3.07,1.09a.63.63,0,0,1,.42.78A.62.62,0,0,1,562.51,367.39Zm-7.67-3.12a.54.54,0,0,1-.27-.07c-1-.49-2-1-3-1.52a.62.62,0,0,1-.26-.84.63.63,0,0,1,.85-.26c.94.5,1.93,1,2.93,1.5a.63.63,0,0,1,.29.84A.64.64,0,0,1,554.84,364.27Z"/><path class="cls-3" d="M544.23,360.5a.63.63,0,0,1-.51-.25.64.64,0,0,1,.13-.88l1.61-1.19a.64.64,0,0,1,.7,0l1.71,1a.63.63,0,0,1-.63,1.08l-1.37-.81-1.27.95A.68.68,0,0,1,544.23,360.5Z"/><path class="cls-3" d="M540.87,363a.67.67,0,0,1-.28-.06l-.25-.12c-.5-.25-1-.5-1.55-.78a.62.62,0,0,1-.27-.84.63.63,0,0,1,.85-.27c.48.26,1,.49,1.43.72l1.31-1a.63.63,0,0,1,.74,1l-1.61,1.19A.63.63,0,0,1,540.87,363Z"/><path class="cls-3" d="M535.06,357h-.13a.64.64,0,0,1-.48-.75,5.13,5.13,0,0,1,.66-1.58,5.17,5.17,0,0,0-1.07-.75.63.63,0,0,1,.59-1.11,6.63,6.63,0,0,1,1.74,1.35.62.62,0,0,1,0,.78,4.59,4.59,0,0,0-.75,1.58A.62.62,0,0,1,535.06,357Z"/><path class="cls-3" d="M507.18,365.81a.61.61,0,0,1-.5-.26.62.62,0,0,1,.14-.87l.61-.45,2.7-2a.62.62,0,1,1,.73,1l-2.7,2-.61.45A.63.63,0,0,1,507.18,365.81Zm8.37-5.92a.62.62,0,0,1-.52-.28.61.61,0,0,1,.17-.86c1.22-.81,2.4-1.56,3.49-2.21a.62.62,0,1,1,.64,1.07c-1.08.65-2.23,1.38-3.44,2.18A.63.63,0,0,1,515.55,359.89Zm8.91-5a.64.64,0,0,1-.58-.38.63.63,0,0,1,.33-.82,24.31,24.31,0,0,1,4-1.35.63.63,0,1,1,.28,1.22,21.83,21.83,0,0,0-3.77,1.28A.69.69,0,0,1,524.46,354.86Z"/><path class="cls-3" d="M500.43,370.33a.57.57,0,0,1-.41-.16.61.61,0,0,1-.18-.66c.22-.68.4-1.3.55-1.88a.62.62,0,0,1,1.21.31l-.12.46.35-.21a.62.62,0,0,1,.67,1.05,16.59,16.59,0,0,1-1.8,1A.66.66,0,0,1,500.43,370.33Z"/><path class="cls-3" d="M490.43,364.11a.62.62,0,0,1-.59-.43.63.63,0,0,1,.41-.79c.56-.17,1.12-.36,1.68-.54l1.5-.48a.62.62,0,0,1,.38,1.19l-1.49.48-1.7.55A.62.62,0,0,1,490.43,364.11Zm10.82-.64a.63.63,0,0,1-.58-.39c-.2-.5-.61-1.07-2-1.07h-.13l0-1.25h.16a3.07,3.07,0,0,1,3.18,1.85.62.62,0,0,1-.35.81A.59.59,0,0,1,501.25,363.47Z"/><path class="cls-3" d="M412.71,445.94h-.13a.62.62,0,0,1-.48-.74l.07-.35a.63.63,0,0,1,1.23.27l-.08.34A.62.62,0,0,1,412.71,445.94Z"/><path class="cls-3" d="M413.15,444a.78.78,0,0,1-.31-.07h0l-.38-.19a.64.64,0,0,1-.34-.59.64.64,0,0,1,.39-.55.56.56,0,0,1,.52,0h0l.08,0,.17.08.13.07a.61.61,0,0,1,.33.46.63.63,0,0,1-.17.54A.6.6,0,0,1,413.15,444Zm-.16-.24h0Z"/><path class="cls-3" d="M412.86,445.25h-.13a.64.64,0,0,1-.48-.75l.22-1a.62.62,0,0,1,1.22.26h0l-.22,1A.62.62,0,0,1,412.86,445.25Z"/><path class="cls-3" d="M422.05,327.56a.59.59,0,0,1-.34-.1.63.63,0,0,1-.18-.87c.37-.57.73-1.14,1.06-1.68a.62.62,0,0,1,.86-.19.61.61,0,0,1,.2.86l-1.08,1.7A.63.63,0,0,1,422.05,327.56Z"/><path class="cls-3" d="M425.5,322a.61.61,0,0,1-.34-.1.62.62,0,0,1-.19-.86c1-1.54,1.36-1.94,1.86-1.94.18,0,.79.07.79,1.08,0,.11,0,.24,0,.39a.63.63,0,0,1-.68.57.58.58,0,0,1-.4-.19c-.13.19-.29.44-.49.76A.66.66,0,0,1,425.5,322Z"/><path class="cls-3" d="M427.36,328.66a.59.59,0,0,1-.34-.1c-.54-.35-1.1-.71-1.68-1.11a.61.61,0,0,1-.26-.66c.17-.7.32-1.35.45-1.94a.63.63,0,0,1,.74-.48.64.64,0,0,1,.48.75c-.11.48-.23,1-.35,1.54l1.3.85a.63.63,0,0,1-.34,1.15Z"/><path class="cls-3" d="M436.54,333.4a.39.39,0,0,1-.15,0,18.2,18.2,0,0,1-4-1.61.62.62,0,0,1,.57-1.11,17.76,17.76,0,0,0,3.7,1.51.62.62,0,0,1-.15,1.23Zm5.32-2.21a.61.61,0,0,1-.42-.16.64.64,0,0,1,0-.89,9.49,9.49,0,0,1,3.53-2.58.62.62,0,1,1,.47,1.15,8.29,8.29,0,0,0-3.08,2.28A.63.63,0,0,1,441.86,331.19Z"/><path class="cls-3" d="M453.42,330.2a.62.62,0,0,1-.61-.48,6.28,6.28,0,0,1-.16-1.58c-.48-.06-.94-.1-1.37-.13a.62.62,0,0,1-.58-.66.61.61,0,0,1,.66-.58c.65,0,1.33.11,2,.2a.61.61,0,0,1,.54.68,5.53,5.53,0,0,0,.1,1.79.63.63,0,0,1-.47.75Z"/><path class="cls-3" d="M462.61,335.72h-.1A25.74,25.74,0,0,1,458,334.6a.63.63,0,0,1-.37-.8.62.62,0,0,1,.8-.38,24,24,0,0,0,4.29,1.05.63.63,0,0,1-.1,1.25Z"/><path class="cls-3" d="M471.33,336.93a.7.7,0,0,1-.35-.07c-.45-.1-1-.19-1.7-.29a.63.63,0,0,1,.17-1.24c.48.07.89.13,1.26.2V334.3a.63.63,0,0,1,.62-.63h0a.63.63,0,0,1,.63.63v2a.34.34,0,0,1,0,.1A.62.62,0,0,1,471.33,336.93Z"/><path class="cls-3" d="M471.33,333.15a.62.62,0,0,1-.62-.62v-2a.62.62,0,0,1,1.22-.16,6.68,6.68,0,0,0,.72,1.67.62.62,0,0,1-.21.86.61.61,0,0,1-.61,0A.64.64,0,0,1,471.33,333.15Z"/><path class="cls-3" d="M478,335.77a8.9,8.9,0,0,1-.9,0,.61.61,0,0,1-.58-.67.63.63,0,0,1,.67-.57,15.43,15.43,0,0,0,3.82-.27.63.63,0,0,1,.72.51.62.62,0,0,1-.5.72A18.54,18.54,0,0,1,478,335.77Zm8.9-1.87a.62.62,0,0,1-.59-.43.61.61,0,0,1,.39-.79c1.3-.44,2.62-.93,3.74-1.35a.63.63,0,0,1,.44,1.17c-1.13.42-2.46.92-3.78,1.36A.51.51,0,0,1,486.93,333.9Z"/><path class="cls-3" d="M496.32,330.5a.63.63,0,0,1-.19-1.23c.4-.12.75-.22,1.08-.3-.21-.32-.4-.64-.58-1a.62.62,0,1,1,1.09-.6,17.57,17.57,0,0,0,1,1.62.62.62,0,0,1-.41,1,14.87,14.87,0,0,0-1.85.46Z"/><path class="cls-3" d="M495.68,323.47a.64.64,0,0,1-.63-.59c0-.25,0-.5,0-.75a12.74,12.74,0,0,1,.33-2.82.6.6,0,0,1,.74-.47.62.62,0,0,1,.48.74,11.57,11.57,0,0,0-.3,2.55c0,.22,0,.44,0,.67a.63.63,0,0,1-.58.67Zm2-8.23a.56.56,0,0,1-.25-.05.61.61,0,0,1-.32-.82l.06-.16a30.84,30.84,0,0,0,1.18-3,.62.62,0,0,1,.79-.4.61.61,0,0,1,.4.78,32.74,32.74,0,0,1-1.22,3.08l-.07.16A.62.62,0,0,1,497.69,315.24Zm1.24-8.17a.62.62,0,0,1-.57-.36,7.06,7.06,0,0,0-2-2.39.63.63,0,0,1-.08-.88.61.61,0,0,1,.87-.09,8.27,8.27,0,0,1,2.34,2.83.62.62,0,0,1-.29.83A.66.66,0,0,1,498.93,307.07Z"/><path class="cls-3" d="M492.35,301.83a.75.75,0,0,1-.26-.05c-.56-.26-1.16-.53-1.81-.79a.62.62,0,0,1-.36-.75,7,7,0,0,1,1-1.95.62.62,0,0,1,.87-.17.63.63,0,0,1,.17.86,7.65,7.65,0,0,0-.63,1.09c.46.19.89.38,1.3.57a.62.62,0,0,1-.26,1.19Z"/><path class="cls-3" d="M494.94,295.11a.65.65,0,0,1-.43-.17.62.62,0,0,1,0-.88l.81-.87c.56-.59,1.12-1.18,1.67-1.78a.63.63,0,0,1,.92.85c-.55.6-1.12,1.2-1.68,1.79l-.81.86A.65.65,0,0,1,494.94,295.11Zm5.92-6.88a.69.69,0,0,1-.34-.09.64.64,0,0,1-.19-.87,5.48,5.48,0,0,0,1.06-2.73,1.94,1.94,0,0,0,0-.24.63.63,0,0,1,1.25-.14c0,.12,0,.25,0,.38a6.54,6.54,0,0,1-1.25,3.4A.62.62,0,0,1,500.86,288.23Zm-3-6.27h-.12a15.4,15.4,0,0,0-1.54-.22.67.67,0,0,1-.36-.17c-.55-.5-1-1-1.47-1.43a.62.62,0,0,1,0-.88.63.63,0,0,1,.88,0c.38.4.81.81,1.27,1.25.52.05,1,.13,1.44.21a.63.63,0,0,1-.11,1.24Zm-6.16-6.06a.62.62,0,0,1-.59-.42,4.88,4.88,0,0,1-.27-1.56,5.43,5.43,0,0,1,.66-2.42.62.62,0,0,1,.84-.28.61.61,0,0,1,.28.83,4.09,4.09,0,0,0-.53,1.87,3.56,3.56,0,0,0,.21,1.16.63.63,0,0,1-.39.79Zm.39-8.58a.63.63,0,0,1-.53-.28,15.4,15.4,0,0,0-2.29-2.62.62.62,0,1,1,.86-.9,16.75,16.75,0,0,1,2.48,2.83.63.63,0,0,1-.18.87A.63.63,0,0,1,492.05,267.32Z"/><path class="cls-3" d="M485.43,261.09a.68.68,0,0,1-.38-.12c-.5-.38-1-.77-1.6-1.18a.63.63,0,0,1-.26-.47.64.64,0,0,1,.21-.5c.45-.42.92-.87,1.4-1.37a.64.64,0,0,1,.89,0,.63.63,0,0,1,0,.89l-.9.89,1,.75a.62.62,0,0,1,.12.87A.6.6,0,0,1,485.43,261.09Z"/><path class="cls-3" d="M489.66,253.11a.64.64,0,0,1-.35-.1.63.63,0,0,1-.17-.87,27.52,27.52,0,0,0,2.22-4,.62.62,0,0,1,.82-.32.63.63,0,0,1,.32.83,28.19,28.19,0,0,1-2.32,4.15A.62.62,0,0,1,489.66,253.11Z"/><path class="cls-3" d="M493.34,242.28a.62.62,0,0,1-.62-.58,9.84,9.84,0,0,0-.17-1.23,11.59,11.59,0,0,1-1.43.26.64.64,0,0,1-.7-.55.63.63,0,0,1,.55-.69,10,10,0,0,0,1.84-.39.58.58,0,0,1,.48,0,.65.65,0,0,1,.31.38,10.27,10.27,0,0,1,.37,2.09.63.63,0,0,1-.58.67Z"/><path class="cls-3" d="M486.3,240.35h-.15a22.26,22.26,0,0,1-3.11-1,.63.63,0,0,1,.48-1.16,20.15,20.15,0,0,0,2.93,1,.62.62,0,0,1-.15,1.23Zm-7.25-3.22a.66.66,0,0,1-.33-.09c-.9-.57-1.79-1.18-2.67-1.84a.63.63,0,0,1,.76-1c.84.64,1.71,1.23,2.57,1.78a.61.61,0,0,1,.2.86A.62.62,0,0,1,479.05,237.13Z"/><path class="cls-3" d="M472.8,232.21a.62.62,0,0,1-.44-.18c-.51-.49-1-1-1.41-1.47a.64.64,0,0,1-.13-.62c.22-.62.43-1.25.63-1.88a.64.64,0,0,1,.79-.41.62.62,0,0,1,.4.79c-.17.52-.34,1-.52,1.56.35.37.72.76,1.11,1.14a.61.61,0,0,1,0,.88A.59.59,0,0,1,472.8,232.21Z"/><path class="cls-3" d="M473.87,222.53h-.15a.63.63,0,0,1-.46-.76c.37-1.47.69-2.9.95-4.26a.63.63,0,1,1,1.23.23c-.27,1.39-.59,2.84-1,4.33A.62.62,0,0,1,473.87,222.53Zm1.82-10.83h0a.62.62,0,0,1-.58-.66c.06-.86.09-1.71.09-2.52,0-.61,0-1.21-.05-1.8a.63.63,0,0,1,.59-.66.64.64,0,0,1,.66.59c0,.61.05,1.23.05,1.87,0,.84,0,1.72-.09,2.6A.63.63,0,0,1,475.69,211.7Zm-1.32-10.81a.63.63,0,0,1-.57-.38,10.52,10.52,0,0,0-2.27-3.44.63.63,0,0,1,0-.89.64.64,0,0,1,.89,0A11.86,11.86,0,0,1,475,200a.63.63,0,0,1-.33.82A.7.7,0,0,1,474.37,200.89Zm-8.22-6.52H466a16.9,16.9,0,0,0-3-.26h0c-.39,0-.79,0-1.2,0a.63.63,0,1,1-.07-1.25c.43,0,.86,0,1.27,0h0a18.33,18.33,0,0,1,3.23.28.62.62,0,0,1-.11,1.24Z"/><path class="cls-3" d="M455.08,196.69a.67.67,0,0,1-.3-.08c-.54-.3-1.12-.6-1.75-.92a.62.62,0,0,1-.34-.61.64.64,0,0,1,.44-.55q1-.3,1.95-.54a.61.61,0,0,1,.76.45.62.62,0,0,1-.45.76l-.39.1.39.22a.62.62,0,0,1,.24.85A.63.63,0,0,1,455.08,196.69Z"/><path class="cls-3" d="M434.82,258.65a.6.6,0,0,1-.43-.18.62.62,0,0,1,0-.88c.95-1,1.79-1.9,2.58-2.81a.62.62,0,0,1,.94.82c-.8.92-1.66,1.86-2.62,2.86A.65.65,0,0,1,434.82,258.65Zm6.1-7.41a.59.59,0,0,1-.34-.1.63.63,0,0,1-.18-.87,29.06,29.06,0,0,0,1.88-3.25.62.62,0,0,1,1.12.54,31.57,31.57,0,0,1-1.95,3.4A.65.65,0,0,1,440.92,251.24Zm3.69-8.78h-.09a.63.63,0,0,1-.53-.71,13.46,13.46,0,0,0,.17-2.08,13.82,13.82,0,0,0-.1-1.58.63.63,0,0,1,.54-.7.64.64,0,0,1,.7.55,14.1,14.1,0,0,1,.11,1.73,14.44,14.44,0,0,1-.18,2.26A.63.63,0,0,1,444.61,242.46Zm-3-8.31a.6.6,0,0,1-.5-.25,5.24,5.24,0,0,1-1.08-3.24,5.93,5.93,0,0,1,.06-.84.62.62,0,1,1,1.23.16,5.27,5.27,0,0,0,0,.68,4,4,0,0,0,.83,2.49.62.62,0,0,1-.5,1Zm1.49-8.8a.62.62,0,0,1-.36-.12.64.64,0,0,1-.14-.88,34.33,34.33,0,0,1,2.52-3,.63.63,0,0,1,.89,0,.62.62,0,0,1,0,.88,30.1,30.1,0,0,0-2.42,2.88A.62.62,0,0,1,443.12,225.35Zm6.69-6.89a.64.64,0,0,1-.48-.22.63.63,0,0,1,.07-.88c1-.81,2-1.63,3-2.43a.62.62,0,0,1,.76,1c-1,.8-2,1.6-3,2.39A.62.62,0,0,1,449.81,218.46Zm7.6-5.83a.52.52,0,0,1-.27-.07.62.62,0,0,1-.29-.83l.43-.89c.44-.92.86-1.77,1.23-2.56a.62.62,0,1,1,1.13.52c-.37.8-.79,1.66-1.24,2.59l-.43.88A.62.62,0,0,1,457.41,212.63Zm3.42-8.92h0a.62.62,0,0,1-.59-.66v-.29a4.38,4.38,0,0,0-1-2.85.61.61,0,0,1,.1-.87.62.62,0,0,1,.88.09,5.67,5.67,0,0,1,1.31,3.63c0,.12,0,.24,0,.36A.62.62,0,0,1,460.83,203.71Z"/><path class="cls-3" d="M429.63,266a.63.63,0,0,1-.61-.5l-.12-.58c-.15-.77-.25-1.31-.27-1.38a.61.61,0,0,1,0-.14.61.61,0,0,1,.2-.45l1.45-1.36a.62.62,0,0,1,.88,0,.63.63,0,0,1,0,.89l-1.21,1.13c.05.24.12.57.21,1l.11.58a.62.62,0,0,1-.49.73Z"/><path class="cls-3" d="M429,272.69a.63.63,0,0,1-.32-1.17l1.33-.8-.3-1.53a.64.64,0,0,1,.5-.74.63.63,0,0,1,.73.5l.39,2a.63.63,0,0,1-.3.66l-1.71,1A.62.62,0,0,1,429,272.69Z"/><path class="cls-3" d="M427.15,273.8a.62.62,0,0,1-.53-.3.63.63,0,0,1,.21-.86l1.72-1a.62.62,0,0,1,.86.22.63.63,0,0,1-.22.86l-1.72,1A.62.62,0,0,1,427.15,273.8Z"/><path class="cls-3" d="M375.82,419.31a.62.62,0,0,1-.44-.18,1.25,1.25,0,0,1-.09-.12l-1.06-1.69a.65.65,0,0,1-.05-.56.61.61,0,0,1,.41-.37c.31-.09.47,0,.69.27h0l.21.34.12.18.73,1.17a.63.63,0,0,1-.2.87A.66.66,0,0,1,375.82,419.31Z"/><path class="cls-3" d="M379.63,425.41a.62.62,0,0,1-.53-.29l-1.06-1.7a.63.63,0,0,1,.2-.86.62.62,0,0,1,.77.09.31.31,0,0,1,.09.11l1.06,1.7a.62.62,0,0,1-.2.86A.66.66,0,0,1,379.63,425.41Z"/><path class="cls-3" d="M480.58,379.4a.6.6,0,0,1-.31-.08.62.62,0,0,1-.23-.85l1-1.74a.64.64,0,0,1,.71-.29.63.63,0,0,1,.46.61.51.51,0,0,1-.09.31h0l-.19.32a1.45,1.45,0,0,0-.1.18l-.72,1.23a.6.6,0,0,1-.09.13A.63.63,0,0,1,480.58,379.4Z"/><path class="cls-3" d="M477.42,384.87a.56.56,0,0,1-.31-.09.62.62,0,0,1-.23-.85l1-1.73a.63.63,0,0,1,.54-.31h0a.61.61,0,0,1,.32.08.62.62,0,0,1,.22.85l-1,1.74A.63.63,0,0,1,477.42,384.87Z"/><path class="cls-3" d="M475.63,388h0a.63.63,0,0,1-.54-.31c-.1-.18-.14-.25,0-.61l0,0,.7-1.2c.06-.09.12-.2.18-.31l.91-1.57a.63.63,0,0,1,.54-.31h0a.63.63,0,0,1,.54.31c.1.18.15.25,0,.61l0,0-.69,1.19-.19.33-.9,1.56A.65.65,0,0,1,475.63,388Z"/><path class="cls-3" d="M477.71,375.48a.63.63,0,0,1-.62-.54c0-.45-.12-.91-.19-1.4l-1.47.06a.61.61,0,0,1-.64-.62.63.63,0,0,1,.62-.63c.64,0,1.3,0,2-.09a.65.65,0,0,1,.67.51c.12.72.22,1.38.29,2a.62.62,0,0,1-.54.7Z"/><path class="cls-3" d="M459.72,377.54h-.12a.63.63,0,0,1-.49-.74,5.58,5.58,0,0,1,1.88-3.43.63.63,0,1,1,.79,1,4.39,4.39,0,0,0-1.44,2.71A.63.63,0,0,1,459.72,377.54Zm10.34-4.14h0c-1.26-.09-2.44-.16-3.53-.17a.62.62,0,0,1-.62-.62.63.63,0,0,1,.62-.63h0c1.12,0,2.32.09,3.6.17a.61.61,0,0,1,.58.66A.62.62,0,0,1,470.06,373.4Z"/><path class="cls-3" d="M460,384.87a.64.64,0,0,1-.62-.52q-.18-1.07-.3-2a.63.63,0,0,1,.55-.69.61.61,0,0,1,.69.54c.06.44.12.91.2,1.39.5,0,1,0,1.47-.05h0a.63.63,0,0,1,0,1.25c-.65,0-1.3,0-2,.09Z"/><path class="cls-3" d="M470.94,385.14h0c-1.12,0-2.32-.08-3.6-.16a.64.64,0,0,1-.59-.67.62.62,0,0,1,.67-.58c1.26.08,2.44.16,3.53.16a.63.63,0,0,1,0,1.25Zm5.1-1.24a.62.62,0,0,1-.49-.23.63.63,0,0,1,.09-.87,4.48,4.48,0,0,0,1.45-2.71.63.63,0,0,1,1.23.24,5.59,5.59,0,0,1-1.89,3.43A.57.57,0,0,1,476,383.9Z"/><path class="cls-4" d="M477.42,384.24Z"/><path class="cls-3" d="M499.46,334.54a.75.75,0,0,1-.26-.05.64.64,0,0,1-.31-.83c.21-.47.44-1,.67-1.44a17.49,17.49,0,0,1-1.85-2.52.62.62,0,0,1,1.09-.61,13.21,13.21,0,0,0,1.93,2.56l0,0a.63.63,0,0,1,.15.66.53.53,0,0,1-.08.15c-.28.59-.54,1.15-.79,1.7A.62.62,0,0,1,499.46,334.54Z"/><path class="cls-3" d="M501.05,353.44a.6.6,0,0,1-.45-.19,10.82,10.82,0,0,0-1.73-1.33,13.32,13.32,0,0,1-1.7-1.26.63.63,0,0,1,.84-.93,12.21,12.21,0,0,0,1.55,1.15,11.38,11.38,0,0,1,1.93,1.5.63.63,0,0,1-.44,1.06ZM496,344.81h-.09a.62.62,0,0,1-.53-.7,26.32,26.32,0,0,1,1.07-4.33.63.63,0,0,1,.79-.39.62.62,0,0,1,.4.79,23.67,23.67,0,0,0-1,4.1A.64.64,0,0,1,496,344.81Z"/><path class="cls-3" d="M501.64,361.55l-.19,0a.62.62,0,0,1-.41-.78c.2-.66.36-1.29.49-1.88a.63.63,0,0,1,.74-.49.63.63,0,0,1,.48.74,20.48,20.48,0,0,1-.52,2A.63.63,0,0,1,501.64,361.55Z"/><path class="cls-3" d="M656.78,303.55l-.19,0-1.91-.58a.63.63,0,0,1-.42-.78.61.61,0,0,1,.78-.41l1.92.58a.62.62,0,0,1-.18,1.22Z"/><path class="cls-3" d="M651.07,301.82l-.19,0-2.53-.76a.63.63,0,0,1,.37-1.2l2.53.77a.62.62,0,0,1-.18,1.22Z"/><path class="cls-3" d="M644.74,299.9l-.18,0-1.91-.58a.66.66,0,0,1-.43-.43c-.19-.7-.36-1.36-.49-2a.61.61,0,0,1,.47-.74.63.63,0,0,1,.75.47c.11.5.24,1,.39,1.58l1.58.48a.63.63,0,0,1,.42.78A.62.62,0,0,1,644.74,299.9Z"/><path class="cls-3" d="M642,293.17h-.1a.62.62,0,0,1-.52-.71,5.13,5.13,0,0,1,1.34-2.85.62.62,0,1,1,.91.85,4,4,0,0,0-1,2.19A.61.61,0,0,1,642,293.17Z"/><path class="cls-3" d="M646.84,288.59a.63.63,0,0,1-.59-.43.62.62,0,0,1,.4-.79c.44-.14.9-.27,1.4-.4-.08-.45-.18-.9-.28-1.36a.62.62,0,0,1,1.22-.27c.15.67.28,1.34.4,2a.63.63,0,0,1-.47.72c-.71.16-1.32.33-1.88.51A.69.69,0,0,1,646.84,288.59Z"/><path class="cls-3" d="M646.68,279.88a.61.61,0,0,1-.59-.43c-.44-1.34-.93-2.69-1.45-4a.62.62,0,1,1,1.16-.46c.53,1.34,1,2.71,1.48,4.08a.64.64,0,0,1-.4.79A.69.69,0,0,1,646.68,279.88ZM642.54,270a.61.61,0,0,1-.55-.34c-.66-1.28-1.37-2.53-2.1-3.7a.62.62,0,0,1,.21-.86.63.63,0,0,1,.86.2c.74,1.2,1.46,2.48,2.14,3.79a.62.62,0,0,1-.27.84A.59.59,0,0,1,642.54,270Zm-5.85-9a.62.62,0,0,1-.48-.23,35.87,35.87,0,0,0-2.86-3.11.62.62,0,0,1,0-.88.63.63,0,0,1,.89,0,40.22,40.22,0,0,1,3,3.22.62.62,0,0,1-.09.88A.67.67,0,0,1,636.69,261Zm-8-7.11a.62.62,0,0,1-.32-.09,21.23,21.23,0,0,0-3.76-1.81.63.63,0,0,1-.37-.81.63.63,0,0,1,.8-.37,23.05,23.05,0,0,1,4,1.92.62.62,0,0,1,.21.85A.63.63,0,0,1,628.7,253.86Z"/><path class="cls-3" d="M615.53,252.58a.62.62,0,0,1-.53-1c.32-.53.65-1.1,1-1.71a.6.6,0,0,1,.5-.32,20.33,20.33,0,0,1,2.06-.06.63.63,0,0,1,.62.64.6.6,0,0,1-.64.61c-.54,0-1.07,0-1.61,0-.29.52-.57,1-.84,1.46A.65.65,0,0,1,615.53,252.58Z"/><path class="cls-3" d="M607.74,259.61a.63.63,0,0,1-.14-1.24,7.38,7.38,0,0,0,3.53-1.79.62.62,0,0,1,.88.05.63.63,0,0,1-.06.89,8.53,8.53,0,0,1-4.08,2.07Z"/><path class="cls-3" d="M601.53,266.65a.62.62,0,0,1-.59-.42.63.63,0,0,1,.39-.8l1.5-.49c.11-.61.22-1.16.34-1.65a.63.63,0,0,1,.75-.46.62.62,0,0,1,.46.75q-.18.78-.36,1.77a.65.65,0,0,1-.43.64h-.05l-1.81.62A.64.64,0,0,1,601.53,266.65Z"/><path class="cls-3" d="M596.6,268.05a.58.58,0,0,1-.33-.1.62.62,0,0,1-.19-.86,3.42,3.42,0,0,0,.47-1.89,8.56,8.56,0,0,0-.2-1.7.62.62,0,0,1,.47-.74.64.64,0,0,1,.75.48,9,9,0,0,1,.23,2,4.65,4.65,0,0,1-.67,2.56A.62.62,0,0,1,596.6,268.05Z"/><path class="cls-3" d="M594.8,258.11a.64.64,0,0,1-.58-.39c-.2-.49-.42-1-.58-1.55l-1.59-.21a.63.63,0,1,1,.18-1.24c.81.11,1.51.21,2,.26a.64.64,0,0,1,.53.47,13.59,13.59,0,0,0,.65,1.79.63.63,0,0,1-.34.82A.69.69,0,0,1,594.8,258.11Z"/><path class="cls-3" d="M586.51,255.16h-.09l-2-.27a.61.61,0,0,1-.54-.7.62.62,0,0,1,.7-.54l2,.27a.63.63,0,0,1-.09,1.25Z"/><path class="cls-3" d="M452.43,558.68l-.14,0a11.77,11.77,0,0,0-1.88-.29.64.64,0,0,1-.58-.67.63.63,0,0,1,.67-.58,13.19,13.19,0,0,1,2.08.33.62.62,0,0,1-.15,1.23Z"/><path class="cls-3" d="M437.08,564a4.33,4.33,0,0,1-1.28-.2.62.62,0,1,1,.36-1.19,3.37,3.37,0,0,0,2.63-.32.63.63,0,0,1,.56,1.12A5.15,5.15,0,0,1,437.08,564Zm5.92-3.25a.64.64,0,0,1-.51-.27.63.63,0,0,1,.15-.87,15.64,15.64,0,0,1,2.89-1.65.63.63,0,0,1,.48,1.16,13.92,13.92,0,0,0-2.65,1.51A.6.6,0,0,1,443,560.72Z"/><path class="cls-3" d="M432.22,560.9a.61.61,0,0,1-.47-.21c-.27-.31-.54-.65-.82-1a6.53,6.53,0,0,1-1.1.88.63.63,0,0,1-.67-1.06,5.38,5.38,0,0,0,1.34-1.2.71.71,0,0,1,.5-.23.65.65,0,0,1,.49.26c.41.56.82,1.08,1.21,1.53a.63.63,0,0,1-.07.88A.58.58,0,0,1,432.22,560.9Z"/><path class="cls-3" d="M426.38,561.53a9.61,9.61,0,0,1-2-.23.62.62,0,0,1-.47-.75.61.61,0,0,1,.74-.47,8.45,8.45,0,0,0,1.74.2h.16a.63.63,0,0,1,0,1.25Z"/><path class="cls-3" d="M418.81,561.06a.66.66,0,0,1-.35-.11.63.63,0,0,1-.17-.87c.33-.5.66-1.06,1-1.66a.57.57,0,0,1,.38-.31.61.61,0,0,1,.49.06c.59.35,1.17.65,1.71.91a.62.62,0,1,1-.53,1.13c-.41-.19-.83-.41-1.25-.64-.24.43-.49.83-.74,1.21A.64.64,0,0,1,418.81,561.06Z"/><path class="cls-3" d="M409.16,565.58a.63.63,0,0,1-.27-1.19,7.27,7.27,0,0,1,2.71-.53,15,15,0,0,0,1.83-.2.62.62,0,0,1,.24,1.22,15.08,15.08,0,0,1-2,.23,6.21,6.21,0,0,0-2.26.41A.66.66,0,0,1,409.16,565.58Z"/><path class="cls-3" d="M406.67,573.54a.65.65,0,0,1-.31-.08c-.58-.33-1.15-.64-1.74-.93a.63.63,0,0,1-.27-.84.61.61,0,0,1,.83-.28l.9.46c0-.35,0-.68.06-1a.63.63,0,0,1,.67-.58.62.62,0,0,1,.57.67c0,.6-.07,1.25-.09,2a.61.61,0,0,1-.31.53A.71.71,0,0,1,406.67,573.54Z"/><path class="cls-3" d="M399.09,570.18a.63.63,0,0,1-.19,0c-1.28-.43-2.62-.81-4-1.14a.63.63,0,0,1-.46-.76.65.65,0,0,1,.76-.46c1.4.34,2.77.74,4.08,1.18a.62.62,0,0,1-.2,1.21Zm-10.21-2.29h-.09c-1.32-.18-2.71-.32-4.14-.43a.62.62,0,0,1-.57-.67.65.65,0,0,1,.67-.58c1.45.11,2.86.26,4.21.44a.63.63,0,0,1-.08,1.25Zm-25.15-.42a.63.63,0,0,1-.62-.6.61.61,0,0,1,.6-.65l4.2-.15a.63.63,0,0,1,.64.61.62.62,0,0,1-.6.64l-4.2.15Zm14.68-.3h0c-1.4,0-2.79,0-4.18,0h0a.64.64,0,0,1-.63-.62.63.63,0,0,1,.62-.63c1.41,0,2.81,0,4.21,0a.63.63,0,1,1,0,1.25Z"/><path class="cls-3" d="M355.43,567.68a.63.63,0,0,1,0-1.25l2,0a.63.63,0,0,1,0,1.25l-2,0Z"/><path class="cls-3" d="M637.78,262.52a.62.62,0,0,1-.44-.18.63.63,0,0,1,0-.89l2.57-2.61a.63.63,0,0,1,.89.88l-2.57,2.61A.63.63,0,0,1,637.78,262.52Z"/><path class="cls-3" d="M601.07,419.15l-.18,0-1.91-.59a.62.62,0,1,1,.37-1.19l1.91.58a.62.62,0,0,1,.41.78A.63.63,0,0,1,601.07,419.15Z"/><path class="cls-3" d="M608.78,421.51l-.18,0-1.91-.58a.63.63,0,1,1,.36-1.2l1.92.59a.62.62,0,0,1-.19,1.22Z"/><path class="cls-3" d="M271.43,91.68h-.09a.62.62,0,0,1-.52-.71l.59-3.95a.62.62,0,0,1,.71-.53.62.62,0,0,1,.52.71l-.59,4A.62.62,0,0,1,271.43,91.68Zm1.49-9.89h-.1a.62.62,0,0,1-.52-.71l.59-3.95a.62.62,0,0,1,.71-.53.63.63,0,0,1,.53.71l-.6,4A.61.61,0,0,1,272.92,81.79Zm1.48-9.89h-.09a.63.63,0,0,1-.53-.71l0-.22a.61.61,0,0,1,.71-.52.62.62,0,0,1,.52.71l0,.22A.62.62,0,0,1,274.4,71.9Z"/><path class="cls-3" d="M528.91,519.67a.59.59,0,0,1-.52-.32,7,7,0,0,1-.84-3.2.61.61,0,0,1,.58-.61.57.57,0,0,1,.59.56v0a5.9,5.9,0,0,0,.71,2.67.57.57,0,0,1-.26.78A.48.48,0,0,1,528.91,519.67Zm2-7.61a.58.58,0,0,1-.34-1.06,12.5,12.5,0,0,1,3.19-1.58l.3-.11a.58.58,0,0,1,.75.35.58.58,0,0,1-.35.74l-.31.12a11.78,11.78,0,0,0-2.91,1.43A.59.59,0,0,1,530.89,512.06Zm8.38-4.08a.58.58,0,0,1-.32-1.07,8.56,8.56,0,0,0,2.59-2.3.59.59,0,0,1,1,.63,10.06,10.06,0,0,1-2.95,2.65A.56.56,0,0,1,539.27,508Zm-9.61-3.13a.52.52,0,0,1-.24-.05,8.11,8.11,0,0,1-3.24-2.36.58.58,0,0,1,.94-.69h0a7.18,7.18,0,0,0,2.77,2,.58.58,0,0,1-.23,1.12Zm5.42-.12a.59.59,0,0,1-.19-1.14c.45-.15.91-.31,1.36-.48.73-.26,1.49-.54,2.2-.74a.58.58,0,0,1,.33,1.12c-.67.19-1.38.45-2.14.72l-1.37.49Z"/><path class="cls-3" d="M465.59,547.81a.63.63,0,0,1-.37-.12L462,545.3a.62.62,0,0,1-.12-.87.61.61,0,0,1,.87-.13l3.21,2.38a.63.63,0,0,1-.37,1.13Zm-9.1-3.45h-.1l-2.91-.49a.62.62,0,0,1-.52-.62v-1a.63.63,0,1,1,1.25,0v.52l2.39.41a.62.62,0,0,1,.51.72A.63.63,0,0,1,456.49,544.36Zm-2.9-7.55a.62.62,0,0,1-.62-.52h-2.86a.63.63,0,1,1,0-1.25h3.48a.63.63,0,0,1,.62.63v.52A.62.62,0,0,1,453.59,536.81Zm-9.48-.52h-4a.63.63,0,1,1,0-1.25h4a.63.63,0,0,1,0,1.25Zm-4.63-5.37a.63.63,0,0,1-.63-.62v-3l-.27-.64a.62.62,0,1,1,1.14-.49l.33.75a.66.66,0,0,1,.05.25v3.18A.62.62,0,0,1,439.48,530.92Zm-2.72-9.43a.62.62,0,0,1-.57-.38l-1.6-3.67a.63.63,0,0,1,1.15-.5l1.59,3.67a.61.61,0,0,1-.32.82A.57.57,0,0,1,436.76,521.49Zm-4.32-9a.63.63,0,0,1-.52-.27L429.61,509a.62.62,0,1,1,1-.72l2.31,3.26a.63.63,0,0,1-.5,1Zm-7-5.78h-4a.63.63,0,1,1,0-1.25h4a.63.63,0,0,1,0,1.25Zm-9.85-.66a.66.66,0,0,1-.27-.06l-3.61-1.72a.63.63,0,0,1-.3-.83.64.64,0,0,1,.84-.3l3.61,1.72a.63.63,0,0,1,.29.84A.62.62,0,0,1,415.57,506.07Zm-9.34-3.29h-.09l-4-.59a.62.62,0,0,1-.52-.71.61.61,0,0,1,.71-.53l3.95.59a.62.62,0,0,1-.09,1.24Zm-9.89-1.47h-.09l-4-.59a.63.63,0,0,1,.19-1.24l3.95.59a.62.62,0,0,1,.53.71A.63.63,0,0,1,396.34,501.31Zm-9.94-1h0l-4-.05a.63.63,0,0,1-.62-.63.63.63,0,0,1,.63-.62h0l4,.05a.62.62,0,0,1,.62.63A.64.64,0,0,1,386.4,500.33Zm-10-.13a.45.45,0,0,1-.2,0c-.7-.23-1.74-.66-3.1-1.27a.62.62,0,0,1,.51-1.14c1.32.6,2.33,1,3,1.23a.62.62,0,0,1,.4.79A.63.63,0,0,1,376.43,500.2Z"/></svg>